<svg width="24" height="24" viewBox="0 0 24 24" fill="none" xmlns="http://www.w3.org/2000/svg">
<g clip-path="url(#clip0_3068_10730)">
<path fill-rule="evenodd" clip-rule="evenodd" d="M10.5869 2.1C10.9409 1.74648 11.4146 1.53846 11.9144 1.51698C12.4142 1.49551 12.9039 1.66214 13.2869 1.984L13.4149 2.101L15.3149 4H18.0009C18.5054 4.00009 18.9911 4.19077 19.3609 4.53384C19.7306 4.8769 19.9571 5.34702 19.9949 5.85L20.0009 6V8.686L21.9009 10.586C22.2548 10.94 22.4629 11.4139 22.4844 11.9139C22.5059 12.414 22.3391 12.9039 22.0169 13.287L21.8999 13.414L19.9999 15.314V18C20.0001 18.5046 19.8095 18.9906 19.4664 19.3605C19.1234 19.7305 18.6531 19.9572 18.1499 19.995L18.0009 20H15.3159L13.4159 21.9C13.0619 22.2538 12.5881 22.462 12.088 22.4835C11.588 22.505 11.098 22.3382 10.7149 22.016L10.5879 21.9L8.68795 20H6.00095C5.49637 20.0002 5.01038 19.8096 4.6404 19.4665C4.27042 19.1234 4.04379 18.6532 4.00595 18.15L4.00095 18V15.314L2.10095 13.414C1.74714 13.06 1.53894 12.5861 1.51747 12.0861C1.49599 11.586 1.6628 11.0961 1.98495 10.713L2.10095 10.586L4.00095 8.686V6C4.00104 5.4956 4.19172 5.00986 4.53478 4.64009C4.87785 4.27032 5.34796 4.04383 5.85095 4.006L6.00095 4H8.68695L10.5869 2.1ZM15.0799 8.983L10.8359 13.227L9.06795 11.459C8.88031 11.2715 8.62586 11.1662 8.36059 11.1663C8.09532 11.1664 7.84096 11.2719 7.65345 11.4595C7.46594 11.6471 7.36065 11.9016 7.36074 12.1669C7.36084 12.4321 7.46631 12.6865 7.65395 12.874L10.0579 15.278C10.1601 15.3802 10.2814 15.4613 10.4149 15.5166C10.5484 15.5719 10.6914 15.6004 10.8359 15.6004C10.9804 15.6004 11.1235 15.5719 11.257 15.5166C11.3905 15.4613 11.5118 15.3802 11.6139 15.278L16.4939 10.397C16.6761 10.2084 16.7769 9.9558 16.7746 9.6936C16.7723 9.4314 16.6672 9.18059 16.4818 8.99518C16.2964 8.80977 16.0455 8.70461 15.7833 8.70233C15.5212 8.70005 15.2685 8.80084 15.0799 8.983Z" fill="#3D6AFE"/>
</g>
<defs>
<clipPath id="clip0_3068_10730">
<rect width="24" height="24" fill="white"/>
</clipPath>
</defs>
</svg>
