<svg width="32" height="32" viewBox="0 0 32 32" fill="none" xmlns="http://www.w3.org/2000/svg">
<path d="M24.2612 22.4476L24.1072 13.0576C24.0072 12.1656 23.5192 10.9686 21.8482 10.9686C19.8982 11.0616 19.8222 13.0566 19.8222 13.0566L16.8522 7.75161C16.1092 6.62161 14.8912 6.54361 14.1292 7.00861C13.3662 7.47361 13.2002 8.41661 13.2002 8.41661L12.5822 7.61161C12.1162 6.84961 10.7242 6.76161 10.0142 7.19461C8.83519 7.91361 8.66419 9.40361 9.42619 10.2266C9.37619 10.1726 8.79419 9.97061 7.81719 10.5666C7.05519 11.0316 6.81919 12.4226 7.24519 13.2116C7.67019 14.0016 7.73219 14.1246 7.73219 14.1246C7.73219 14.1246 7.07519 13.8146 6.03819 14.5116C5.29719 15.0096 5.03119 16.4876 5.49719 17.2496L7.99319 21.4586L11.4282 27.0716C13.4482 29.9346 17.7542 30.9226 20.8832 29.0216C23.0172 27.7256 24.4642 24.9876 24.2612 22.4476Z" fill="#FF9D25"/>
<path d="M24.2612 22.4476L24.1072 13.0576C24.0072 12.1656 23.5192 10.9686 21.8482 10.9686C19.8982 11.0616 19.8222 13.0566 19.8222 13.0566L16.8522 7.75161C16.1092 6.62161 14.8912 6.54361 14.1292 7.00861C13.3662 7.47361 13.2002 8.41661 13.2002 8.41661L12.5822 7.61161C12.1162 6.84961 10.7242 6.76161 10.0142 7.19461C8.83519 7.91361 8.66419 9.40361 9.42619 10.2266C9.37619 10.1726 8.79419 9.97061 7.81719 10.5666C7.05519 11.0316 6.81919 12.4226 7.24519 13.2116C7.67019 14.0016 7.73219 14.1246 7.73219 14.1246C7.73219 14.1246 7.07519 13.8146 6.03819 14.5116C5.29719 15.0096 5.03119 16.4876 5.49719 17.2496L7.99319 21.4586L11.4282 27.0716C13.4482 29.9346 17.7542 30.9226 20.8832 29.0216C23.0172 27.7256 24.4642 24.9876 24.2612 22.4476Z" fill="url(#paint0_linear_1505_12959)"/>
<path d="M24.2612 22.4476L24.1072 13.0576C24.0072 12.1656 23.5192 10.9686 21.8482 10.9686C19.8982 11.0616 19.8222 13.0566 19.8222 13.0566L16.8522 7.75161C16.1092 6.62161 14.8912 6.54361 14.1292 7.00861C13.3662 7.47361 13.2002 8.41661 13.2002 8.41661L12.5822 7.61161C12.1162 6.84961 10.7242 6.76161 10.0142 7.19461C8.83519 7.91361 8.66419 9.40361 9.42619 10.2266C9.37619 10.1726 8.79419 9.97061 7.81719 10.5666C7.05519 11.0316 6.81919 12.4226 7.24519 13.2116C7.67019 14.0016 7.73219 14.1246 7.73219 14.1246C7.73219 14.1246 7.07519 13.8146 6.03819 14.5116C5.29719 15.0096 5.03119 16.4876 5.49719 17.2496L7.99319 21.4586L11.4282 27.0716C13.4482 29.9346 17.7542 30.9226 20.8832 29.0216C23.0172 27.7256 24.4642 24.9876 24.2612 22.4476Z" fill="url(#paint1_radial_1505_12959)"/>
<path d="M24.2612 22.4476L24.1072 13.0576C24.0072 12.1656 23.5192 10.9686 21.8482 10.9686C19.8982 11.0616 19.8222 13.0566 19.8222 13.0566L16.8522 7.75161C16.1092 6.62161 14.8912 6.54361 14.1292 7.00861C13.3662 7.47361 13.2002 8.41661 13.2002 8.41661L12.5822 7.61161C12.1162 6.84961 10.7242 6.76161 10.0142 7.19461C8.83519 7.91361 8.66419 9.40361 9.42619 10.2266C9.37619 10.1726 8.79419 9.97061 7.81719 10.5666C7.05519 11.0316 6.81919 12.4226 7.24519 13.2116C7.67019 14.0016 7.73219 14.1246 7.73219 14.1246C7.73219 14.1246 7.07519 13.8146 6.03819 14.5116C5.29719 15.0096 5.03119 16.4876 5.49719 17.2496L7.99319 21.4586L11.4282 27.0716C13.4482 29.9346 17.7542 30.9226 20.8832 29.0216C23.0172 27.7256 24.4642 24.9876 24.2612 22.4476Z" fill="url(#paint2_radial_1505_12959)"/>
<path d="M24.2612 22.4476L24.1072 13.0576C24.0072 12.1656 23.5192 10.9686 21.8482 10.9686C19.8982 11.0616 19.8222 13.0566 19.8222 13.0566L16.8522 7.75161C16.1092 6.62161 14.8912 6.54361 14.1292 7.00861C13.3662 7.47361 13.2002 8.41661 13.2002 8.41661L12.5822 7.61161C12.1162 6.84961 10.7242 6.76161 10.0142 7.19461C8.83519 7.91361 8.66419 9.40361 9.42619 10.2266C9.37619 10.1726 8.79419 9.97061 7.81719 10.5666C7.05519 11.0316 6.81919 12.4226 7.24519 13.2116C7.67019 14.0016 7.73219 14.1246 7.73219 14.1246C7.73219 14.1246 7.07519 13.8146 6.03819 14.5116C5.29719 15.0096 5.03119 16.4876 5.49719 17.2496L7.99319 21.4586L11.4282 27.0716C13.4482 29.9346 17.7542 30.9226 20.8832 29.0216C23.0172 27.7256 24.4642 24.9876 24.2612 22.4476Z" fill="url(#paint3_radial_1505_12959)"/>
<path d="M24.2612 22.4476L24.1072 13.0576C24.0072 12.1656 23.5192 10.9686 21.8482 10.9686C19.8982 11.0616 19.8222 13.0566 19.8222 13.0566L16.8522 7.75161C16.1092 6.62161 14.8912 6.54361 14.1292 7.00861C13.3662 7.47361 13.2002 8.41661 13.2002 8.41661L12.5822 7.61161C12.1162 6.84961 10.7242 6.76161 10.0142 7.19461C8.83519 7.91361 8.66419 9.40361 9.42619 10.2266C9.37619 10.1726 8.79419 9.97061 7.81719 10.5666C7.05519 11.0316 6.81919 12.4226 7.24519 13.2116C7.67019 14.0016 7.73219 14.1246 7.73219 14.1246C7.73219 14.1246 7.07519 13.8146 6.03819 14.5116C5.29719 15.0096 5.03119 16.4876 5.49719 17.2496L7.99319 21.4586L11.4282 27.0716C13.4482 29.9346 17.7542 30.9226 20.8832 29.0216C23.0172 27.7256 24.4642 24.9876 24.2612 22.4476Z" fill="url(#paint4_radial_1505_12959)"/>
<path d="M24.2612 22.4476L24.1072 13.0576C24.0072 12.1656 23.5192 10.9686 21.8482 10.9686C19.8982 11.0616 19.8222 13.0566 19.8222 13.0566L16.8522 7.75161C16.1092 6.62161 14.8912 6.54361 14.1292 7.00861C13.3662 7.47361 13.2002 8.41661 13.2002 8.41661L12.5822 7.61161C12.1162 6.84961 10.7242 6.76161 10.0142 7.19461C8.83519 7.91361 8.66419 9.40361 9.42619 10.2266C9.37619 10.1726 8.79419 9.97061 7.81719 10.5666C7.05519 11.0316 6.81919 12.4226 7.24519 13.2116C7.67019 14.0016 7.73219 14.1246 7.73219 14.1246C7.73219 14.1246 7.07519 13.8146 6.03819 14.5116C5.29719 15.0096 5.03119 16.4876 5.49719 17.2496L7.99319 21.4586L11.4282 27.0716C13.4482 29.9346 17.7542 30.9226 20.8832 29.0216C23.0172 27.7256 24.4642 24.9876 24.2612 22.4476Z" fill="url(#paint5_radial_1505_12959)"/>
<path d="M24.2612 22.4476L24.1072 13.0576C24.0072 12.1656 23.5192 10.9686 21.8482 10.9686C19.8982 11.0616 19.8222 13.0566 19.8222 13.0566L16.8522 7.75161C16.1092 6.62161 14.8912 6.54361 14.1292 7.00861C13.3662 7.47361 13.2002 8.41661 13.2002 8.41661L12.5822 7.61161C12.1162 6.84961 10.7242 6.76161 10.0142 7.19461C8.83519 7.91361 8.66419 9.40361 9.42619 10.2266C9.37619 10.1726 8.79419 9.97061 7.81719 10.5666C7.05519 11.0316 6.81919 12.4226 7.24519 13.2116C7.67019 14.0016 7.73219 14.1246 7.73219 14.1246C7.73219 14.1246 7.07519 13.8146 6.03819 14.5116C5.29719 15.0096 5.03119 16.4876 5.49719 17.2496L7.99319 21.4586L11.4282 27.0716C13.4482 29.9346 17.7542 30.9226 20.8832 29.0216C23.0172 27.7256 24.4642 24.9876 24.2612 22.4476Z" fill="url(#paint6_radial_1505_12959)"/>
<path d="M24.2612 22.4476L24.1072 13.0576C24.0072 12.1656 23.5192 10.9686 21.8482 10.9686C19.8982 11.0616 19.8222 13.0566 19.8222 13.0566L16.8522 7.75161C16.1092 6.62161 14.8912 6.54361 14.1292 7.00861C13.3662 7.47361 13.2002 8.41661 13.2002 8.41661L12.5822 7.61161C12.1162 6.84961 10.7242 6.76161 10.0142 7.19461C8.83519 7.91361 8.66419 9.40361 9.42619 10.2266C9.37619 10.1726 8.79419 9.97061 7.81719 10.5666C7.05519 11.0316 6.81919 12.4226 7.24519 13.2116C7.67019 14.0016 7.73219 14.1246 7.73219 14.1246C7.73219 14.1246 7.07519 13.8146 6.03819 14.5116C5.29719 15.0096 5.03119 16.4876 5.49719 17.2496L7.99319 21.4586L11.4282 27.0716C13.4482 29.9346 17.7542 30.9226 20.8832 29.0216C23.0172 27.7256 24.4642 24.9876 24.2612 22.4476Z" fill="url(#paint7_radial_1505_12959)"/>
<path d="M24.2612 22.4476L24.1072 13.0576C24.0072 12.1656 23.5192 10.9686 21.8482 10.9686C19.8982 11.0616 19.8222 13.0566 19.8222 13.0566L16.8522 7.75161C16.1092 6.62161 14.8912 6.54361 14.1292 7.00861C13.3662 7.47361 13.2002 8.41661 13.2002 8.41661L12.5822 7.61161C12.1162 6.84961 10.7242 6.76161 10.0142 7.19461C8.83519 7.91361 8.66419 9.40361 9.42619 10.2266C9.37619 10.1726 8.79419 9.97061 7.81719 10.5666C7.05519 11.0316 6.81919 12.4226 7.24519 13.2116C7.67019 14.0016 7.73219 14.1246 7.73219 14.1246C7.73219 14.1246 7.07519 13.8146 6.03819 14.5116C5.29719 15.0096 5.03119 16.4876 5.49719 17.2496L7.99319 21.4586L11.4282 27.0716C13.4482 29.9346 17.7542 30.9226 20.8832 29.0216C23.0172 27.7256 24.4642 24.9876 24.2612 22.4476Z" fill="url(#paint8_radial_1505_12959)"/>
<path fill-rule="evenodd" clip-rule="evenodd" d="M7.69387 14.1089C7.59021 14.086 7.48539 14.0687 7.37987 14.0569C7.53187 14.0619 7.63987 14.0899 7.69387 14.1089ZM7.73387 14.1169L7.82787 14.1409C8.15387 14.2279 8.45388 14.3659 8.65588 14.5459C8.75788 14.6359 8.91087 14.8209 9.10787 15.1009C9.29987 15.3719 9.51087 15.7009 9.72987 16.0539C9.90787 16.3399 10.0919 16.6449 10.2719 16.9439C10.5269 17.3659 10.7729 17.7719 10.9749 18.0839C11.0469 18.1953 11.1602 18.2735 11.2899 18.3014C11.4196 18.3292 11.555 18.3044 11.6664 18.2324C11.7778 18.1604 11.856 18.0471 11.8838 17.9174C11.9117 17.7877 11.8869 17.6523 11.8149 17.5409C11.586 17.1812 11.3623 16.8181 11.1439 16.4519C10.9639 16.1529 10.7739 15.8389 10.5799 15.5269C10.3714 15.1868 10.1533 14.8527 9.92587 14.5249C9.72387 14.2389 9.51488 13.9709 9.32088 13.7979C8.96088 13.4779 8.49687 13.2839 8.08587 13.1749C7.78769 13.0943 7.48072 13.0506 7.17188 13.0449C7.19443 13.1021 7.22048 13.1579 7.24987 13.2119C7.61987 13.8989 7.71487 14.0819 7.73287 14.1169H7.73387Z" fill="url(#paint9_radial_1505_12959)"/>
<path fill-rule="evenodd" clip-rule="evenodd" d="M9.37675 10.1986C9.30256 10.1782 9.22705 10.1628 9.15075 10.1526C9.22795 10.1567 9.30411 10.1722 9.37675 10.1986ZM9.40875 10.2076C9.68875 10.2896 10.0238 10.4596 10.4008 10.7956C10.4298 10.8206 10.4967 10.8956 10.6037 11.0466C10.7037 11.1886 10.8237 11.3706 10.9557 11.5866C11.2217 12.0166 11.5307 12.5566 11.8457 13.1206C12.0127 13.4166 12.1817 13.7206 12.3457 14.0186C12.7997 14.8366 13.2248 15.6036 13.4858 16.0056C13.5202 16.0633 13.566 16.1133 13.6202 16.1529C13.6745 16.1924 13.7361 16.2207 13.8015 16.2359C13.8669 16.2511 13.9347 16.253 14.0008 16.2414C14.0669 16.2299 14.1301 16.2051 14.1864 16.1686C14.2428 16.1321 14.2912 16.0847 14.3289 16.0291C14.3665 15.9735 14.3925 15.9109 14.4055 15.845C14.4184 15.7791 14.4179 15.7113 14.404 15.6456C14.3901 15.5799 14.3632 15.5177 14.3247 15.4626C14.0848 15.0906 13.6877 14.3766 13.2437 13.5746L12.7188 12.6316C12.4252 12.1023 12.1211 11.5789 11.8067 11.0616C11.684 10.8594 11.5546 10.6613 11.4187 10.4676C11.3163 10.3155 11.1979 10.1748 11.0658 10.0476C10.2698 9.34065 9.53575 9.14465 8.96875 9.13965C8.99575 9.53565 9.14375 9.91265 9.40875 10.2076Z" fill="url(#paint10_radial_1505_12959)"/>
<path fill-rule="evenodd" clip-rule="evenodd" d="M13.2031 8.41547L13.2941 8.56347L14.5571 10.5915C15.3284 11.8351 16.1061 13.0748 16.8901 14.3105C16.963 14.42 17.0762 14.4964 17.205 14.5231C17.3338 14.5497 17.468 14.5246 17.5784 14.453C17.6888 14.3814 17.7665 14.2692 17.7947 14.1407C17.823 14.0122 17.7994 13.8777 17.7291 13.7665C16.9482 12.5361 16.1735 11.3017 15.4051 10.0635L14.1441 8.03547L13.7441 7.39047L13.7211 7.35547C13.4643 7.66109 13.2864 8.02507 13.2031 8.41547Z" fill="url(#paint11_radial_1505_12959)"/>
<g filter="url(#filter0_f_1505_12959)">
<path fill-rule="evenodd" clip-rule="evenodd" d="M23.1525 13.6695L23.2945 22.3115C23.4815 24.6495 22.1495 27.1695 20.1855 28.3625C19.8155 28.5875 19.4265 28.7685 19.0275 28.9075C16.8735 28.9295 14.7245 27.9335 13.4915 26.1865L11.0525 22.8625L9.46448 20.1075C9.03248 19.3985 9.27948 18.0245 9.96848 17.5615C10.9315 16.9145 11.5425 17.2025 11.5425 17.2025C11.5425 17.2025 10.7525 15.9315 10.3575 15.1975C9.96148 14.4645 10.1735 13.3465 10.8825 12.9135C11.7905 12.3595 12.5315 13.0115 12.5775 13.0625C11.9835 12.2575 11.9355 10.4495 13.0305 9.78048C13.6905 9.37748 14.8855 9.28348 15.3185 9.99248L15.8935 10.7405C15.8935 10.7405 16.0475 9.86348 16.7565 9.43048L16.8165 9.39648L19.2085 13.6705C19.2085 13.6705 19.2585 12.4065 20.2985 11.9275L22.0485 15.0535C22.0485 15.0535 22.0955 13.8235 23.0925 13.3195C23.1205 13.4395 23.1395 13.5575 23.1525 13.6695Z" fill="#F06B0C"/>
</g>
<path d="M29.9532 22.3719V12.8869C29.8532 11.9869 29.2032 10.7769 27.5162 10.7769C25.5462 10.8719 25.4692 12.8869 25.4692 12.8869L22.4692 7.52687C21.7192 6.38687 20.4892 6.30687 19.7192 6.77687C18.9492 7.24687 18.7802 8.19986 18.7802 8.19986L18.1552 7.38687C17.6852 6.61687 16.2792 6.52687 15.5622 6.96487C14.3712 7.69187 14.1982 9.19687 14.9682 10.0279C14.9182 9.97287 14.0562 9.86386 13.3432 10.3719C12.5482 10.9379 12.3352 12.2469 12.7652 13.0429C13.1952 13.8399 13.2572 13.9649 13.2572 13.9649C13.2572 13.9649 12.5932 13.6529 11.5462 14.3559C10.7972 14.8589 10.5292 16.3519 10.9992 17.1219L13.5202 21.3719L16.9902 27.0419C19.0302 29.9339 23.3802 30.9319 26.5402 29.0119C28.6952 27.7039 30.1572 24.9369 29.9522 22.3719H29.9532Z" fill="#FFC03C"/>
<path d="M29.9532 22.3719V12.8869C29.8532 11.9869 29.2032 10.7769 27.5162 10.7769C25.5462 10.8719 25.4692 12.8869 25.4692 12.8869L22.4692 7.52687C21.7192 6.38687 20.4892 6.30687 19.7192 6.77687C18.9492 7.24687 18.7802 8.19986 18.7802 8.19986L18.1552 7.38687C17.6852 6.61687 16.2792 6.52687 15.5622 6.96487C14.3712 7.69187 14.1982 9.19687 14.9682 10.0279C14.9182 9.97287 14.0562 9.86386 13.3432 10.3719C12.5482 10.9379 12.3352 12.2469 12.7652 13.0429C13.1952 13.8399 13.2572 13.9649 13.2572 13.9649C13.2572 13.9649 12.5932 13.6529 11.5462 14.3559C10.7972 14.8589 10.5292 16.3519 10.9992 17.1219L13.5202 21.3719L16.9902 27.0419C19.0302 29.9339 23.3802 30.9319 26.5402 29.0119C28.6952 27.7039 30.1572 24.9369 29.9522 22.3719H29.9532Z" fill="url(#paint12_radial_1505_12959)"/>
<path d="M29.9532 22.3719V12.8869C29.8532 11.9869 29.2032 10.7769 27.5162 10.7769C25.5462 10.8719 25.4692 12.8869 25.4692 12.8869L22.4692 7.52687C21.7192 6.38687 20.4892 6.30687 19.7192 6.77687C18.9492 7.24687 18.7802 8.19986 18.7802 8.19986L18.1552 7.38687C17.6852 6.61687 16.2792 6.52687 15.5622 6.96487C14.3712 7.69187 14.1982 9.19687 14.9682 10.0279C14.9182 9.97287 14.0562 9.86386 13.3432 10.3719C12.5482 10.9379 12.3352 12.2469 12.7652 13.0429C13.1952 13.8399 13.2572 13.9649 13.2572 13.9649C13.2572 13.9649 12.5932 13.6529 11.5462 14.3559C10.7972 14.8589 10.5292 16.3519 10.9992 17.1219L13.5202 21.3719L16.9902 27.0419C19.0302 29.9339 23.3802 30.9319 26.5402 29.0119C28.6952 27.7039 30.1572 24.9369 29.9522 22.3719H29.9532Z" fill="url(#paint13_radial_1505_12959)"/>
<path d="M29.9532 22.3719V12.8869C29.8532 11.9869 29.2032 10.7769 27.5162 10.7769C25.5462 10.8719 25.4692 12.8869 25.4692 12.8869L22.4692 7.52687C21.7192 6.38687 20.4892 6.30687 19.7192 6.77687C18.9492 7.24687 18.7802 8.19986 18.7802 8.19986L18.1552 7.38687C17.6852 6.61687 16.2792 6.52687 15.5622 6.96487C14.3712 7.69187 14.1982 9.19687 14.9682 10.0279C14.9182 9.97287 14.0562 9.86386 13.3432 10.3719C12.5482 10.9379 12.3352 12.2469 12.7652 13.0429C13.1952 13.8399 13.2572 13.9649 13.2572 13.9649C13.2572 13.9649 12.5932 13.6529 11.5462 14.3559C10.7972 14.8589 10.5292 16.3519 10.9992 17.1219L13.5202 21.3719L16.9902 27.0419C19.0302 29.9339 23.3802 30.9319 26.5402 29.0119C28.6952 27.7039 30.1572 24.9369 29.9522 22.3719H29.9532Z" fill="url(#paint14_radial_1505_12959)"/>
<path d="M27.5158 10.7773C25.5458 10.8713 25.4688 12.8873 25.4688 12.8873L27.3438 15.9673C27.3438 15.9673 26.3588 13.1713 27.5158 10.7773Z" fill="url(#paint15_linear_1505_12959)"/>
<g filter="url(#filter1_f_1505_12959)">
<path d="M29.6929 22.7496L29.1299 13.7966C29.0399 12.9866 28.7739 11.1866 27.2549 11.1866L26.9419 16.3436L24.5359 12.5616L22.0989 8.24963C21.6589 7.58163 21.3639 7.48363 21.0209 7.40563C20.6769 7.32763 19.6609 7.32763 19.8799 7.70263C20.0989 8.07763 22.6299 11.8586 23.5519 13.4366C23.8949 14.0256 22.5029 15.0306 21.9739 14.2806C21.4439 13.5306 17.7239 7.99963 17.7239 7.99963C17.3009 7.30663 15.8169 7.03763 15.8169 7.70263C15.8169 8.37763 19.3789 12.7666 20.1769 14.9366C20.4949 15.8016 19.3119 16.3726 18.8799 15.7026C18.4479 15.0326 16.6299 12.0306 15.7239 10.8126C15.4109 10.3916 14.4999 9.91663 14.1929 10.2966C13.5959 11.0356 14.2899 12.1416 14.6769 12.8586C14.8769 13.2286 17.1459 16.6426 18.0369 18.1716C18.4689 18.9146 16.9269 19.6086 16.5209 19.0936C16.1139 18.5776 15.0319 16.2506 14.0049 14.9366C13.4989 14.2896 12.4719 14.3216 12.1609 14.5306C11.4869 14.9836 12.0629 16.1686 12.4859 16.8606C14.4719 20.5086 20.6919 32.0806 26.3799 28.6246C28.3199 27.4466 29.8769 25.0586 29.6929 22.7496Z" fill="url(#paint16_radial_1505_12959)"/>
</g>
<path d="M5.69085 6.44001L3.83085 5.66001C3.76353 5.63265 3.70398 5.58914 3.65745 5.53333C3.61091 5.47752 3.57882 5.41112 3.564 5.33998C3.54918 5.26884 3.55209 5.19515 3.57246 5.1254C3.59284 5.05565 3.63006 4.99199 3.68085 4.94001L4.65085 3.91001C4.70071 3.85739 4.76254 3.8176 4.83109 3.79401C4.89964 3.77043 4.97287 3.76375 5.04455 3.77455C5.11623 3.78536 5.18424 3.81331 5.24279 3.85605C5.30135 3.89879 5.34871 3.95504 5.38085 4.02001L6.27085 5.83001C6.44085 6.20001 6.07085 6.60001 5.69085 6.44001Z" fill="#1A80EA"/>
<path d="M5.69085 6.44001L3.83085 5.66001C3.76353 5.63265 3.70398 5.58914 3.65745 5.53333C3.61091 5.47752 3.57882 5.41112 3.564 5.33998C3.54918 5.26884 3.55209 5.19515 3.57246 5.1254C3.59284 5.05565 3.63006 4.99199 3.68085 4.94001L4.65085 3.91001C4.70071 3.85739 4.76254 3.8176 4.83109 3.79401C4.89964 3.77043 4.97287 3.76375 5.04455 3.77455C5.11623 3.78536 5.18424 3.81331 5.24279 3.85605C5.30135 3.89879 5.34871 3.95504 5.38085 4.02001L6.27085 5.83001C6.44085 6.20001 6.07085 6.60001 5.69085 6.44001Z" fill="url(#paint17_linear_1505_12959)"/>
<path d="M5.69085 6.44001L3.83085 5.66001C3.76353 5.63265 3.70398 5.58914 3.65745 5.53333C3.61091 5.47752 3.57882 5.41112 3.564 5.33998C3.54918 5.26884 3.55209 5.19515 3.57246 5.1254C3.59284 5.05565 3.63006 4.99199 3.68085 4.94001L4.65085 3.91001C4.70071 3.85739 4.76254 3.8176 4.83109 3.79401C4.89964 3.77043 4.97287 3.76375 5.04455 3.77455C5.11623 3.78536 5.18424 3.81331 5.24279 3.85605C5.30135 3.89879 5.34871 3.95504 5.38085 4.02001L6.27085 5.83001C6.44085 6.20001 6.07085 6.60001 5.69085 6.44001Z" fill="url(#paint18_linear_1505_12959)"/>
<path d="M5.69085 6.44001L3.83085 5.66001C3.76353 5.63265 3.70398 5.58914 3.65745 5.53333C3.61091 5.47752 3.57882 5.41112 3.564 5.33998C3.54918 5.26884 3.55209 5.19515 3.57246 5.1254C3.59284 5.05565 3.63006 4.99199 3.68085 4.94001L4.65085 3.91001C4.70071 3.85739 4.76254 3.8176 4.83109 3.79401C4.89964 3.77043 4.97287 3.76375 5.04455 3.77455C5.11623 3.78536 5.18424 3.81331 5.24279 3.85605C5.30135 3.89879 5.34871 3.95504 5.38085 4.02001L6.27085 5.83001C6.44085 6.20001 6.07085 6.60001 5.69085 6.44001Z" fill="url(#paint19_linear_1505_12959)"/>
<path d="M8.05401 4.81677L6.83401 3.16577C6.78995 3.10623 6.76065 3.03709 6.74851 2.96403C6.73638 2.89096 6.74176 2.81606 6.76421 2.74548C6.78666 2.6749 6.82555 2.61065 6.87767 2.55803C6.92979 2.5054 6.99365 2.4659 7.06401 2.44277L8.42401 2.01977C8.72401 1.92677 9.02401 2.17477 9.00401 2.49477L8.86401 4.56877C8.82401 4.99277 8.30401 5.15777 8.05401 4.81677Z" fill="#1A80EA"/>
<path d="M8.05401 4.81677L6.83401 3.16577C6.78995 3.10623 6.76065 3.03709 6.74851 2.96403C6.73638 2.89096 6.74176 2.81606 6.76421 2.74548C6.78666 2.6749 6.82555 2.61065 6.87767 2.55803C6.92979 2.5054 6.99365 2.4659 7.06401 2.44277L8.42401 2.01977C8.72401 1.92677 9.02401 2.17477 9.00401 2.49477L8.86401 4.56877C8.82401 4.99277 8.30401 5.15777 8.05401 4.81677Z" fill="url(#paint20_linear_1505_12959)"/>
<path d="M8.05401 4.81677L6.83401 3.16577C6.78995 3.10623 6.76065 3.03709 6.74851 2.96403C6.73638 2.89096 6.74176 2.81606 6.76421 2.74548C6.78666 2.6749 6.82555 2.61065 6.87767 2.55803C6.92979 2.5054 6.99365 2.4659 7.06401 2.44277L8.42401 2.01977C8.72401 1.92677 9.02401 2.17477 9.00401 2.49477L8.86401 4.56877C8.82401 4.99277 8.30401 5.15777 8.05401 4.81677Z" fill="url(#paint21_linear_1505_12959)"/>
<path d="M8.05401 4.81677L6.83401 3.16577C6.78995 3.10623 6.76065 3.03709 6.74851 2.96403C6.73638 2.89096 6.74176 2.81606 6.76421 2.74548C6.78666 2.6749 6.82555 2.61065 6.87767 2.55803C6.92979 2.5054 6.99365 2.4659 7.06401 2.44277L8.42401 2.01977C8.72401 1.92677 9.02401 2.17477 9.00401 2.49477L8.86401 4.56877C8.82401 4.99277 8.30401 5.15777 8.05401 4.81677Z" fill="url(#paint22_linear_1505_12959)"/>
<path d="M4.59243 9.08938L2.52143 9.35838C2.44686 9.36786 2.3711 9.35905 2.3007 9.3327C2.23029 9.30635 2.16737 9.26325 2.11735 9.20713C2.06734 9.15101 2.03174 9.08356 2.01363 9.0106C1.99552 8.93764 1.99546 8.86137 2.01343 8.78838L2.35543 7.35538C2.37383 7.28258 2.40933 7.21522 2.45898 7.15889C2.50864 7.10257 2.57101 7.0589 2.64093 7.03152C2.71085 7.00414 2.78629 6.99384 2.86099 7.00146C2.93569 7.00909 3.00749 7.03443 3.07043 7.07538L4.80043 8.23738C5.15243 8.48738 5.01743 9.03738 4.59243 9.08838V9.08938Z" fill="#1A80EA"/>
<path d="M4.59243 9.08938L2.52143 9.35838C2.44686 9.36786 2.3711 9.35905 2.3007 9.3327C2.23029 9.30635 2.16737 9.26325 2.11735 9.20713C2.06734 9.15101 2.03174 9.08356 2.01363 9.0106C1.99552 8.93764 1.99546 8.86137 2.01343 8.78838L2.35543 7.35538C2.37383 7.28258 2.40933 7.21522 2.45898 7.15889C2.50864 7.10257 2.57101 7.0589 2.64093 7.03152C2.71085 7.00414 2.78629 6.99384 2.86099 7.00146C2.93569 7.00909 3.00749 7.03443 3.07043 7.07538L4.80043 8.23738C5.15243 8.48738 5.01743 9.03738 4.59243 9.08838V9.08938Z" fill="url(#paint23_linear_1505_12959)"/>
<path d="M4.59243 9.08938L2.52143 9.35838C2.44686 9.36786 2.3711 9.35905 2.3007 9.3327C2.23029 9.30635 2.16737 9.26325 2.11735 9.20713C2.06734 9.15101 2.03174 9.08356 2.01363 9.0106C1.99552 8.93764 1.99546 8.86137 2.01343 8.78838L2.35543 7.35538C2.37383 7.28258 2.40933 7.21522 2.45898 7.15889C2.50864 7.10257 2.57101 7.0589 2.64093 7.03152C2.71085 7.00414 2.78629 6.99384 2.86099 7.00146C2.93569 7.00909 3.00749 7.03443 3.07043 7.07538L4.80043 8.23738C5.15243 8.48738 5.01743 9.03738 4.59243 9.08838V9.08938Z" fill="url(#paint24_linear_1505_12959)"/>
<path d="M4.59243 9.08938L2.52143 9.35838C2.44686 9.36786 2.3711 9.35905 2.3007 9.3327C2.23029 9.30635 2.16737 9.26325 2.11735 9.20713C2.06734 9.15101 2.03174 9.08356 2.01363 9.0106C1.99552 8.93764 1.99546 8.86137 2.01343 8.78838L2.35543 7.35538C2.37383 7.28258 2.40933 7.21522 2.45898 7.15889C2.50864 7.10257 2.57101 7.0589 2.64093 7.03152C2.71085 7.00414 2.78629 6.99384 2.86099 7.00146C2.93569 7.00909 3.00749 7.03443 3.07043 7.07538L4.80043 8.23738C5.15243 8.48738 5.01743 9.03738 4.59243 9.08838V9.08938Z" fill="url(#paint25_linear_1505_12959)"/>
<path d="M13.3741 13.9857C13.3308 13.9681 13.2871 13.9514 13.2431 13.9357C13.086 13.637 12.927 13.3393 12.7661 13.0427C12.7258 12.9676 12.6917 12.8893 12.6641 12.8087C12.9971 12.8047 13.3971 12.9157 13.7511 13.0587C14.1789 13.2287 14.5758 13.4679 14.9261 13.7667C15.1281 13.9467 15.3411 14.2387 15.5411 14.5437C15.7491 14.8617 15.9721 15.2407 16.1941 15.6277C16.3291 15.8627 16.4631 16.0997 16.5931 16.3297C16.8556 16.8086 17.1314 17.2801 17.4201 17.7437C17.4557 17.7989 17.4802 17.8605 17.492 17.9251C17.5038 17.9897 17.5028 18.056 17.489 18.1202C17.4752 18.1844 17.4489 18.2453 17.4116 18.2993C17.3743 18.3534 17.3267 18.3995 17.2716 18.4352C17.2164 18.4709 17.1548 18.4953 17.0902 18.5071C17.0256 18.519 16.9593 18.518 16.8951 18.5042C16.8308 18.4904 16.77 18.4641 16.7159 18.4268C16.6619 18.3894 16.6157 18.3419 16.5801 18.2867C16.3281 17.8967 16.0171 17.3447 15.7031 16.7867C15.5786 16.5656 15.4532 16.3449 15.3271 16.1247C15.1071 15.7417 14.8951 15.3837 14.7041 15.0917C14.5041 14.7867 14.3541 14.5967 14.2621 14.5137C13.9965 14.2909 13.6966 14.1126 13.3741 13.9857Z" fill="url(#paint26_radial_1505_12959)"/>
<path d="M14.8892 9.98944C14.7585 9.96359 14.6254 9.95186 14.4922 9.95444C14.6762 9.94044 14.8102 9.96344 14.8892 9.98844V9.98944Z" fill="url(#paint27_radial_1505_12959)"/>
<path d="M16.1748 10.6462C15.8269 10.328 15.4024 10.1054 14.9428 10.0002C14.6883 9.70792 14.5356 9.34083 14.5078 8.95423C15.1058 8.94823 16.0038 9.15723 16.8388 9.89923C17.0448 10.0822 17.3058 10.4482 17.5638 10.8392C17.8358 11.2532 18.1468 11.7612 18.4578 12.2792C18.6898 12.6662 18.9198 13.0572 19.1348 13.4222C19.5048 14.0492 19.8298 14.6022 20.0438 14.9322C20.0795 14.9874 20.1039 15.049 20.1157 15.1136C20.1276 15.1782 20.1266 15.2445 20.1128 15.3087C20.099 15.3729 20.0727 15.4338 20.0354 15.4879C19.9981 15.5419 19.9505 15.5881 19.8953 15.6237C19.8402 15.6594 19.7785 15.6838 19.7139 15.6957C19.6493 15.7075 19.583 15.7065 19.5188 15.6927C19.4546 15.6789 19.3937 15.6526 19.3397 15.6153C19.2856 15.578 19.2395 15.5304 19.2038 15.4752C18.8786 14.9548 18.5619 14.429 18.2538 13.8982C18.0418 13.5372 17.8188 13.1582 17.5998 12.7932C17.3191 12.3197 17.0287 11.8519 16.7288 11.3902C16.4548 10.9742 16.2638 10.7262 16.1748 10.6462Z" fill="url(#paint28_radial_1505_12959)"/>
<path d="M18.7891 8.18293L18.8011 8.20393L20.0641 10.2339C20.8353 11.4769 21.613 12.7159 22.3971 13.9509C22.4327 14.0061 22.4789 14.0537 22.5329 14.091C22.587 14.1283 22.6478 14.1546 22.7121 14.1684C22.7763 14.1822 22.8426 14.1832 22.9072 14.1714C22.9718 14.1595 23.0334 14.1351 23.0886 14.0994C23.1437 14.0638 23.1913 14.0176 23.2286 13.9636C23.2659 13.9095 23.2922 13.8486 23.306 13.7844C23.3198 13.7202 23.3208 13.6539 23.309 13.5893C23.2972 13.5247 23.2727 13.4631 23.2371 13.4079C22.4557 12.1774 21.6811 10.9428 20.9131 9.70393C20.4381 8.94293 19.9851 8.21393 19.6511 7.67593L19.3111 7.12793C19.0546 7.43239 18.8755 7.79434 18.7891 8.18293Z" fill="url(#paint29_linear_1505_12959)"/>
<g filter="url(#filter2_f_1505_12959)">
<path d="M14.5625 10.9062C14.9895 10.9372 15.3465 11.0032 15.8465 11.7782C16.3465 12.5532 17.9505 15.1842 18.7845 16.4972" stroke="#FFE240" stroke-linecap="round" stroke-linejoin="round"/>
</g>
<g filter="url(#filter3_f_1505_12959)">
<path d="M12.9062 14.75C13.3332 14.781 13.6912 14.847 14.1912 15.622C14.6912 16.397 15.6043 18.188 16.4373 19.5" stroke="#FFE240" stroke-linecap="round" stroke-linejoin="round"/>
</g>
<g filter="url(#filter4_f_1505_12959)">
<path d="M14 12.5312C14.427 12.5622 14.91 12.7403 15.41 13.5153C15.91 14.2903 16.98 16.4692 17.812 17.7812" stroke="url(#paint30_linear_1505_12959)" stroke-width="2" stroke-linecap="round" stroke-linejoin="round"/>
</g>
<g filter="url(#filter5_f_1505_12959)">
<path d="M15.75 8.8125C16.177 8.8425 17.191 9.1625 17.691 9.9365C18.191 10.7115 19.604 13.4365 20.438 14.7495" stroke="url(#paint31_linear_1505_12959)" stroke-width="2" stroke-linecap="round" stroke-linejoin="round"/>
</g>
<g filter="url(#filter6_f_1505_12959)">
<path d="M16.7812 7.7832C17.2082 7.8142 17.5662 7.8802 18.0662 8.6552C18.5662 9.4302 21.3263 13.5942 22.1593 14.9062" stroke="#FFE240" stroke-linecap="round" stroke-linejoin="round"/>
</g>
<g filter="url(#filter7_f_1505_12959)">
<path d="M20.5234 7.5498C20.9504 7.5818 21.3074 7.6468 21.8074 8.4218C22.3074 9.1968 25.0994 14.3908 25.9324 15.7028" stroke="#FFE240" stroke-linecap="round" stroke-linejoin="round"/>
</g>
<g filter="url(#filter8_f_1505_12959)">
<path d="M28.3438 11.8418C28.6987 12.0818 28.9757 12.3168 29.0237 13.2378C29.0697 14.1588 28.8997 20.0528 28.9677 21.6058" stroke="#FFE240" stroke-linecap="round" stroke-linejoin="round"/>
</g>
<defs>
<filter id="filter0_f_1505_12959" x="6.75" y="6.89648" width="19.0625" height="24.5117" filterUnits="userSpaceOnUse" color-interpolation-filters="sRGB">
<feFlood flood-opacity="0" result="BackgroundImageFix"/>
<feBlend mode="normal" in="SourceGraphic" in2="BackgroundImageFix" result="shape"/>
<feGaussianBlur stdDeviation="1.25" result="effect1_foregroundBlur_1505_12959"/>
</filter>
<filter id="filter1_f_1505_12959" x="10.8516" y="6.32031" width="19.8594" height="23.9404" filterUnits="userSpaceOnUse" color-interpolation-filters="sRGB">
<feFlood flood-opacity="0" result="BackgroundImageFix"/>
<feBlend mode="normal" in="SourceGraphic" in2="BackgroundImageFix" result="shape"/>
<feGaussianBlur stdDeviation="0.5" result="effect1_foregroundBlur_1505_12959"/>
</filter>
<filter id="filter2_f_1505_12959" x="13.0625" y="9.40625" width="7.21875" height="8.59082" filterUnits="userSpaceOnUse" color-interpolation-filters="sRGB">
<feFlood flood-opacity="0" result="BackgroundImageFix"/>
<feBlend mode="normal" in="SourceGraphic" in2="BackgroundImageFix" result="shape"/>
<feGaussianBlur stdDeviation="0.5" result="effect1_foregroundBlur_1505_12959"/>
</filter>
<filter id="filter3_f_1505_12959" x="11.4062" y="13.25" width="6.53125" height="7.75" filterUnits="userSpaceOnUse" color-interpolation-filters="sRGB">
<feFlood flood-opacity="0" result="BackgroundImageFix"/>
<feBlend mode="normal" in="SourceGraphic" in2="BackgroundImageFix" result="shape"/>
<feGaussianBlur stdDeviation="0.5" result="effect1_foregroundBlur_1505_12959"/>
</filter>
<filter id="filter4_f_1505_12959" x="12.5" y="11.0312" width="6.8125" height="8.25" filterUnits="userSpaceOnUse" color-interpolation-filters="sRGB">
<feFlood flood-opacity="0" result="BackgroundImageFix"/>
<feBlend mode="normal" in="SourceGraphic" in2="BackgroundImageFix" result="shape"/>
<feGaussianBlur stdDeviation="0.25" result="effect1_foregroundBlur_1505_12959"/>
</filter>
<filter id="filter5_f_1505_12959" x="14.25" y="7.3125" width="7.6875" height="8.9375" filterUnits="userSpaceOnUse" color-interpolation-filters="sRGB">
<feFlood flood-opacity="0" result="BackgroundImageFix"/>
<feBlend mode="normal" in="SourceGraphic" in2="BackgroundImageFix" result="shape"/>
<feGaussianBlur stdDeviation="0.25" result="effect1_foregroundBlur_1505_12959"/>
</filter>
<filter id="filter6_f_1505_12959" x="15.2812" y="6.2832" width="8.375" height="10.123" filterUnits="userSpaceOnUse" color-interpolation-filters="sRGB">
<feFlood flood-opacity="0" result="BackgroundImageFix"/>
<feBlend mode="normal" in="SourceGraphic" in2="BackgroundImageFix" result="shape"/>
<feGaussianBlur stdDeviation="0.5" result="effect1_foregroundBlur_1505_12959"/>
</filter>
<filter id="filter7_f_1505_12959" x="19.0234" y="6.0498" width="8.40625" height="11.1533" filterUnits="userSpaceOnUse" color-interpolation-filters="sRGB">
<feFlood flood-opacity="0" result="BackgroundImageFix"/>
<feBlend mode="normal" in="SourceGraphic" in2="BackgroundImageFix" result="shape"/>
<feGaussianBlur stdDeviation="0.5" result="effect1_foregroundBlur_1505_12959"/>
</filter>
<filter id="filter8_f_1505_12959" x="26.8438" y="10.3418" width="3.6875" height="12.7637" filterUnits="userSpaceOnUse" color-interpolation-filters="sRGB">
<feFlood flood-opacity="0" result="BackgroundImageFix"/>
<feBlend mode="normal" in="SourceGraphic" in2="BackgroundImageFix" result="shape"/>
<feGaussianBlur stdDeviation="0.5" result="effect1_foregroundBlur_1505_12959"/>
</filter>
<linearGradient id="paint0_linear_1505_12959" x1="21.3122" y1="29.3746" x2="13.6242" y2="15.4996" gradientUnits="userSpaceOnUse">
<stop stop-color="#FF6C4C"/>
<stop offset="1" stop-color="#FF6D47" stop-opacity="0"/>
</linearGradient>
<radialGradient id="paint1_radial_1505_12959" cx="0" cy="0" r="1" gradientUnits="userSpaceOnUse" gradientTransform="translate(10.4682 12.8116) rotate(58.4429) scale(4.65752 1.86185)">
<stop stop-color="#FFAF33"/>
<stop offset="1" stop-color="#FA8221"/>
</radialGradient>
<radialGradient id="paint2_radial_1505_12959" cx="0" cy="0" r="1" gradientUnits="userSpaceOnUse" gradientTransform="translate(9.34319 11.3126) rotate(92.0826) scale(1.71989 1.71091)">
<stop stop-color="#FFAE28"/>
<stop offset="1" stop-color="#FFAF31" stop-opacity="0"/>
</radialGradient>
<radialGradient id="paint3_radial_1505_12959" cx="0" cy="0" r="1" gradientUnits="userSpaceOnUse" gradientTransform="translate(8.1243 16.2176) rotate(57.331) scale(4.86307 1.39303)">
<stop stop-color="#FE9E29"/>
<stop offset="1" stop-color="#FE9E28" stop-opacity="0"/>
</radialGradient>
<radialGradient id="paint4_radial_1505_12959" cx="0" cy="0" r="1" gradientUnits="userSpaceOnUse" gradientTransform="translate(7.81219 15.6876) rotate(63.4349) scale(2.02644 1.65669)">
<stop stop-color="#FF9D25"/>
<stop offset="1" stop-color="#FF9F24" stop-opacity="0"/>
</radialGradient>
<radialGradient id="paint5_radial_1505_12959" cx="0" cy="0" r="1" gradientUnits="userSpaceOnUse" gradientTransform="translate(11.7802 8.78061) rotate(58.3392) scale(4.4057 1.90405)">
<stop stop-color="#FFC133"/>
<stop offset="1" stop-color="#FFC93C" stop-opacity="0"/>
</radialGradient>
<radialGradient id="paint6_radial_1505_12959" cx="0" cy="0" r="1" gradientUnits="userSpaceOnUse" gradientTransform="translate(11.5932 7.96861) rotate(52.3738) scale(1.89392 1.44733)">
<stop stop-color="#FFC53A"/>
<stop offset="1" stop-color="#FFC83C" stop-opacity="0"/>
</radialGradient>
<radialGradient id="paint7_radial_1505_12959" cx="0" cy="0" r="1" gradientUnits="userSpaceOnUse" gradientTransform="translate(15.1872 11.1246) rotate(90.6384) scale(37.1273 32.1071)">
<stop offset="0.37" stop-color="#FF6C5E" stop-opacity="0"/>
<stop offset="0.54" stop-color="#FF6B5E"/>
</radialGradient>
<radialGradient id="paint8_radial_1505_12959" cx="0" cy="0" r="1" gradientUnits="userSpaceOnUse" gradientTransform="translate(15.0922 7.15561) rotate(59.816) scale(3.54286 3.89595)">
<stop stop-color="#FFAC31"/>
<stop offset="1" stop-color="#FFA92E" stop-opacity="0"/>
</radialGradient>
<radialGradient id="paint9_radial_1505_12959" cx="0" cy="0" r="1" gradientUnits="userSpaceOnUse" gradientTransform="translate(9.28487 16.6879) rotate(-35.0958) scale(1.41318 4.33549)">
<stop stop-color="#DB5703"/>
<stop offset="0.595" stop-color="#C94A04"/>
<stop offset="1" stop-color="#D65A05" stop-opacity="0"/>
</radialGradient>
<radialGradient id="paint10_radial_1505_12959" cx="0" cy="0" r="1" gradientUnits="userSpaceOnUse" gradientTransform="translate(10.6547 13.6556) rotate(-42.6141) scale(2.12316 6.81377)">
<stop stop-color="#DB5703"/>
<stop offset="0.595" stop-color="#C94A04"/>
<stop offset="1" stop-color="#D65A05" stop-opacity="0"/>
</radialGradient>
<radialGradient id="paint11_radial_1505_12959" cx="0" cy="0" r="1" gradientUnits="userSpaceOnUse" gradientTransform="translate(14.0011 11.4685) rotate(-42.1844) scale(1.34955 4.43081)">
<stop stop-color="#DB5703"/>
<stop offset="0.595" stop-color="#C94A04"/>
<stop offset="1" stop-color="#D65A05" stop-opacity="0"/>
</radialGradient>
<radialGradient id="paint12_radial_1505_12959" cx="0" cy="0" r="1" gradientUnits="userSpaceOnUse" gradientTransform="translate(22.5632 20.1249) rotate(73.365) scale(10.6977 7.10071)">
<stop stop-color="#FFD945"/>
<stop offset="0.633" stop-color="#FFD343"/>
<stop offset="1" stop-color="#FFD543" stop-opacity="0"/>
</radialGradient>
<radialGradient id="paint13_radial_1505_12959" cx="0" cy="0" r="1" gradientUnits="userSpaceOnUse" gradientTransform="translate(29.9732 15.8129) rotate(98.436) scale(14.7218 3.88781)">
<stop stop-color="#FFE044"/>
<stop offset="1" stop-color="#FFE143" stop-opacity="0"/>
</radialGradient>
<radialGradient id="paint14_radial_1505_12959" cx="0" cy="0" r="1" gradientUnits="userSpaceOnUse" gradientTransform="translate(20.6885 33.2493) rotate(-124.618) scale(23.5432 18.5289)">
<stop stop-color="#FA825D"/>
<stop offset="0.883" stop-color="#F67B7D" stop-opacity="0"/>
</radialGradient>
<linearGradient id="paint15_linear_1505_12959" x1="25.6248" y1="13.3723" x2="27.6718" y2="13.2333" gradientUnits="userSpaceOnUse">
<stop stop-color="#D48820"/>
<stop offset="0.345" stop-color="#E39C2A" stop-opacity="0.649"/>
<stop offset="0.735" stop-color="#FFC03C" stop-opacity="0"/>
</linearGradient>
<radialGradient id="paint16_radial_1505_12959" cx="0" cy="0" r="1" gradientUnits="userSpaceOnUse" gradientTransform="translate(24.5677 20.4371) rotate(134.506) scale(10.2534 26.8268)">
<stop stop-color="#FFDB45"/>
<stop offset="0.484" stop-color="#FFD646"/>
<stop offset="0.915" stop-color="#FFDA45" stop-opacity="0"/>
<stop offset="0.97" stop-color="#FFDA45" stop-opacity="0"/>
</radialGradient>
<linearGradient id="paint17_linear_1505_12959" x1="3.88985" y1="4.54701" x2="4.44185" y2="5.06501" gradientUnits="userSpaceOnUse">
<stop stop-color="#2065A3"/>
<stop offset="1" stop-color="#2067AE" stop-opacity="0"/>
</linearGradient>
<linearGradient id="paint18_linear_1505_12959" x1="4.60085" y1="6.58601" x2="4.90885" y2="5.87201" gradientUnits="userSpaceOnUse">
<stop offset="0.605" stop-color="#1C60FF"/>
<stop offset="1" stop-color="#1963FF" stop-opacity="0"/>
</linearGradient>
<linearGradient id="paint19_linear_1505_12959" x1="5.76485" y1="4.57801" x2="5.36085" y2="4.79101" gradientUnits="userSpaceOnUse">
<stop stop-color="#2093F1"/>
<stop offset="1" stop-color="#2294F3" stop-opacity="0"/>
</linearGradient>
<linearGradient id="paint20_linear_1505_12959" x1="7.67401" y1="1.89077" x2="7.93601" y2="2.75477" gradientUnits="userSpaceOnUse">
<stop stop-color="#2065A3"/>
<stop offset="1" stop-color="#2067AE" stop-opacity="0"/>
</linearGradient>
<linearGradient id="paint21_linear_1505_12959" x1="7.37701" y1="4.58577" x2="7.92101" y2="4.18777" gradientUnits="userSpaceOnUse">
<stop offset="0.605" stop-color="#1C60FF"/>
<stop offset="1" stop-color="#1963FF" stop-opacity="0"/>
</linearGradient>
<linearGradient id="paint22_linear_1505_12959" x1="8.94001" y1="3.04677" x2="8.66501" y2="3.03277" gradientUnits="userSpaceOnUse">
<stop stop-color="#2093F1"/>
<stop offset="1" stop-color="#2294F3" stop-opacity="0"/>
</linearGradient>
<linearGradient id="paint23_linear_1505_12959" x1="2.00143" y1="8.18038" x2="2.67343" y2="8.34338" gradientUnits="userSpaceOnUse">
<stop stop-color="#2065A3"/>
<stop offset="1" stop-color="#2067AE" stop-opacity="0"/>
</linearGradient>
<linearGradient id="paint24_linear_1505_12959" x1="3.50143" y1="9.73338" x2="3.43943" y2="8.93738" gradientUnits="userSpaceOnUse">
<stop offset="0.605" stop-color="#1C60FF"/>
<stop offset="1" stop-color="#1963FF" stop-opacity="0"/>
</linearGradient>
<linearGradient id="paint25_linear_1505_12959" x1="3.91143" y1="7.49538" x2="3.62243" y2="7.91738" gradientUnits="userSpaceOnUse">
<stop stop-color="#2093F1"/>
<stop offset="1" stop-color="#2294F3" stop-opacity="0"/>
</linearGradient>
<radialGradient id="paint26_radial_1505_12959" cx="0" cy="0" r="1" gradientUnits="userSpaceOnUse" gradientTransform="translate(14.6571 15.6617) rotate(57.126) scale(5.23917 0.981442)">
<stop stop-color="#B64200"/>
<stop offset="1" stop-color="#FFB02E" stop-opacity="0"/>
</radialGradient>
<radialGradient id="paint27_radial_1505_12959" cx="0" cy="0" r="1" gradientUnits="userSpaceOnUse" gradientTransform="translate(16.8125 12.328) rotate(57.5209) scale(6.16883 1.1483)">
<stop stop-color="#B64200"/>
<stop offset="1" stop-color="#FFB02E" stop-opacity="0"/>
</radialGradient>
<radialGradient id="paint28_radial_1505_12959" cx="0" cy="0" r="1" gradientUnits="userSpaceOnUse" gradientTransform="translate(16.8111 12.3288) rotate(57.521) scale(6.16885 1.1483)">
<stop stop-color="#B64200"/>
<stop offset="1" stop-color="#FFB02E" stop-opacity="0"/>
</radialGradient>
<linearGradient id="paint29_linear_1505_12959" x1="20.1921" y1="10.4379" x2="21.0531" y2="9.93793" gradientUnits="userSpaceOnUse">
<stop stop-color="#E49224"/>
<stop offset="0.589" stop-color="#FFB02E" stop-opacity="0"/>
</linearGradient>
<linearGradient id="paint30_linear_1505_12959" x1="14.406" y1="14.6883" x2="16.313" y2="13.5942" gradientUnits="userSpaceOnUse">
<stop stop-color="#FDB137"/>
<stop offset="0.447" stop-color="#FFBA3C" stop-opacity="0"/>
<stop offset="1" stop-color="#FCAD33" stop-opacity="0"/>
</linearGradient>
<linearGradient id="paint31_linear_1505_12959" x1="16.688" y1="11.1095" x2="18.594" y2="10.0165" gradientUnits="userSpaceOnUse">
<stop stop-color="#FDB137"/>
<stop offset="0.447" stop-color="#FFBA3C" stop-opacity="0"/>
<stop offset="1" stop-color="#FCAD33" stop-opacity="0"/>
</linearGradient>
</defs>
</svg>
