<svg width="24" height="24" viewBox="0 0 24 24" fill="none" xmlns="http://www.w3.org/2000/svg">
<g clip-path="url(#clip0_3068_10540)">
<path fill-rule="evenodd" clip-rule="evenodd" d="M12 22C17.5228 22 22 17.5228 22 12C22 6.47715 17.5228 2 12 2C6.47715 2 2 6.47715 2 12C2 17.5228 6.47715 22 12 22ZM15.0826 8.98408C15.2626 8.80473 15.5041 8.7006 15.758 8.69285C16.012 8.68509 16.2593 8.77429 16.4499 8.94233C16.6405 9.11036 16.7599 9.34463 16.784 9.59755C16.8081 9.85047 16.735 10.1031 16.5796 10.3041L16.4956 10.3981L11.6156 15.2781C11.4251 15.4689 11.1711 15.583 10.902 15.5989C10.6328 15.6147 10.3672 15.5312 10.1556 15.3641L10.0596 15.2791L7.65563 12.8751C7.47438 12.6955 7.3686 12.4535 7.35995 12.1985C7.3513 11.9436 7.44043 11.6949 7.6091 11.5035C7.77777 11.3121 8.01322 11.1924 8.26726 11.1689C8.5213 11.1454 8.77471 11.2199 8.97563 11.3771L9.06963 11.4601L10.8376 13.2281L15.0826 8.98408Z" fill="#B0B7C1"/>
</g>
<defs>
<clipPath id="clip0_3068_10540">
<rect width="24" height="24" fill="white"/>
</clipPath>
</defs>
</svg>
