<svg width="140" height="32" viewBox="0 0 140 32" fill="none" xmlns="http://www.w3.org/2000/svg">
<g clip-path="url(#clip0_2542_35279)">
<path d="M20.42 31.6823C18.2226 32.4806 14.7743 31.7234 12.7086 29.9869L1.48287 20.5718C-0.582849 18.8353 -0.475859 16.786 1.71331 15.9877C3.91072 15.1894 7.35907 15.9466 9.4248 17.6831L20.6505 27.0982C22.7162 28.8347 22.6092 30.884 20.42 31.6823Z" fill="url(#paint0_linear_2542_35279)"/>
<path d="M28.3029 23.9293C26.1054 24.7276 22.6571 23.9705 20.5914 22.234L9.36569 12.8189C7.29996 11.0824 7.40695 9.03309 9.59613 8.23478C11.7935 7.43647 15.2419 8.19363 17.3076 9.93015L28.5333 19.3452C30.599 21.0818 30.492 23.131 28.3029 23.9293Z" fill="url(#paint1_linear_2542_35279)"/>
<path d="M36.1857 16.0123C33.9883 16.8106 30.5399 16.0535 28.4742 14.317L17.2485 4.90188C15.1828 3.16536 15.2898 1.1161 17.4789 0.317788C19.6763 -0.480519 23.1247 0.276638 25.1904 2.01316L36.4161 11.4282C38.4818 13.1648 38.3748 15.214 36.1857 16.0123Z" fill="url(#paint2_linear_2542_35279)"/>
<path d="M52.393 17.5741C52.393 22.562 51.0901 26.7665 45.2709 29.8119L44 28.0454C46.5259 26.7265 48.0926 25.2238 49.0278 23.4413L44.3917 23.8649L44.0879 21.9065L49.7312 21.5868C49.8911 20.8994 50.011 20.196 50.0829 19.4206H44.9512V17.5662H52.393V17.5741ZM57.7166 16.0234V32.2659H55.3905V24.1367H52.361V22.2502H55.3905V16.0234H57.7166Z" fill="#3D6AFE"/>
<path d="M63.6166 26.5992C66.0865 26.5832 68.1328 26.4553 70.4269 26.0716L70.6747 27.958C68.0289 28.4137 65.6469 28.5256 62.7053 28.5256H61.2426V21.8431H66.5182V19.2533H61.2266V17.3988H68.9002V23.6736H63.6246V26.5992H63.6166ZM73.88 16V32.2984H71.554V16H73.88Z" fill="#3D6AFE"/>
<path d="M90.2326 16V32.2984H87.9065V23.7455H85.2048C84.957 26.847 83.3024 28.7574 81.0403 28.7574C78.6263 28.7574 76.8438 26.5192 76.8438 22.9382C76.8438 19.3572 78.6263 17.151 81.0403 17.151C83.2304 17.151 84.8691 18.9336 85.1888 21.8591H87.9065V16H90.2326ZM83.0386 22.9302C83.0386 20.5322 82.2472 19.2453 81.0482 19.2453C79.8492 19.2453 79.0739 20.5322 79.0739 22.9302C79.0739 25.3282 79.8652 26.6311 81.0482 26.6311C82.2313 26.6311 83.0386 25.3442 83.0386 22.9302Z" fill="#3D6AFE"/>
<path d="M99.8331 25.2484H93.3984V17.5907H99.8331V20.3804H101.208V16.3038H103.374V27.6304H101.208V22.2509H99.8331V25.2484ZM97.6829 19.3733H95.5646V23.4658H97.6829V19.3733ZM107.083 30.1323V31.9867H95.7405V26.6952H98.0666V30.1323H107.075H107.083ZM106.675 28.102H104.469V16.04H106.675V28.102Z" fill="#3D6AFE"/>
<path d="M123.77 28.5974V30.4838H109.062V28.5974H115.249V25.8956H110.789V17.127H122.076V18.9814H113.147V20.5721H121.7V22.3706H113.147V24.0652H122.196V25.8956H117.575V28.5974H123.77Z" fill="#3D6AFE"/>
<path d="M139.997 28.3975V30.2839H125.289V28.3975H139.997ZM138.494 25.6078C135.672 25.0402 133.594 23.4736 132.547 21.4113C131.508 23.4736 129.446 25.0642 126.624 25.6078L125.633 23.6654C129.286 23.0339 131.316 20.4521 131.316 18.126V16.959H133.802V18.126C133.802 20.508 135.816 23.0259 139.477 23.6654L138.486 25.6078H138.494Z" fill="#3D6AFE"/>
</g>
<defs>
<linearGradient id="paint0_linear_2542_35279" x1="9.63878" y1="25.7155" x2="14.0665" y2="19.9134" gradientUnits="userSpaceOnUse">
<stop stop-color="#35DB51"/>
<stop offset="1" stop-color="#26C25F"/>
</linearGradient>
<linearGradient id="paint1_linear_2542_35279" x1="17.752" y1="17.4688" x2="22.8958" y2="11.5185" gradientUnits="userSpaceOnUse">
<stop stop-color="#02C1C1"/>
<stop offset="1" stop-color="#169496"/>
</linearGradient>
<linearGradient id="paint2_linear_2542_35279" x1="25.5772" y1="9.85633" x2="30.1696" y2="3.65916" gradientUnits="userSpaceOnUse">
<stop stop-color="#3082F9"/>
<stop offset="1" stop-color="#1463C4"/>
</linearGradient>
<clipPath id="clip0_2542_35279">
<rect width="140" height="32" fill="white"/>
</clipPath>
</defs>
</svg>
