<svg width="1920" height="240" viewBox="0 0 1920 240" fill="none" xmlns="http://www.w3.org/2000/svg">
<rect width="1920" height="240" rx="20" fill="url(#paint0_linear_5336_11531)" fill-opacity="0.25"/>
<path d="M487.872 107.288H490.656L492.12 109.184C493.08 108.176 493.656 106.592 493.632 104.504C493.656 100.64 491.712 98.528 488.928 98.552C486.168 98.528 484.2 100.64 484.224 104.504C484.2 108.392 486.168 110.48 488.928 110.504C489.36 110.504 489.792 110.456 490.2 110.336L487.872 107.288ZM481.152 104.504C481.152 99.032 484.464 95.792 488.928 95.816C493.368 95.792 496.728 99.032 496.704 104.504C496.728 107.576 495.672 109.952 493.968 111.44L496.32 114.488H493.344L491.928 112.688C491.016 113.048 490.008 113.24 488.928 113.24C484.464 113.24 481.152 109.976 481.152 104.504ZM507.411 107.624V100.28H510.387V113H507.507V110.744H507.363C506.787 112.16 505.467 113.168 503.523 113.144C501.027 113.168 499.299 111.44 499.299 108.392V100.28H502.275V107.912C502.275 109.544 503.259 110.552 504.675 110.552C506.019 110.552 507.411 109.592 507.411 107.624ZM518.884 113.24C515.068 113.264 512.716 110.696 512.74 106.712C512.716 102.776 515.116 100.112 518.74 100.088C521.86 100.112 524.548 102.056 524.548 106.52V107.48H515.668C515.74 109.664 516.988 110.936 518.932 110.936C520.252 110.936 521.116 110.36 521.524 109.592H524.452C523.9 111.8 521.86 113.264 518.884 113.24ZM515.668 105.416H521.668C521.668 103.712 520.516 102.44 518.788 102.44C516.988 102.44 515.788 103.784 515.668 105.416ZM534.109 103.88C533.917 102.944 533.125 102.32 531.853 102.344C530.581 102.32 529.645 102.968 529.645 103.832C529.645 104.504 530.173 104.984 531.469 105.272L533.629 105.752C536.029 106.256 537.205 107.384 537.181 109.208C537.205 111.584 535.093 113.264 531.805 113.24C528.541 113.264 526.621 111.8 526.333 109.352H529.357C529.549 110.456 530.389 110.984 531.757 110.984C533.221 110.984 534.157 110.408 534.157 109.448C534.157 108.728 533.581 108.248 532.333 107.96L530.269 107.528C527.893 107.048 526.669 105.824 526.669 104.024C526.669 101.648 528.709 100.112 531.805 100.088C534.853 100.112 536.725 101.6 536.941 103.88H534.109ZM545.831 100.28V102.584H543.335V109.16C543.335 110.408 543.935 110.648 544.679 110.648C545.039 110.672 545.615 110.624 546.023 110.6V113.048C545.639 113.12 545.063 113.168 544.295 113.192C542.063 113.168 540.335 112.064 540.359 109.688V102.584H538.535V100.28H540.359V97.208H543.335V100.28H545.831ZM548.143 113V100.28H551.119V113H548.143ZM547.903 96.824C547.903 95.936 548.695 95.216 549.631 95.192C550.591 95.216 551.359 95.936 551.359 96.824C551.359 97.736 550.591 98.456 549.631 98.456C548.695 98.456 547.903 97.736 547.903 96.824ZM559.571 113.24C555.827 113.264 553.451 110.624 553.475 106.712C553.451 102.728 555.827 100.112 559.571 100.088C563.267 100.112 565.643 102.728 565.667 106.712C565.643 110.624 563.267 113.264 559.571 113.24ZM556.499 106.664C556.475 109.016 557.507 110.864 559.571 110.84C561.611 110.864 562.619 109.016 562.643 106.664C562.619 104.336 561.611 102.464 559.571 102.488C557.507 102.464 556.475 104.336 556.499 106.664ZM570.947 105.56V113H567.971V100.28H570.803V102.44H570.995C571.571 101 572.867 100.112 574.787 100.088C577.403 100.112 579.131 101.84 579.107 104.888V113H576.131V105.368C576.155 103.64 575.219 102.632 573.635 102.632C572.075 102.632 570.947 103.688 570.947 105.56ZM585.395 111.32L583.475 117.896H581.219L582.419 111.32H585.395ZM600.278 107.288H603.062L604.526 109.184C605.486 108.176 606.062 106.592 606.038 104.504C606.062 100.64 604.118 98.528 601.334 98.552C598.574 98.528 596.606 100.64 596.63 104.504C596.606 108.392 598.574 110.48 601.334 110.504C601.766 110.504 602.198 110.456 602.606 110.336L600.278 107.288ZM593.558 104.504C593.558 99.032 596.87 95.792 601.334 95.816C605.774 95.792 609.134 99.032 609.11 104.504C609.134 107.576 608.078 109.952 606.374 111.44L608.726 114.488H605.75L604.334 112.688C603.422 113.048 602.414 113.24 601.334 113.24C596.87 113.24 593.558 109.976 593.558 104.504ZM619.818 107.624V100.28H622.794V113H619.914V110.744H619.77C619.194 112.16 617.874 113.168 615.93 113.144C613.434 113.168 611.706 111.44 611.706 108.392V100.28H614.682V107.912C614.682 109.544 615.666 110.552 617.082 110.552C618.426 110.552 619.818 109.592 619.818 107.624ZM631.29 113.24C627.474 113.264 625.122 110.696 625.146 106.712C625.122 102.776 627.522 100.112 631.146 100.088C634.266 100.112 636.954 102.056 636.954 106.52V107.48H628.074C628.146 109.664 629.394 110.936 631.338 110.936C632.658 110.936 633.522 110.36 633.93 109.592H636.858C636.306 111.8 634.266 113.264 631.29 113.24ZM628.074 105.416H634.074C634.074 103.712 632.922 102.44 631.194 102.44C629.394 102.44 628.194 103.784 628.074 105.416ZM646.515 103.88C646.323 102.944 645.531 102.32 644.259 102.344C642.987 102.32 642.051 102.968 642.051 103.832C642.051 104.504 642.579 104.984 643.875 105.272L646.035 105.752C648.435 106.256 649.611 107.384 649.587 109.208C649.611 111.584 647.499 113.264 644.211 113.24C640.947 113.264 639.027 111.8 638.739 109.352H641.763C641.955 110.456 642.795 110.984 644.163 110.984C645.627 110.984 646.563 110.408 646.563 109.448C646.563 108.728 645.987 108.248 644.739 107.96L642.675 107.528C640.299 107.048 639.075 105.824 639.075 104.024C639.075 101.648 641.115 100.112 644.211 100.088C647.259 100.112 649.131 101.6 649.347 103.88H646.515ZM658.237 100.28V102.584H655.741V109.16C655.741 110.408 656.341 110.648 657.085 110.648C657.445 110.672 658.021 110.624 658.429 110.6V113.048C658.045 113.12 657.469 113.168 656.701 113.192C654.469 113.168 652.741 112.064 652.765 109.688V102.584H650.941V100.28H652.765V97.208H655.741V100.28H658.237ZM663.957 111.32L662.037 117.896H659.781L660.981 111.32H663.957ZM678.841 107.288H681.625L683.089 109.184C684.049 108.176 684.625 106.592 684.601 104.504C684.625 100.64 682.681 98.528 679.897 98.552C677.137 98.528 675.169 100.64 675.193 104.504C675.169 108.392 677.137 110.48 679.897 110.504C680.329 110.504 680.761 110.456 681.169 110.336L678.841 107.288ZM672.121 104.504C672.121 99.032 675.433 95.792 679.897 95.816C684.337 95.792 687.697 99.032 687.673 104.504C687.697 107.576 686.641 109.952 684.937 111.44L687.289 114.488H684.313L682.897 112.688C681.985 113.048 680.977 113.24 679.897 113.24C675.433 113.24 672.121 109.976 672.121 104.504ZM698.38 107.624V100.28H701.356V113H698.476V110.744H698.332C697.756 112.16 696.436 113.168 694.492 113.144C691.996 113.168 690.268 111.44 690.268 108.392V100.28H693.244V107.912C693.244 109.544 694.228 110.552 695.644 110.552C696.988 110.552 698.38 109.592 698.38 107.624ZM703.661 109.448C703.637 106.544 706.013 105.728 708.365 105.56C709.277 105.488 711.101 105.416 711.629 105.392V104.36C711.629 103.112 710.813 102.392 709.325 102.392C708.005 102.392 707.189 102.992 706.973 103.88H704.045C704.285 101.744 706.229 100.112 709.421 100.088C711.821 100.112 714.605 101.096 714.605 104.504V113H711.725V111.272H711.629C711.101 112.304 709.901 113.264 707.885 113.24C705.485 113.264 703.637 111.92 703.661 109.448ZM706.541 109.4C706.517 110.48 707.429 111.056 708.653 111.08C710.501 111.056 711.653 109.856 711.629 108.44V107.384C711.053 107.408 709.445 107.504 708.845 107.576C707.429 107.672 706.517 108.272 706.541 109.4ZM720.408 105.56V113H717.432V100.28H720.264V102.44H720.456C721.032 101 722.328 100.112 724.248 100.088C726.864 100.112 728.592 101.84 728.568 104.888V113H725.592V105.368C725.616 103.64 724.68 102.632 723.096 102.632C721.536 102.632 720.408 103.688 720.408 105.56ZM737.784 100.28V102.584H735.288V109.16C735.288 110.408 735.888 110.648 736.632 110.648C736.992 110.672 737.568 110.624 737.976 110.6V113.048C737.592 113.12 737.016 113.168 736.248 113.192C734.016 113.168 732.288 112.064 732.312 109.688V102.584H730.488V100.28H732.312V97.208H735.288V100.28H737.784ZM748.208 107.624V100.28H751.184V113H748.304V110.744H748.16C747.584 112.16 746.264 113.168 744.32 113.144C741.824 113.168 740.096 111.44 740.096 108.392V100.28H743.072V107.912C743.072 109.544 744.056 110.552 745.472 110.552C746.816 110.552 748.208 109.592 748.208 107.624ZM754.065 113V100.28H756.897V102.44H757.089C757.593 100.976 758.889 100.112 760.593 100.088C762.297 100.112 763.521 101 764.001 102.44H764.145C764.721 101.024 766.113 100.112 767.985 100.088C770.313 100.112 771.945 101.624 771.969 104.456V113H768.945V104.936C768.969 103.328 768.009 102.608 766.785 102.632C765.321 102.608 764.457 103.616 764.481 105.032V113H761.553V104.792C761.553 103.472 760.665 102.608 759.393 102.632C758.097 102.608 757.041 103.688 757.041 105.272V113H754.065ZM787.342 96.008H790.366V107.96C790.39 111.248 788.182 113.24 784.942 113.24C781.942 113.24 779.662 111.608 779.662 108.488H782.734C782.734 109.88 783.67 110.72 785.038 110.696C786.526 110.72 787.342 109.76 787.342 107.96V96.008ZM801.505 107.624V100.28H804.481V113H801.601V110.744H801.457C800.881 112.16 799.561 113.168 797.617 113.144C795.121 113.168 793.393 111.44 793.393 108.392V100.28H796.369V107.912C796.369 109.544 797.353 110.552 798.769 110.552C800.113 110.552 801.505 109.592 801.505 107.624ZM807.362 113V100.28H810.194V102.44H810.386C810.89 100.976 812.186 100.112 813.89 100.088C815.594 100.112 816.818 101 817.298 102.44H817.442C818.018 101.024 819.41 100.112 821.282 100.088C823.61 100.112 825.242 101.624 825.266 104.456V113H822.242V104.936C822.266 103.328 821.306 102.608 820.082 102.632C818.618 102.608 817.754 103.616 817.778 105.032V113H814.85V104.792C814.85 103.472 813.962 102.608 812.69 102.632C811.394 102.608 810.338 103.688 810.338 105.272V113H807.362ZM828.104 117.752V100.28H831.032V102.344H831.224C831.68 101.456 832.616 100.112 834.872 100.088C837.8 100.112 840.104 102.416 840.104 106.664C840.104 110.84 837.872 113.216 834.872 113.24C832.664 113.216 831.68 111.92 831.224 110.984H831.08V117.752H828.104ZM831.032 106.616C831.032 109.112 832.112 110.768 834.056 110.792C836.024 110.768 837.08 109.04 837.08 106.616C837.08 104.264 836.048 102.56 834.056 102.536C832.088 102.56 831.032 104.168 831.032 106.616ZM846.096 96.008L845.808 108.008H843.168L842.88 96.008H846.096ZM842.64 111.368C842.64 110.384 843.48 109.568 844.464 109.544C845.448 109.568 846.288 110.384 846.288 111.368C846.288 112.376 845.448 113.192 844.464 113.192C843.48 113.192 842.64 112.376 842.64 111.368ZM481.584 127.008H485.328L490.368 139.344H490.56L495.6 127.008H499.344V144H496.416V132.336H496.272L491.568 143.952H489.36L484.656 132.288H484.512V144H481.584V127.008ZM507.938 144.24C504.194 144.264 501.818 141.624 501.842 137.712C501.818 133.728 504.194 131.112 507.938 131.088C511.634 131.112 514.01 133.728 514.034 137.712C514.01 141.624 511.634 144.264 507.938 144.24ZM504.866 137.664C504.842 140.016 505.874 141.864 507.938 141.84C509.978 141.864 510.986 140.016 511.01 137.664C510.986 135.336 509.978 133.464 507.938 133.488C505.874 133.464 504.842 135.336 504.866 137.664ZM516.338 144V131.28H519.218V133.392H519.362C519.818 131.928 521.042 131.088 522.482 131.088C522.842 131.088 523.322 131.112 523.586 131.184V133.92C523.322 133.824 522.698 133.752 522.194 133.728C520.538 133.752 519.314 134.88 519.314 136.512V144H516.338ZM530.579 144.24C526.763 144.264 524.411 141.696 524.435 137.712C524.411 133.776 526.811 131.112 530.435 131.088C533.555 131.112 536.243 133.056 536.243 137.52V138.48H527.363C527.435 140.664 528.683 141.936 530.627 141.936C531.947 141.936 532.811 141.36 533.219 140.592H536.147C535.595 142.8 533.555 144.264 530.579 144.24ZM527.363 136.416H533.363C533.363 134.712 532.211 133.44 530.483 133.44C528.683 133.44 527.483 134.784 527.363 136.416ZM550.755 138.288H553.539L555.003 140.184C555.963 139.176 556.539 137.592 556.515 135.504C556.539 131.64 554.595 129.528 551.811 129.552C549.051 129.528 547.083 131.64 547.107 135.504C547.083 139.392 549.051 141.48 551.811 141.504C552.243 141.504 552.675 141.456 553.083 141.336L550.755 138.288ZM544.035 135.504C544.035 130.032 547.347 126.792 551.811 126.816C556.251 126.792 559.611 130.032 559.587 135.504C559.611 138.576 558.555 140.952 556.851 142.44L559.203 145.488H556.227L554.811 143.688C553.899 144.048 552.891 144.24 551.811 144.24C547.347 144.24 544.035 140.976 544.035 135.504ZM570.294 138.624V131.28H573.27V144H570.39V141.744H570.246C569.67 143.16 568.35 144.168 566.406 144.144C563.91 144.168 562.182 142.44 562.182 139.392V131.28H565.158V138.912C565.158 140.544 566.142 141.552 567.558 141.552C568.902 141.552 570.294 140.592 570.294 138.624ZM581.767 144.24C577.951 144.264 575.599 141.696 575.623 137.712C575.599 133.776 577.999 131.112 581.623 131.088C584.743 131.112 587.431 133.056 587.431 137.52V138.48H578.551C578.623 140.664 579.871 141.936 581.815 141.936C583.135 141.936 583.999 141.36 584.407 140.592H587.335C586.783 142.8 584.743 144.264 581.767 144.24ZM578.551 136.416H584.551C584.551 134.712 583.399 133.44 581.671 133.44C579.871 133.44 578.671 134.784 578.551 136.416ZM596.992 134.88C596.8 133.944 596.008 133.32 594.736 133.344C593.464 133.32 592.528 133.968 592.528 134.832C592.528 135.504 593.056 135.984 594.352 136.272L596.512 136.752C598.912 137.256 600.088 138.384 600.064 140.208C600.088 142.584 597.976 144.264 594.688 144.24C591.424 144.264 589.504 142.8 589.216 140.352H592.24C592.432 141.456 593.272 141.984 594.64 141.984C596.104 141.984 597.04 141.408 597.04 140.448C597.04 139.728 596.464 139.248 595.216 138.96L593.152 138.528C590.776 138.048 589.552 136.824 589.552 135.024C589.552 132.648 591.592 131.112 594.688 131.088C597.736 131.112 599.608 132.6 599.824 134.88H596.992ZM608.714 131.28V133.584H606.218V140.16C606.218 141.408 606.818 141.648 607.562 141.648C607.922 141.672 608.498 141.624 608.906 141.6V144.048C608.522 144.12 607.946 144.168 607.178 144.192C604.946 144.168 603.218 143.064 603.242 140.688V133.584H601.418V131.28H603.242V128.208H606.218V131.28H608.714ZM611.026 144V131.28H614.002V144H611.026ZM610.786 127.824C610.786 126.936 611.578 126.216 612.514 126.192C613.474 126.216 614.242 126.936 614.242 127.824C614.242 128.736 613.474 129.456 612.514 129.456C611.578 129.456 610.786 128.736 610.786 127.824ZM622.453 144.24C618.709 144.264 616.333 141.624 616.357 137.712C616.333 133.728 618.709 131.112 622.453 131.088C626.149 131.112 628.525 133.728 628.549 137.712C628.525 141.624 626.149 144.264 622.453 144.24ZM619.381 137.664C619.357 140.016 620.389 141.864 622.453 141.84C624.493 141.864 625.501 140.016 625.525 137.664C625.501 135.336 624.493 133.464 622.453 133.488C620.389 133.464 619.357 135.336 619.381 137.664ZM633.83 136.56V144H630.854V131.28H633.686V133.44H633.878C634.454 132 635.75 131.112 637.67 131.088C640.286 131.112 642.014 132.84 641.99 135.888V144H639.014V136.368C639.038 134.64 638.102 133.632 636.518 133.632C634.958 133.632 633.83 134.688 633.83 136.56ZM648.278 142.32L646.358 148.896H644.102L645.302 142.32H648.278ZM656.873 144V127.008H663.353C667.025 127.032 668.849 128.904 668.873 131.424C668.849 133.488 667.553 134.64 665.897 135.024V135.216C667.697 135.312 669.521 136.8 669.497 139.392C669.521 142.032 667.601 144 663.737 144H656.873ZM659.897 141.456H663.257C665.489 141.456 666.425 140.496 666.425 139.152C666.425 137.616 665.225 136.464 663.353 136.464H659.897V141.456ZM659.897 134.256H662.969C664.577 134.256 665.801 133.32 665.801 131.808C665.801 130.512 664.865 129.552 663.065 129.552H659.897V134.256ZM677.462 144.24C673.646 144.264 671.294 141.696 671.318 137.712C671.294 133.776 673.694 131.112 677.318 131.088C680.438 131.112 683.126 133.056 683.126 137.52V138.48H674.246C674.318 140.664 675.566 141.936 677.51 141.936C678.83 141.936 679.694 141.36 680.102 140.592H683.03C682.478 142.8 680.438 144.264 677.462 144.24ZM674.246 136.416H680.246C680.246 134.712 679.094 133.44 677.366 133.44C675.566 133.44 674.366 134.784 674.246 136.416ZM691.823 131.28V133.584H689.327V140.16C689.327 141.408 689.927 141.648 690.671 141.648C691.031 141.672 691.607 141.624 692.015 141.6V144.048C691.631 144.12 691.055 144.168 690.287 144.192C688.055 144.168 686.327 143.064 686.351 140.688V133.584H684.527V131.28H686.351V128.208H689.327V131.28H691.823ZM700.471 131.28V133.584H697.975V140.16C697.975 141.408 698.575 141.648 699.319 141.648C699.679 141.672 700.255 141.624 700.663 141.6V144.048C700.279 144.12 699.703 144.168 698.935 144.192C696.703 144.168 694.975 143.064 694.999 140.688V133.584H693.175V131.28H694.999V128.208H697.975V131.28H700.471ZM708.259 144.24C704.443 144.264 702.091 141.696 702.115 137.712C702.091 133.776 704.491 131.112 708.115 131.088C711.235 131.112 713.923 133.056 713.923 137.52V138.48H705.043C705.115 140.664 706.363 141.936 708.307 141.936C709.627 141.936 710.491 141.36 710.899 140.592H713.827C713.275 142.8 711.235 144.264 708.259 144.24ZM705.043 136.416H711.043C711.043 134.712 709.891 133.44 708.163 133.44C706.363 133.44 705.163 134.784 705.043 136.416ZM716.284 144V131.28H719.164V133.392H719.308C719.764 131.928 720.988 131.088 722.428 131.088C722.788 131.088 723.268 131.112 723.532 131.184V133.92C723.268 133.824 722.644 133.752 722.14 133.728C720.484 133.752 719.26 134.88 719.26 136.512V144H716.284ZM737.458 138.288H740.242L741.706 140.184C742.666 139.176 743.242 137.592 743.218 135.504C743.242 131.64 741.298 129.528 738.514 129.552C735.754 129.528 733.786 131.64 733.81 135.504C733.786 139.392 735.754 141.48 738.514 141.504C738.946 141.504 739.378 141.456 739.786 141.336L737.458 138.288ZM730.738 135.504C730.738 130.032 734.05 126.792 738.514 126.816C742.954 126.792 746.314 130.032 746.29 135.504C746.314 138.576 745.258 140.952 743.554 142.44L745.906 145.488H742.93L741.514 143.688C740.602 144.048 739.594 144.24 738.514 144.24C734.05 144.24 730.738 140.976 730.738 135.504ZM756.997 138.624V131.28H759.973V144H757.093V141.744H756.949C756.373 143.16 755.053 144.168 753.109 144.144C750.613 144.168 748.885 142.44 748.885 139.392V131.28H751.861V138.912C751.861 140.544 752.845 141.552 754.261 141.552C755.605 141.552 756.997 140.592 756.997 138.624ZM768.47 144.24C764.654 144.264 762.302 141.696 762.326 137.712C762.302 133.776 764.702 131.112 768.326 131.088C771.446 131.112 774.134 133.056 774.134 137.52V138.48H765.254C765.326 140.664 766.574 141.936 768.518 141.936C769.838 141.936 770.702 141.36 771.11 140.592H774.038C773.486 142.8 771.446 144.264 768.47 144.24ZM765.254 136.416H771.254C771.254 134.712 770.102 133.44 768.374 133.44C766.574 133.44 765.374 134.784 765.254 136.416ZM783.695 134.88C783.503 133.944 782.711 133.32 781.439 133.344C780.167 133.32 779.231 133.968 779.231 134.832C779.231 135.504 779.759 135.984 781.055 136.272L783.215 136.752C785.615 137.256 786.791 138.384 786.767 140.208C786.791 142.584 784.679 144.264 781.391 144.24C778.127 144.264 776.207 142.8 775.919 140.352H778.943C779.135 141.456 779.975 141.984 781.343 141.984C782.807 141.984 783.743 141.408 783.743 140.448C783.743 139.728 783.167 139.248 781.919 138.96L779.855 138.528C777.479 138.048 776.255 136.824 776.255 135.024C776.255 132.648 778.295 131.112 781.391 131.088C784.439 131.112 786.311 132.6 786.527 134.88H783.695ZM795.417 131.28V133.584H792.921V140.16C792.921 141.408 793.521 141.648 794.265 141.648C794.625 141.672 795.201 141.624 795.609 141.6V144.048C795.225 144.12 794.649 144.168 793.881 144.192C791.649 144.168 789.921 143.064 789.945 140.688V133.584H788.121V131.28H789.945V128.208H792.921V131.28H795.417ZM797.729 144V131.28H800.705V144H797.729ZM797.489 127.824C797.489 126.936 798.281 126.216 799.217 126.192C800.177 126.216 800.945 126.936 800.945 127.824C800.945 128.736 800.177 129.456 799.217 129.456C798.281 129.456 797.489 128.736 797.489 127.824ZM809.156 144.24C805.412 144.264 803.036 141.624 803.06 137.712C803.036 133.728 805.412 131.112 809.156 131.088C812.852 131.112 815.228 133.728 815.252 137.712C815.228 141.624 812.852 144.264 809.156 144.24ZM806.084 137.664C806.06 140.016 807.092 141.864 809.156 141.84C811.196 141.864 812.204 140.016 812.228 137.664C812.204 135.336 811.196 133.464 809.156 133.488C807.092 133.464 806.06 135.336 806.084 137.664ZM820.533 136.56V144H817.557V131.28H820.389V133.44H820.581C821.157 132 822.453 131.112 824.373 131.088C826.989 131.112 828.717 132.84 828.693 135.888V144H825.717V136.368C825.741 134.64 824.805 133.632 823.221 133.632C821.661 133.632 820.533 134.688 820.533 136.56ZM835.221 127.008L834.933 139.008H832.293L832.005 127.008H835.221ZM831.765 142.368C831.765 141.384 832.605 140.568 833.589 140.544C834.573 140.568 835.413 141.384 835.413 142.368C835.413 143.376 834.573 144.192 833.589 144.192C832.605 144.192 831.765 143.376 831.765 142.368Z" fill="#9CA5B2"/>
<path d="M1128.62 147.1C1128.62 147.838 1128.77 148.538 1129.08 149.2C1129.38 149.856 1129.82 150.434 1130.4 150.932C1130.97 151.43 1131.65 151.805 1132.44 152.057L1131.52 153.357C1130.67 153.047 1129.92 152.602 1129.29 152.021C1128.66 151.436 1128.18 150.744 1127.83 149.947C1127.48 150.855 1126.97 151.646 1126.29 152.32C1125.62 152.988 1124.81 153.492 1123.88 153.832L1122.98 152.496C1123.8 152.215 1124.52 151.808 1125.11 151.274C1125.71 150.741 1126.17 150.123 1126.49 149.42C1126.8 148.711 1126.96 147.961 1126.97 147.17V145.623H1128.62V147.1ZM1136.16 154.043H1134.49V149.314H1131.17V147.943H1134.49V144.744H1136.16V154.043ZM1130.89 154.482C1131.99 154.482 1132.94 154.6 1133.74 154.834C1134.53 155.068 1135.15 155.411 1135.57 155.862C1136 156.313 1136.21 156.855 1136.21 157.488C1136.21 158.115 1136 158.651 1135.57 159.097C1135.15 159.548 1134.53 159.888 1133.73 160.116C1132.93 160.351 1131.98 160.465 1130.89 160.459C1129.79 160.465 1128.83 160.351 1128.03 160.116C1127.24 159.888 1126.62 159.548 1126.2 159.097C1125.77 158.651 1125.56 158.115 1125.56 157.488C1125.56 156.855 1125.77 156.313 1126.2 155.862C1126.62 155.411 1127.24 155.068 1128.03 154.834C1128.83 154.6 1129.79 154.482 1130.89 154.482ZM1130.89 155.783C1129.73 155.783 1128.83 155.933 1128.18 156.231C1127.54 156.524 1127.21 156.943 1127.21 157.488C1127.21 158.016 1127.54 158.423 1128.18 158.71C1128.83 158.997 1129.73 159.141 1130.89 159.141C1132.04 159.141 1132.94 158.997 1133.59 158.71C1134.24 158.423 1134.56 158.016 1134.56 157.488C1134.56 156.943 1134.24 156.524 1133.59 156.231C1132.94 155.933 1132.04 155.783 1130.89 155.783ZM1144.09 147.645C1144.09 148.312 1144.24 148.951 1144.54 149.561C1144.84 150.164 1145.27 150.7 1145.84 151.169C1146.41 151.632 1147.08 151.986 1147.87 152.232L1147.08 153.533C1146.19 153.252 1145.43 152.83 1144.78 152.268C1144.13 151.705 1143.63 151.043 1143.28 150.281C1142.94 151.154 1142.42 151.916 1141.74 152.566C1141.06 153.211 1140.26 153.697 1139.33 154.025L1138.46 152.689C1139.27 152.426 1139.96 152.039 1140.56 151.529C1141.15 151.014 1141.61 150.422 1141.93 149.754C1142.25 149.086 1142.41 148.389 1142.42 147.662V147.223H1138.96V145.869H1147.48V147.223H1144.09V147.645ZM1150.96 148.646H1153.25V150.018H1150.96V154.201H1149.29V144.744H1150.96V148.646ZM1145.88 154.588C1146.96 154.588 1147.89 154.705 1148.68 154.939C1149.46 155.168 1150.06 155.502 1150.48 155.941C1150.9 156.375 1151.1 156.896 1151.1 157.506C1151.1 158.121 1150.89 158.651 1150.47 159.097C1150.05 159.542 1149.45 159.882 1148.67 160.116C1147.89 160.351 1146.96 160.465 1145.88 160.459C1144.79 160.465 1143.85 160.351 1143.05 160.116C1142.26 159.882 1141.65 159.542 1141.22 159.097C1140.8 158.651 1140.59 158.121 1140.59 157.506C1140.59 156.896 1140.8 156.375 1141.22 155.941C1141.65 155.502 1142.26 155.168 1143.05 154.939C1143.85 154.705 1144.79 154.588 1145.88 154.588ZM1145.88 155.906C1144.73 155.906 1143.84 156.047 1143.2 156.328C1142.57 156.604 1142.26 156.996 1142.26 157.506C1142.26 158.027 1142.57 158.432 1143.2 158.719C1143.84 159 1144.73 159.141 1145.88 159.141C1147.02 159.141 1147.9 159 1148.53 158.719C1149.16 158.438 1149.47 158.033 1149.47 157.506C1149.47 156.996 1149.16 156.604 1148.53 156.328C1147.9 156.047 1147.02 155.906 1145.88 155.906ZM1166.41 151.125H1168.95V152.514H1166.41V160.494H1164.76V144.744H1166.41V151.125ZM1163.39 148.576H1154.06V147.205H1157.94V144.955H1159.61V147.205H1163.39V148.576ZM1158.79 149.736C1159.53 149.736 1160.2 149.892 1160.79 150.202C1161.38 150.513 1161.85 150.946 1162.19 151.503C1162.53 152.06 1162.7 152.689 1162.71 153.393C1162.7 154.102 1162.53 154.734 1162.19 155.291C1161.85 155.848 1161.38 156.281 1160.79 156.592C1160.2 156.902 1159.53 157.061 1158.79 157.066C1158.04 157.061 1157.36 156.902 1156.76 156.592C1156.17 156.281 1155.71 155.848 1155.37 155.291C1155.03 154.734 1154.87 154.102 1154.87 153.393C1154.87 152.689 1155.03 152.06 1155.37 151.503C1155.71 150.946 1156.17 150.513 1156.76 150.202C1157.36 149.892 1158.04 149.736 1158.79 149.736ZM1158.79 151.107C1158.35 151.107 1157.95 151.204 1157.59 151.397C1157.23 151.591 1156.95 151.86 1156.75 152.206C1156.56 152.552 1156.46 152.947 1156.46 153.393C1156.46 153.844 1156.56 154.242 1156.75 154.588C1156.95 154.934 1157.23 155.2 1157.58 155.388C1157.94 155.575 1158.34 155.666 1158.79 155.66C1159.22 155.666 1159.62 155.575 1159.97 155.388C1160.33 155.2 1160.61 154.934 1160.81 154.588C1161.01 154.242 1161.11 153.844 1161.11 153.393C1161.11 152.947 1161.01 152.552 1160.81 152.206C1160.61 151.86 1160.33 151.591 1159.97 151.397C1159.62 151.204 1159.22 151.107 1158.79 151.107ZM1182.45 147.803C1182.45 148.688 1182.43 149.458 1182.41 150.114C1182.39 150.765 1182.34 151.518 1182.25 152.373C1182.17 153.229 1182.04 154.154 1181.85 155.15L1180.16 154.975C1180.35 154.031 1180.49 153.144 1180.57 152.312C1180.67 151.474 1180.72 150.729 1180.74 150.079C1180.76 149.429 1180.78 148.67 1180.78 147.803V147.609H1171.21V146.256H1182.45V147.803ZM1184.06 158.367H1169.7V156.979H1175.17V151.424H1176.82V156.979H1184.06V158.367ZM1190.74 149.385C1190.74 150.211 1190.91 151.049 1191.25 151.898C1191.59 152.748 1192.07 153.516 1192.68 154.201C1193.29 154.887 1193.99 155.414 1194.77 155.783L1193.82 157.084C1192.95 156.662 1192.18 156.038 1191.5 155.212C1190.82 154.386 1190.31 153.448 1189.94 152.399C1189.58 153.536 1189.04 154.559 1188.33 155.467C1187.63 156.369 1186.83 157.043 1185.94 157.488L1184.96 156.17C1185.74 155.795 1186.44 155.244 1187.07 154.518C1187.7 153.791 1188.2 152.977 1188.55 152.074C1188.91 151.166 1189.09 150.27 1189.09 149.385V147.715H1185.54V146.326H1194.17V147.715H1190.74V149.385ZM1197.53 150.984H1200.06V152.391H1197.53V160.494H1195.86V144.744H1197.53V150.984ZM1217.48 151.125H1220.01V152.514H1217.48V160.494H1215.83V144.744H1217.48V151.125ZM1214.46 148.576H1205.12V147.205H1209.01V144.955H1210.68V147.205H1214.46V148.576ZM1209.85 149.736C1210.59 149.736 1211.26 149.892 1211.85 150.202C1212.45 150.513 1212.91 150.946 1213.25 151.503C1213.59 152.06 1213.76 152.689 1213.77 153.393C1213.76 154.102 1213.59 154.734 1213.25 155.291C1212.91 155.848 1212.45 156.281 1211.85 156.592C1211.26 156.902 1210.59 157.061 1209.85 157.066C1209.1 157.061 1208.43 156.902 1207.83 156.592C1207.24 156.281 1206.77 155.848 1206.43 155.291C1206.1 154.734 1205.93 154.102 1205.93 153.393C1205.93 152.689 1206.1 152.06 1206.43 151.503C1206.77 150.946 1207.24 150.513 1207.83 150.202C1208.43 149.892 1209.1 149.736 1209.85 149.736ZM1209.85 151.107C1209.41 151.107 1209.01 151.204 1208.65 151.397C1208.3 151.591 1208.02 151.86 1207.82 152.206C1207.62 152.552 1207.52 152.947 1207.53 153.393C1207.52 153.844 1207.62 154.242 1207.82 154.588C1208.02 154.934 1208.29 155.2 1208.65 155.388C1209 155.575 1209.4 155.666 1209.85 155.66C1210.29 155.666 1210.68 155.575 1211.04 155.388C1211.39 155.2 1211.67 154.934 1211.87 154.588C1212.07 154.242 1212.17 153.844 1212.17 153.393C1212.17 152.947 1212.07 152.552 1211.87 152.206C1211.67 151.86 1211.39 151.591 1211.04 151.397C1210.68 151.204 1210.29 151.107 1209.85 151.107ZM1233.51 150.686H1222.66V145.307H1224.32V149.35H1233.51V150.686ZM1235.16 154.008H1220.75V152.672H1235.16V154.008ZM1233.62 160.125H1222.54V155.502H1224.21V158.754H1233.62V160.125ZM1255.13 158.525H1240.72V157.137H1247.06V153.498H1242.37V146.01H1253.41V153.498H1248.71V157.137H1255.13V158.525ZM1243.99 152.18H1251.77V147.346H1243.99V152.18ZM1270.65 153.973H1256.27V152.637H1270.65V153.973ZM1269.04 151.055H1258.07V145.395H1268.88V146.73H1259.74V149.684H1269.04V151.055ZM1269.14 160.16H1258.08V155.52H1259.74V158.789H1269.14V160.16ZM1281.69 148.752C1281.69 149.678 1281.85 150.592 1282.18 151.494C1282.52 152.391 1282.98 153.196 1283.58 153.911C1284.18 154.62 1284.87 155.162 1285.65 155.537L1284.61 156.873C1283.77 156.434 1283.02 155.798 1282.37 154.966C1281.72 154.134 1281.23 153.185 1280.87 152.118C1280.52 153.255 1280 154.269 1279.33 155.159C1278.66 156.044 1277.88 156.715 1277 157.172L1275.96 155.818C1276.75 155.438 1277.46 154.875 1278.07 154.131C1278.69 153.387 1279.17 152.543 1279.51 151.6C1279.85 150.656 1280.02 149.707 1280.02 148.752V146.062H1281.69V148.752ZM1288.49 151.02H1291.03V152.443H1288.49V160.494H1286.82V144.744H1288.49V151.02ZM1304.16 148.682H1306.46V150.088H1304.16V154.131H1302.49V144.762H1304.16V148.682ZM1304.16 160.301H1294.07V154.869H1304.16V160.301ZM1295.7 158.947H1302.54V156.17H1295.7V158.947ZM1299.59 150.035H1294.1V152.004C1295.58 151.998 1296.84 151.963 1297.88 151.898C1298.92 151.834 1299.98 151.711 1301.06 151.529L1301.24 152.865C1300.08 153.076 1298.94 153.217 1297.82 153.287C1296.7 153.357 1295.33 153.393 1293.7 153.393H1292.43V148.77H1297.95V146.924H1292.41V145.588H1299.59V150.035ZM1314.51 145.008C1315.69 145.008 1316.7 145.113 1317.54 145.324C1318.39 145.529 1319.03 145.834 1319.47 146.238C1319.91 146.643 1320.13 147.135 1320.13 147.715C1320.13 148.295 1319.91 148.79 1319.47 149.2C1319.03 149.604 1318.39 149.912 1317.54 150.123C1316.7 150.334 1315.69 150.439 1314.51 150.439C1313.33 150.439 1312.31 150.334 1311.47 150.123C1310.63 149.912 1309.99 149.604 1309.54 149.2C1309.1 148.79 1308.88 148.295 1308.88 147.715C1308.88 147.135 1309.1 146.643 1309.54 146.238C1309.99 145.834 1310.63 145.529 1311.47 145.324C1312.31 145.113 1313.33 145.008 1314.51 145.008ZM1314.51 146.238C1313.26 146.238 1312.29 146.367 1311.62 146.625C1310.94 146.883 1310.61 147.246 1310.62 147.715C1310.62 148.195 1310.95 148.562 1311.61 148.813C1312.28 149.065 1313.24 149.191 1314.51 149.191C1315.77 149.191 1316.73 149.065 1317.4 148.813C1318.08 148.562 1318.41 148.195 1318.41 147.715C1318.41 147.246 1318.07 146.883 1317.39 146.625C1316.72 146.367 1315.76 146.238 1314.51 146.238ZM1321.7 152.742H1307.34V151.406H1321.7V152.742ZM1319.89 157.646H1310.71V159.053H1320.33V160.336H1309.08V156.434H1318.24V155.203H1309.06V153.955H1319.89V157.646ZM1332.46 145.465C1333.24 145.465 1333.95 145.603 1334.57 145.878C1335.19 146.153 1335.67 146.54 1336.03 147.038C1336.38 147.53 1336.55 148.096 1336.55 148.734C1336.55 149.367 1336.38 149.933 1336.03 150.431C1335.67 150.929 1335.19 151.315 1334.57 151.591C1333.95 151.86 1333.24 151.992 1332.46 151.986C1331.67 151.992 1330.97 151.86 1330.36 151.591C1329.74 151.315 1329.26 150.932 1328.92 150.439C1328.57 149.941 1328.4 149.373 1328.4 148.734C1328.4 148.096 1328.57 147.527 1328.92 147.029C1329.26 146.531 1329.74 146.147 1330.36 145.878C1330.97 145.603 1331.67 145.465 1332.46 145.465ZM1332.46 146.818C1331.98 146.818 1331.56 146.897 1331.18 147.056C1330.81 147.214 1330.52 147.439 1330.31 147.732C1330.11 148.02 1330.01 148.354 1330.01 148.734C1330.01 149.109 1330.11 149.44 1330.31 149.728C1330.52 150.015 1330.82 150.237 1331.19 150.396C1331.57 150.548 1331.99 150.621 1332.46 150.615C1332.94 150.621 1333.37 150.548 1333.75 150.396C1334.13 150.237 1334.43 150.015 1334.64 149.728C1334.85 149.44 1334.95 149.109 1334.95 148.734C1334.95 148.354 1334.85 148.02 1334.64 147.732C1334.43 147.439 1334.13 147.214 1333.75 147.056C1333.37 146.897 1332.94 146.818 1332.46 146.818ZM1340.38 160.494H1338.73V144.762H1340.38V160.494ZM1327.27 153.217C1329.13 153.217 1330.94 153.179 1332.69 153.103C1334.45 153.021 1336.1 152.865 1337.64 152.637L1337.77 153.885C1336.48 154.131 1335.02 154.312 1333.39 154.43V160.002H1331.72V154.518C1330.72 154.564 1329.32 154.594 1327.5 154.605L1327.27 153.217ZM1355.22 149.824H1357.51V151.213H1355.22V156.539H1353.55V144.762H1355.22V149.824ZM1352.25 147.943H1342.86V146.59H1346.73V144.744H1348.4V146.59H1352.25V147.943ZM1347.56 148.699C1348.31 148.699 1348.97 148.822 1349.54 149.068C1350.12 149.314 1350.57 149.663 1350.89 150.114C1351.21 150.56 1351.37 151.078 1351.37 151.67C1351.37 152.262 1351.21 152.78 1350.89 153.226C1350.57 153.671 1350.12 154.017 1349.54 154.263C1348.97 154.503 1348.31 154.623 1347.56 154.623C1346.8 154.623 1346.13 154.503 1345.55 154.263C1344.97 154.017 1344.52 153.671 1344.2 153.226C1343.88 152.78 1343.72 152.262 1343.72 151.67C1343.72 151.078 1343.88 150.56 1344.2 150.114C1344.52 149.663 1344.97 149.314 1345.55 149.068C1346.13 148.822 1346.8 148.699 1347.56 148.699ZM1347.56 149.982C1347.11 149.982 1346.72 150.053 1346.38 150.193C1346.04 150.328 1345.79 150.524 1345.61 150.782C1345.42 151.034 1345.34 151.33 1345.34 151.67C1345.34 152.004 1345.42 152.297 1345.61 152.549C1345.79 152.795 1346.04 152.985 1346.38 153.12C1346.72 153.255 1347.11 153.322 1347.56 153.322C1348 153.322 1348.39 153.255 1348.73 153.12C1349.07 152.985 1349.33 152.795 1349.52 152.549C1349.7 152.297 1349.8 152.004 1349.81 151.67C1349.8 151.33 1349.7 151.034 1349.52 150.782C1349.33 150.524 1349.07 150.328 1348.73 150.193C1348.39 150.053 1348 149.982 1347.56 149.982ZM1355.89 160.16H1345.24V155.607H1346.91V158.807H1355.89V160.16ZM1372.2 147.68H1362.81V146.344H1366.68V144.674H1368.35V146.344H1372.2V147.68ZM1367.51 148.383C1368.26 148.389 1368.92 148.512 1369.49 148.752C1370.07 148.986 1370.52 149.32 1370.84 149.754C1371.16 150.182 1371.32 150.68 1371.32 151.248C1371.32 151.816 1371.16 152.317 1370.84 152.751C1370.52 153.185 1370.07 153.521 1369.49 153.762C1368.92 153.996 1368.26 154.113 1367.51 154.113C1366.75 154.113 1366.08 153.996 1365.5 153.762C1364.92 153.521 1364.47 153.185 1364.15 152.751C1363.83 152.317 1363.68 151.816 1363.68 151.248C1363.68 150.68 1363.83 150.182 1364.15 149.754C1364.47 149.32 1364.92 148.986 1365.5 148.752C1366.08 148.512 1366.75 148.389 1367.51 148.383ZM1367.51 149.666C1367.06 149.666 1366.67 149.73 1366.34 149.859C1366 149.988 1365.74 150.173 1365.56 150.413C1365.38 150.653 1365.29 150.932 1365.29 151.248C1365.29 151.734 1365.48 152.118 1365.88 152.399C1366.29 152.675 1366.83 152.812 1367.51 152.812C1368.18 152.812 1368.72 152.675 1369.13 152.399C1369.54 152.118 1369.75 151.734 1369.76 151.248C1369.75 150.932 1369.66 150.653 1369.47 150.413C1369.28 150.173 1369.02 149.988 1368.68 149.859C1368.34 149.73 1367.95 149.666 1367.51 149.666ZM1375.17 149.016H1377.46V150.404H1375.17V154.588H1373.5V144.744H1375.17V149.016ZM1375.17 160.494H1373.5V156.75H1364.77V155.396H1375.17V160.494ZM1381.78 155.854H1389.18V154.184H1390.85V160.301H1380.13V154.184H1381.78V155.854ZM1389.18 158.965V157.154H1381.78V158.965H1389.18ZM1392.71 153.199H1378.35V151.811H1392.71V153.199ZM1386.39 145.588C1386.39 146.18 1386.64 146.757 1387.13 147.319C1387.64 147.876 1388.31 148.354 1389.16 148.752C1390 149.145 1390.93 149.402 1391.92 149.525L1391.33 150.844C1390.04 150.662 1388.87 150.284 1387.84 149.71C1386.81 149.136 1386.04 148.436 1385.53 147.609C1385.03 148.441 1384.26 149.145 1383.22 149.719C1382.19 150.287 1381.04 150.662 1379.76 150.844L1379.13 149.525C1380.13 149.396 1381.06 149.139 1381.91 148.752C1382.76 148.365 1383.44 147.894 1383.93 147.337C1384.43 146.78 1384.68 146.197 1384.68 145.588V144.92H1386.39V145.588ZM1401.91 151.477H1408.27V152.812H1393.91V151.477H1400.26V149.525H1401.91V151.477ZM1401.93 145.377C1401.93 146.004 1402.17 146.581 1402.66 147.108C1403.14 147.636 1403.8 148.075 1404.64 148.427C1405.49 148.778 1406.43 149.01 1407.46 149.121L1406.88 150.404C1405.55 150.223 1404.37 149.877 1403.34 149.367C1402.32 148.852 1401.56 148.195 1401.06 147.398C1400.57 148.189 1399.81 148.843 1398.79 149.358C1397.76 149.874 1396.59 150.223 1395.26 150.404L1394.67 149.121C1395.71 149.01 1396.65 148.778 1397.5 148.427C1398.34 148.075 1399 147.636 1399.49 147.108C1399.98 146.581 1400.23 146.004 1400.24 145.377V144.867H1401.93V145.377ZM1406.46 157.699H1397.29V159.053H1406.9V160.336H1395.65V156.486H1404.81V155.238H1395.63V153.955H1406.46V157.699ZM1422.16 149.613H1412.88V151.424H1422.49V152.777H1411.21V148.33H1420.45V146.678H1411.15V145.324H1422.16V149.613ZM1423.86 155.607H1417.46V160.529H1415.79V155.607H1409.45V154.271H1423.86V155.607ZM1430.58 147.592C1430.58 148.348 1430.73 149.077 1431.04 149.78C1431.34 150.483 1431.77 151.11 1432.34 151.661C1432.9 152.212 1433.57 152.637 1434.34 152.936L1433.43 154.236C1432.58 153.896 1431.84 153.398 1431.21 152.742C1430.59 152.086 1430.11 151.321 1429.77 150.448C1429.43 151.374 1428.93 152.188 1428.27 152.892C1427.6 153.589 1426.82 154.119 1425.92 154.482L1425.02 153.146C1425.81 152.854 1426.5 152.426 1427.09 151.863C1427.68 151.295 1428.13 150.642 1428.44 149.903C1428.76 149.165 1428.92 148.395 1428.93 147.592V145.641H1430.58V147.592ZM1438.15 156.486H1436.48V151.529H1433.43V150.176H1436.48V148.348H1433.43V146.994H1436.48V144.762H1438.15V156.486ZM1438.51 160.16H1427.87V155.309H1429.56V158.807H1438.51V160.16Z" fill="#6A7380"/>
<path d="M1305.91 124H1293.53V90.016H1305.91C1316.28 90.064 1322.67 96.4 1322.71 107.008C1322.67 117.616 1316.28 124 1305.91 124ZM1301.5 117.184H1305.63C1311.48 117.184 1314.65 114.4 1314.65 107.008C1314.65 99.664 1311.48 96.88 1305.53 96.832H1301.5V117.184ZM1339.23 124.48C1331.26 124.48 1326.36 119.488 1326.36 111.328C1326.36 103.504 1331.31 98.224 1338.94 98.176C1346.09 98.224 1351.23 102.736 1351.23 111.232V113.248H1334.14V113.344C1334.19 116.608 1336.16 118.768 1339.32 118.72C1341.53 118.768 1343.12 117.808 1343.74 116.32H1351.13C1350.17 121.264 1345.8 124.48 1339.23 124.48ZM1334.14 108.544H1343.84C1343.79 105.856 1341.87 103.936 1339.13 103.936C1336.35 103.936 1334.28 105.904 1334.14 108.544ZM1379.13 98.56L1370.3 124H1361.28L1352.54 98.56H1360.89L1365.69 116.224H1365.98L1370.78 98.56H1379.13ZM1402.76 90.016H1410.83V112C1410.78 119.536 1405.02 124.432 1396.52 124.48C1387.88 124.432 1382.22 119.536 1382.22 112V90.016H1390.19V111.328C1390.19 114.88 1392.73 117.472 1396.52 117.472C1400.27 117.472 1402.81 114.88 1402.76 111.328V90.016ZM1430.61 106.432C1430.41 104.704 1428.88 103.648 1426.77 103.648C1424.8 103.648 1423.31 104.512 1423.31 105.856C1423.31 106.816 1424.03 107.632 1426.19 108.064L1431.09 109.024C1436.13 109.984 1438.57 112.192 1438.57 115.936C1438.57 121.072 1433.77 124.48 1426.86 124.48C1419.61 124.48 1415.34 121.216 1414.86 116.128H1422.73C1423.02 118 1424.56 118.96 1426.86 119.008C1429.07 118.96 1430.51 118.144 1430.51 116.8C1430.51 115.6 1429.55 114.88 1427.34 114.496L1423.02 113.632C1417.98 112.72 1415.44 110.176 1415.44 106.336C1415.44 101.248 1419.76 98.224 1426.67 98.176C1433.49 98.224 1437.66 101.344 1438 106.432H1430.61Z" fill="#6A7380"/>
<defs>
<linearGradient id="paint0_linear_5336_11531" x1="0" y1="120" x2="1920" y2="120" gradientUnits="userSpaceOnUse">
<stop stop-color="#BAFBFF"/>
<stop offset="0.354167" stop-color="#CFEEFF"/>
<stop offset="1" stop-color="#FEE2FF"/>
</linearGradient>
</defs>
</svg>
