<svg width="1120" height="396" viewBox="0 0 1120 396" fill="none" xmlns="http://www.w3.org/2000/svg">
<g clip-path="url(#clip0_5336_11487)">
<rect width="1120" height="396" rx="20" fill="url(#paint0_linear_5336_11487)"/>
<path d="M68.664 202.544V208.256H71.912V211.448H68.664V216.936H64.688V202.544H68.664ZM48.448 214.472C53.768 213.1 56.736 210.44 57.296 207.248H49.624V204.112H61.608C61.608 210.916 57.52 215.592 49.96 217.664L48.448 214.472ZM51.808 222.424C51.752 219.26 55.252 217.244 60.376 217.216C65.5 217.244 68.916 219.26 68.944 222.424C68.916 225.672 65.5 227.66 60.376 227.688C55.252 227.66 51.752 225.672 51.808 222.424ZM55.672 222.424C55.672 223.852 57.38 224.608 60.376 224.608C63.316 224.608 65.024 223.852 65.024 222.424C65.024 221.024 63.316 220.268 60.376 220.296C57.38 220.268 55.672 221.024 55.672 222.424ZM80.9352 204.168C84.9392 204.14 87.9632 206.772 87.9912 210.384C87.9632 214.052 84.9392 216.656 80.9352 216.656C76.9872 216.656 73.9072 214.052 73.9352 210.384C73.9072 206.772 76.9872 204.14 80.9352 204.168ZM72.9832 219.512C77.3792 219.512 83.5112 219.456 88.8312 218.728L89.1112 221.528C83.6232 222.62 77.7432 222.676 73.3752 222.704L72.9832 219.512ZM77.8552 210.384C77.8272 212.288 79.1992 213.24 80.9352 213.24C82.7552 213.24 84.1272 212.288 84.1272 210.384C84.1272 208.564 82.7552 207.556 80.9352 207.528C79.1992 207.556 77.8272 208.564 77.8552 210.384ZM90.1752 227.688V202.544H94.0952V227.688H90.1752ZM106.59 209.096C106.534 212.848 108.298 217.244 112.582 219.232L110.398 222.312C107.654 221.052 105.75 218.644 104.658 215.788C103.538 218.952 101.578 221.612 98.6944 222.928L96.3984 219.848C100.794 217.832 102.586 213.184 102.614 209.096V208.088H97.4624V204.896H111.406V208.088H106.59V209.096ZM113.03 227.632V202.544H116.95V211.896H120.534V215.2H116.95V227.632H113.03ZM144.174 221.696V224.944H121.27V221.696H126.926V218.168H123.846V209.544H137.734V207.248H123.79V204.112H141.654V212.624H127.766V214.976H142.214V218.168H138.798V221.696H144.174ZM130.79 221.696H134.934V218.168H130.79V221.696ZM173.403 202.544V227.632H169.651V214.976H167.691V226.568H164.107V203.16H167.691V211.84H169.651V202.544H173.403ZM151.283 219.792C156.183 216.908 158.311 213.492 158.787 208.704H152.683V205.568H162.651C162.651 212.764 160.607 218.42 153.579 222.536L151.283 219.792ZM185.562 206.688C185.562 209.852 187.046 213.044 191.162 214.416L189.034 217.44C186.458 216.516 184.694 214.808 183.63 212.624C182.566 215.116 180.69 217.048 177.834 218.056L175.706 214.976C180.018 213.604 181.558 210.188 181.586 206.688V204.056H185.562V206.688ZM180.298 227.24V219.12H184.274V224.048H197.658V227.24H180.298ZM188.81 210.888V207.696H193.234V202.544H197.154V221.024H193.234V210.888H188.81ZM209.593 207.864C209.593 212.4 211.189 216.908 215.361 218.896L213.009 222.032C210.377 220.772 208.669 218.476 207.661 215.648C206.569 218.7 204.721 221.164 201.921 222.536L199.513 219.344C203.937 217.328 205.645 212.54 205.673 207.864V204.392H209.593V207.864ZM216.089 227.632V202.544H220.009V212.008H223.593V215.368H220.009V227.632H216.089ZM244.32 202.544V208.76H247.568V212.008H244.32V218.392H240.344V202.544H244.32ZM224.272 207.864V204.784H229.76V202.376H233.68V204.784H239.168V207.864H224.272ZM225.448 213.072C225.448 210.412 228.024 208.564 231.72 208.536C235.388 208.564 237.936 210.412 237.936 213.072C237.936 215.788 235.388 217.608 231.72 217.608C228.024 217.608 225.448 215.788 225.448 213.072ZM227.464 223.152C227.408 220.324 230.712 218.616 236.032 218.616C241.212 218.616 244.572 220.324 244.6 223.152C244.572 225.924 241.212 227.66 236.032 227.632C230.712 227.66 227.408 225.924 227.464 223.152ZM229.312 213.072C229.284 214.192 230.264 214.724 231.72 214.696C233.204 214.724 234.212 214.192 234.24 213.072C234.212 211.952 233.204 211.392 231.72 211.392C230.264 211.392 229.284 211.952 229.312 213.072ZM231.328 223.152C231.328 224.188 232.896 224.72 236.032 224.72C239.056 224.72 240.624 224.188 240.624 223.152C240.624 222.032 239.056 221.612 236.032 221.584C232.896 221.612 231.328 222.032 231.328 223.152ZM275.285 213.576V216.712H268.173V221.64H277.693V224.888H254.789V221.64H264.253V216.712H257.421V204.224H275.117V207.36H261.341V213.576H275.285ZM301.78 213.072V215.928H292.372V217.216H299.092V223.6H285.428V224.608H299.708V227.464H281.564V220.968H295.228V220.016H281.564V217.216H288.452V215.928H279.044V213.072H301.78ZM279.828 209.656C284.728 209.46 287.024 208.452 287.836 207.304H281.116V204.392H288.396V202.544H292.316V204.392H299.708V207.304H292.932C293.716 208.452 296.012 209.46 300.996 209.656L299.82 212.568C295.088 212.344 291.98 211.224 290.384 209.488C288.788 211.224 285.68 212.344 280.892 212.568L279.828 209.656Z" fill="black"/>
<path d="M59.08 271.08V272.32H48.76V271.08H53.16V269.16H54.68V271.08H59.08ZM49.76 276.4C49.72 274.48 51.42 273.26 53.92 273.24C56.42 273.26 58.08 274.48 58.08 276.4C58.08 278.28 56.42 279.5 53.92 279.52C51.42 279.5 49.72 278.28 49.76 276.4ZM50.92 282.28V281.04H62.28V286.6H60.76V282.28H50.92ZM51.2 276.4C51.2 277.54 52.28 278.28 53.92 278.28C55.54 278.28 56.64 277.54 56.64 276.4C56.64 275.2 55.54 274.44 53.92 274.44C52.28 274.44 51.2 275.2 51.2 276.4ZM60.76 280.08V269.24H62.28V274.04H64.88V275.32H62.28V280.08H60.76ZM71.1652 272.68C71.1652 274.6 72.5052 276.54 74.7652 277.36L73.9252 278.56C72.2452 277.92 71.0652 276.66 70.4452 275.16C69.8052 276.82 68.5652 278.3 66.8452 279.04L66.0052 277.84C68.3052 276.86 69.6852 274.62 69.6852 272.68V270.32H71.1652V272.68ZM69.1652 283.44C69.1452 281.5 71.3852 280.34 75.0052 280.36C78.5852 280.34 80.8252 281.5 80.8052 283.44C80.8252 285.4 78.5852 286.54 75.0052 286.56C71.3852 286.54 69.1452 285.4 69.1652 283.44ZM70.6852 283.44C70.6652 284.64 72.3252 285.36 75.0052 285.36C77.6252 285.36 79.2852 284.64 79.2852 283.44C79.2852 282.26 77.6252 281.54 75.0052 281.52C72.3252 281.54 70.6652 282.26 70.6852 283.44ZM75.5252 279.4V269.56H76.9652V273.92H79.2852V269.24H80.7252V279.96H79.2852V275.16H76.9652V279.4H75.5252ZM99.1303 276.52V277.76H83.2903V276.52H99.1303ZM85.2103 280.52V279.32H97.0503V283.36H86.7303V285.12H97.5703V286.4H85.2503V282.2H95.5703V280.52H85.2103ZM85.3703 275.08V269.84H97.0503V271.08H86.9303V273.84H97.2103V275.08H85.3703ZM106.255 270.48C108.975 270.5 110.895 272.16 110.935 274.56C110.895 276.98 108.975 278.64 106.255 278.64C103.495 278.64 101.535 276.98 101.535 274.56C101.535 272.16 103.495 270.5 106.255 270.48ZM100.655 281.48C103.855 281.5 108.275 281.46 112.135 280.88L112.255 282.04C108.275 282.78 103.995 282.8 100.855 282.8L100.655 281.48ZM103.055 274.56C103.055 276.18 104.395 277.3 106.255 277.32C108.075 277.3 109.415 276.18 109.415 274.56C109.415 272.96 108.075 271.84 106.255 271.84C104.395 271.84 103.055 272.96 103.055 274.56ZM113.255 286.6V269.24H114.815V286.6H113.255ZM130.701 280.2C134.421 280.2 136.781 281.36 136.781 283.4C136.781 285.38 134.421 286.54 130.701 286.56C126.981 286.54 124.621 285.38 124.621 283.4C124.621 281.36 126.981 280.2 130.701 280.2ZM122.861 278.56V277.32H129.421V273.96H130.901V277.32H138.661V278.56H122.861ZM124.741 271.36V270.12H136.661V271.6C136.641 272.98 136.641 274.4 136.141 276.2L134.661 276.04C135.121 274.22 135.121 272.94 135.141 271.6V271.36H124.741ZM126.141 283.4C126.141 284.58 127.921 285.34 130.701 285.32C133.461 285.34 135.241 284.58 135.261 283.4C135.241 282.14 133.461 281.38 130.701 281.36C127.921 281.38 126.141 282.14 126.141 283.4ZM155.946 278.44V279.68H140.106V278.44H147.266V276.72H142.226V269.72H153.986V270.96H143.746V272.6H153.506V273.76H143.746V275.48H154.066V276.72H148.786V278.44H155.946ZM142.026 283.76C142.046 281.96 144.186 280.98 148.026 281C151.846 280.98 154.006 281.96 154.026 283.76C154.006 285.6 151.846 286.54 148.026 286.56C144.186 286.54 142.046 285.6 142.026 283.76ZM143.586 283.76C143.566 284.82 145.166 285.38 148.026 285.36C150.886 285.38 152.466 284.82 152.466 283.76C152.466 282.74 150.886 282.16 148.026 282.16C145.166 282.16 143.566 282.74 143.586 283.76ZM170.311 270.36C174.011 270.38 176.671 272.16 176.671 274.92C176.671 277.48 174.371 279.18 171.071 279.42V283.08H178.311V284.36H162.431V283.08H169.551V279.42C166.291 279.18 163.971 277.48 163.991 274.92C163.971 272.16 166.651 270.38 170.311 270.36ZM165.471 274.92C165.451 276.9 167.511 278.2 170.311 278.2C173.131 278.2 175.191 276.9 175.191 274.92C175.191 272.94 173.131 271.62 170.311 271.64C167.511 271.62 165.451 272.94 165.471 274.92ZM195.556 279.6V280.8H191.396V286.6H189.876V280.8H185.396V286.6H183.836V280.8H179.676V279.6H195.556ZM181.596 271.16V269.92H193.636V274.36H183.196V276.52H194.036V277.8H181.636V273.16H192.076V271.16H181.596ZM216.881 269.24V286.6H215.401V277.52H213.041V285.68H211.561V269.6H213.041V276.24H215.401V269.24H216.881ZM201.801 281L203.681 280.98V272.68H202.161V271.44H210.241V272.68H208.761V280.76C209.401 280.7 210.021 280.64 210.601 280.56L210.681 281.68C207.941 282.2 204.261 282.3 202.001 282.28L201.801 281ZM205.121 280.94C205.841 280.92 206.581 280.88 207.321 280.84V272.68H205.121V280.94ZM233.646 269.24V282.12H232.126V275.4H228.726V274.12H232.126V269.24H233.646ZM220.166 279.36V270.6H227.966V271.84H221.686V274.28H227.486V275.52H221.686V278.08C224.886 278.1 226.726 278.02 228.926 277.64L229.046 278.88C226.766 279.3 224.846 279.38 221.446 279.36H220.166ZM222.486 286.2V281.04H224.006V284.92H234.126V286.2H222.486ZM246.172 271.16V272.04C246.172 273.42 246.172 275.72 245.692 278.92L244.132 278.8C244.612 275.9 244.652 273.8 244.652 272.4H237.372V271.16H246.172ZM236.372 281.48C237.512 281.48 238.792 281.46 240.132 281.42V276.12H241.652V281.38C243.572 281.3 245.532 281.18 247.332 280.96L247.412 282.12C243.772 282.7 239.672 282.78 236.572 282.76L236.372 281.48ZM248.412 286.6V269.24H249.972V276.48H252.772V277.8H249.972V286.6H248.412ZM272.417 269.2V273.48H275.017V274.76H272.417V279.08H270.897V269.2H272.417ZM259.697 277.68V270.16H261.217V276.4C263.697 276.4 266.257 276.2 269.057 275.64L269.257 276.92C266.297 277.5 263.677 277.7 261.057 277.68H259.697ZM260.617 285.32C263.517 284.84 266.117 283.14 266.217 281.2H261.257V279.96H272.737V281.2H267.817C267.877 283.1 270.497 284.84 273.417 285.32L272.777 286.52C270.257 286.06 267.997 284.76 267.017 283C266.037 284.78 263.737 286.04 261.217 286.48L260.617 285.32ZM291.942 278.4V279.64H276.142V278.4H291.942ZM277.862 273.28C277.882 271.1 280.262 269.82 284.022 269.84C287.762 269.82 290.162 271.1 290.142 273.28C290.162 275.44 287.762 276.74 284.022 276.76C280.262 276.74 277.882 275.44 277.862 273.28ZM278.182 286.2V281.16H279.702V284.92H290.182V286.2H278.182ZM279.462 273.28C279.462 274.66 281.242 275.48 284.022 275.48C286.822 275.48 288.602 274.66 288.582 273.28C288.602 271.92 286.822 271.08 284.022 271.08C281.242 271.08 279.462 271.92 279.462 273.28ZM312.707 269.24V286.6H311.187V269.24H312.707ZM299.067 276.6C299.067 272.92 300.907 270.58 303.507 270.56C306.067 270.58 307.927 272.92 307.947 276.6C307.927 280.32 306.067 282.66 303.507 282.68C300.907 282.66 299.067 280.32 299.067 276.6ZM300.547 276.6C300.547 279.44 301.747 281.3 303.507 281.28C305.227 281.3 306.427 279.44 306.427 276.6C306.427 273.8 305.227 271.94 303.507 271.92C301.747 271.94 300.547 273.8 300.547 276.6ZM324.352 272.24V273.48H315.672V272.24H319.272V269.76H320.792V272.24H324.352ZM316.272 278.6C316.272 276.28 317.852 274.66 320.032 274.64C322.192 274.66 323.772 276.28 323.792 278.6C323.772 280.92 322.192 282.56 320.032 282.56C317.852 282.56 316.272 280.92 316.272 278.6ZM317.632 278.6C317.652 280.14 318.632 281.24 320.032 281.24C321.392 281.24 322.412 280.14 322.392 278.6C322.412 277.08 321.392 275.96 320.032 275.92C318.632 275.96 317.652 277.08 317.632 278.6ZM325.272 285.72V269.64H326.712V276.56H329.032V269.24H330.472V286.6H329.032V277.8H326.712V285.72H325.272ZM346.997 277.36V278.6H341.637V283.12H348.877V284.4H332.997V283.12H340.117V278.6H334.997V270.64H346.837V271.88H336.557V277.36H346.997ZM366.123 277.28V278.48H350.243V277.28H366.123ZM352.163 281.04V279.88H364.163V283.56H353.723V285.24H364.723V286.36H352.202V282.52H362.643V281.04H352.163ZM352.243 270.84V269.76H364.083V273.36H353.843V274.88H364.403V276H352.323V272.28H362.563V270.84H352.243ZM388.448 283.08V284.36H372.568V283.08H379.688V279.32H374.448V270.44H375.968V273.6H384.968V270.44H386.488V279.32H381.208V283.08H388.448ZM375.968 278.08H384.968V274.84H375.968V278.08ZM404.173 269.24V281.92H402.653V269.24H404.173ZM390.253 274.72C390.233 272.2 392.193 270.46 394.813 270.44C397.393 270.46 399.333 272.2 399.333 274.72C399.333 277.24 397.393 279 394.813 278.96C392.193 279 390.233 277.24 390.253 274.72ZM391.733 274.72C391.733 276.44 393.033 277.64 394.813 277.64C396.513 277.64 397.853 276.44 397.853 274.72C397.853 273.02 396.513 271.8 394.813 271.8C393.033 271.8 391.733 273.02 391.733 274.72ZM392.973 286.2V280.64H394.493V284.92H404.733V286.2H392.973ZM416.898 270.28C418.378 270.26 419.638 270.82 420.438 271.76H424.978V269.24H426.498V279.52H424.978V277.04H420.418C419.598 277.94 418.358 278.5 416.898 278.48C414.298 278.5 412.378 276.8 412.418 274.4C412.378 271.96 414.298 270.26 416.898 270.28ZM413.858 274.4C413.858 276 415.138 277.2 416.898 277.2C418.618 277.2 419.918 276 419.898 274.4C419.918 272.74 418.618 271.58 416.898 271.6C415.138 271.58 413.858 272.74 413.858 274.4ZM414.938 283.24C414.918 281.14 417.158 279.92 420.738 279.92C424.338 279.92 426.578 281.14 426.578 283.24C426.578 285.34 424.338 286.54 420.738 286.56C417.158 286.54 414.918 285.34 414.938 283.24ZM416.458 283.24C416.438 284.54 418.098 285.32 420.738 285.32C423.418 285.32 425.078 284.54 425.098 283.24C425.078 281.9 423.418 281.12 420.738 281.12C418.098 281.12 416.438 281.9 416.458 283.24ZM421.158 273C421.298 273.42 421.378 273.9 421.378 274.4C421.378 274.88 421.298 275.34 421.158 275.76H424.978V273H421.158ZM443.783 280.4V286.6H442.263V281.64H432.103V280.4H443.783ZM429.703 274.36C429.663 271.94 431.583 270.2 434.183 270.24C435.703 270.22 436.983 270.82 437.783 271.8H442.263V269.24H443.783V279.44H442.263V276.96H437.783C436.983 277.94 435.703 278.54 434.183 278.52C431.583 278.54 429.663 276.82 429.703 274.36ZM431.143 274.36C431.143 276.04 432.423 277.22 434.183 277.24C435.903 277.22 437.203 276.04 437.183 274.36C437.203 272.72 435.903 271.52 434.183 271.52C432.423 271.52 431.143 272.72 431.143 274.36ZM438.463 273.04C438.583 273.44 438.663 273.9 438.663 274.36C438.663 274.82 438.603 275.28 438.463 275.68H442.263V273.04H438.463ZM454.588 269.52C458.468 269.54 460.728 270.6 460.708 272.52C460.728 274.48 458.468 275.56 454.588 275.56C450.728 275.56 448.448 274.48 448.428 272.52C448.448 270.6 450.728 269.54 454.588 269.52ZM446.708 278V276.76H462.508V278H446.708ZM448.628 280.68V279.48H460.468V283.36H450.148V285.16H460.988V286.4H448.668V282.24H458.988V280.68H448.628ZM450.068 272.52C450.028 273.72 451.728 274.4 454.588 274.4C457.488 274.4 459.168 273.72 459.148 272.52C459.168 271.38 457.488 270.7 454.588 270.68C451.728 270.7 450.028 271.38 450.068 272.52ZM484.833 278.4V279.68H477.793V283.08H476.273V279.68H468.953V278.4H484.833ZM470.993 286.2V281.48H472.513V284.92H483.073V286.2H470.993ZM471.073 276.72V269.76H472.593V272H481.193V269.76H482.753V276.72H471.073ZM472.593 275.48H481.193V273.2H472.593V275.48ZM492.199 272C492.179 274.4 493.959 276.62 496.479 277.48L495.639 278.72C493.719 278 492.199 276.52 491.459 274.66C490.739 276.72 489.159 278.3 487.119 279.12L486.279 277.84C488.919 276.92 490.659 274.62 490.679 271.96V270.12H492.199V272ZM488.959 281.68V280.44H500.639V286.6H499.119V281.68H488.959ZM495.239 274.16V272.88H499.119V269.24H500.639V279.48H499.119V274.16H495.239ZM517.004 269.24V276.4H519.884V277.68H517.004V286.6H515.484V269.24H517.004ZM503.444 273.28V272H507.924V269.44H509.444V272H513.764V273.28H503.444ZM504.444 278.72C504.424 276.36 506.224 274.72 508.684 274.72C511.164 274.72 512.944 276.36 512.964 278.72C512.944 281.06 511.164 282.7 508.684 282.68C506.224 282.7 504.424 281.06 504.444 278.72ZM505.924 278.72C505.904 280.3 507.084 281.4 508.684 281.4C510.304 281.4 511.484 280.3 511.484 278.72C511.484 277.14 510.304 276 508.684 276C507.084 276 505.904 277.14 505.924 278.72ZM525.489 270.56C527.109 270.58 528.409 271.5 529.149 273.12H533.689V269.24H535.209V286.6H533.689V279.88H529.249C528.529 281.64 527.169 282.66 525.489 282.68C522.929 282.66 521.129 280.32 521.169 276.6C521.129 272.92 522.929 270.58 525.489 270.56ZM522.609 276.6C522.609 279.44 523.789 281.3 525.489 281.28C527.209 281.3 528.389 279.44 528.369 276.6C528.389 273.8 527.209 271.94 525.489 271.92C523.789 271.94 522.609 273.8 522.609 276.6ZM529.589 274.4C529.749 275.06 529.849 275.8 529.849 276.6C529.849 277.32 529.769 277.98 529.649 278.6H533.689V274.4H529.589ZM540.974 283.68L539.454 289H538.014L539.094 283.68H540.974ZM62.28 297.24V301.76H64.88V303H62.28V307.64H60.76V297.24H62.28ZM48.72 306.44C52.9 305.2 55.58 302.8 55.88 299.8H49.48V298.52H57.56C57.54 302.94 54.42 306.18 49.36 307.68L48.72 306.44ZM51.12 311.2C51.1 309.1 53.34 307.84 56.8 307.84C60.28 307.84 62.48 309.1 62.48 311.2C62.48 313.3 60.28 314.54 56.8 314.56C53.34 314.54 51.1 313.3 51.12 311.2ZM52.64 311.2C52.62 312.48 54.24 313.32 56.8 313.32C59.34 313.32 60.98 312.48 61 311.2C60.98 309.88 59.34 309.06 56.8 309.08C54.24 309.06 52.62 309.88 52.64 311.2ZM71.6852 298.48C74.4052 298.5 76.3252 300.16 76.3652 302.56C76.3252 304.98 74.4052 306.64 71.6852 306.64C68.9252 306.64 66.9652 304.98 66.9652 302.56C66.9652 300.16 68.9252 298.5 71.6852 298.48ZM66.0852 309.48C69.2852 309.5 73.7052 309.46 77.5652 308.88L77.6852 310.04C73.7052 310.78 69.4252 310.8 66.2852 310.8L66.0852 309.48ZM68.4852 302.56C68.4852 304.18 69.8252 305.3 71.6852 305.32C73.5052 305.3 74.8452 304.18 74.8452 302.56C74.8452 300.96 73.5052 299.84 71.6852 299.84C69.8252 299.84 68.4852 300.96 68.4852 302.56ZM78.6852 314.6V297.24H80.2452V314.6H78.6852ZM89.1303 302.56C89.1303 305.34 91.1503 308.4 93.6503 309.6L92.7703 310.8C90.8303 309.86 89.1703 307.8 88.4103 305.46C87.6103 308 85.8503 310.24 83.8903 311.24L82.9703 310.04C85.4903 308.82 87.6303 305.52 87.6503 302.56V300.28H83.6103V299H93.0503V300.28H89.1303V302.56ZM95.1703 314.6V297.24H96.7303V304.24H99.6103V305.56H96.7303V314.6H95.1703ZM116.455 311.12V312.44H100.575V311.12H105.015V307.84H102.535V302.48H112.935V299.8H102.495V298.52H114.455V303.76H104.055V306.56H114.855V307.84H112.135V311.12H116.455ZM106.535 311.12H110.615V307.84H106.535V311.12ZM132.741 297.24V314.6H131.261V297.24H132.741ZM118.061 304.72C118.061 301.02 119.521 298.7 121.781 298.68C123.881 298.7 125.321 300.72 125.521 304H127.781V297.6H129.221V313.72H127.781V305.28H125.521C125.361 308.66 123.921 310.76 121.781 310.76C119.521 310.76 118.061 308.42 118.061 304.72ZM119.501 304.72C119.481 307.54 120.381 309.32 121.781 309.28C123.201 309.32 124.101 307.54 124.101 304.72C124.101 301.9 123.201 300.12 121.781 300.12C120.381 300.12 119.481 301.9 119.501 304.72ZM141.226 301.88C141.226 305.04 143.246 308.2 145.786 309.36L144.866 310.6C142.886 309.58 141.246 307.52 140.466 305.04C139.706 307.64 138.086 309.86 136.106 310.92L135.106 309.68C137.666 308.42 139.666 305.08 139.706 301.88V298.72H141.226V301.88ZM143.906 304.4V303.16H147.986V297.24H149.506V314.6H147.986V304.4H143.906ZM173.311 311.08V312.36H157.431V311.08H164.551V307.32H159.311V298.44H160.831V301.6H169.831V298.44H171.351V307.32H166.071V311.08H173.311ZM160.831 306.08H169.831V302.84H160.831V306.08ZM179.996 298.04C182.536 298.04 184.296 299.4 184.316 301.48C184.296 303.28 182.896 304.58 180.796 304.84V306.54C182.416 306.44 184.076 306.3 185.596 306.08L185.716 307.2C182.036 307.88 177.876 307.94 174.876 307.92L174.676 306.68C176.036 306.68 177.616 306.66 179.276 306.6V304.84C177.116 304.6 175.676 303.3 175.676 301.48C175.676 299.4 177.456 298.04 179.996 298.04ZM177.116 301.48C177.116 302.8 178.296 303.7 179.996 303.72C181.696 303.7 182.856 302.8 182.876 301.48C182.856 300.12 181.696 299.22 179.996 299.24C178.296 299.22 177.116 300.12 177.116 301.48ZM177.236 314.2V309.36H178.756V312.92H188.876V314.2H177.236ZM186.716 310.52V297.24H188.236V303.12H190.836V304.44H188.236V310.52H186.716ZM206.281 297.24V314.6H204.761V297.24H206.281ZM192.641 304.6C192.641 300.92 194.481 298.58 197.081 298.56C199.641 298.58 201.501 300.92 201.521 304.6C201.501 308.32 199.641 310.66 197.081 310.68C194.481 310.66 192.641 308.32 192.641 304.6ZM194.121 304.6C194.121 307.44 195.321 309.3 197.081 309.28C198.801 309.3 200.001 307.44 200.001 304.6C200.001 301.8 198.801 299.94 197.081 299.92C195.321 299.94 194.121 301.8 194.121 304.6ZM228.606 297.24V306.24H227.086V297.24H228.606ZM214.566 304.36L216.806 304.34V299.64H215.046V298.4H224.446V299.64H222.686V304.1C223.586 304.02 224.486 303.94 225.326 303.84L225.366 304.96C221.906 305.48 217.826 305.62 214.766 305.6L214.566 304.36ZM217.246 308.32V307.08H228.606V311.2H218.806V313.12H229.286V314.4H217.326V310.08H227.086V308.32H217.246ZM218.286 304.3C219.246 304.28 220.226 304.24 221.206 304.18V299.64H218.286V304.3ZM247.452 311.08V312.36H231.572V311.08H235.492V306.38C234.012 305.62 233.112 304.36 233.132 302.8C233.112 300.1 235.752 298.34 239.452 298.32C243.172 298.34 245.812 300.1 245.812 302.8C245.812 304.34 244.932 305.58 243.492 306.34V311.08H247.452ZM234.612 302.8C234.592 304.72 236.612 306.02 239.452 306.04C242.292 306.02 244.332 304.72 244.332 302.8C244.332 300.84 242.292 299.56 239.452 299.56C236.612 299.56 234.592 300.84 234.612 302.8ZM237.012 311.08H241.972V306.94C241.212 307.14 240.372 307.24 239.452 307.24C238.572 307.24 237.752 307.14 237.012 306.96V311.08ZM262.417 297.24V302.96H265.017V304.24H262.417V310.24H260.897V297.24H262.417ZM248.897 300.64V299.36H253.297V297.24H254.817V299.36H259.217V300.64H248.897ZM249.897 304.84C249.857 302.84 251.557 301.58 254.057 301.56C256.537 301.58 258.217 302.84 258.217 304.84C258.217 306.78 256.537 308.02 254.057 308.04C251.557 308.02 249.857 306.78 249.897 304.84ZM251.337 304.84C251.337 306.04 252.417 306.82 254.057 306.8C255.677 306.82 256.777 306.04 256.777 304.84C256.777 303.58 255.677 302.78 254.057 302.76C252.417 302.78 251.337 303.58 251.337 304.84ZM251.537 314.2V309.2H253.057V312.92H263.217V314.2H251.537ZM279.902 299.68C279.882 302 282.982 303.98 286.022 304.44L285.422 305.64C282.722 305.18 280.102 303.74 279.042 301.66C277.962 303.74 275.342 305.18 272.662 305.64L272.062 304.44C275.082 303.98 278.162 302 278.182 299.68V299.56H272.622V298.32H285.422V299.56H279.902V299.68ZM271.142 308.4V307.12H286.942V308.4H279.742V314.56H278.262V308.4H271.142ZM303.227 297.24V314.6H301.787V297.24H303.227ZM288.187 309.96C290.627 308.52 292.027 305.34 292.027 302.16V300.56H288.667V299.28H296.667V300.56H293.507V302.16C293.507 305.18 294.867 308.18 297.267 309.56L296.307 310.68C294.607 309.68 293.407 307.82 292.787 305.6C292.167 307.98 290.907 310.02 289.187 311.12L288.187 309.96ZM295.347 304.76V303.48H298.307V297.64H299.747V313.68H298.307V304.76H295.347ZM321.552 305.28V306.48H305.672V305.28H321.552ZM307.592 309.04V307.88H319.592V311.56H309.152V313.24H320.152V314.36H307.632V310.52H318.072V309.04H307.592ZM307.672 298.84V297.76H319.512V301.36H309.272V302.88H319.832V304H307.752V300.28H317.992V298.84H307.672ZM342.797 297.24V314.6H341.357V297.24H342.797ZM327.757 309.96C330.197 308.52 331.597 305.34 331.597 302.16V300.56H328.237V299.28H336.237V300.56H333.077V302.16C333.077 305.18 334.437 308.18 336.837 309.56L335.877 310.68C334.177 309.68 332.977 307.82 332.357 305.6C331.737 307.98 330.477 310.02 328.757 311.12L327.757 309.96ZM334.917 304.76V303.48H337.877V297.64H339.317V313.68H337.877V304.76H334.917ZM358.843 297.2V302.52H361.443V303.8H358.843V310.04H357.323V297.2H358.843ZM345.603 302.72C345.583 300.2 347.563 298.46 350.163 298.44C352.763 298.46 354.703 300.2 354.723 302.72C354.703 305.24 352.763 307 350.163 307C347.563 307 345.583 305.24 345.603 302.72ZM347.123 302.72C347.083 304.44 348.423 305.66 350.163 305.64C351.903 305.66 353.203 304.44 353.243 302.72C353.203 301.02 351.903 299.8 350.163 299.8C348.423 299.8 347.083 301.02 347.123 302.72ZM347.963 314.2V308.72H349.483V312.92H359.643V314.2H347.963ZM376.128 297.24V301.68H378.728V302.96H376.128V307.32H374.608V297.24H376.128ZM362.608 300.28V299.04H367.008V297.08H368.528V299.04H372.928V300.28H362.608ZM363.608 304.12C363.568 302.28 365.248 301.1 367.768 301.08C370.268 301.1 371.928 302.28 371.928 304.12C371.928 305.98 370.268 307.18 367.768 307.16C365.248 307.18 363.568 305.98 363.608 304.12ZM365.048 304.12C365.048 305.26 366.128 306.02 367.768 306C369.388 306.02 370.488 305.26 370.488 304.12C370.488 303.02 369.388 302.26 367.768 302.28C366.128 302.26 365.048 303.02 365.048 304.12ZM365.168 314.36V308.08H366.688V309.92H374.608V308.08H376.128V314.36H365.168ZM366.688 313.12H374.608V311.16H366.688V313.12ZM394.133 297.24V314.6H392.613V297.24H394.133ZM380.973 310.12V298.92H382.493V308.76C385.133 308.78 387.853 308.56 390.773 307.96L390.973 309.24C387.913 309.9 385.153 310.12 382.373 310.12H380.973ZM410.578 297.24V304.08H413.458V305.36H410.578V314.6H409.018V297.24H410.578ZM397.898 310.28V298.92H405.978V300.2H399.418V308.96C402.558 308.96 404.778 308.84 407.338 308.36L407.538 309.68C404.838 310.16 402.558 310.26 399.258 310.28H397.898ZM416.263 313.12C415.563 313.12 414.983 312.54 414.983 311.84C414.983 311.16 415.563 310.6 416.263 310.6C416.943 310.6 417.503 311.16 417.503 311.84C417.503 312.54 416.943 313.12 416.263 313.12ZM439.322 297.24V314.6H437.842V297.24H439.322ZM425.162 310.4V299.36H431.682V300.64H426.642V309.12C429.142 309.1 430.722 309 432.602 308.6L432.722 309.88C430.742 310.3 429.042 310.38 426.242 310.4H425.162ZM430.522 305.16V303.84H434.322V297.64H435.762V313.68H434.322V305.16H430.522ZM456.047 297.24V314.6H454.527V297.24H456.047ZM442.407 304.6C442.407 300.92 444.247 298.58 446.847 298.56C449.407 298.58 451.267 300.92 451.287 304.6C451.267 308.32 449.407 310.66 446.847 310.68C444.247 310.66 442.407 308.32 442.407 304.6ZM443.887 304.6C443.887 307.44 445.087 309.3 446.847 309.28C448.567 309.3 449.767 307.44 449.767 304.6C449.767 301.8 448.567 299.94 446.847 299.92C445.087 299.94 443.887 301.8 443.887 304.6ZM473.412 297.24V314.6H471.892V305.04H468.252V303.8H471.892V297.24H473.412ZM459.852 310.44V298.8H467.932V300.08H461.372V303.72H467.172V304.96H461.372V309.16C464.552 309.14 466.612 309.06 469.012 308.64L469.172 309.88C466.652 310.3 464.512 310.42 461.172 310.44H459.852ZM495.657 297.24V314.6H494.137V297.24H495.657ZM481.537 310.08C486.237 307.84 488.637 304.5 488.977 300.36H482.337V299.12H490.537C490.517 304.1 488.197 308.52 482.377 311.32L481.537 310.08ZM512.182 297.24V302.48H514.782V303.8H512.182V310H510.662V297.24H512.182ZM499.342 307.08V298.48H500.862V301.4H505.902V298.48H507.422V307.08H499.342ZM500.862 305.8H505.902V302.64H500.862V305.8ZM501.302 314.2V308.76H502.822V312.92H512.982V314.2H501.302ZM521.588 298.48C524.308 298.5 526.228 300.16 526.268 302.56C526.228 304.98 524.308 306.64 521.588 306.64C518.828 306.64 516.868 304.98 516.868 302.56C516.868 300.16 518.828 298.5 521.588 298.48ZM515.988 309.48C519.188 309.5 523.608 309.46 527.468 308.88L527.588 310.04C523.608 310.78 519.328 310.8 516.188 310.8L515.988 309.48ZM518.388 302.56C518.388 304.18 519.728 305.3 521.588 305.32C523.408 305.3 524.748 304.18 524.748 302.56C524.748 300.96 523.408 299.84 521.588 299.84C519.728 299.84 518.388 300.96 518.388 302.56ZM528.588 314.6V297.24H530.148V314.6H528.588ZM62.28 325.24V329.76H64.88V331H62.28V335.64H60.76V325.24H62.28ZM48.72 334.44C52.9 333.2 55.58 330.8 55.88 327.8H49.48V326.52H57.56C57.54 330.94 54.42 334.18 49.36 335.68L48.72 334.44ZM51.12 339.2C51.1 337.1 53.34 335.84 56.8 335.84C60.28 335.84 62.48 337.1 62.48 339.2C62.48 341.3 60.28 342.54 56.8 342.56C53.34 342.54 51.1 341.3 51.12 339.2ZM52.64 339.2C52.62 340.48 54.24 341.32 56.8 341.32C59.34 341.32 60.98 340.48 61 339.2C60.98 337.88 59.34 337.06 56.8 337.08C54.24 337.06 52.62 337.88 52.64 339.2ZM71.6852 326.48C74.4052 326.5 76.3252 328.16 76.3652 330.56C76.3252 332.98 74.4052 334.64 71.6852 334.64C68.9252 334.64 66.9652 332.98 66.9652 330.56C66.9652 328.16 68.9252 326.5 71.6852 326.48ZM66.0852 337.48C69.2852 337.5 73.7052 337.46 77.5652 336.88L77.6852 338.04C73.7052 338.78 69.4252 338.8 66.2852 338.8L66.0852 337.48ZM68.4852 330.56C68.4852 332.18 69.8252 333.3 71.6852 333.32C73.5052 333.3 74.8452 332.18 74.8452 330.56C74.8452 328.96 73.5052 327.84 71.6852 327.84C69.8252 327.84 68.4852 328.96 68.4852 330.56ZM78.6852 342.6V325.24H80.2452V342.6H78.6852ZM104.09 333.64V334.88H96.9303V336.92H102.17V342.36H90.2103V336.92H95.4103V334.88H88.2903V333.64H104.09ZM89.7703 327.04V325.8H102.57V327.04H99.9303V330.72H102.53V332H89.8103V330.72H92.4503V327.04H89.7703ZM91.7303 341.08H100.65V338.16H91.7303V341.08ZM93.9703 330.72H98.3703V327.04H93.9703V330.72ZM119.855 325.24V334.24H118.375V325.24H119.855ZM105.815 333.04C108.395 332.18 110.255 330.06 110.255 327.68V327.48H106.215V326.24H115.815V327.48H111.815V327.68C111.815 329.94 113.675 331.92 116.295 332.68L115.535 333.88C113.475 333.24 111.835 331.86 111.055 330.08C110.315 332.04 108.655 333.54 106.535 334.24L105.815 333.04ZM108.615 336.28V335.08H119.895V339.2H110.135V341.16H120.535V342.4H108.655V338.08H118.375V336.28H108.615ZM143.981 328.28V329.52H141.421V331.92H143.981V333.24H141.421V336.44H139.901V325.24H141.421V328.28H143.981ZM127.901 328.44V327.2H132.301V325.08H133.821V327.2H138.221V328.44H127.901ZM128.901 332.4C128.861 330.54 130.541 329.32 133.061 329.32C135.561 329.32 137.221 330.54 137.221 332.4C137.221 334.26 135.561 335.46 133.061 335.44C130.541 335.46 128.861 334.26 128.901 332.4ZM130.261 339.56C130.241 337.66 132.381 336.56 135.941 336.56C139.461 336.56 141.621 337.66 141.621 339.56C141.621 341.44 139.461 342.54 135.941 342.56C132.381 342.54 130.241 341.44 130.261 339.56ZM130.341 332.4C130.341 333.52 131.421 334.26 133.061 334.24C134.681 334.26 135.781 333.52 135.781 332.4C135.781 331.24 134.681 330.48 133.061 330.48C131.421 330.48 130.341 331.24 130.341 332.4ZM131.781 339.56C131.761 340.68 133.321 341.36 135.941 341.36C138.521 341.36 140.101 340.68 140.101 339.56C140.101 338.4 138.521 337.76 135.941 337.76C133.321 337.76 131.761 338.4 131.781 339.56ZM150.946 328.04C150.926 330.4 152.726 332.56 155.226 333.4L154.426 334.64C152.506 333.94 150.966 332.5 150.226 330.68C149.486 332.74 147.926 334.34 145.906 335.12L145.066 333.88C147.666 332.92 149.406 330.6 149.426 327.92V326.12H150.946V328.04ZM147.386 339.4C147.386 337.4 149.566 336.24 153.146 336.24C156.706 336.24 158.866 337.4 158.866 339.4C158.866 341.4 156.706 342.54 153.146 342.56C149.566 342.54 147.386 341.4 147.386 339.4ZM148.906 339.4C148.906 340.62 150.526 341.32 153.146 341.32C155.766 341.32 157.366 340.62 157.386 339.4C157.366 338.2 155.766 337.46 153.146 337.48C150.526 337.46 148.906 338.2 148.906 339.4ZM157.186 335.8V325.24H158.706V329.76H161.306V331.04H158.706V335.8H157.186ZM170.311 325.52C174.191 325.54 176.451 326.6 176.431 328.52C176.451 330.48 174.191 331.56 170.311 331.56C166.451 331.56 164.171 330.48 164.151 328.52C164.171 326.6 166.451 325.54 170.311 325.52ZM162.431 334V332.76H178.231V334H162.431ZM164.351 336.68V335.48H176.191V339.36H165.871V341.16H176.711V342.4H164.391V338.24H174.711V336.68H164.351ZM165.791 328.52C165.751 329.72 167.451 330.4 170.311 330.4C173.211 330.4 174.891 329.72 174.871 328.52C174.891 327.38 173.211 326.7 170.311 326.68C167.451 326.7 165.751 327.38 165.791 328.52ZM190.916 330.56C190.916 333.5 193.056 336.5 195.596 337.6L194.756 338.8C192.716 337.9 190.976 335.9 190.156 333.5C189.356 336.04 187.596 338.24 185.596 339.24L184.716 338.04C187.196 336.84 189.356 333.56 189.356 330.56V328.28H185.276V327H195.036V328.28H190.916V330.56ZM197.476 342.6V325.24H198.996V342.6H197.476ZM216.281 325.24V338.44H214.761V336.64H211.161V335.52H214.761V325.24H216.281ZM201.881 333.28C205.121 333.26 209.481 333.24 213.201 332.76L213.281 333.88C211.741 334.14 210.121 334.3 208.521 334.38V337.84H207.001V334.46C205.241 334.52 203.541 334.52 202.081 334.52L201.881 333.28ZM203.281 328.96C203.281 327.14 205.021 325.94 207.601 325.96C210.141 325.94 211.881 327.14 211.881 328.96C211.881 330.82 210.141 331.98 207.601 332C205.021 331.98 203.281 330.82 203.281 328.96ZM204.401 342.2V337.12H205.921V340.92H216.721V342.2H204.401ZM204.761 328.96C204.741 330.1 205.901 330.84 207.601 330.84C209.241 330.84 210.401 330.1 210.441 328.96C210.401 327.86 209.241 327.1 207.601 327.12C205.901 327.1 204.741 327.86 204.761 328.96ZM232.846 325.24V329.68H235.446V330.96H232.846V335.32H231.326V325.24H232.846ZM219.326 328.28V327.04H223.726V325.08H225.246V327.04H229.646V328.28H219.326ZM220.326 332.12C220.286 330.28 221.966 329.1 224.486 329.08C226.986 329.1 228.646 330.28 228.646 332.12C228.646 333.98 226.986 335.18 224.486 335.16C221.966 335.18 220.286 333.98 220.326 332.12ZM221.766 332.12C221.766 333.26 222.846 334.02 224.486 334C226.106 334.02 227.206 333.26 227.206 332.12C227.206 331.02 226.106 330.26 224.486 330.28C222.846 330.26 221.766 331.02 221.766 332.12ZM221.886 342.36V336.08H223.406V337.92H231.326V336.08H232.846V342.36H221.886ZM223.406 341.12H231.326V339.16H223.406V341.12ZM250.852 325.24V342.6H249.332V325.24H250.852ZM237.692 338.12V326.92H239.212V336.76C241.852 336.78 244.572 336.56 247.492 335.96L247.692 337.24C244.632 337.9 241.872 338.12 239.092 338.12H237.692ZM267.297 325.24V332.08H270.177V333.36H267.297V342.6H265.737V325.24H267.297ZM254.617 338.28V326.92H262.697V328.2H256.137V336.96C259.277 336.96 261.497 336.84 264.057 336.36L264.257 337.68C261.557 338.16 259.277 338.26 255.977 338.28H254.617ZM272.982 341.12C272.282 341.12 271.702 340.54 271.702 339.84C271.702 339.16 272.282 338.6 272.982 338.6C273.662 338.6 274.222 339.16 274.222 339.84C274.222 340.54 273.662 341.12 272.982 341.12Z" fill="#31343D"/>
<g filter="url(#filter0_d_5336_11487)">
<rect x="628" y="-196" width="444" height="544" rx="20" fill="white"/>
<mask id="path-5-inside-1_5336_11487" fill="white">
<path d="M644 -1H1056V55H644V-1Z"/>
</mask>
<path d="M644 -1H1056V55H644V-1Z" fill="#F6F7FB"/>
<path d="M1056 55V54H644V55V56H1056V55Z" fill="#E0E4EB" mask="url(#path-5-inside-1_5336_11487)"/>
<path d="M676.192 20.264V27.528H674.496V20.264H676.192ZM664.576 26.28C666.784 25.624 667.984 24.024 668.064 22.376H665.024V20.968H672.8V22.376H669.824C669.904 23.928 671.104 25.416 673.28 26.024L672.448 27.368C670.8 26.888 669.616 25.88 668.992 24.6C668.352 26.008 667.12 27.144 665.376 27.656L664.576 26.28ZM666.848 29.48V28.136H676.224V31.784H668.576V32.904H676.64V34.28H666.88V30.504H674.496V29.48H666.848ZM682.384 21.256C684.624 21.24 686.256 22.648 686.256 24.648C686.256 26.664 684.624 28.072 682.384 28.072C680.16 28.072 678.496 26.664 678.512 24.648C678.496 22.648 680.16 21.24 682.384 21.256ZM677.872 30.024C680.416 30.024 683.936 29.992 686.992 29.576L687.12 30.824C683.952 31.432 680.576 31.448 678.064 31.464L677.872 30.024ZM680.208 24.648C680.208 25.832 681.136 26.568 682.384 26.568C683.632 26.568 684.56 25.832 684.56 24.648C684.56 23.48 683.632 22.744 682.384 22.76C681.136 22.744 680.208 23.48 680.208 24.648ZM687.824 34.408V20.264H689.552V34.408H687.824ZM704 26.952V28.328H691.136V26.952H704ZM692.448 23.336C692.464 21.64 694.448 20.6 697.568 20.584C700.64 20.6 702.624 21.64 702.624 23.336C702.624 25.048 700.64 26.056 697.568 26.056C694.448 26.056 692.464 25.048 692.448 23.336ZM692.608 31.816C692.624 30.168 694.464 29.256 697.536 29.256C700.592 29.256 702.432 30.168 702.432 31.816C702.432 33.48 700.592 34.392 697.536 34.376C694.464 34.392 692.624 33.48 692.608 31.816ZM694.272 23.336C694.256 24.232 695.488 24.712 697.568 24.712C699.6 24.712 700.848 24.232 700.832 23.336C700.848 22.424 699.6 21.96 697.568 21.96C695.488 21.96 694.256 22.424 694.272 23.336ZM694.4 31.816C694.384 32.632 695.488 33.048 697.536 33.064C699.568 33.048 700.688 32.632 700.704 31.816C700.688 31 699.568 30.584 697.536 30.568C695.488 30.584 694.384 31 694.4 31.816ZM715.6 20.264V23.4H717.584V24.84H715.6V27.816H713.84V20.264H715.6ZM705.04 27.432V21.16H711.312V22.536H706.768V26.024C709.424 26.008 710.896 25.912 712.56 25.576L712.752 26.984C710.912 27.352 709.264 27.432 706.192 27.432H705.04ZM706.448 34.184V28.52H708.176V29.992H713.84V28.52H715.6V34.184H706.448ZM708.176 32.776H713.84V31.336H708.176V32.776Z" fill="#1F2633"/>
<rect x="726" y="16" width="28" height="22" rx="2" fill="#E7EAF1"/>
<path d="M737.217 32L741.633 23.4688V23.3867H736.533V22.1016H743.191V23.4414L738.789 32H737.217Z" fill="#1F2633"/>
<mask id="path-10-inside-2_5336_11487" fill="white">
<path d="M644 70H1056V134H644V70Z"/>
</mask>
<path d="M644 70H1056V134H644V70Z" fill="#FCFCFF"/>
<path d="M1056 134V133H644V134V135H1056V134Z" fill="#E0E4EB" mask="url(#path-10-inside-2_5336_11487)"/>
<path d="M667.497 97H665.979V88.6055H665.925L663.56 90.1504V88.7148L666.021 87.1016H667.497V97Z" fill="#6A7380"/>
<path d="M697.94 89.5352H699.69V90.6152H697.94V94.2109H696.642V85.9258H697.94V89.5352ZM693.935 94.3477C694.796 94.3431 695.53 94.4137 696.136 94.5596C696.746 94.7054 697.211 94.9242 697.53 95.2158C697.854 95.5029 698.018 95.8516 698.022 96.2617C698.018 96.8724 697.66 97.3395 696.949 97.6631C696.243 97.9867 695.238 98.153 693.935 98.1621C692.627 98.153 691.617 97.9867 690.906 97.6631C690.2 97.3395 689.847 96.8724 689.847 96.2617C689.847 95.8516 690.006 95.5029 690.325 95.2158C690.644 94.9242 691.109 94.7054 691.72 94.5596C692.33 94.4137 693.069 94.3431 693.935 94.3477ZM693.935 95.3047C693.023 95.3047 692.33 95.3867 691.856 95.5508C691.382 95.7148 691.15 95.9518 691.159 96.2617C691.15 96.5579 691.382 96.7881 691.856 96.9521C692.335 97.1117 693.028 97.1914 693.935 97.1914C694.828 97.1914 695.511 97.1117 695.985 96.9521C696.459 96.7881 696.696 96.5579 696.696 96.2617C696.696 95.9518 696.459 95.7148 695.985 95.5508C695.516 95.3867 694.832 95.3047 693.935 95.3047ZM689.136 92.707C690.129 92.707 690.89 92.6979 691.419 92.6797V91.7842C690.708 91.7113 690.15 91.5244 689.744 91.2236C689.343 90.9229 689.145 90.5378 689.149 90.0684C689.145 89.7083 689.261 89.3984 689.498 89.1387C689.735 88.8789 690.072 88.6807 690.51 88.5439C690.952 88.4027 691.469 88.332 692.062 88.332C692.649 88.332 693.162 88.4027 693.6 88.5439C694.037 88.6807 694.374 88.8789 694.611 89.1387C694.853 89.3984 694.974 89.7083 694.974 90.0684C694.974 90.5332 694.773 90.916 694.372 91.2168C693.971 91.5176 693.42 91.7067 692.718 91.7842V92.625C693.939 92.5658 695.015 92.4701 695.944 92.3379L696.054 93.2402C694.887 93.4408 693.67 93.5729 692.403 93.6367C691.141 93.7005 689.792 93.7324 688.356 93.7324L688.22 92.707H689.136ZM695.603 87.8809H688.534V86.9102H691.419V85.8164H692.718V86.9102H695.603V87.8809ZM692.062 89.207C691.537 89.207 691.125 89.2845 690.824 89.4395C690.528 89.5898 690.38 89.7995 690.38 90.0684C690.38 90.3418 690.528 90.556 690.824 90.7109C691.125 90.8659 691.537 90.9434 692.062 90.9434C692.581 90.9434 692.989 90.8659 693.285 90.7109C693.581 90.556 693.729 90.3418 693.729 90.0684C693.729 89.7995 693.581 89.5898 693.285 89.4395C692.989 89.2845 692.581 89.207 692.062 89.207ZM710.942 98.1621H709.698V85.9121H710.942V98.1621ZM708.591 97.5742H707.388V93.8555H705.733C705.533 94.3568 705.223 94.751 704.804 95.0381C704.384 95.3252 703.901 95.4688 703.354 95.4688C702.862 95.4688 702.418 95.348 702.021 95.1064C701.63 94.8604 701.322 94.5208 701.099 94.0879C700.875 93.6504 700.766 93.1536 700.771 92.5977C700.766 92.0417 700.875 91.5472 701.099 91.1143C701.322 90.6768 701.63 90.3372 702.021 90.0957C702.418 89.8496 702.862 89.7266 703.354 89.7266C703.856 89.7266 704.305 89.8496 704.701 90.0957C705.098 90.3372 705.408 90.6768 705.631 91.1143C705.854 91.5472 705.966 92.0417 705.966 92.5977C705.966 92.6934 705.964 92.7663 705.959 92.8164H707.388V91.0664H705.788V90H707.388V86.1582H708.591V97.5742ZM706.39 88.9883H700.374V87.9355H702.739V86.2266H704.038V87.9355H706.39V88.9883ZM703.354 90.834C703.072 90.8385 702.821 90.9137 702.603 91.0596C702.384 91.2054 702.213 91.4105 702.09 91.6748C701.967 91.9391 701.905 92.2467 701.905 92.5977C701.905 92.944 701.967 93.2493 702.09 93.5137C702.213 93.778 702.384 93.9831 702.603 94.1289C702.821 94.2747 703.072 94.3477 703.354 94.3477C703.642 94.3477 703.897 94.2747 704.12 94.1289C704.343 93.9831 704.519 93.778 704.646 93.5137C704.774 93.2493 704.84 92.944 704.845 92.5977C704.84 92.2467 704.774 91.9391 704.646 91.6748C704.519 91.4105 704.343 91.2054 704.12 91.0596C703.897 90.9137 703.642 90.8385 703.354 90.834ZM722.714 93.1719H721.415V91.6816H718.325V90.6152H721.415V89.125H718.448C718.056 90.1003 717.414 90.9342 716.521 91.627C715.627 92.3197 714.511 92.8574 713.171 93.2402L712.651 92.2285C714.096 91.8138 715.231 91.2305 716.056 90.4785C716.885 89.7266 717.359 88.8561 717.478 87.8672H713.28V86.8008H718.886C718.886 87.2337 718.842 87.6667 718.756 88.0996H721.415V85.9258H722.714V93.1719ZM718.681 93.3086C719.501 93.3086 720.221 93.4043 720.841 93.5957C721.461 93.7871 721.939 94.0628 722.276 94.4229C722.618 94.7829 722.791 95.209 722.796 95.7012C722.791 96.1934 722.618 96.6217 722.276 96.9863C721.939 97.3464 721.461 97.6221 720.841 97.8135C720.221 98.0094 719.501 98.1074 718.681 98.1074C717.847 98.1074 717.118 98.0094 716.493 97.8135C715.873 97.6221 715.395 97.3464 715.058 96.9863C714.72 96.6217 714.552 96.1934 714.552 95.7012C714.552 95.209 714.72 94.7829 715.058 94.4229C715.395 94.0628 715.873 93.7871 716.493 93.5957C717.118 93.4043 717.847 93.3086 718.681 93.3086ZM718.681 94.334C718.097 94.334 717.591 94.3887 717.163 94.498C716.739 94.6029 716.411 94.7578 716.179 94.9629C715.951 95.168 715.837 95.4141 715.837 95.7012C715.837 95.9837 715.951 96.2275 716.179 96.4326C716.411 96.6377 716.739 96.7949 717.163 96.9043C717.591 97.0137 718.097 97.0684 718.681 97.0684C719.255 97.0684 719.752 97.0137 720.171 96.9043C720.595 96.7949 720.921 96.6377 721.148 96.4326C721.376 96.2275 721.493 95.9837 721.497 95.7012C721.493 95.2682 721.24 94.9333 720.738 94.6963C720.237 94.4548 719.551 94.334 718.681 94.334Z" fill="#31343D"/>
<path d="M746.164 86.556V87.48C746.164 88.404 746.164 89.496 745.884 90.924H747.564V91.82H736.504V90.924H744.792C744.918 90.35 744.988 89.832 745.03 89.37L737.764 89.692L737.624 88.824L745.086 88.614C745.1 88.208 745.1 87.83 745.1 87.48V87.424H737.904V86.556H746.164ZM737.792 93.836V92.996H746.248V95.796H738.912V97.084H746.696V97.952H737.82V94.984H745.184V93.836H737.792ZM758.012 85.968V90.784H760.028V91.708H758.012V98.12H756.948V85.968H758.012ZM749.08 87.984V87.088H754.596V91.428H750.172V94.284C752.426 94.284 753.994 94.2 755.856 93.864L755.94 94.76C754.036 95.096 752.412 95.18 750.06 95.18H749.108V90.56H753.532V87.984H749.08ZM771.791 92.912V93.836H766.723V98.12H765.687V93.836H760.675V92.912H771.791ZM761.935 89.132C761.935 87.48 763.657 86.458 766.219 86.444C768.767 86.458 770.489 87.48 770.503 89.132C770.489 90.742 768.767 91.764 766.219 91.764C763.657 91.764 761.935 90.742 761.935 89.132ZM763.055 89.132C763.027 90.21 764.315 90.896 766.219 90.896C768.109 90.896 769.397 90.21 769.383 89.132C769.397 88.026 768.109 87.326 766.219 87.312C764.315 87.326 763.027 88.026 763.055 89.132ZM782.603 91.792V92.688H774.203V87.088H782.491V87.984H775.267V91.792H782.603ZM772.803 96.44V95.544H783.919V96.44H772.803ZM795.99 91.596V92.436H784.874V91.596H795.99ZM786.218 94.228V93.416H794.618V95.992H787.31V97.168H795.01V97.952H786.246V95.264H793.554V94.228H786.218ZM786.274 87.088V86.332H794.562V88.852H787.394V89.916H794.786V90.7H786.33V88.096H793.498V87.088H786.274ZM800.922 97V89.58H802.126V97H800.922ZM800.698 87.564C800.698 87.13 801.076 86.78 801.538 86.78C801.986 86.78 802.364 87.13 802.35 87.564C802.364 87.998 801.986 88.348 801.538 88.348C801.076 88.348 800.698 87.998 800.698 87.564ZM807.023 97.168C805.007 97.154 803.635 95.628 803.635 93.332C803.635 91.008 805.007 89.482 807.023 89.468C809.039 89.482 810.397 91.008 810.383 93.332C810.397 95.628 809.039 97.154 807.023 97.168ZM804.811 93.332C804.811 94.802 805.511 96.104 807.023 96.104C808.521 96.104 809.221 94.802 809.207 93.332C809.221 91.848 808.521 90.518 807.023 90.532C805.511 90.518 804.811 91.848 804.811 93.332ZM815.177 89.58V90.56H813.609V94.872C813.595 95.824 814.071 95.978 814.561 95.964C814.785 95.978 815.093 95.95 815.261 95.936V97.028C815.093 97.07 814.799 97.098 814.449 97.084C813.455 97.098 812.419 96.482 812.405 95.18V90.56H811.285V89.58H812.405V87.788H813.609V89.58H815.177ZM829.734 86.332V87.172H827.886V89.524H829.706V90.364H820.802V89.524H822.65V87.172H820.774V86.332H829.734ZM819.738 92.268V91.4H830.798V92.268H819.738ZM821.082 94.144V93.332H829.37V95.992H822.146V97.14H829.734V97.98H821.11V95.208H828.334V94.144H821.082ZM823.714 89.524H826.794V87.172H823.714V89.524ZM842.142 85.968V94.256H841.134V90.028H839.426V93.192H838.418V86.192H839.426V89.16H841.134V85.968H842.142ZM832.37 87.816V86.92H836.962V90.308H833.434V92.128C835.03 92.128 836.248 92.058 837.69 91.764L837.802 92.632C836.248 92.94 834.96 92.996 833.182 92.996H832.398V89.496H835.926V87.816H832.37ZM833.378 97.224C835.492 96.888 837.536 95.6 837.55 94.004V93.668H838.614V94.004C838.628 95.6 840.672 96.888 842.814 97.224L842.366 98.064C840.56 97.742 838.824 96.818 838.096 95.46C837.34 96.818 835.604 97.742 833.798 98.064L833.378 97.224ZM854.998 92.1V92.968H843.938V92.1H848.922V90.7H845.002V89.804H846.85V87.228H844.974V86.36H853.934V87.228H852.086V89.804H853.906V90.7H849.986V92.1H854.998ZM845.282 97.952V94.144H853.654V97.952H845.282ZM846.346 97.056H852.59V94.984H846.346V97.056ZM847.914 89.804H850.994V87.228H847.914V89.804ZM861.553 86.752C864.101 86.752 866.005 88.082 866.005 90.084C866.005 92.114 864.101 93.43 861.553 93.416C859.019 93.43 857.115 92.114 857.129 90.084C857.115 88.082 859.019 86.752 861.553 86.752ZM856.037 96.496V95.6H867.153V96.496H856.037ZM858.137 90.084C858.137 91.554 859.607 92.548 861.553 92.548C863.513 92.548 864.969 91.554 864.969 90.084C864.969 88.628 863.513 87.606 861.553 87.62C859.607 87.606 858.137 88.628 858.137 90.084ZM879.253 95.684V96.608H868.137V95.684H873.121V93.416H869.509V89.664H876.789V87.76H869.481V86.864H877.853V90.532H870.573V92.52H878.133V93.416H874.185V95.684H879.253ZM887.348 88.376C887.348 89.72 888.286 91.078 889.868 91.652L889.28 92.492C888.104 92.044 887.278 91.162 886.844 90.112C886.396 91.274 885.528 92.31 884.324 92.828L883.736 91.988C885.346 91.302 886.312 89.734 886.312 88.376V86.724H887.348V88.376ZM885.948 95.908C885.934 94.55 887.502 93.738 890.036 93.752C892.542 93.738 894.11 94.55 894.096 95.908C894.11 97.28 892.542 98.078 890.036 98.092C887.502 98.078 885.934 97.28 885.948 95.908ZM887.012 95.908C886.998 96.748 888.16 97.252 890.036 97.252C891.87 97.252 893.032 96.748 893.032 95.908C893.032 95.082 891.87 94.578 890.036 94.564C888.16 94.578 886.998 95.082 887.012 95.908ZM890.4 93.08V86.192H891.408V89.244H893.032V85.968H894.04V93.472H893.032V90.112H891.408V93.08H890.4ZM905.328 85.968V89.048H907.148V89.972H905.328V93.08H904.264V85.968H905.328ZM895.808 92.128C898.804 91.316 900.638 89.678 900.848 87.62H896.368V86.724H901.996C901.982 89.804 899.84 92.002 896.256 92.94L895.808 92.128ZM897.376 94.536V93.64H905.328V98.12H904.264V94.536H897.376ZM917.428 85.912V88.88H919.276V89.748H917.428V92.632H916.364V85.912H917.428ZM907.964 87.928V87.06H911.044V85.828H912.108V87.06H915.188V87.928H907.964ZM908.664 90.476C908.636 89.23 909.798 88.474 911.576 88.46C913.34 88.474 914.488 89.23 914.488 90.476C914.488 91.708 913.34 92.45 911.576 92.464C909.798 92.45 908.636 91.708 908.664 90.476ZM909.672 94.088V93.276H917.428V95.964H910.764V97.14H917.876V97.98H909.7V95.18H916.364V94.088H909.672ZM909.672 90.476C909.672 91.204 910.414 91.652 911.576 91.652C912.724 91.652 913.48 91.204 913.48 90.476C913.48 89.734 912.724 89.272 911.576 89.272C910.414 89.272 909.672 89.734 909.672 90.476ZM929.611 87.088C929.625 88.796 931.865 90.28 934.063 90.588L933.615 91.456C931.725 91.148 929.863 90.098 929.079 88.614C928.295 90.112 926.433 91.148 924.543 91.456L924.095 90.588C926.293 90.28 928.519 88.824 928.519 87.088V86.388H929.611V87.088ZM923.535 93.696V92.8H934.595V93.696H929.555V98.12H928.519V93.696H923.535ZM943.223 94.116C943.237 95.194 943.825 96.342 944.959 97C946.135 96.286 946.737 95.054 946.751 94.116V93.444H947.787V94.116C947.787 95.362 948.711 96.608 950.279 97.14L949.719 97.924C948.515 97.504 947.661 96.664 947.241 95.642C946.863 96.622 946.135 97.56 945.015 98.036C943.825 97.588 943.069 96.692 942.705 95.684C942.271 96.664 941.417 97.504 940.255 97.924L939.723 97.14C941.263 96.58 942.187 95.278 942.187 94.116V93.444H943.223V94.116ZM939.415 89.524C939.401 87.83 940.745 86.668 942.607 86.668C944.441 86.668 945.771 87.83 945.771 89.524C945.771 91.19 944.441 92.338 942.607 92.352C940.745 92.338 939.401 91.19 939.415 89.524ZM940.451 89.524C940.451 90.644 941.347 91.442 942.607 91.456C943.839 91.442 944.735 90.644 944.735 89.524C944.735 88.39 943.839 87.578 942.607 87.592C941.347 87.578 940.451 88.39 940.451 89.524ZM948.095 92.912V85.968H949.159V92.912H948.095ZM954.482 86.892C956.148 86.906 957.338 88.32 957.506 90.588H960.222V85.968H961.286V98.12H960.222V91.484H957.52C957.394 93.878 956.19 95.362 954.482 95.376C952.69 95.362 951.43 93.724 951.458 91.12C951.43 88.544 952.69 86.906 954.482 86.892ZM952.466 91.12C952.466 93.108 953.292 94.41 954.482 94.396C955.686 94.41 956.512 93.108 956.498 91.12C956.512 89.16 955.686 87.858 954.482 87.844C953.292 87.858 952.466 89.16 952.466 91.12ZM965.266 94.144C965.28 92.31 965.84 91.75 966.778 91.176C967.352 90.826 967.786 90.294 967.786 89.524C967.786 88.586 967.058 87.998 966.162 88.012C965.378 87.998 964.594 88.46 964.51 89.58H963.278C963.334 87.928 964.594 86.962 966.162 86.976C967.87 86.962 968.976 88.068 968.99 89.58C968.976 90.644 968.472 91.386 967.618 91.904C966.778 92.436 966.47 92.954 966.442 94.144V94.2H965.266V94.144ZM965.014 96.188C965.014 95.712 965.42 95.32 965.91 95.32C966.386 95.32 966.778 95.712 966.778 96.188C966.778 96.678 966.386 97.084 965.91 97.084C965.42 97.084 965.014 96.678 965.014 96.188ZM976.809 86.892C978.601 86.906 979.861 88.544 979.861 91.12C979.861 93.724 978.601 95.362 976.809 95.376C975.003 95.362 973.729 93.724 973.757 91.12C973.729 88.544 975.003 86.906 976.809 86.892ZM974.765 91.12C974.765 93.108 975.605 94.41 976.809 94.396C978.013 94.41 978.839 93.108 978.825 91.12C978.839 89.16 978.013 87.858 976.809 87.844C975.605 87.858 974.765 89.16 974.765 91.12ZM981.877 98.12V85.968H982.969V90.812H984.985V91.736H982.969V98.12H981.877ZM995.656 85.968V98.12H994.592V85.968H995.656ZM986.444 94.984V87.144H987.508V94.032C989.356 94.046 991.26 93.892 993.304 93.472L993.444 94.368C991.302 94.83 989.37 94.984 987.424 94.984H986.444ZM1003.89 87.032V88.096H1006.75V85.968H1007.81V94.844H1006.75V91.596H1003.89V92.688H998.32V87.032H1003.89ZM999.384 91.82H1002.86V87.9H999.384V91.82ZM999.972 97.84V94.032H1001.04V96.944H1008.09V97.84H999.972ZM1003.89 90.7H1006.75V88.992H1003.89V90.7ZM1023.1 89.216V90.084H1014.82V86.444H1022.99V87.312H1015.91V89.216H1023.1ZM1013.36 91.96V91.064H1024.42V91.96H1019.41V93.164H1022.99V95.88H1015.77V97.112H1023.36V97.98H1014.73V95.096H1021.96V94.004H1014.7V93.164H1018.34V91.96H1013.36ZM1035.46 85.968V98.12H1034.39V85.968H1035.46ZM1025.91 91.12C1025.91 88.544 1027.2 86.906 1029.02 86.892C1030.81 86.906 1032.11 88.544 1032.12 91.12C1032.11 93.724 1030.81 95.362 1029.02 95.376C1027.2 95.362 1025.91 93.724 1025.91 91.12ZM1026.94 91.12C1026.94 93.108 1027.78 94.41 1029.02 94.396C1030.22 94.41 1031.06 93.108 1031.06 91.12C1031.06 89.16 1030.22 87.858 1029.02 87.844C1027.78 87.858 1026.94 89.16 1026.94 91.12ZM746.724 111.596V112.464H742.328V107.116H746.584V107.984H743.42V111.596H746.724ZM736.504 116.552V115.656H741.488V113.08H742.524V115.656H747.62V116.552H736.504ZM737.456 112.464V107.116H741.6V108.012H738.52V111.596C739.542 111.582 740.564 111.512 741.712 111.26L741.796 112.156C740.466 112.45 739.346 112.478 738.128 112.464H737.456ZM761.512 105.968V110.756H763.528V111.652H761.512V118.12H760.42V105.968H761.512ZM752.636 115.096V107.144H758.292V108.04H753.7V114.172C755.898 114.172 757.452 114.088 759.244 113.752L759.384 114.676C757.494 115.012 755.898 115.082 753.588 115.096H752.636ZM775.291 112.688V113.584H764.175V112.688H775.291ZM765.575 107.228V106.388H773.863V109.384H766.695V110.728H774.143V111.568H765.631V108.572H772.799V107.228H765.575ZM765.659 117.84V114.536H766.723V116.944H774.143V117.84H765.659ZM790.163 105.968V118.12H789.127V111.736H787.419V117.504H786.411V106.276H787.419V110.868H789.127V105.968H790.163ZM779.803 114.732C782.631 113.15 783.807 110.938 783.975 108.432H780.279V107.536H785.011C785.011 110.63 783.933 113.542 780.419 115.488L779.803 114.732ZM793.722 106.556V111.652C795.612 111.652 797.082 111.568 798.734 111.26L798.874 112.128C797.096 112.464 795.57 112.548 793.526 112.548H792.63V106.556H793.722ZM794.114 117.952V113.668H801.954V117.952H794.114ZM795.15 117.056H800.89V114.508H795.15V117.056ZM797.39 110.336V109.496H800.89V108.18H797.39V107.34H800.89V105.968H801.954V113.108H800.89V110.336H797.39ZM813.998 105.968V118.12H812.934V105.968H813.998ZM804.45 111.12C804.45 108.544 805.738 106.906 807.558 106.892C809.35 106.906 810.652 108.544 810.666 111.12C810.652 113.724 809.35 115.362 807.558 115.376C805.738 115.362 804.45 113.724 804.45 111.12ZM805.486 111.12C805.486 113.108 806.326 114.41 807.558 114.396C808.762 114.41 809.602 113.108 809.602 111.12C809.602 109.16 808.762 107.858 807.558 107.844C806.326 107.858 805.486 109.16 805.486 111.12ZM819.35 106.892C821.142 106.906 822.402 108.544 822.402 111.12C822.402 113.724 821.142 115.362 819.35 115.376C817.544 115.362 816.27 113.724 816.298 111.12C816.27 108.544 817.544 106.906 819.35 106.892ZM817.306 111.12C817.306 113.108 818.146 114.41 819.35 114.396C820.554 114.41 821.38 113.108 821.366 111.12C821.38 109.16 820.554 107.858 819.35 107.844C818.146 107.858 817.306 109.16 817.306 111.12ZM824.418 118.12V105.968H825.51V109.02H827.47V109.944H825.51V112.632H827.47V113.528H825.51V118.12H824.418ZM830.133 114.144C830.147 112.31 830.707 111.75 831.645 111.176C832.219 110.826 832.653 110.294 832.653 109.524C832.653 108.586 831.925 107.998 831.029 108.012C830.245 107.998 829.461 108.46 829.377 109.58H828.145C828.201 107.928 829.461 106.962 831.029 106.976C832.737 106.962 833.843 108.068 833.857 109.58C833.843 110.644 833.339 111.386 832.485 111.904C831.645 112.436 831.337 112.954 831.309 114.144V114.2H830.133V114.144ZM829.881 116.188C829.881 115.712 830.287 115.32 830.777 115.32C831.253 115.32 831.645 115.712 831.645 116.188C831.645 116.678 831.253 117.084 830.777 117.084C830.287 117.084 829.881 116.678 829.881 116.188Z" fill="#31343D"/>
<mask id="path-15-inside-3_5336_11487" fill="white">
<path d="M644 134H1056V178H644V134Z"/>
</mask>
<path d="M644 134H1056V178H644V134Z" fill="#FCFCFF"/>
<path d="M1056 178V177H644V178V179H1056V178Z" fill="#E0E4EB" mask="url(#path-15-inside-3_5336_11487)"/>
<path d="M662.712 159.906L666.144 156.447C666.558 156.01 666.875 155.659 667.094 155.395C667.312 155.13 667.479 154.873 667.593 154.622C667.711 154.367 667.771 154.1 667.771 153.822C667.771 153.503 667.691 153.223 667.531 152.981C667.372 152.74 667.153 152.553 666.875 152.421C666.597 152.289 666.285 152.223 665.938 152.223C665.578 152.223 665.262 152.296 664.988 152.441C664.715 152.587 664.503 152.792 664.353 153.057C664.207 153.321 664.134 153.626 664.134 153.973H662.712C662.707 153.38 662.844 152.856 663.122 152.4C663.4 151.945 663.787 151.591 664.284 151.341C664.781 151.09 665.341 150.965 665.966 150.965C666.595 150.965 667.153 151.088 667.641 151.334C668.133 151.576 668.516 151.91 668.789 152.339C669.062 152.767 669.201 153.248 669.206 153.781C669.201 154.16 669.129 154.524 668.987 154.875C668.846 155.221 668.604 155.609 668.263 156.037C667.921 156.461 667.438 156.98 666.813 157.596L664.804 159.633V159.715H669.37V161H662.712V159.906Z" fill="#6A7380"/>
<path d="M698.556 159.168H697.243V157.568H694.646V156.529H697.243V149.926H698.556V159.168ZM698.856 161.902H690.011V158.17H691.31V160.85H698.856V161.902ZM688.22 154.697C690.389 154.688 692.171 154.638 693.565 154.547C693.734 153.531 693.823 152.569 693.832 151.662H689.327V150.609H695.138V151.088C695.138 151.607 695.122 152.127 695.09 152.646C695.062 153.166 694.992 153.765 694.878 154.444C695.461 154.381 695.903 154.328 696.204 154.287L696.3 155.23C695.352 155.395 694.231 155.524 692.937 155.62V158.375H691.638V155.688C690.635 155.729 689.555 155.75 688.397 155.75L688.22 154.697ZM706.677 150.992C706.672 151.525 706.866 152.04 707.258 152.537C707.654 153.029 708.19 153.449 708.864 153.795C709.539 154.137 710.272 154.36 711.065 154.465L710.56 155.531C709.894 155.426 709.263 155.244 708.666 154.984C708.069 154.725 707.54 154.403 707.08 154.021C706.62 153.638 706.26 153.209 706 152.735C705.736 153.209 705.373 153.638 704.913 154.021C704.457 154.403 703.933 154.725 703.341 154.984C702.748 155.24 702.119 155.422 701.454 155.531L700.935 154.465C701.728 154.36 702.459 154.137 703.129 153.795C703.799 153.453 704.33 153.036 704.722 152.544C705.118 152.047 705.319 151.53 705.323 150.992V150.322H706.677V150.992ZM711.571 157.801H706.595V162.162H705.323V157.801H700.401V156.734H711.571V157.801ZM714.415 152.742H717.683V150.787H718.968V156.885H713.144V150.787H714.415V152.742ZM717.683 155.846V153.754H714.415V155.846H717.683ZM722.659 158.949H721.36V149.926H722.659V158.949ZM722.96 161.902H714.579V158.033H715.892V160.85H722.96V161.902Z" fill="#31343D"/>
<path d="M736.924 161V153.58H738.072V154.7H738.156C738.422 153.958 739.206 153.454 740.088 153.468C740.256 153.454 740.55 153.468 740.676 153.468V154.672C740.606 154.644 740.284 154.588 739.976 154.588C738.912 154.588 738.114 155.33 738.128 156.324V161H736.924ZM748.183 153.58L745.439 161H744.207L741.491 153.58H742.751L744.795 159.46H744.879L746.895 153.58H748.183ZM749.475 161V153.58H750.679V161H749.475ZM749.251 151.564C749.251 151.13 749.629 150.78 750.091 150.78C750.539 150.78 750.917 151.13 750.903 151.564C750.917 151.998 750.539 152.348 750.091 152.348C749.629 152.348 749.251 151.998 749.251 151.564ZM761.512 149.968V154.896H763.472V155.82H761.512V162.092H760.42V149.968H761.512ZM752.16 158.956C755.31 157.388 757.032 155.05 757.256 152.152H752.748V151.256H758.348C758.348 154.7 756.738 157.836 752.776 159.796L752.16 158.956ZM771.343 161.14C769.565 161.14 768.221 160.034 768.123 158.508H769.327C769.425 159.39 770.279 160.048 771.343 160.048C772.645 160.048 773.569 159.11 773.583 157.864C773.569 156.576 772.603 155.638 771.259 155.624C770.433 155.61 769.789 155.876 769.411 156.52H768.235L768.935 151.088H774.283V152.18H769.943L769.579 155.092H769.691C770.125 154.756 770.797 154.518 771.483 154.532C773.373 154.518 774.773 155.918 774.759 157.836C774.773 159.754 773.331 161.14 771.343 161.14ZM785.843 153.636V154.504H777.527V150.416H778.591V153.636H785.843ZM776.015 157.024V156.156H787.131V157.024H776.015ZM777.471 161.812V158.284H778.535V160.916H785.927V161.812H777.471ZM801.639 149.968V157.136H800.575V156.436H798.111V155.708H800.575V149.968H801.639ZM791.587 154.56C793.939 154.56 796.949 154.532 799.567 154.252L799.651 154.952C798.461 155.12 797.215 155.218 796.011 155.274V157.136H794.947V155.316C793.799 155.344 792.707 155.344 791.727 155.344L791.587 154.56ZM792.735 153.58V150.332H798.419V153.58H792.735ZM793.463 158.34V157.556H801.639V160.104H794.555V161.168H802.059V161.98H793.491V159.348H800.575V158.34H793.463ZM793.827 152.796H797.383V151.116H793.827V152.796ZM811.218 150.836C813.122 150.85 814.466 152.012 814.494 153.692C814.466 155.386 813.122 156.548 811.218 156.548C809.286 156.548 807.914 155.386 807.914 153.692C807.914 152.012 809.286 150.85 811.218 150.836ZM807.298 158.536C809.538 158.55 812.632 158.522 815.334 158.116L815.418 158.928C812.632 159.446 809.636 159.46 807.438 159.46L807.298 158.536ZM808.978 153.692C808.978 154.826 809.916 155.61 811.218 155.624C812.492 155.61 813.43 154.826 813.43 153.692C813.43 152.572 812.492 151.788 811.218 151.788C809.916 151.788 808.978 152.572 808.978 153.692ZM816.118 162.12V149.968H817.21V162.12H816.118ZM825.642 151.144V159.068H820.042V151.144H825.642ZM821.106 158.172H824.606V152.012H821.106V158.172ZM828.274 162.12V149.968H829.338V162.12H828.274ZM840.85 149.968V154.98H842.866V155.876H840.85V162.12H839.786V149.968H840.85ZM831.358 152.796V151.9H834.494V150.108H835.558V151.9H838.582V152.796H831.358ZM832.058 156.604C832.044 154.952 833.304 153.804 835.026 153.804C836.762 153.804 838.007 154.952 838.022 156.604C838.007 158.242 836.762 159.39 835.026 159.376C833.304 159.39 832.044 158.242 832.058 156.604ZM833.094 156.604C833.08 157.71 833.906 158.48 835.026 158.48C836.16 158.48 836.986 157.71 836.986 156.604C836.986 155.498 836.16 154.7 835.026 154.7C833.906 154.7 833.08 155.498 833.094 156.604ZM853.341 153.636V154.504H845.025V150.416H846.089V153.636H853.341ZM843.513 157.024V156.156H854.629V157.024H843.513ZM844.969 161.812V158.284H846.033V160.916H853.425V161.812H844.969ZM865.693 149.968V162.12H864.629V155.736H861.717V154.84H864.629V149.968H865.693ZM855.641 158.928C858.945 157.332 860.457 154.994 860.681 152.152H856.173V151.284H861.773C861.745 154.728 860.289 157.78 856.229 159.796L855.641 158.928ZM870.988 150.892C872.78 150.906 874.04 152.544 874.04 155.12C874.04 157.724 872.78 159.362 870.988 159.376C869.182 159.362 867.908 157.724 867.936 155.12C867.908 152.544 869.182 150.906 870.988 150.892ZM868.944 155.12C868.944 157.108 869.784 158.41 870.988 158.396C872.192 158.41 873.018 157.108 873.004 155.12C873.018 153.16 872.192 151.858 870.988 151.844C869.784 151.858 868.944 153.16 868.944 155.12ZM876.056 162.12V149.968H877.148V153.02H879.108V153.944H877.148V156.632H879.108V157.528H877.148V162.12H876.056ZM881.772 158.144C881.786 156.31 882.346 155.75 883.284 155.176C883.858 154.826 884.292 154.294 884.292 153.524C884.292 152.586 883.564 151.998 882.668 152.012C881.884 151.998 881.1 152.46 881.016 153.58H879.784C879.84 151.928 881.1 150.962 882.668 150.976C884.376 150.962 885.482 152.068 885.496 153.58C885.482 154.644 884.978 155.386 884.124 155.904C883.284 156.436 882.976 156.954 882.948 158.144V158.2H881.772V158.144ZM881.52 160.188C881.52 159.712 881.926 159.32 882.416 159.32C882.892 159.32 883.284 159.712 883.284 160.188C883.284 160.678 882.892 161.084 882.416 161.084C881.926 161.084 881.52 160.678 881.52 160.188Z" fill="#31343D"/>
<mask id="path-20-inside-4_5336_11487" fill="white">
<path d="M644 178H1056V222H644V178Z"/>
</mask>
<path d="M644 178H1056V222H644V178Z" fill="#FCFCFF"/>
<path d="M1056 222V221H644V222V223H1056V222Z" fill="#E0E4EB" mask="url(#path-20-inside-4_5336_11487)"/>
<path d="M666.021 205.137C665.346 205.137 664.74 205.023 664.202 204.795C663.669 204.567 663.247 204.248 662.938 203.838C662.632 203.423 662.47 202.949 662.452 202.416H663.983C664.002 202.703 664.1 202.954 664.277 203.168C664.46 203.382 664.701 203.549 665.002 203.667C665.303 203.781 665.638 203.838 666.007 203.838C666.399 203.838 666.752 203.77 667.066 203.633C667.381 203.496 667.627 203.307 667.805 203.065C667.982 202.819 668.071 202.539 668.071 202.225C668.071 201.901 667.982 201.612 667.805 201.356C667.627 201.101 667.369 200.903 667.032 200.762C666.7 200.616 666.303 200.543 665.843 200.543H664.995V199.312H665.843C666.212 199.312 666.542 199.246 666.834 199.114C667.126 198.982 667.351 198.798 667.511 198.561C667.675 198.324 667.757 198.05 667.757 197.74C667.757 197.439 667.686 197.175 667.545 196.947C667.404 196.719 667.203 196.542 666.943 196.414C666.684 196.286 666.381 196.223 666.034 196.223C665.697 196.223 665.385 196.282 665.098 196.4C664.811 196.519 664.578 196.688 664.4 196.906C664.227 197.125 664.134 197.38 664.12 197.672H662.671C662.685 197.148 662.842 196.681 663.143 196.271C663.448 195.856 663.856 195.535 664.366 195.307C664.877 195.079 665.437 194.965 666.048 194.965C666.677 194.965 667.23 195.086 667.709 195.327C668.192 195.569 668.563 195.897 668.823 196.312C669.083 196.722 669.211 197.171 669.206 197.658C669.211 198.214 669.053 198.688 668.734 199.08C668.42 199.467 667.994 199.727 667.456 199.859V199.928C668.126 200.023 668.648 200.281 669.021 200.7C669.4 201.119 669.589 201.646 669.589 202.279C669.589 202.822 669.434 203.312 669.124 203.749C668.814 204.182 668.388 204.521 667.846 204.768C667.303 205.014 666.695 205.137 666.021 205.137Z" fill="#6A7380"/>
<path d="M694.782 194.678C694.782 195.712 694.548 196.646 694.078 197.48C693.613 198.314 692.943 199.028 692.068 199.62C691.193 200.208 690.147 200.661 688.931 200.98L688.411 199.955C689.391 199.7 690.239 199.365 690.954 198.95C691.674 198.535 692.239 198.055 692.649 197.508C693.064 196.956 693.31 196.359 693.388 195.717H689.095V194.678H694.782ZM698.46 200.816H697.161V193.926H698.46V200.816ZM698.46 205.998H690.435V201.363H698.46V205.998ZM691.72 204.959H697.188V202.402H691.72V204.959ZM704.626 195.867C704.626 196.405 704.744 196.92 704.981 197.412C705.223 197.904 705.565 198.34 706.007 198.718C706.453 199.091 706.978 199.376 707.579 199.572L706.882 200.598C706.221 200.365 705.642 200.021 705.146 199.565C704.653 199.105 704.273 198.57 704.004 197.959C703.735 198.656 703.343 199.262 702.828 199.777C702.318 200.288 701.709 200.675 701.003 200.939L700.306 199.9C700.935 199.677 701.475 199.358 701.926 198.943C702.382 198.524 702.73 198.041 702.972 197.494C703.213 196.947 703.336 196.368 703.341 195.758V194.555H704.626V195.867ZM710.026 196.988H711.804V198.082H710.026V201.309H708.728V193.912H710.026V196.988ZM706.075 201.596C706.909 201.596 707.632 201.687 708.242 201.869C708.853 202.047 709.32 202.307 709.644 202.648C709.972 202.986 710.136 203.391 710.136 203.865C710.136 204.344 709.972 204.754 709.644 205.096C709.32 205.438 708.853 205.697 708.242 205.875C707.632 206.053 706.909 206.139 706.075 206.135C705.232 206.139 704.501 206.053 703.881 205.875C703.261 205.697 702.785 205.438 702.452 205.096C702.124 204.754 701.96 204.344 701.96 203.865C701.96 203.391 702.124 202.986 702.452 202.648C702.785 202.307 703.261 202.047 703.881 201.869C704.501 201.687 705.232 201.596 706.075 201.596ZM706.075 202.621C705.487 202.621 704.981 202.671 704.558 202.771C704.134 202.867 703.81 203.008 703.587 203.195C703.364 203.382 703.254 203.605 703.259 203.865C703.254 204.266 703.498 204.574 703.99 204.788C704.482 205.002 705.177 205.114 706.075 205.123C706.964 205.114 707.65 205.002 708.133 204.788C708.62 204.574 708.864 204.266 708.864 203.865C708.864 203.473 708.618 203.168 708.126 202.949C707.638 202.73 706.955 202.621 706.075 202.621ZM723.698 201.951H718.694V206.162H717.423V201.951H712.487V200.871H723.698V201.951ZM718.065 194.377C718.922 194.377 719.679 194.489 720.335 194.712C720.996 194.931 721.508 195.247 721.873 195.662C722.242 196.072 722.427 196.551 722.427 197.098C722.427 197.64 722.242 198.116 721.873 198.526C721.508 198.932 720.996 199.244 720.335 199.463C719.679 199.682 718.922 199.791 718.065 199.791C717.204 199.791 716.443 199.682 715.782 199.463C715.126 199.244 714.616 198.932 714.251 198.526C713.886 198.116 713.704 197.64 713.704 197.098C713.704 196.551 713.886 196.072 714.251 195.662C714.616 195.247 715.126 194.931 715.782 194.712C716.443 194.489 717.204 194.377 718.065 194.377ZM718.065 195.416C717.459 195.421 716.928 195.491 716.473 195.628C716.017 195.765 715.664 195.958 715.413 196.209C715.162 196.46 715.039 196.756 715.044 197.098C715.039 197.435 715.162 197.729 715.413 197.979C715.664 198.226 716.017 198.417 716.473 198.554C716.928 198.686 717.459 198.752 718.065 198.752C718.672 198.752 719.202 198.686 719.658 198.554C720.114 198.417 720.467 198.226 720.718 197.979C720.973 197.729 721.101 197.435 721.101 197.098C721.101 196.756 720.975 196.46 720.725 196.209C720.474 195.958 720.118 195.765 719.658 195.628C719.202 195.491 718.672 195.421 718.065 195.416Z" fill="#31343D"/>
<path d="M746.528 193.968V200.912H745.464V193.968H746.528ZM736.784 197.468C736.77 195.76 738.114 194.612 739.976 194.612C741.81 194.612 743.14 195.76 743.14 197.468C743.14 199.12 741.81 200.282 739.976 200.268C738.114 200.282 736.77 199.12 736.784 197.468ZM737.82 197.468C737.82 198.574 738.716 199.372 739.976 199.372C741.208 199.372 742.104 198.574 742.104 197.468C742.104 196.32 741.208 195.522 739.976 195.536C738.716 195.522 737.82 196.32 737.82 197.468ZM738.632 205.952V201.556H746.528V205.952H738.632ZM739.696 205.056H745.464V202.424H739.696V205.056ZM750.06 195.144V198.14H752.72V195.144H753.7V198.56H755.548V194.22H756.556V205.504H755.548V199.484H753.7V203.068H749.024V195.144H750.06ZM750.06 202.144H752.72V199.008H750.06V202.144ZM757.984 206.12V193.968H759.02V206.12H757.984ZM770.699 193.968V206.12H769.635V193.968H770.699ZM761.487 203.124V195.116H767.255V196.012H762.579V202.2C764.931 202.186 766.485 202.116 768.291 201.78L768.431 202.676C766.527 203.026 764.931 203.11 762.467 203.124H761.487ZM782.603 199.792V200.688H774.203V195.088H782.491V195.984H775.267V199.792H782.603ZM772.803 204.44V203.544H783.919V204.44H772.803ZM799.518 203.628V204.524H788.402V203.628H793.358V200.66H794.422V203.628H799.518ZM788.822 199.904C790.95 199.54 793.316 197.762 793.33 195.732V194.78H794.45V195.732C794.45 197.748 796.858 199.54 798.986 199.904L798.482 200.8C796.648 200.408 794.688 199.162 793.904 197.426C793.092 199.162 791.16 200.408 789.298 200.8L788.822 199.904ZM811.618 203.628V204.552H800.502V203.628H811.618ZM801.482 196.068V195.2H810.554V196.068H808.622V200.324H810.526V201.192H801.51V200.324H803.414V196.068H801.482ZM804.478 200.324H807.558V196.068H804.478V200.324ZM822.43 200.52V201.416H814.03V195.004H822.29V195.9H815.122V197.72H822.038V198.588H815.122V200.52H822.43ZM812.602 204.524V203.628H823.718V204.524H812.602ZM827.781 194.724C829.321 194.738 830.427 195.648 830.441 196.992C830.427 198.322 829.321 199.232 827.781 199.232C826.241 199.232 825.121 198.322 825.121 196.992C825.121 195.648 826.241 194.738 827.781 194.724ZM824.533 200.156C826.213 200.17 828.929 200.156 830.917 199.848L831.001 200.66C830.133 200.828 829.167 200.926 828.229 200.982V205.112H827.221V201.038C826.269 201.08 825.387 201.08 824.673 201.08L824.533 200.156ZM826.101 196.992C826.087 197.818 826.787 198.406 827.781 198.42C828.775 198.406 829.475 197.818 829.489 196.992C829.475 196.152 828.775 195.55 827.781 195.564C826.787 195.55 826.087 196.152 826.101 196.992ZM829.405 202.788V201.92H831.701V194.22H832.709V205.476H831.701V202.788H829.405ZM833.997 206.12V193.968H835.033V206.12H833.997ZM840.049 194.892C841.715 194.906 842.905 196.32 843.073 198.588H845.789V193.968H846.853V206.12H845.789V199.484H843.087C842.961 201.878 841.757 203.362 840.049 203.376C838.257 203.362 836.997 201.724 837.025 199.12C836.997 196.544 838.257 194.906 840.049 194.892ZM838.033 199.12C838.033 201.108 838.859 202.41 840.049 202.396C841.253 202.41 842.079 201.108 842.065 199.12C842.079 197.16 841.253 195.858 840.049 195.844C838.859 195.858 838.033 197.16 838.033 199.12ZM858.7 197.636V198.504H850.384V194.416H851.448V197.636H858.7ZM848.872 201.024V200.156H859.988V201.024H848.872ZM850.328 205.812V202.284H851.392V204.916H858.784V205.812H850.328ZM869.68 194.836V195.704H866.096V197.3H869.204V198.14H866.096V199.848C867.86 199.862 868.952 199.792 870.24 199.54L870.352 200.408C868.952 200.688 867.79 200.73 865.816 200.744H865.06V194.836H869.68ZM866.572 202.928V202.06H874.804V206.12H873.74V202.928H866.572ZM869.764 198.056V197.16H871.416V194.22H872.452V201.388H871.416V198.056H869.764ZM873.796 201.472V193.968H874.804V201.472H873.796ZM882.648 195.76C882.648 197.832 885.028 199.68 887.156 200.072L886.652 200.968C884.818 200.548 882.9 199.246 882.102 197.482C881.304 199.246 879.386 200.548 877.552 200.968L877.048 200.072C879.162 199.666 881.514 197.832 881.528 195.76V194.808H882.648V195.76ZM876.6 204.468V203.572H887.716V204.468H876.6ZM898.527 200.52V201.416H890.127V195.004H898.387V195.9H891.219V197.72H898.135V198.588H891.219V200.52H898.527ZM888.699 204.524V203.628H899.815V204.524H888.699ZM906.931 195.06V200.66H901.303V195.06H906.931ZM902.367 199.792H905.895V195.928H902.367V199.792ZM902.675 205.84V202.032H903.739V204.944H910.851V205.84H902.675ZM909.227 202.872V193.94H910.291V197.664H912.111V198.56H910.291V202.872H909.227ZM925.807 193.968V198.896H927.767V199.82H925.807V206.092H924.715V193.968H925.807ZM916.455 202.956C919.605 201.388 921.327 199.05 921.551 196.152H917.043V195.256H922.643C922.643 198.7 921.033 201.836 917.071 203.796L916.455 202.956ZM938.298 197.356V198.252H930.01V194.192H931.074V197.356H938.298ZM928.498 200.548V199.652H939.586V200.548H928.498ZM929.814 203.852C929.828 202.438 931.396 201.64 934.014 201.64C936.632 201.64 938.2 202.438 938.214 203.852C938.2 205.266 936.632 206.05 934.014 206.064C931.396 206.05 929.828 205.266 929.814 203.852ZM930.906 203.852C930.906 204.706 932.068 205.21 934.014 205.224C935.946 205.21 937.122 204.706 937.122 203.852C937.122 202.984 935.946 202.508 934.014 202.508C932.068 202.508 930.906 202.984 930.906 203.852ZM946.646 196.068V196.936H940.57V196.068H943.09V194.332H944.154V196.068H946.646ZM940.99 200.52C940.99 198.896 942.096 197.762 943.622 197.748C945.134 197.762 946.24 198.896 946.254 200.52C946.24 202.144 945.134 203.292 943.622 203.292C942.096 203.292 940.99 202.144 940.99 200.52ZM941.942 200.52C941.956 201.598 942.642 202.368 943.622 202.368C944.574 202.368 945.288 201.598 945.274 200.52C945.288 199.456 944.574 198.672 943.622 198.644C942.642 198.672 941.956 199.456 941.942 200.52ZM947.29 205.504V194.248H948.298V199.092H949.922V193.968H950.93V206.12H949.922V199.96H948.298V205.504H947.29ZM954.629 202.144C954.643 200.31 955.203 199.75 956.141 199.176C956.715 198.826 957.149 198.294 957.149 197.524C957.149 196.586 956.421 195.998 955.525 196.012C954.741 195.998 953.957 196.46 953.873 197.58H952.641C952.697 195.928 953.957 194.962 955.525 194.976C957.233 194.962 958.339 196.068 958.353 197.58C958.339 198.644 957.835 199.386 956.981 199.904C956.141 200.436 955.833 200.954 955.805 202.144V202.2H954.629V202.144ZM954.377 204.188C954.377 203.712 954.783 203.32 955.273 203.32C955.749 203.32 956.141 203.712 956.141 204.188C956.141 204.678 955.749 205.084 955.273 205.084C954.783 205.084 954.377 204.678 954.377 204.188Z" fill="#31343D"/>
<mask id="path-25-inside-5_5336_11487" fill="white">
<path d="M644 222H1056V266H644V222Z"/>
</mask>
<path d="M644 222H1056V266H644V222Z" fill="#FCFCFF"/>
<path d="M1056 266V265H644V266V267H1056V266Z" fill="#E0E4EB" mask="url(#path-25-inside-5_5336_11487)"/>
<path d="M662.213 245.855L666.588 239.102H668.447V245.801H669.801V247.072H668.447V249H667.025V247.072H662.213V245.855ZM667.025 245.801V240.893H666.916L663.799 245.719V245.801H667.025Z" fill="#6A7380"/>
<path d="M694.782 238.678C694.782 239.712 694.548 240.646 694.078 241.48C693.613 242.314 692.943 243.028 692.068 243.62C691.193 244.208 690.147 244.661 688.931 244.98L688.411 243.955C689.391 243.7 690.239 243.365 690.954 242.95C691.674 242.535 692.239 242.055 692.649 241.508C693.064 240.956 693.31 240.359 693.388 239.717H689.095V238.678H694.782ZM698.46 244.816H697.161V237.926H698.46V244.816ZM698.46 249.998H690.435V245.363H698.46V249.998ZM691.72 248.959H697.188V246.402H691.72V248.959ZM702.151 240.564H704.517V238.691H705.72V244.475H700.921V238.691H702.151V240.564ZM704.517 243.422V241.576H702.151V243.422H704.517ZM710.847 245.281H709.616V242.109H708.181V245.199H706.978V238.145H708.181V241.043H709.616V237.926H710.847V245.281ZM710.847 250.162H709.562V247.018H702.521V245.965H710.847V250.162ZM722.714 246.949H721.415V242.697H718.872V241.617H721.415V237.926H722.714V246.949ZM718.954 238.842C718.95 239.895 718.715 240.861 718.25 241.74C717.79 242.62 717.131 243.385 716.274 244.037C715.418 244.689 714.401 245.204 713.226 245.582L712.679 244.543C713.59 244.247 714.395 243.871 715.092 243.415C715.789 242.955 716.347 242.428 716.767 241.836C717.186 241.239 717.439 240.601 717.525 239.922H713.308V238.842H718.954ZM723.028 249.902H714.825V246.02H716.138V248.85H723.028V249.902Z" fill="#31343D"/>
<path d="M744.96 239.088V249H743.784L738.408 241.3H738.324V249H737.092V239.088H738.268L743.644 246.816H743.756V239.088H744.96ZM747.141 249V239.088H753.105V240.18H748.373V243.512H752.657V244.576H748.373V249H747.141ZM761.668 242.224C761.388 240.852 760.212 240.11 758.924 240.124C757.118 240.11 755.732 241.496 755.732 244.044C755.732 246.606 757.118 247.978 758.924 247.992C760.212 247.978 761.374 247.25 761.668 245.892H762.9C762.55 247.922 760.926 249.14 758.924 249.14C756.376 249.14 754.528 247.18 754.528 244.044C754.528 240.922 756.376 238.962 758.924 238.976C760.912 238.962 762.536 240.166 762.9 242.224H761.668ZM774.469 237.968V250.12H773.433V237.968H774.469ZM764.193 243.204C764.193 240.614 765.215 238.99 766.797 238.976C768.267 238.99 769.275 240.404 769.415 242.7H770.997V238.22H772.005V249.504H770.997V243.596H769.415C769.303 245.962 768.295 247.432 766.797 247.432C765.215 247.432 764.193 245.794 764.193 243.204ZM765.201 243.204C765.187 245.178 765.817 246.424 766.797 246.396C767.791 246.424 768.421 245.178 768.421 243.204C768.421 241.23 767.791 239.984 766.797 239.984C765.817 239.984 765.187 241.23 765.201 243.204ZM790.012 237.968V250.12H789.004V243.736H787.212V249.476H786.232V238.22H787.212V242.84H789.004V237.968H790.012ZM780.072 247.096V239.452H784.636V240.32H781.164V246.2C782.844 246.172 783.992 246.116 785.336 245.836L785.42 246.732C783.978 247.04 782.732 247.096 780.856 247.096H780.072ZM797.8 240.068V240.936H791.724V240.068H794.244V238.332H795.308V240.068H797.8ZM792.144 244.52C792.144 242.896 793.25 241.762 794.776 241.748C796.288 241.762 797.394 242.896 797.408 244.52C797.394 246.144 796.288 247.292 794.776 247.292C793.25 247.292 792.144 246.144 792.144 244.52ZM793.096 244.52C793.11 245.598 793.796 246.368 794.776 246.368C795.728 246.368 796.442 245.598 796.428 244.52C796.442 243.456 795.728 242.672 794.776 242.644C793.796 242.672 793.11 243.456 793.096 244.52ZM798.444 249.504V238.248H799.452V243.092H801.076V237.968H802.084V250.12H801.076V243.96H799.452V249.504H798.444ZM816.844 237.968V240.6H818.664V241.496H816.844V244.156H815.78V237.968H816.844ZM807.576 241.104C807.562 239.508 808.906 238.416 810.74 238.416C812.56 238.416 813.89 239.508 813.876 241.104C813.89 242.7 812.56 243.792 810.74 243.792C808.906 243.792 807.562 242.7 807.576 241.104ZM808.64 241.104C808.612 242.168 809.522 242.924 810.74 242.924C811.944 242.924 812.84 242.168 812.84 241.104C812.84 240.04 811.944 239.298 810.74 239.312C809.522 239.298 808.612 240.04 808.64 241.104ZM809.088 245.584V244.716H816.844V247.684H810.18V249.084H817.292V249.952H809.116V246.872H815.78V245.584H809.088ZM829.503 237.968V250.12H828.439V244.968H825.919V244.044H828.439V241.636H826.003V240.74H828.439V237.968H829.503ZM819.871 239.956V239.06H825.219V243.372H820.963V246.368C822.797 246.382 824.309 246.298 826.143 246.032L826.255 246.928C824.309 247.222 822.741 247.292 820.795 247.292H819.899V242.504H824.155V239.956H819.871ZM836.003 239.956C836.017 241.104 837.291 242.112 839.027 242.448L838.579 243.288C837.165 242.98 836.031 242.266 835.485 241.3C834.953 242.35 833.819 243.148 832.335 243.484L831.859 242.644C833.651 242.266 834.925 241.202 834.911 239.956V239.732H832.279V238.864H838.719V239.732H836.003V239.956ZM831.495 244.436C833.777 244.45 836.871 244.422 839.559 244.044L839.615 244.856C838.425 245.066 837.179 245.192 835.975 245.262V249.728H834.883V245.318C833.721 245.36 832.601 245.374 831.635 245.388L831.495 244.436ZM837.711 247.18V246.34H840.511V237.968H841.603V250.12H840.511V247.18H837.711Z" fill="#31343D"/>
<mask id="path-30-inside-6_5336_11487" fill="white">
<path d="M644 266H1056V330H644V266Z"/>
</mask>
<path d="M644 266H1056V330H644V266Z" fill="#FCFCFF"/>
<path d="M1056 330V329H644V330V331H1056V330Z" fill="#E0E4EB" mask="url(#path-30-inside-6_5336_11487)"/>
<path d="M665.993 293.137C665.378 293.137 664.82 293.021 664.318 292.788C663.817 292.551 663.418 292.228 663.122 291.817C662.826 291.403 662.666 290.936 662.644 290.416H664.106C664.134 290.694 664.234 290.945 664.407 291.168C664.58 291.391 664.806 291.567 665.084 291.694C665.362 291.817 665.665 291.879 665.993 291.879C666.39 291.879 666.743 291.79 667.053 291.612C667.367 291.435 667.613 291.191 667.791 290.881C667.969 290.566 668.058 290.215 668.058 289.828C668.058 289.432 667.966 289.076 667.784 288.762C667.602 288.443 667.349 288.194 667.025 288.017C666.702 287.834 666.335 287.741 665.925 287.736C665.091 287.736 664.512 288.028 664.188 288.611H662.767L663.409 283.102H669.015V284.387H664.653L664.325 287.162H664.421C664.631 286.962 664.899 286.8 665.228 286.677C665.56 286.554 665.911 286.492 666.28 286.492C666.891 286.492 667.442 286.633 667.935 286.916C668.431 287.199 668.819 287.59 669.097 288.092C669.379 288.593 669.521 289.158 669.521 289.787C669.521 290.43 669.37 291.006 669.069 291.517C668.769 292.027 668.349 292.426 667.812 292.713C667.278 292.995 666.672 293.137 665.993 293.137Z" fill="#6A7380"/>
<path d="M698.556 291.168H697.243V289.568H694.646V288.529H697.243V281.926H698.556V291.168ZM698.856 293.902H690.011V290.17H691.31V292.85H698.856V293.902ZM688.22 286.697C690.389 286.688 692.171 286.638 693.565 286.547C693.734 285.531 693.823 284.569 693.832 283.662H689.327V282.609H695.138V283.088C695.138 283.607 695.122 284.127 695.09 284.646C695.062 285.166 694.992 285.765 694.878 286.444C695.461 286.381 695.903 286.328 696.204 286.287L696.3 287.23C695.352 287.395 694.231 287.524 692.937 287.62V290.375H691.638V287.688C690.635 287.729 689.555 287.75 688.397 287.75L688.22 286.697ZM706.677 282.992C706.672 283.525 706.866 284.04 707.258 284.537C707.654 285.029 708.19 285.449 708.864 285.795C709.539 286.137 710.272 286.36 711.065 286.465L710.56 287.531C709.894 287.426 709.263 287.244 708.666 286.984C708.069 286.725 707.54 286.403 707.08 286.021C706.62 285.638 706.26 285.209 706 284.735C705.736 285.209 705.373 285.638 704.913 286.021C704.457 286.403 703.933 286.725 703.341 286.984C702.748 287.24 702.119 287.422 701.454 287.531L700.935 286.465C701.728 286.36 702.459 286.137 703.129 285.795C703.799 285.453 704.33 285.036 704.722 284.544C705.118 284.047 705.319 283.53 705.323 282.992V282.322H706.677V282.992ZM711.571 289.801H706.595V294.162H705.323V289.801H700.401V288.734H711.571V289.801ZM714.415 284.742H717.683V282.787H718.968V288.885H713.144V282.787H714.415V284.742ZM717.683 287.846V285.754H714.415V287.846H717.683ZM722.659 290.949H721.36V281.926H722.659V290.949ZM722.96 293.902H714.579V290.033H715.892V292.85H722.96V293.902Z" fill="#31343D"/>
<path d="M737.54 293H736.252L739.864 283.088H741.152L744.792 293H743.504L742.524 290.228H738.52L737.54 293ZM738.912 289.136H742.132L740.564 284.684H740.48L738.912 289.136ZM746.143 293V283.088H752.135V284.18H747.375V287.512H751.827V288.576H747.375V291.908H752.219V293H746.143ZM758.832 283.088V293H757.6V283.088H758.832ZM764.098 293H761.018V283.088H764.21C767.108 283.102 768.816 284.95 768.802 288.044C768.816 291.124 767.108 293 764.098 293ZM762.25 291.908H764.014C766.436 291.908 767.612 290.438 767.626 288.044C767.612 285.636 766.436 284.194 764.154 284.18H762.25V291.908ZM779.435 281.968V286.896H781.395V287.82H779.435V294.092H778.343V281.968H779.435ZM770.083 290.956C773.233 289.388 774.955 287.05 775.179 284.152H770.671V283.256H776.271C776.271 286.7 774.661 289.836 770.699 291.796L770.083 290.956ZM795.371 283.2V284.404C795.357 285.888 795.357 287.554 794.895 290.004L793.831 289.864C794.279 287.554 794.279 285.86 794.279 284.404V284.068H786.803V283.2H795.371ZM785.627 292.384V291.488H789.967V287.148H791.031V291.488H796.687V292.384H785.627ZM808.815 288.884V289.78H805.903V294.12H804.811V289.78H801.703V294.12H800.583V289.78H797.699V288.884H808.815ZM798.959 285.104C798.959 283.48 800.681 282.458 803.243 282.444C805.791 282.458 807.513 283.48 807.527 285.104C807.513 286.714 805.791 287.736 803.243 287.708C800.681 287.736 798.959 286.714 798.959 285.104ZM800.079 285.104C800.051 286.168 801.339 286.854 803.243 286.868C805.133 286.854 806.421 286.168 806.407 285.104C806.421 284.012 805.133 283.326 803.243 283.312C801.339 283.326 800.051 284.012 800.079 285.104ZM815.874 284.068V284.936H809.798V284.068H812.318V282.332H813.382V284.068H815.874ZM810.218 288.52C810.218 286.896 811.324 285.762 812.85 285.748C814.362 285.762 815.468 286.896 815.482 288.52C815.468 290.144 814.362 291.292 812.85 291.292C811.324 291.292 810.218 290.144 810.218 288.52ZM811.17 288.52C811.184 289.598 811.87 290.368 812.85 290.368C813.802 290.368 814.516 289.598 814.502 288.52C814.516 287.456 813.802 286.672 812.85 286.644C811.87 286.672 811.184 287.456 811.17 288.52ZM816.518 293.504V282.248H817.526V287.092H819.15V281.968H820.158V294.12H819.15V287.96H817.526V293.504H816.518ZM825.174 282.892C826.966 282.906 828.226 284.544 828.226 287.12C828.226 289.724 826.966 291.362 825.174 291.376C823.368 291.362 822.094 289.724 822.122 287.12C822.094 284.544 823.368 282.906 825.174 282.892ZM823.13 287.12C823.13 289.108 823.97 290.41 825.174 290.396C826.378 290.41 827.204 289.108 827.19 287.12C827.204 285.16 826.378 283.858 825.174 283.844C823.97 283.858 823.13 285.16 823.13 287.12ZM830.242 294.12V281.968H831.334V285.02H833.294V285.944H831.334V288.632H833.294V289.528H831.334V294.12H830.242ZM846.933 281.968V286.98H848.949V287.876H846.933V294.12H845.869V281.968H846.933ZM837.441 284.796V283.9H840.577V282.108H841.641V283.9H844.665V284.796H837.441ZM838.141 288.604C838.127 286.952 839.387 285.804 841.109 285.804C842.845 285.804 844.091 286.952 844.105 288.604C844.091 290.242 842.845 291.39 841.109 291.376C839.387 291.39 838.127 290.242 838.141 288.604ZM839.177 288.604C839.163 289.71 839.989 290.48 841.109 290.48C842.243 290.48 843.069 289.71 843.069 288.604C843.069 287.498 842.243 286.7 841.109 286.7C839.989 286.7 839.163 287.498 839.177 288.604ZM859.425 285.636V286.504H851.109V282.416H852.173V285.636H859.425ZM849.597 289.024V288.156H860.713V289.024H849.597ZM851.053 293.812V290.284H852.117V292.916H859.509V293.812H851.053ZM866.905 282.64V284.6H870.293V282.64H871.357V285.048H874.213V281.968H875.277V288.996H874.213V285.944H871.357V288.324H865.813V282.64H866.905ZM866.905 287.456H870.293V285.44H866.905V287.456ZM867.353 293.952V289.612H875.277V293.952H867.353ZM868.417 293.056H874.241V290.48H868.417V293.056ZM881.328 282.556C883.134 282.542 884.436 283.55 884.436 285.02C884.436 286.518 883.134 287.526 881.328 287.512C879.494 287.526 878.206 286.518 878.192 285.02C878.206 283.55 879.494 282.542 881.328 282.556ZM877.296 288.576C879.564 288.562 882.686 288.52 885.388 288.128L885.472 288.94C884.296 289.15 883.092 289.276 881.916 289.346V293.728H880.852V289.402C879.62 289.458 878.444 289.472 877.436 289.472L877.296 288.576ZM879.256 285.02C879.242 285.986 880.11 286.644 881.328 286.616C882.546 286.644 883.414 285.986 883.4 285.02C883.414 284.082 882.546 283.424 881.328 283.424C880.11 283.424 879.242 284.082 879.256 285.02ZM886.284 294.12V281.968H887.348V294.12H886.284ZM898.832 281.968V286.896H900.792V287.82H898.832V294.092H897.74V281.968H898.832ZM889.48 290.956C892.63 289.388 894.352 287.05 894.576 284.152H890.068V283.256H895.668C895.668 286.7 894.058 289.836 890.096 291.796L889.48 290.956ZM908.272 282.892C909.938 282.906 911.128 284.32 911.296 286.588H914.012V281.968H915.076V294.12H914.012V287.484H911.31C911.184 289.878 909.98 291.362 908.272 291.376C906.48 291.362 905.22 289.724 905.248 287.12C905.22 284.544 906.48 282.906 908.272 282.892ZM906.256 287.12C906.256 289.108 907.082 290.41 908.272 290.396C909.476 290.41 910.302 289.108 910.288 287.12C910.302 285.16 909.476 283.858 908.272 283.844C907.082 283.858 906.256 285.16 906.256 287.12ZM927.119 281.968V294.12H926.055V281.968H927.119ZM917.907 291.124V283.116H923.675V284.012H918.999V290.2C921.351 290.186 922.905 290.116 924.711 289.78L924.851 290.676C922.947 291.026 921.351 291.11 918.887 291.124H917.907ZM938.827 281.968V286.98H940.675V287.876H938.827V294.12H937.763V281.968H938.827ZM929.167 290.76C931.001 288.87 931.743 286.602 931.883 284.18H929.559V283.284H932.891C932.891 286.168 932.233 289.024 930.035 291.348L929.167 290.76ZM932.667 291.572C934.557 289.416 935.131 286.728 935.229 284.18H933.283V283.284H936.251C936.237 286.168 935.803 289.514 933.535 292.16L932.667 291.572ZM945.662 285.692C945.662 287.75 947.16 289.85 948.938 290.62L948.35 291.46C946.922 290.83 945.704 289.43 945.13 287.75C944.57 289.528 943.338 291.068 941.938 291.768L941.322 290.928C943.058 290.088 944.57 287.792 944.57 285.692V284.096H941.714V283.2H948.546V284.096H945.662V285.692ZM950.254 294.12V281.968H951.318V294.12H950.254ZM963.446 281.968V290.844H962.382V281.968H963.446ZM953.702 285.804C953.688 284.04 955.06 282.822 956.894 282.808C958.7 282.822 960.058 284.04 960.058 285.804C960.058 287.568 958.7 288.8 956.894 288.772C955.06 288.8 953.688 287.568 953.702 285.804ZM954.738 285.804C954.738 287.008 955.648 287.848 956.894 287.848C958.084 287.848 959.022 287.008 959.022 285.804C959.022 284.614 958.084 283.76 956.894 283.76C955.648 283.76 954.738 284.614 954.738 285.804ZM955.606 293.84V289.948H956.67V292.944H963.838V293.84H955.606ZM975.574 281.968V294.12H974.51V287.736H971.598V286.84H974.51V281.968H975.574ZM965.522 290.928C968.826 289.332 970.338 286.994 970.562 284.152H966.054V283.284H971.654C971.626 286.728 970.17 289.78 966.11 291.796L965.522 290.928ZM980.869 282.892C982.661 282.906 983.921 284.544 983.921 287.12C983.921 289.724 982.661 291.362 980.869 291.376C979.063 291.362 977.789 289.724 977.817 287.12C977.789 284.544 979.063 282.906 980.869 282.892ZM978.825 287.12C978.825 289.108 979.665 290.41 980.869 290.396C982.073 290.41 982.899 289.108 982.885 287.12C982.899 285.16 982.073 283.858 980.869 283.844C979.665 283.858 978.825 285.16 978.825 287.12ZM985.937 294.12V281.968H987.029V285.02H988.989V285.944H987.029V288.632H988.989V289.528H987.029V294.12H985.937ZM991.653 290.144C991.667 288.31 992.227 287.75 993.165 287.176C993.739 286.826 994.173 286.294 994.173 285.524C994.173 284.586 993.445 283.998 992.549 284.012C991.765 283.998 990.981 284.46 990.897 285.58H989.665C989.721 283.928 990.981 282.962 992.549 282.976C994.257 282.962 995.363 284.068 995.377 285.58C995.363 286.644 994.859 287.386 994.005 287.904C993.165 288.436 992.857 288.954 992.829 290.144V290.2H991.653V290.144ZM991.401 292.188C991.401 291.712 991.807 291.32 992.297 291.32C992.773 291.32 993.165 291.712 993.165 292.188C993.165 292.678 992.773 293.084 992.297 293.084C991.807 293.084 991.401 292.678 991.401 292.188ZM736.588 310.9C736.588 309.192 738.086 308.8 739.388 308.716C739.864 308.674 741.04 308.604 741.376 308.604V307.988C741.39 307.05 740.83 306.504 739.696 306.504C738.772 306.504 738.198 306.938 738.044 307.512H736.812C736.952 306.308 738.114 305.482 739.752 305.468C740.732 305.482 742.552 305.762 742.552 308.1V313H741.376V311.992H741.32C741.082 312.482 740.41 313.168 739.136 313.168C737.708 313.168 736.588 312.342 736.588 310.9ZM737.764 310.956C737.764 311.74 738.422 312.132 739.304 312.132C740.648 312.132 741.39 311.236 741.376 310.312V309.556L739.528 309.696C738.45 309.766 737.764 310.144 737.764 310.956ZM744.598 313V303.088H745.774V306.756H745.858C746.124 306.364 746.572 305.482 748.014 305.468C749.876 305.482 751.178 306.952 751.178 309.304C751.178 311.67 749.876 313.154 748.042 313.168C746.614 313.154 746.124 312.272 745.858 311.852H745.746V313H744.598ZM745.746 309.276C745.746 310.956 746.502 312.104 747.846 312.104C749.274 312.104 749.988 310.858 750.002 309.276C749.988 307.736 749.288 306.532 747.846 306.532C746.488 306.532 745.746 307.638 745.746 309.276ZM756.832 307.512C756.678 306.896 756.202 306.49 755.32 306.476C754.41 306.49 753.766 306.98 753.752 307.596C753.766 308.086 754.158 308.422 755.04 308.632L756.132 308.912C757.462 309.234 758.12 309.892 758.12 310.928C758.12 312.202 757.07 313.154 755.208 313.168C753.542 313.154 752.548 312.412 752.352 311.068H753.584C753.724 311.782 754.242 312.132 755.18 312.132C756.244 312.132 756.902 311.684 756.916 310.984C756.902 310.466 756.524 310.116 755.684 309.92L754.564 309.668C753.276 309.36 752.59 308.66 752.576 307.652C752.59 306.392 753.696 305.482 755.32 305.468C756.874 305.482 757.84 306.294 757.98 307.512H756.832ZM762.685 313.168C760.669 313.154 759.297 311.628 759.297 309.332C759.297 307.008 760.669 305.482 762.685 305.468C764.701 305.482 766.059 307.008 766.045 309.332C766.059 311.628 764.701 313.154 762.685 313.168ZM760.473 309.332C760.473 310.802 761.173 312.104 762.685 312.104C764.183 312.104 764.883 310.802 764.869 309.332C764.883 307.848 764.183 306.518 762.685 306.532C761.173 306.518 760.473 307.848 760.473 309.332ZM768.767 303.088V313H767.563V303.088H768.767ZM775.316 309.948V305.58H776.492V313H775.316V311.74H775.232C774.896 312.496 774.154 313.098 773.02 313.084C771.634 313.098 770.626 312.174 770.611 310.284V305.58H771.816V310.2C771.802 311.278 772.474 311.964 773.412 311.964C774.266 311.964 775.316 311.334 775.316 309.948ZM781.612 305.58V306.56H780.044V310.872C780.03 311.824 780.506 311.978 780.996 311.964C781.22 311.978 781.528 311.95 781.696 311.936V313.028C781.528 313.07 781.234 313.098 780.884 313.084C779.89 313.098 778.854 312.482 778.84 311.18V306.56H777.72V305.58H778.84V303.788H780.044V305.58H781.612ZM786.148 313.168C784.006 313.154 782.676 311.628 782.676 309.332C782.676 307.064 784.02 305.482 786.036 305.468C787.604 305.482 789.242 306.434 789.256 309.192V309.696H783.852C783.922 311.25 784.832 312.104 786.148 312.104C787.044 312.104 787.604 311.726 787.856 311.264H789.116C788.78 312.384 787.674 313.154 786.148 313.168ZM783.852 308.688H788.052C788.038 307.442 787.254 306.518 786.036 306.532C784.748 306.518 783.936 307.54 783.852 308.688ZM799.752 301.968V306.784H801.768V307.708H799.752V314.12H798.688V301.968H799.752ZM790.82 303.984V303.088H796.336V307.428H791.912V310.284C794.166 310.284 795.734 310.2 797.596 309.864L797.68 310.76C795.776 311.096 794.152 311.18 791.8 311.18H790.848V306.56H795.272V303.984H790.82ZM815.351 301.968V306.98H817.367V307.876H815.351V314.12H814.287V301.968H815.351ZM805.859 304.796V303.9H808.995V302.108H810.059V303.9H813.083V304.796H805.859ZM806.559 308.604C806.545 306.952 807.805 305.804 809.527 305.804C811.263 305.804 812.509 306.952 812.523 308.604C812.509 310.242 811.263 311.39 809.527 311.376C807.805 311.39 806.545 310.242 806.559 308.604ZM807.595 308.604C807.581 309.71 808.407 310.48 809.527 310.48C810.661 310.48 811.487 309.71 811.487 308.604C811.487 307.498 810.661 306.7 809.527 306.7C808.407 306.7 807.581 307.498 807.595 308.604ZM828.039 301.968V314.12H826.975V301.968H828.039ZM818.827 310.984V303.144H819.891V310.032C821.739 310.046 823.643 309.892 825.687 309.472L825.827 310.368C823.685 310.83 821.753 310.984 819.807 310.984H818.827ZM839.747 301.968V306.98H841.595V307.876H839.747V314.12H838.683V301.968H839.747ZM830.087 310.76C831.921 308.87 832.663 306.602 832.803 304.18H830.479V303.284H833.811C833.811 306.168 833.153 309.024 830.955 311.348L830.087 310.76ZM833.587 311.572C835.477 309.416 836.051 306.728 836.149 304.18H834.203V303.284H837.171C837.157 306.168 836.723 309.514 834.455 312.16L833.587 311.572ZM855.794 301.968V309.192H854.73V306.028H852.266V305.132H854.73V301.968H855.794ZM845.77 308.24C847.59 307.582 848.878 305.93 848.878 304.18V303.732H846.134V302.836H852.686V303.732H849.97V304.18C849.956 305.762 851.174 307.274 852.966 307.876L852.406 308.744C851.034 308.254 849.97 307.232 849.438 305.986C848.906 307.414 847.786 308.534 846.33 309.08L845.77 308.24ZM847.702 311.852C847.688 310.41 849.242 309.584 851.762 309.584C854.296 309.584 855.85 310.41 855.85 311.852C855.85 313.266 854.296 314.092 851.762 314.092C849.242 314.092 847.688 313.266 847.702 311.852ZM848.766 311.852C848.752 312.72 849.914 313.252 851.762 313.252C853.624 313.252 854.786 312.72 854.786 311.852C854.786 310.956 853.624 310.424 851.762 310.424C849.914 310.424 848.752 310.956 848.766 311.852ZM867.306 301.968V305.636H869.126V306.532H867.306V310.116H866.242V301.968H867.306ZM857.786 308.884C858.752 308.884 859.872 308.87 861.062 308.828V307.932C859.648 307.806 858.738 307.148 858.738 306.168C858.738 305.048 859.886 304.362 861.594 304.376C863.316 304.362 864.436 305.048 864.45 306.168C864.436 307.148 863.554 307.806 862.154 307.932V308.786C863.288 308.73 864.422 308.646 865.486 308.492L865.57 309.276C862.952 309.738 860.04 309.752 857.898 309.752L857.786 308.884ZM858.094 303.9V303.06H861.062V301.856H862.154V303.06H865.122V303.9H858.094ZM859.27 311.572V310.732H867.306V314.12H866.242V311.572H859.27ZM859.774 306.168C859.76 306.784 860.474 307.218 861.594 307.204C862.714 307.218 863.414 306.784 863.414 306.168C863.414 305.51 862.714 305.104 861.594 305.132C860.474 305.104 859.76 305.51 859.774 306.168ZM879.938 301.968V314.12H878.874V301.968H879.938ZM870.194 304.824V303.928H873.33V302.08H874.422V303.928H877.558V304.824H870.194ZM870.894 308.604C870.88 306.952 872.14 305.804 873.918 305.804C875.654 305.804 876.928 306.952 876.914 308.604C876.928 310.242 875.654 311.39 873.918 311.376C872.14 311.39 870.88 310.242 870.894 308.604ZM871.902 308.604C871.902 309.71 872.742 310.48 873.918 310.48C875.052 310.48 875.892 309.71 875.906 308.604C875.892 307.498 875.052 306.7 873.918 306.7C872.742 306.7 871.902 307.498 871.902 308.604ZM891.841 305.636V306.504H883.525V302.416H884.589V305.636H891.841ZM882.013 309.024V308.156H893.129V309.024H882.013ZM883.469 313.812V310.284H884.533V312.916H891.925V313.812H883.469ZM908.757 311.656V312.552H897.641V311.656H902.625V308.688H898.957V302.976H907.385V308.688H903.689V311.656H908.757ZM899.993 307.82H906.321V303.844H899.993V307.82ZM920.856 311.684V312.58H909.74V311.684H920.856ZM911.084 303.788V302.892H919.456V306.56H912.176V308.548H919.736V309.416H911.112V305.692H918.392V303.788H911.084ZM927.216 302.864C927.216 303.802 927.048 304.656 926.698 305.44H928.672V302.22H929.708V308.8H928.672V306.308H926.236C925.452 307.526 924.192 308.506 922.512 309.22L921.952 308.436C924.444 307.414 925.886 305.804 926.124 303.76H922.456V302.864H927.216ZM922.568 313.28C924.08 312.72 925.046 311.39 925.032 310.228V309.416H926.068V310.228C926.054 311.32 926.628 312.454 927.776 313.126C928.952 312.384 929.54 311.152 929.568 310.228V309.416H930.604V310.228C930.59 311.488 931.514 312.762 933.068 313.28L932.536 314.064C931.318 313.63 930.478 312.776 930.058 311.754C929.68 312.748 928.952 313.686 927.804 314.176C926.628 313.714 925.886 312.804 925.536 311.782C925.102 312.762 924.262 313.63 923.1 314.064L922.568 313.28ZM931.136 308.996V301.968H932.144V308.996H931.136ZM937.188 302.892C938.854 302.906 940.044 304.32 940.212 306.588H942.928V301.968H943.992V314.12H942.928V307.484H940.226C940.1 309.878 938.896 311.362 937.188 311.376C935.396 311.362 934.136 309.724 934.164 307.12C934.136 304.544 935.396 302.906 937.188 302.892ZM935.172 307.12C935.172 309.108 935.998 310.41 937.188 310.396C938.392 310.41 939.218 309.108 939.204 307.12C939.218 305.16 938.392 303.858 937.188 303.844C935.998 303.858 935.172 305.16 935.172 307.12Z" fill="#31343D"/>
</g>
<path d="M81.5016 94.333C72.3349 94.333 65.0016 101.666 65.0016 110.833C65.0016 114.06 65.9183 117.103 67.5316 119.633L56.2383 131L61.3349 136.096L72.7749 124.84C75.3049 126.416 78.3116 127.333 81.5016 127.333C90.6683 127.333 98.0016 120 98.0016 110.833C98.0016 101.666 90.6683 94.333 81.5016 94.333ZM81.5016 120C79.0705 120 76.7389 119.034 75.0198 117.315C73.3007 115.596 72.3349 113.264 72.3349 110.833C72.3349 108.402 73.3007 106.07 75.0198 104.351C76.7389 102.632 79.0705 101.666 81.5016 101.666C83.9328 101.666 86.2643 102.632 87.9834 104.351C89.7025 106.07 90.6683 108.402 90.6683 110.833C90.6683 113.264 89.7025 115.596 87.9834 117.315C86.2643 119.034 83.9328 120 81.5016 120Z" fill="#E11837"/>
<path d="M138.335 123.667V72.3333C138.335 70.3884 137.562 68.5232 136.187 67.1479C134.811 65.7726 132.946 65 131.001 65H65.0013C60.968 65 57.668 68.3 57.668 72.3333V110.833C57.668 104.087 60.4913 98 65.0013 93.6733V72.3333H101.668V87H131.001V123.667H101.558C99.6513 126.637 97.1213 129.167 94.1513 131H131.001C135.071 131 138.335 127.737 138.335 123.667Z" fill="#B6C8CA"/>
</g>
<defs>
<filter id="filter0_d_5336_11487" x="608" y="-214" width="484" height="584" filterUnits="userSpaceOnUse" color-interpolation-filters="sRGB">
<feFlood flood-opacity="0" result="BackgroundImageFix"/>
<feColorMatrix in="SourceAlpha" type="matrix" values="0 0 0 0 0 0 0 0 0 0 0 0 0 0 0 0 0 0 127 0" result="hardAlpha"/>
<feOffset dy="2"/>
<feGaussianBlur stdDeviation="10"/>
<feComposite in2="hardAlpha" operator="out"/>
<feColorMatrix type="matrix" values="0 0 0 0 0.487049 0 0 0 0 0.551844 0 0 0 0 0.691667 0 0 0 0.15 0"/>
<feBlend mode="normal" in2="BackgroundImageFix" result="effect1_dropShadow_5336_11487"/>
<feBlend mode="normal" in="SourceGraphic" in2="effect1_dropShadow_5336_11487" result="shape"/>
</filter>
<linearGradient id="paint0_linear_5336_11487" x1="0" y1="0" x2="1120" y2="396" gradientUnits="userSpaceOnUse">
<stop stop-color="#FAFBFD"/>
<stop offset="1" stop-color="#F8FFFF"/>
</linearGradient>
<clipPath id="clip0_5336_11487">
<rect width="1120" height="396" rx="20" fill="white"/>
</clipPath>
</defs>
</svg>
