<svg width="574" height="172" viewBox="0 0 574 172" fill="none" xmlns="http://www.w3.org/2000/svg">
<g filter="url(#filter0_d_5551_32481)">
<rect x="15" y="13" width="544" height="142" rx="20" fill="white"/>
<rect x="15" y="13" width="544" height="142" rx="20" fill="url(#paint0_linear_5551_32481)"/>
<path d="M65.3906 62.4141C65.3906 66.4336 67.4414 70.7266 71.625 72.4766L69.7383 75.2109C66.7988 73.9668 64.7754 71.4922 63.668 68.457C62.5332 71.752 60.4688 74.4863 57.543 75.8398L55.5469 73.0781C59.6758 71.2461 61.8086 66.625 61.8086 62.4141V60.8828H56.5312V58.0391H70.5859V60.8828H65.3906V62.4141ZM76.5742 55.6328V80.5156H73.0469V55.6328H76.5742ZM100.227 66.7617V69.5234H93.0078V74.8281H102.715V77.6719H79.9375V74.8281H89.5352V69.5234H82.6172V57.3828H100.035V60.1719H86.1172V66.7617H100.227ZM124.781 57.793V60.2266C124.754 63.2617 124.754 66.6797 123.852 71.6836L120.434 71.3828C121.254 66.8301 121.281 63.4395 121.281 60.5547H106.379V57.793H124.781ZM126.832 74.6367V77.4805H104.137V74.6367H108.977V66.8164H112.449V74.6367H115.184V66.8164H118.629V74.6367H126.832ZM141.543 57.5742C141.543 60.5 144.523 63.7539 150.238 64.4648L148.871 67.2812C144.523 66.6523 141.338 64.6426 139.711 61.9492C138.07 64.6426 134.912 66.6523 130.605 67.2812L129.211 64.4648C134.871 63.7539 137.879 60.5 137.879 57.5742V56.3711H141.543V57.5742ZM151.031 69.168V72.0117H141.352V80.5156H137.906V72.0117H128.336V69.168H151.031ZM161.723 62.4141C161.695 66.2148 163.719 70.5898 167.82 72.4766L165.879 75.2109C163.104 73.9395 161.121 71.3965 160.027 68.4023C158.906 71.6973 156.869 74.4863 153.984 75.8398L151.961 73.0781C156.117 71.1367 158.195 66.5156 158.223 62.4141V60.8828H152.945V58.0391H166.727V60.8828H161.723V62.4141ZM172.168 55.6328V65.1211H175.832V68.0469H172.168V80.5156H168.668V55.6328H172.168ZM196.039 57.6562V59.543H200.688V55.6602H204.16V73.7617H200.688V67.6641H196.039V69.7695H184.227V57.6562H196.039ZM187.699 60.418V67.0625H192.621V60.418H187.699ZM204.68 77.2891V80.0781H187.59V72.0391H191.117V77.2891H204.68ZM196.039 64.9023H200.688V62.3594H196.039V64.9023ZM227.129 55.6328V61.2383H230.492V64.1094H227.129V69.6055H223.629V55.6328H227.129ZM219.445 57.1914V59.9531H211.844V65.8867C216.342 65.8594 218.816 65.6953 221.605 65.1211L221.961 67.8555C218.844 68.5664 215.973 68.6758 210.449 68.6758H208.344V57.1914H219.445ZM227.129 70.6445V80.2148H210.859V70.6445H227.129ZM214.305 73.4062V77.4805H223.684V73.4062H214.305ZM240.773 62.4141C240.746 66.2148 242.77 70.5898 246.871 72.4766L244.93 75.2109C242.154 73.9395 240.172 71.3965 239.078 68.4023C237.957 71.6973 235.92 74.4863 233.035 75.8398L231.012 73.0781C235.168 71.1367 237.246 66.5156 237.273 62.4141V60.8828H231.996V58.0391H245.777V60.8828H240.773V62.4141ZM251.219 55.6328V65.1211H254.883V68.0469H251.219V80.5156H247.719V55.6328H251.219ZM278.562 74.8828V77.7539H255.785V74.8828H261.609V71.082H258.41V62.7148H272.492V60.0352H258.383V57.2461H275.938V65.5039H261.91V68.2656H276.512V71.082H272.984V74.8828H278.562ZM265 74.8828H269.566V71.082H265V74.8828ZM297.648 71.1367C303.09 71.1367 306.508 72.8594 306.535 75.8398C306.508 78.7656 303.09 80.5156 297.648 80.5156C292.262 80.5156 288.789 78.7656 288.789 75.8398C288.789 72.8594 292.262 71.1367 297.648 71.1367ZM297.648 73.7344C294.23 73.7344 292.262 74.4453 292.262 75.8398C292.262 77.1797 294.23 77.8633 297.648 77.8633C301.066 77.8633 303.062 77.1797 303.062 75.8398C303.062 74.4453 301.066 73.7344 297.648 73.7344ZM306.398 56.7539V58.7773C306.398 60.7461 306.398 62.8789 305.688 65.4492L302.27 65.1211C302.816 62.8652 302.885 61.1836 302.926 59.4883H289.035V56.7539H306.398ZM309.078 66.7344V69.5508H286.492V66.7344H294.969V62.3867H298.414V66.7344H309.078ZM333.387 69.4688V72.2852H328.055V80.5156H324.5V72.2852H319.414V80.5156H315.832V72.2852H310.609V69.4688H333.387ZM321.93 56.4531C327.262 56.4531 331.008 58.668 331.008 62.0859C331.008 65.4492 327.262 67.5547 321.93 67.5547C316.598 67.5547 312.879 65.4492 312.906 62.0859C312.879 58.668 316.598 56.4531 321.93 56.4531ZM321.93 59.2422C318.594 59.2422 316.461 60.2539 316.488 62.0859C316.461 63.8359 318.594 64.8203 321.93 64.8203C325.293 64.8203 327.398 63.8359 327.398 62.0859C327.398 60.2539 325.293 59.2422 321.93 59.2422Z" fill="#31343D"/>
<g clip-path="url(#clip0_5551_32481)">
<path d="M475.73 92.1102H521.198V99.5806H475.73V92.1102ZM475.73 84.6398H521.198V77.1694H475.73V84.6398ZM475.73 114.521H506.036V107.051H475.73V114.521Z" fill="#BDACAC" fill-opacity="0.3"/>
<path d="M536.183 102.567L531.013 107.737L538.787 115.511L543.957 110.341L536.183 102.567Z" fill="#BDACAC" fill-opacity="0.3"/>
<path d="M508.977 129.774L528.41 110.341L536.183 118.114L516.75 137.547H508.977V129.774Z" fill="#BDACAC" fill-opacity="0.3"/>
</g>
<path d="M68.5625 108.922V109.953H66.3125V117.266H65.0938V103.375H66.3125V108.922H68.5625ZM57.3594 104.75V112.703C59.3906 112.695 61.4609 112.539 63.75 112.062L63.9062 113.109C61.5156 113.594 59.3594 113.734 57.25 113.734H56.1406V104.75H57.3594ZM73.9375 104.391C76.125 104.391 77.6719 105.719 77.6719 107.656C77.6719 109.594 76.125 110.922 73.9375 110.922C71.75 110.922 70.1719 109.594 70.1875 107.656C70.1719 105.719 71.75 104.391 73.9375 104.391ZM73.9375 105.469C72.4531 105.469 71.375 106.359 71.3906 107.656C71.375 108.953 72.4531 109.844 73.9375 109.844C75.4062 109.844 76.4688 108.953 76.4688 107.656C76.4688 106.359 75.4062 105.469 73.9375 105.469ZM80.7812 103.375V117.297H79.5625V103.375H80.7812ZM69.4688 113.188C72.0312 113.188 75.5625 113.172 78.6406 112.719L78.7344 113.625C75.5625 114.219 72.1406 114.234 69.6406 114.234L69.4688 113.188ZM92.2031 107.641C92.2031 110 93.9219 112.391 95.9688 113.281L95.2812 114.25C93.6562 113.508 92.25 111.906 91.6094 109.984C90.9531 112.023 89.5547 113.797 87.9688 114.594L87.2344 113.625C89.2188 112.672 90.9531 110.047 90.9688 107.641V105.828H87.6875V104.812H95.5156V105.828H92.2031V107.641ZM98.6875 103.375V117.266H97.4531V103.375H98.6875ZM112.281 109.891V110.891H107.984V114.484H113.781V115.516H101.062V114.484H106.781V110.891H102.688V104.516H112.141V105.516H103.922V109.891H112.281ZM130.062 104.781V106.328C130.062 108.109 130.062 109.906 129.562 112.484L128.359 112.344C128.859 109.891 128.859 108.062 128.859 106.328V105.797H120.234V104.781H130.062ZM131.562 114.281V115.297H118.906V114.281H122.047V109.703H123.266V114.281H125.516V109.703H126.719V114.281H131.562ZM139.703 104.672C139.703 106.625 142.266 108.328 144.766 108.672L144.266 109.672C142.109 109.312 139.977 108.117 139.078 106.406C138.188 108.125 136.047 109.312 133.891 109.672L133.391 108.672C135.891 108.328 138.438 106.656 138.438 104.672V103.875H139.703V104.672ZM145.391 111.203V112.234H139.641V117.266H138.438V112.234H132.734V111.203H145.391ZM151.266 107.641C151.25 109.875 152.859 112.328 154.875 113.281L154.172 114.25C152.609 113.492 151.289 111.836 150.672 109.953C150.031 112 148.633 113.797 147.078 114.594L146.328 113.625C148.328 112.656 150.047 110.016 150.062 107.641V105.828H146.828V104.812H154.391V105.828H151.266V107.641ZM157.312 103.375V109H159.641V110.047H157.312V117.266H156.094V103.375H157.312ZM175.922 103.375V110.562H174.688V106.953H171.594V105.938H174.688V103.375H175.922ZM175.922 111.266V114.578H168.156V116.094H176.438V117.078H166.953V113.641H174.703V112.25H166.922V111.266H175.922ZM169.141 105.141C169.125 106.969 170.562 108.625 172.594 109.297L171.938 110.25C170.398 109.703 169.172 108.609 168.562 107.203C167.969 108.789 166.711 110 165.062 110.594L164.391 109.609C166.484 108.922 167.922 107.172 167.938 105.141V103.828H169.141V105.141ZM189.75 103.375V111.656H188.516V108.016H185.719V107H188.516V103.375H189.75ZM185.141 112.094C188.031 112.094 189.797 113.031 189.797 114.672C189.797 116.312 188.031 117.25 185.141 117.266C182.25 117.25 180.484 116.312 180.484 114.672C180.484 113.031 182.25 112.094 185.141 112.094ZM185.141 113.047C183.016 113.047 181.688 113.656 181.703 114.672C181.688 115.672 183.016 116.281 185.141 116.281C187.266 116.281 188.578 115.672 188.578 114.672C188.578 113.656 187.266 113.047 185.141 113.047ZM183.062 105.922C183.062 107.734 184.453 109.453 186.484 110.156L185.844 111.141C184.281 110.578 183.07 109.414 182.484 107.969C181.875 109.602 180.586 110.906 178.938 111.531L178.297 110.547C180.359 109.797 181.828 107.922 181.828 105.938V105.422H178.688V104.391H186.172V105.422H183.062V105.922ZM198.391 103.625C201.484 103.625 203.297 104.469 203.297 106.016C203.297 107.594 201.484 108.438 198.391 108.453C195.297 108.438 193.469 107.594 193.469 106.016C193.469 104.469 195.297 103.625 198.391 103.625ZM198.391 104.547C196.078 104.547 194.734 105.109 194.75 106.016C194.734 106.984 196.078 107.516 198.391 107.516C200.688 107.516 202.047 106.984 202.047 106.016C202.047 105.109 200.688 104.547 198.391 104.547ZM204.719 109.391V110.391H192.062V109.391H204.719ZM203.094 111.594V114.703H194.844V116.141H203.516V117.109H193.625V113.797H201.891V112.531H193.594V111.594H203.094ZM222.562 110.75V111.75H209.891V110.75H215.609V109.375H211.578V103.781H220.984V104.781H212.812V106.078H220.609V107.016H212.812V108.391H221.062V109.375H216.828V110.75H222.562ZM216.234 112.797C219.281 112.781 221 113.562 221.016 115.016C221 116.469 219.281 117.234 216.234 117.234C213.156 117.234 211.438 116.469 211.438 115.016C211.438 113.562 213.156 112.781 216.234 112.797ZM216.234 113.719C213.938 113.719 212.656 114.188 212.672 115.016C212.656 115.859 213.938 116.297 216.234 116.281C218.5 116.297 219.781 115.859 219.781 115.016C219.781 114.188 218.5 113.719 216.234 113.719ZM234.594 103.391V107.969H236.688V109H234.594V113.797H233.375V103.391H234.594ZM232.047 105.094V106.094H223.766V105.094H227.297V103.391H228.516V105.094H232.047ZM227.906 106.859C229.891 106.859 231.234 107.875 231.25 109.453C231.234 111.016 229.891 112.016 227.906 112.016C225.906 112.016 224.547 111.016 224.562 109.453C224.547 107.875 225.906 106.859 227.906 106.859ZM227.906 107.828C226.594 107.828 225.719 108.469 225.734 109.453C225.719 110.438 226.594 111.062 227.906 111.047C229.203 111.062 230.078 110.438 230.094 109.453C230.078 108.469 229.203 107.828 227.906 107.828ZM235.234 115.938V116.969H225.906V112.969H227.109V115.938H235.234ZM249.891 104.875V105.875H241.609V104.875H245.141V103.312H246.359V104.875H249.891ZM245.75 106.594C247.75 106.609 249.078 107.578 249.094 109.109C249.078 110.625 247.75 111.609 245.75 111.609C243.75 111.609 242.391 110.625 242.406 109.109C242.391 107.578 243.75 106.609 245.75 106.594ZM245.75 107.547C244.438 107.562 243.562 108.172 243.578 109.109C243.562 110.031 244.438 110.625 245.75 110.625C247.047 110.625 247.922 110.031 247.938 109.109C247.922 108.172 247.047 107.562 245.75 107.547ZM252.438 103.375V107.234H254.531V108.266H252.438V112.062H251.219V103.375H252.438ZM252.438 112.828V117.266H251.219V113.828H243.344V112.828H252.438ZM258.234 111.719V113.344H265.172V111.719H266.406V117.078H257.016V111.719H258.234ZM258.234 116.094H265.172V114.312H258.234V116.094ZM268.062 109.719V110.734H255.406V109.719H268.062ZM262.375 104.188C262.375 105.906 264.906 107.438 267.344 107.75L266.891 108.734C264.734 108.414 262.625 107.312 261.75 105.75C260.859 107.32 258.734 108.414 256.594 108.734L256.125 107.75C258.594 107.422 261.109 105.953 261.109 104.188V103.531H262.375V104.188ZM285.906 110.578V111.594H273.25V110.578H278.969V108.844H280.172V110.578H285.906ZM280.172 103.344V104.734H284.625V105.734H280.25C280.352 107.273 282.555 108.336 285.156 108.578L284.781 109.531C282.477 109.289 280.422 108.461 279.578 107.062C278.727 108.461 276.664 109.289 274.375 109.531L273.984 108.578C276.586 108.336 278.789 107.273 278.906 105.734H274.562V104.734H278.969V103.344H280.172ZM279.578 112.641C282.594 112.641 284.344 113.453 284.359 114.938C284.344 116.438 282.594 117.234 279.578 117.234C276.562 117.234 274.781 116.438 274.781 114.938C274.781 113.453 276.562 112.641 279.578 112.641ZM279.578 113.562C277.328 113.562 276.016 114.062 276.031 114.938C276.016 115.812 277.328 116.297 279.578 116.281C281.797 116.297 283.125 115.812 283.125 114.938C283.125 114.062 281.797 113.562 279.578 113.562ZM294.875 104.438V105.453H293.453V109.891C294.102 109.852 294.727 109.797 295.328 109.719L295.391 110.656C292.688 111.078 289.516 111.109 287.266 111.109L287.109 110.078L288.906 110.062V105.453H287.5V104.438H294.875ZM298.594 103.375V111.953H297.359V109.375H295.016V108.359H297.359V106.891H295.016V105.875H297.359V103.375H298.594ZM293.984 112.25C296.891 112.25 298.641 113.156 298.641 114.734C298.641 116.328 296.891 117.234 293.984 117.234C291.078 117.234 289.328 116.328 289.328 114.734C289.328 113.156 291.078 112.25 293.984 112.25ZM293.984 113.203C291.844 113.203 290.531 113.781 290.547 114.734C290.531 115.703 291.844 116.266 293.984 116.266C296.125 116.266 297.422 115.703 297.422 114.734C297.422 113.781 296.125 113.203 293.984 113.203ZM290.094 110.047C290.805 110.031 291.539 110.008 292.266 109.969V105.453H290.094V110.047ZM311.203 112.156C314.188 112.156 316.078 113.094 316.078 114.703C316.078 116.297 314.188 117.234 311.203 117.234C308.234 117.234 306.344 116.297 306.344 114.703C306.344 113.094 308.234 112.156 311.203 112.156ZM311.203 113.094C308.984 113.109 307.547 113.719 307.562 114.703C307.547 115.672 308.984 116.266 311.203 116.266C313.422 116.266 314.844 115.672 314.859 114.703C314.844 113.719 313.422 113.109 311.203 113.094ZM315.969 104.094V105.266C315.969 106.391 315.969 107.516 315.578 108.953L314.375 108.812C314.75 107.375 314.75 106.359 314.75 105.266V105.094H306.438V104.094H315.969ZM317.578 109.859V110.859H304.938V109.859H310.172V107.172H311.375V109.859H317.578ZM331.453 111.297V112.312H328.094V117.266H326.859V112.312H323.297V117.266H322.031V112.312H318.734V111.297H331.453ZM325.062 103.938C327.984 103.938 329.953 105.109 329.953 106.969C329.953 108.812 327.984 109.984 325.062 109.969C322.141 109.984 320.172 108.812 320.172 106.969C320.172 105.109 322.141 103.938 325.062 103.938ZM325.062 104.938C322.891 104.938 321.422 105.734 321.438 106.969C321.422 108.203 322.891 108.984 325.062 108.984C327.219 108.984 328.703 108.203 328.703 106.969C328.703 105.734 327.219 104.938 325.062 104.938Z" fill="#31343D"/>
</g>
<defs>
<filter id="filter0_d_5551_32481" x="0" y="0" width="574" height="172" filterUnits="userSpaceOnUse" color-interpolation-filters="sRGB">
<feFlood flood-opacity="0" result="BackgroundImageFix"/>
<feColorMatrix in="SourceAlpha" type="matrix" values="0 0 0 0 0 0 0 0 0 0 0 0 0 0 0 0 0 0 127 0" result="hardAlpha"/>
<feOffset dy="2"/>
<feGaussianBlur stdDeviation="7.5"/>
<feComposite in2="hardAlpha" operator="out"/>
<feColorMatrix type="matrix" values="0 0 0 0 0.487049 0 0 0 0 0.551844 0 0 0 0 0.691667 0 0 0 0.25 0"/>
<feBlend mode="normal" in2="BackgroundImageFix" result="effect1_dropShadow_5551_32481"/>
<feBlend mode="normal" in="SourceGraphic" in2="effect1_dropShadow_5551_32481" result="shape"/>
</filter>
<linearGradient id="paint0_linear_5551_32481" x1="15" y1="13" x2="512.823" y2="251.418" gradientUnits="userSpaceOnUse">
<stop stop-color="white"/>
<stop offset="1" stop-color="#FFF5F5" stop-opacity="0.5"/>
</linearGradient>
<clipPath id="clip0_5551_32481">
<rect width="88" height="88" fill="white" transform="translate(464 67)"/>
</clipPath>
</defs>
</svg>
