<svg width="574" height="172" viewBox="0 0 574 172" fill="none" xmlns="http://www.w3.org/2000/svg">
<g filter="url(#filter0_d_5551_32475)">
<rect x="15" y="13" width="544" height="142" rx="20" fill="white"/>
<rect x="15" y="13" width="544" height="142" rx="20" fill="url(#paint0_linear_5551_32475)"/>
<path d="M59.9766 78H55.5469L62.4102 58.2031H67.6875L74.5234 78H70.1211L68.6445 73.4336H61.4805L59.9766 78ZM62.5195 70.2344H67.6055L65.1172 62.6602H64.9805L62.5195 70.2344ZM80.8672 58.2031V78H76.7656V58.2031H80.8672ZM101.402 58.3945V61.1562H97.5742C97.6016 63.6309 99.0234 66.0098 102.141 67.1172L100.582 69.7148C98.3672 68.9492 96.877 67.5137 95.9883 65.7227C95.1133 67.6914 93.6094 69.2773 91.3398 70.125L89.6992 67.6094C92.8164 66.3926 94.252 63.8223 94.2656 61.1562H90.4102V58.3945H94.2656V55.9336H97.5742V58.3945H101.402ZM111.109 55.6602V72.4766H107.801V64.4375H105.805V70.2891H102.523V56.043H105.805V61.5938H107.801V55.6602H111.109ZM104.219 71.7109C104.191 74.3359 106.898 77.043 112.203 77.6992L111 80.4062C106.926 79.8457 104 78.1641 102.496 75.8398C100.938 78.1641 98.0117 79.8457 93.9648 80.4062L92.7344 77.6992C98.0664 77.043 100.719 74.3359 100.719 71.7109V71.3008H104.219V71.7109ZM120.27 56.3438V58.5039H130.25V56.3438H133.723V65.7227H126.996V67.7461H136.621V70.5078H113.926V67.7461H123.551V65.7227H116.824V56.3438H120.27ZM120.27 63.0156H130.25V61.1016H120.27V63.0156ZM127.023 72.2305C127.023 74.6914 129.621 77.1523 135.09 77.7266L133.887 80.4062C129.744 79.873 126.791 78.3281 125.246 76.1406C123.701 78.3281 120.775 79.873 116.688 80.4062L115.457 77.7266C120.871 77.1523 123.469 74.6914 123.496 72.2305V71.7656H127.023V72.2305Z" fill="#31343D"/>
<path d="M66.7188 104.781V106.328C66.7188 108.109 66.7188 109.906 66.2188 112.484L65.0156 112.344C65.5156 109.891 65.5156 108.062 65.5156 106.328V105.797H56.8906V104.781H66.7188ZM68.2188 114.281V115.297H55.5625V114.281H58.7031V109.703H59.9219V114.281H62.1719V109.703H63.375V114.281H68.2188ZM76.3594 104.672C76.3594 106.625 78.9219 108.328 81.4219 108.672L80.9219 109.672C78.7656 109.312 76.6328 108.117 75.7344 106.406C74.8438 108.125 72.7031 109.312 70.5469 109.672L70.0469 108.672C72.5469 108.328 75.0938 106.656 75.0938 104.672V103.875H76.3594V104.672ZM82.0469 111.203V112.234H76.2969V117.266H75.0938V112.234H69.3906V111.203H82.0469ZM87.9219 107.641C87.9062 109.875 89.5156 112.328 91.5312 113.281L90.8281 114.25C89.2656 113.492 87.9453 111.836 87.3281 109.953C86.6875 112 85.2891 113.797 83.7344 114.594L82.9844 113.625C84.9844 112.656 86.7031 110.016 86.7188 107.641V105.828H83.4844V104.812H91.0469V105.828H87.9219V107.641ZM93.9688 103.375V109H96.2969V110.047H93.9688V117.266H92.75V103.375H93.9688ZM101.594 104.391C103.781 104.391 105.328 105.719 105.328 107.656C105.328 109.594 103.781 110.922 101.594 110.922C99.4062 110.922 97.8281 109.594 97.8438 107.656C97.8281 105.719 99.4062 104.391 101.594 104.391ZM101.594 105.469C100.109 105.469 99.0312 106.359 99.0469 107.656C99.0312 108.953 100.109 109.844 101.594 109.844C103.062 109.844 104.125 108.953 104.125 107.656C104.125 106.359 103.062 105.469 101.594 105.469ZM108.438 103.375V117.297H107.219V103.375H108.438ZM97.125 113.188C99.6875 113.188 103.219 113.172 106.297 112.719L106.391 113.625C103.219 114.219 99.7969 114.234 97.2969 114.234L97.125 113.188ZM125.75 103.375V107H127.844V108.016H125.75V111.719H124.531V103.375H125.75ZM121.969 104.406C121.969 107.938 119.469 110.547 115.422 111.734L114.906 110.734C118.258 109.766 120.398 107.836 120.656 105.422H115.516V104.406H121.969ZM121.359 111.875C124.156 111.875 125.906 112.891 125.906 114.547C125.906 116.234 124.156 117.234 121.359 117.234C118.594 117.234 116.797 116.234 116.812 114.547C116.797 112.891 118.594 111.875 121.359 111.875ZM121.359 112.859C119.328 112.844 118.016 113.5 118.031 114.547C118.016 115.594 119.328 116.25 121.359 116.25C123.406 116.25 124.719 115.594 124.719 114.547C124.719 113.5 123.406 112.844 121.359 112.859ZM133.266 104.391C135.453 104.391 137 105.719 137 107.656C137 109.594 135.453 110.922 133.266 110.922C131.078 110.922 129.5 109.594 129.516 107.656C129.5 105.719 131.078 104.391 133.266 104.391ZM133.266 105.469C131.781 105.469 130.703 106.359 130.719 107.656C130.703 108.953 131.781 109.844 133.266 109.844C134.734 109.844 135.797 108.953 135.797 107.656C135.797 106.359 134.734 105.469 133.266 105.469ZM140.109 103.375V117.297H138.891V103.375H140.109ZM128.797 113.188C131.359 113.188 134.891 113.172 137.969 112.719L138.062 113.625C134.891 114.219 131.469 114.234 128.969 114.234L128.797 113.188ZM147.25 107.641C147.234 109.875 148.844 112.328 150.859 113.281L150.156 114.25C148.594 113.492 147.273 111.836 146.656 109.953C146.016 112 144.617 113.797 143.062 114.594L142.312 113.625C144.312 112.656 146.031 110.016 146.047 107.641V105.828H142.812V104.812H150.375V105.828H147.25V107.641ZM153.297 103.375V109H155.625V110.047H153.297V117.266H152.078V103.375H153.297ZM169.094 114.516V115.547H156.375V114.516H159.953V111.875H157.969V107.594H166.281V105.422H157.938V104.406H167.484V108.609H159.188V110.859H167.812V111.875H165.641V114.516H169.094ZM161.156 114.516H164.438V111.875H161.156V114.516ZM186.078 103.375V117.266H184.875V110.078H182.875V116.547H181.719V103.688H182.875V109.031H184.875V103.375H186.078ZM176.141 105.078V112.578C177.523 112.562 178.992 112.469 180.688 112.125L180.844 113.219C178.906 113.562 177.312 113.672 175.781 113.672H174.922V105.078H176.141ZM199.953 103.375V117.266H198.766V103.375H199.953ZM197.156 103.672V116.562H195.984V109.812H194.203C194.07 112.516 192.922 114.203 191.203 114.203C189.391 114.203 188.219 112.328 188.219 109.375C188.219 106.422 189.391 104.547 191.203 104.547C192.891 104.547 194.031 106.18 194.188 108.797H195.984V103.672H197.156ZM191.203 105.703C190.078 105.703 189.359 107.109 189.375 109.375C189.359 111.625 190.078 113.047 191.203 113.031C192.328 113.047 193.047 111.625 193.047 109.375C193.047 107.109 192.328 105.703 191.203 105.703ZM206.766 107.109C206.766 109.625 208.375 112.156 210.391 113.078L209.656 114.078C208.078 113.266 206.773 111.602 206.156 109.625C205.539 111.703 204.234 113.484 202.656 114.328L201.859 113.344C203.891 112.344 205.516 109.672 205.516 107.109V104.578H206.766V107.109ZM213.391 103.375V117.297H212.172V109.125H208.875V108.125H212.172V103.375H213.391ZM220.906 116H219.438L223.578 104.688H225.062L229.203 116H227.719L226.594 112.812H222.047L220.906 116ZM222.469 111.578H226.156L224.359 106.516H224.266L222.469 111.578ZM232.141 104.688V116H230.734V104.688H232.141ZM242.672 107.641C242.656 109.875 244.266 112.328 246.281 113.281L245.578 114.25C244.016 113.492 242.695 111.836 242.078 109.953C241.438 112 240.039 113.797 238.484 114.594L237.734 113.625C239.734 112.656 241.453 110.016 241.469 107.641V105.828H238.234V104.812H245.797V105.828H242.672V107.641ZM248.719 103.375V109H251.047V110.047H248.719V117.266H247.5V103.375H248.719ZM264.469 110.25V111.234H251.797V110.25H257.531V108.625H253.406V104.031H262.891V105.016H254.609V107.625H262.984V108.625H258.719V110.25H264.469ZM258.125 112.25C261.109 112.25 262.891 113.156 262.906 114.75C262.891 116.359 261.109 117.25 258.125 117.266C255.125 117.25 253.328 116.359 253.328 114.75C253.328 113.156 255.125 112.25 258.125 112.25ZM258.125 113.219C255.891 113.219 254.562 113.797 254.578 114.75C254.562 115.719 255.891 116.281 258.125 116.281C260.328 116.281 261.672 115.719 261.672 114.75C261.672 113.797 260.328 113.219 258.125 113.219ZM280.5 103.375V106.641H282.594V107.672H280.5V110.781H279.281V103.375H280.5ZM276.453 104.297V105.312H271.516V109.281C274.305 109.281 275.891 109.195 277.75 108.812L277.906 109.828C275.953 110.219 274.297 110.312 271.375 110.312H270.297V104.297H276.453ZM272.922 111.531V113.266H279.281V111.531H280.5V117.031H271.703V111.531H272.922ZM272.922 116.016H279.281V114.25H272.922V116.016ZM294.984 103.391V113.672H293.75V109.938H290.469V111.297H284.172V104.312H285.391V106.781H289.266V104.312H290.469V105.938H293.75V103.391H294.984ZM295.297 115.938V116.969H286V112.656H287.234V115.938H295.297ZM285.391 110.281H289.266V107.75H285.391V110.281ZM290.469 108.922H293.75V106.969H290.469V108.922Z" fill="#31343D"/>
<path d="M502.557 146.589V137.533H508.583V141.982C513.509 141.668 518.958 142.872 523.57 140.726C527.919 138.684 530.853 134.234 531.325 129.471C530.12 113.346 536.093 94.6049 520.897 83.4541C504.339 71.3088 481.283 82.3548 479.816 102.51V122.298H475.1C474.366 122.298 470.698 119.89 470.122 119.105C468.812 117.273 468.917 112.614 469.126 110.31C469.441 106.593 472.218 105.651 475.1 104.185C475.414 101.463 475.571 98.8453 476.305 96.1754C483.955 67.9583 523.936 66.1784 533.945 93.6626C535.202 97.1701 535.674 100.521 535.988 104.237C538.084 105.442 540.39 105.965 541.438 108.373C542.119 109.944 542.172 116.069 541.647 117.692C540.757 120.414 538.189 121.042 535.988 122.298C535.726 124.445 535.988 126.644 535.884 128.79C535.36 138.527 528.233 146.013 518.382 146.642C513.194 146.956 507.692 146.38 502.505 146.642L502.557 146.589Z" fill="#9CABB9" fill-opacity="0.3"/>
<path d="M507.85 96.5936H518.592C522.47 96.5936 526.4 100.939 526.662 104.656C526.976 108.582 526.976 115.806 526.662 119.733C525.981 126.957 519.483 132.559 512.409 132.977C508.427 133.239 502.506 133.239 498.523 132.977C491.606 132.506 485.056 126.8 484.428 119.733C484.061 115.806 484.113 108.582 484.428 104.656C484.742 100.729 488.62 96.5936 492.497 96.5936H503.239V90.3115C495.432 86.3329 504.706 80.2078 509.527 84.3435C512.2 86.647 510.47 89.1075 507.85 90.3115V96.5936ZM493.074 102.666C491.868 102.876 491.03 103.661 490.558 104.76C491.187 111.671 487.729 122.455 495.694 126.067C496.742 126.538 498.104 126.852 499.257 126.905C502.506 127.114 510.837 127.271 513.719 126.643C523.518 124.444 520.007 112.351 520.636 105.179C520.322 103.556 518.959 102.666 517.335 102.614H493.021L493.074 102.666Z" fill="#9CABB9" fill-opacity="0.3"/>
</g>
<defs>
<filter id="filter0_d_5551_32475" x="0" y="0" width="574" height="172" filterUnits="userSpaceOnUse" color-interpolation-filters="sRGB">
<feFlood flood-opacity="0" result="BackgroundImageFix"/>
<feColorMatrix in="SourceAlpha" type="matrix" values="0 0 0 0 0 0 0 0 0 0 0 0 0 0 0 0 0 0 127 0" result="hardAlpha"/>
<feOffset dy="2"/>
<feGaussianBlur stdDeviation="7.5"/>
<feComposite in2="hardAlpha" operator="out"/>
<feColorMatrix type="matrix" values="0 0 0 0 0.487049 0 0 0 0 0.551844 0 0 0 0 0.691667 0 0 0 0.25 0"/>
<feBlend mode="normal" in2="BackgroundImageFix" result="effect1_dropShadow_5551_32475"/>
<feBlend mode="normal" in="SourceGraphic" in2="effect1_dropShadow_5551_32475" result="shape"/>
</filter>
<linearGradient id="paint0_linear_5551_32475" x1="15" y1="13" x2="512.823" y2="251.418" gradientUnits="userSpaceOnUse">
<stop stop-color="white"/>
<stop offset="1" stop-color="#F1F8FF" stop-opacity="0.5"/>
</linearGradient>
</defs>
</svg>
