<svg width="574" height="172" viewBox="0 0 574 172" fill="none" xmlns="http://www.w3.org/2000/svg">
<g filter="url(#filter0_d_5551_32506)">
<rect x="15" y="13" width="544" height="142" rx="20" fill="white"/>
<rect x="15" y="13" width="544" height="142" rx="20" fill="url(#paint0_linear_5551_32506)"/>
<path d="M69.9023 65.0938C69.5742 62.9062 67.8789 61.5664 65.582 61.5664C62.4922 61.5664 60.4688 63.9453 60.4688 68.1016C60.4688 72.3672 62.5195 74.6367 65.5547 74.6367C67.8242 74.6367 69.4922 73.3789 69.9023 71.2461L74.0586 71.2734C73.5938 74.9375 70.5312 78.2734 65.5 78.2734C60.1953 78.2734 56.2852 74.5547 56.2852 68.1016C56.2852 61.6484 60.2773 57.9297 65.5 57.9297C70.0664 57.9297 73.5117 60.5547 74.0586 65.0938H69.9023ZM84.3672 71.1367H87.8945L89.3984 73.0781C90.3418 71.9707 90.875 70.3027 90.875 68.1016C90.875 63.8633 88.8789 61.5664 85.8164 61.5664C82.7539 61.5664 80.7305 63.8633 80.7305 68.1016C80.7305 72.3398 82.7539 74.6367 85.8164 74.6367C86.2129 74.6367 86.5957 74.5957 86.9648 74.5273L84.3672 71.1367ZM95.0586 68.1016C95.0586 71.6289 93.8555 74.3496 91.9141 76.0586L94.7305 79.6406H90.875L89.2891 77.6445C88.2227 78.0684 87.0469 78.2734 85.8164 78.2734C80.5391 78.2734 76.5469 74.5273 76.5469 68.1016C76.5469 61.6484 80.5391 57.9297 85.8164 57.9297C91.0391 57.9297 95.0586 61.6484 95.0586 68.1016ZM102.141 58.2031V78H98.0391V58.2031H102.141ZM133.777 74.7734V77.6172H111V74.7734H120.598V70.1797H113.406V57.2188H116.906V61.0742H127.762V57.2188H131.234V70.1797H124.07V74.7734H133.777ZM116.906 67.3906H127.762V63.8633H116.906V67.3906ZM155.707 57.793V60.1445C155.707 63.2617 155.707 66.7617 154.695 72.0391L151.195 71.6836C152.139 66.9805 152.18 63.4805 152.207 60.5547H137.551V57.793H155.707ZM157.895 74.6367V77.4805H135.199V74.6367H143.32V66.0781H146.793V74.6367H157.895ZM168.805 61.2656C168.805 65.9414 170.691 70.4805 174.848 72.2852L172.715 75.0742C169.953 73.7207 168.107 71.2461 167.082 68.1836C165.988 71.4375 164.074 74.1035 161.23 75.5117L159.043 72.668C163.309 70.7539 165.25 65.9414 165.277 61.2656V57.5469H168.805V61.2656ZM180.398 55.6328V80.5703H176.953V66.2695H172.059V63.4531H176.953V55.6328H180.398ZM199.238 62.4141C199.211 66.2148 201.234 70.5898 205.336 72.4766L203.395 75.2109C200.619 73.9395 198.637 71.3965 197.543 68.4023C196.422 71.6973 194.385 74.4863 191.5 75.8398L189.477 73.0781C193.633 71.1367 195.711 66.5156 195.738 62.4141V60.8828H190.461V58.0391H204.242V60.8828H199.238V62.4141ZM209.684 55.6328V65.1211H213.348V68.0469H209.684V80.5156H206.184V55.6328H209.684ZM237 67.3906V70.125H214.25V67.3906H223.93V65.2578H217.012V56.7266H234.266V59.4336H220.484V62.5234H234.402V65.2578H227.348V67.3906H237ZM225.57 71.3828C230.957 71.3828 234.211 73.0234 234.238 75.9766C234.211 78.875 230.957 80.543 225.57 80.543C220.129 80.543 216.848 78.875 216.848 75.9766C216.848 73.0234 220.129 71.3828 225.57 71.3828ZM225.57 74.0352C222.125 74.0352 220.375 74.6914 220.402 75.9766C220.375 77.2891 222.125 77.8906 225.57 77.8906C228.934 77.8906 230.711 77.2891 230.738 75.9766C230.711 74.6914 228.934 74.0352 225.57 74.0352ZM252.859 60.0625C252.859 62.7422 254.254 65.4219 257.562 66.6797L255.703 69.332C253.584 68.5254 252.121 67.0488 251.219 65.2031C250.316 67.3633 248.758 69.168 246.434 70.125L244.547 67.4453C248.047 65.9141 249.469 62.8516 249.469 60.0625V57.1367H252.859V60.0625ZM266.285 55.6602V70.8633H262.977V64.5469H260.898V70.0977H257.645V56.0977H260.898V61.7305H262.977V55.6602H266.285ZM257.781 71.2188C263.031 71.2188 266.395 72.9688 266.422 75.8672C266.395 78.7656 263.031 80.5156 257.781 80.5156C252.504 80.5156 249.168 78.7656 249.168 75.8672C249.168 72.9688 252.504 71.2188 257.781 71.2188ZM257.781 73.8164C254.527 73.8164 252.641 74.5273 252.668 75.8672C252.641 77.207 254.527 77.8906 257.781 77.8906C261.008 77.8906 262.895 77.207 262.895 75.8672C262.895 74.5273 261.008 73.8164 257.781 73.8164ZM278.508 59.0234C278.48 62.3594 280.203 65.4219 284.195 66.6523L282.363 69.3867C279.684 68.457 277.865 66.7344 276.84 64.4922C275.719 67.0898 273.709 69.1406 270.715 70.1523L268.883 67.3633C273.148 65.9961 274.953 62.6602 274.98 59.1875V56.918H278.508V59.0234ZM290.074 55.6328V70.207H286.602V63.043H281.926V60.1992H286.602V55.6328H290.074ZM281.57 70.8633C286.875 70.8633 290.129 72.6406 290.156 75.7031C290.129 78.7656 286.875 80.5156 281.57 80.5156C276.266 80.5156 273.012 78.7656 273.012 75.7031C273.012 72.6406 276.266 70.8633 281.57 70.8633ZM281.57 73.5703C278.262 73.5703 276.484 74.2812 276.484 75.7031C276.484 77.0703 278.262 77.8086 281.57 77.8086C284.879 77.8086 286.684 77.0703 286.684 75.7031C286.684 74.2812 284.879 73.5703 281.57 73.5703Z" fill="#31343D"/>
<path d="M489.482 104.774C481.415 104.774 474.962 111.227 474.962 119.294C474.962 122.133 475.768 124.812 477.188 127.038L467.25 137.041L471.735 141.526L481.802 131.62C484.029 133.007 486.675 133.814 489.482 133.814C497.548 133.814 504.002 127.361 504.002 119.294C504.002 111.227 497.548 104.774 489.482 104.774ZM489.482 127.361C487.342 127.361 485.291 126.511 483.778 124.998C482.265 123.485 481.415 121.433 481.415 119.294C481.415 117.155 482.265 115.103 483.778 113.59C485.291 112.077 487.342 111.227 489.482 111.227C491.621 111.227 493.673 112.077 495.186 113.59C496.699 115.103 497.548 117.155 497.548 119.294C497.548 121.433 496.699 123.485 495.186 124.998C493.673 126.511 491.621 127.361 489.482 127.361Z" fill="#B6C8CA" fill-opacity="0.3"/>
<path d="M539.494 130.587V85.4133C539.494 83.7018 538.815 82.0603 537.604 80.8501C536.394 79.6399 534.753 78.96 533.041 78.96H474.961C471.412 78.96 468.508 81.864 468.508 85.4133V119.293C468.508 113.356 470.992 108 474.961 104.192V85.4133H507.228V98.32H533.041V130.587H507.131C505.453 133.2 503.227 135.427 500.613 137.04H533.041C536.623 137.04 539.494 134.168 539.494 130.587Z" fill="#B6C8CA" fill-opacity="0.3"/>
<path d="M67.0156 103.375V110.594H65.8125V103.375H67.0156ZM67.0312 111.266V114.578H59.2344V116.125H67.5312V117.109H58.0312V113.656H65.8125V112.234H58V111.266H67.0312ZM60.5625 105.344C60.5625 107.156 62.0469 108.734 64.1406 109.359L63.5312 110.312C61.8906 109.797 60.5859 108.695 59.9688 107.266C59.3672 108.828 58.0391 110.047 56.3438 110.609L55.7656 109.641C57.8438 108.953 59.3281 107.25 59.3281 105.344V105.188H56.0781V104.172H63.7656V105.188H60.5625V105.344ZM82.0938 110.484V111.5H76.4375V114.344H75.2188V111.5H69.375V110.484H82.0938ZM80.4375 104.062V108.891H71.0312V104.062H80.4375ZM72.2344 105.031V107.906H79.2188V105.031H72.2344ZM80.6719 115.938V116.969H71V112.969H72.2344V115.938H80.6719ZM88.4219 116H86.9531L91.0938 104.688H92.5781L96.7188 116H95.2344L94.1094 112.812H89.5625L88.4219 116ZM89.9844 111.578H93.6719L91.875 106.516H91.7812L89.9844 111.578ZM99.6562 104.688V116H98.25V104.688H99.6562ZM118.188 110.734V111.734H112.531V114.453H111.312V111.734H105.469V110.734H118.188ZM116.766 115.938V116.969H107.094V113.172H108.312V115.938H116.766ZM108.391 103.828V105.609H115.266V103.828H116.484V109.375H107.172V103.828H108.391ZM108.391 108.375H115.266V106.547H108.391V108.375ZM124.047 105.609C124.047 107.531 125.469 109.297 127.484 109.984L126.812 110.969C125.266 110.398 124.062 109.211 123.469 107.734C122.883 109.375 121.633 110.656 120 111.297L119.328 110.281C121.438 109.531 122.828 107.703 122.844 105.562V104.094H124.047V105.609ZM130.828 112.359V117.266H129.594V113.344H121.484V112.359H130.828ZM130.828 103.375V111.594H129.594V107.328H126.5V106.297H129.594V103.375H130.828ZM139.469 103.625C142.562 103.625 144.375 104.469 144.375 106.016C144.375 107.594 142.562 108.438 139.469 108.453C136.375 108.438 134.547 107.594 134.547 106.016C134.547 104.469 136.375 103.625 139.469 103.625ZM139.469 104.547C137.156 104.547 135.812 105.109 135.828 106.016C135.812 106.984 137.156 107.516 139.469 107.516C141.766 107.516 143.125 106.984 143.125 106.016C143.125 105.109 141.766 104.547 139.469 104.547ZM145.797 109.391V110.391H133.141V109.391H145.797ZM144.172 111.594V114.703H135.922V116.141H144.594V117.109H134.703V113.797H142.969V112.531H134.672V111.594H144.172ZM163.641 110.75V111.75H150.969V110.75H156.688V109.375H152.656V103.781H162.062V104.781H153.891V106.078H161.688V107.016H153.891V108.391H162.141V109.375H157.906V110.75H163.641ZM157.312 112.797C160.359 112.781 162.078 113.562 162.094 115.016C162.078 116.469 160.359 117.234 157.312 117.234C154.234 117.234 152.516 116.469 152.516 115.016C152.516 113.562 154.234 112.781 157.312 112.797ZM157.312 113.719C155.016 113.719 153.734 114.188 153.75 115.016C153.734 115.859 155.016 116.297 157.312 116.281C159.578 116.297 160.859 115.859 160.859 115.016C160.859 114.188 159.578 113.719 157.312 113.719ZM175.672 103.391V107.969H177.766V109H175.672V113.797H174.453V103.391H175.672ZM173.125 105.094V106.094H164.844V105.094H168.375V103.391H169.594V105.094H173.125ZM168.984 106.859C170.969 106.859 172.312 107.875 172.328 109.453C172.312 111.016 170.969 112.016 168.984 112.016C166.984 112.016 165.625 111.016 165.641 109.453C165.625 107.875 166.984 106.859 168.984 106.859ZM168.984 107.828C167.672 107.828 166.797 108.469 166.812 109.453C166.797 110.438 167.672 111.062 168.984 111.047C170.281 111.062 171.156 110.438 171.172 109.453C171.156 108.469 170.281 107.828 168.984 107.828ZM176.312 115.938V116.969H166.984V112.969H168.188V115.938H176.312ZM193.516 103.375V107H195.609V108.016H193.516V111.719H192.297V103.375H193.516ZM189.734 104.406C189.734 107.938 187.234 110.547 183.188 111.734L182.672 110.734C186.023 109.766 188.164 107.836 188.422 105.422H183.281V104.406H189.734ZM189.125 111.875C191.922 111.875 193.672 112.891 193.672 114.547C193.672 116.234 191.922 117.234 189.125 117.234C186.359 117.234 184.562 116.234 184.578 114.547C184.562 112.891 186.359 111.875 189.125 111.875ZM189.125 112.859C187.094 112.844 185.781 113.5 185.797 114.547C185.781 115.594 187.094 116.25 189.125 116.25C191.172 116.25 192.484 115.594 192.484 114.547C192.484 113.5 191.172 112.844 189.125 112.859ZM201.031 104.391C203.219 104.391 204.766 105.719 204.766 107.656C204.766 109.594 203.219 110.922 201.031 110.922C198.844 110.922 197.266 109.594 197.281 107.656C197.266 105.719 198.844 104.391 201.031 104.391ZM201.031 105.469C199.547 105.469 198.469 106.359 198.484 107.656C198.469 108.953 199.547 109.844 201.031 109.844C202.5 109.844 203.562 108.953 203.562 107.656C203.562 106.359 202.5 105.469 201.031 105.469ZM207.875 103.375V117.297H206.656V103.375H207.875ZM196.562 113.188C199.125 113.188 202.656 113.172 205.734 112.719L205.828 113.625C202.656 114.219 199.234 114.234 196.734 114.234L196.562 113.188ZM226.188 103.375V117.266H224.984V110H223.062V116.578H221.891V103.75H223.062V108.984H224.984V103.375H226.188ZM220.312 105.188C220.297 108.719 219.062 112.062 215.062 114.281L214.344 113.422C217.57 111.625 218.906 109.078 219.109 106.203H214.875V105.188H220.312ZM232.906 106C232.906 107.938 234.312 109.766 236.344 110.5L235.656 111.453C234.133 110.844 232.922 109.633 232.328 108.125C231.734 109.805 230.469 111.141 228.828 111.797L228.172 110.797C230.25 110.031 231.688 108.094 231.703 105.953V104.234H232.906V106ZM239.672 103.391V113.797H238.438V107.688H235.344V106.656H238.438V103.391H239.672ZM239.984 115.938V116.969H230.688V112.609H231.922V115.938H239.984ZM246.641 107.109C246.641 109.562 248.266 112.078 250.234 113.047L249.484 114.031C247.953 113.227 246.672 111.586 246.062 109.656C245.438 111.711 244.125 113.461 242.562 114.297L241.781 113.312C243.812 112.312 245.422 109.641 245.438 107.109V104.578H246.641V107.109ZM252.734 103.375V109.016H255.062V110.078H252.734V117.266H251.516V103.375H252.734ZM266.672 103.375V107.25H268.766V108.297H266.672V112.344H265.453V103.375H266.672ZM262.281 112.438C265.109 112.438 266.828 113.328 266.828 114.844C266.828 116.359 265.109 117.234 262.281 117.234C259.453 117.234 257.719 116.359 257.734 114.844C257.719 113.328 259.453 112.438 262.281 112.438ZM262.281 113.406C260.203 113.406 258.938 113.922 258.953 114.844C258.938 115.75 260.203 116.281 262.281 116.281C264.359 116.281 265.609 115.75 265.609 114.844C265.609 113.922 264.359 113.406 262.281 113.406ZM264.125 104.969V105.938H255.844V104.969H259.375V103.266H260.594V104.969H264.125ZM259.984 106.656C261.984 106.656 263.312 107.625 263.328 109.109C263.312 110.609 261.984 111.562 259.984 111.562C257.969 111.562 256.625 110.609 256.641 109.109C256.625 107.625 257.969 106.656 259.984 106.656ZM259.984 107.578C258.672 107.594 257.797 108.203 257.812 109.109C257.797 110.016 258.672 110.609 259.984 110.609C261.281 110.609 262.156 110.016 262.172 109.109C262.156 108.203 261.281 107.594 259.984 107.578ZM278.359 107.641C278.344 109.875 279.953 112.328 281.969 113.281L281.266 114.25C279.703 113.492 278.383 111.836 277.766 109.953C277.125 112 275.727 113.797 274.172 114.594L273.422 113.625C275.422 112.656 277.141 110.016 277.156 107.641V105.828H273.922V104.812H281.484V105.828H278.359V107.641ZM284.406 103.375V109H286.734V110.047H284.406V117.266H283.188V103.375H284.406ZM300.156 110.25V111.234H287.484V110.25H293.219V108.625H289.094V104.031H298.578V105.016H290.297V107.625H298.672V108.625H294.406V110.25H300.156ZM293.812 112.25C296.797 112.25 298.578 113.156 298.594 114.75C298.578 116.359 296.797 117.25 293.812 117.266C290.812 117.25 289.016 116.359 289.016 114.75C289.016 113.156 290.812 112.25 293.812 112.25ZM293.812 113.219C291.578 113.219 290.25 113.797 290.266 114.75C290.25 115.719 291.578 116.281 293.812 116.281C296.016 116.281 297.359 115.719 297.359 114.75C297.359 113.797 296.016 113.219 293.812 113.219ZM309.469 106.141C309.469 107.672 310.547 109.234 312.328 109.906L311.688 110.844C310.352 110.328 309.391 109.336 308.891 108.141C308.375 109.469 307.383 110.648 306.016 111.234L305.344 110.281C307.172 109.484 308.297 107.688 308.297 106.141V104.25H309.469V106.141ZM317.125 103.391V111.969H315.953V108.141H314.109V111.531H312.953V103.656H314.109V107.125H315.953V103.391H317.125ZM312.531 112.281C315.406 112.281 317.203 113.188 317.203 114.766C317.203 116.328 315.406 117.234 312.531 117.234C309.641 117.234 307.859 116.328 307.875 114.766C307.859 113.188 309.641 112.281 312.531 112.281ZM312.531 113.219C310.406 113.219 309.078 113.797 309.094 114.766C309.078 115.719 310.406 116.281 312.531 116.281C314.641 116.281 315.969 115.719 315.984 114.766C315.969 113.797 314.641 113.219 312.531 113.219ZM323.938 105.562C323.922 107.547 325.328 109.297 327.375 109.984L326.688 110.938C325.156 110.359 323.953 109.234 323.359 107.766C322.758 109.43 321.484 110.727 319.812 111.359L319.141 110.359C321.281 109.609 322.703 107.766 322.719 105.609V104.172H323.938V105.562ZM330.672 103.375V111.609H329.438V107.375H326.344V106.359H329.438V103.375H330.672ZM326.062 112.016C328.953 112.016 330.719 112.969 330.719 114.641C330.719 116.297 328.953 117.234 326.062 117.234C323.172 117.234 321.406 116.297 321.406 114.641C321.406 112.969 323.172 112.016 326.062 112.016ZM326.062 112.984C323.938 112.984 322.609 113.609 322.625 114.641C322.609 115.641 323.938 116.25 326.062 116.25C328.188 116.25 329.5 115.641 329.5 114.641C329.5 113.609 328.188 112.984 326.062 112.984Z" fill="#31343D"/>
</g>
<defs>
<filter id="filter0_d_5551_32506" x="0" y="0" width="574" height="172" filterUnits="userSpaceOnUse" color-interpolation-filters="sRGB">
<feFlood flood-opacity="0" result="BackgroundImageFix"/>
<feColorMatrix in="SourceAlpha" type="matrix" values="0 0 0 0 0 0 0 0 0 0 0 0 0 0 0 0 0 0 127 0" result="hardAlpha"/>
<feOffset dy="2"/>
<feGaussianBlur stdDeviation="7.5"/>
<feComposite in2="hardAlpha" operator="out"/>
<feColorMatrix type="matrix" values="0 0 0 0 0.487049 0 0 0 0 0.551844 0 0 0 0 0.691667 0 0 0 0.25 0"/>
<feBlend mode="normal" in2="BackgroundImageFix" result="effect1_dropShadow_5551_32506"/>
<feBlend mode="normal" in="SourceGraphic" in2="effect1_dropShadow_5551_32506" result="shape"/>
</filter>
<linearGradient id="paint0_linear_5551_32506" x1="15" y1="13" x2="512.823" y2="251.418" gradientUnits="userSpaceOnUse">
<stop stop-color="white"/>
<stop offset="1" stop-color="#F8FFFF" stop-opacity="0.5"/>
</linearGradient>
</defs>
</svg>
