<svg width="574" height="172" viewBox="0 0 574 172" fill="none" xmlns="http://www.w3.org/2000/svg">
<g filter="url(#filter0_d_5551_32488)">
<rect x="15" y="13" width="544" height="142" rx="20" fill="white"/>
<rect x="15" y="13" width="544" height="142" rx="20" fill="url(#paint0_linear_5551_32488)"/>
<path d="M76.5469 55.6328V68.4023H73.0742V55.6328H76.5469ZM76.5742 69.3867V76.0312H63.3398V77.6719H77.2578V80.3516H59.9219V73.543H73.1016V72.0391H59.8672V69.3867H76.5742ZM70.4492 56.7812V59.5703H65.4727C65.7188 62.0586 67.5781 64.4648 71.4062 65.4766L69.7383 68.1562C66.8535 67.3633 64.8574 65.6953 63.75 63.5625C62.6016 65.9414 60.4961 67.8145 57.4336 68.6758L55.8477 65.9141C59.7305 64.8477 61.6309 62.2227 61.8633 59.5703H56.7773V56.7812H70.4492ZM102.688 67.9375V70.6992H93.3086V74.9922H89.8633V70.6992H79.9102V67.9375H102.688ZM99.7617 56.7266V65.8867H82.7539V56.7266H99.7617ZM86.1719 59.4336V63.1797H96.3438V59.4336H86.1719ZM100.172 77.2891V80.0781H82.5898V72.832H86.0625V77.2891H100.172ZM125.602 55.6328V80.5156H122.238V68.0742H119.914V79.3125H116.633V56.043H119.914V65.2578H122.238V55.6328H125.602ZM108.648 58.3945V71.3828C110.645 71.3418 112.832 71.1641 115.238 70.6992L115.594 73.707C112.258 74.2812 109.414 74.4453 106.844 74.4453H105.148V58.3945H108.648ZM149.309 71.4648V80.5156H145.836V74.1992H132.219V71.4648H149.309ZM149.309 55.6328V70.3438H145.836V67.1992H140.258C139.068 68.4844 137.305 69.25 135.281 69.25C131.508 69.25 128.637 66.6523 128.664 63.043C128.637 59.5156 131.508 56.9453 135.281 56.9727C137.305 56.959 139.068 57.7109 140.258 58.9688H145.836V55.6328H149.309ZM135.281 59.8984C133.34 59.8984 131.945 61.1016 131.973 63.043C131.945 65.0938 133.34 66.2695 135.281 66.2695C137.113 66.2695 138.535 65.0938 138.535 63.043C138.535 61.1016 137.113 59.8984 135.281 59.8984ZM141.707 64.4102H145.836V61.7852H141.734C141.803 62.1816 141.844 62.6055 141.844 63.043C141.844 63.5215 141.789 63.9727 141.707 64.4102ZM179.906 55.6328V80.5156H176.379V55.6328H179.906ZM172.441 58.2305C172.441 65.7773 169.789 72.0391 160.902 76.25L159.07 73.4609C165.496 70.4258 168.326 66.4883 168.887 60.9648H160.41V58.2305H172.441ZM202.93 55.6602V62.6602H206.293V65.5312H202.93V73.9805H199.43V55.6602H202.93ZM203.832 77.2891V80.0781H186.797V72.0938H190.27V77.2891H203.832ZM187.398 57.4102V61.0195H192.484V57.4102H195.984V70.0156H183.926V57.4102H187.398ZM187.398 67.2812H192.484V63.6992H187.398V67.2812ZM228.605 57.8477V60.6094H213.84V57.8477H219.5V55.4961H222.973V57.8477H228.605ZM221.223 61.4023C224.832 61.4023 227.348 63.2617 227.348 65.9961C227.348 68.7305 224.832 70.5898 221.223 70.5898C217.613 70.5898 215.043 68.7305 215.043 65.9961C215.043 63.2617 217.613 61.4023 221.223 61.4023ZM221.223 64.0273C219.555 64.0273 218.434 64.7109 218.461 65.9961C218.434 67.2539 219.555 67.9102 221.223 67.9102C222.891 67.9102 224.039 67.2539 224.039 65.9961C224.039 64.7109 222.891 64.0273 221.223 64.0273ZM233.582 55.6328V62.0859H236.945V64.9297H233.582V71.2461H230.082V55.6328H233.582ZM233.582 72.2852V80.5156H230.082V75.0742H216.82V72.2852H233.582ZM244.137 70.5625V72.668H254.391V70.5625H257.863V80.2422H240.691V70.5625H244.137ZM244.137 77.5078H254.391V75.3203H244.137V77.5078ZM260.734 66.4883V69.3047H238.039V66.4883H260.734ZM251.191 56.7266C251.191 59.2148 254.062 62.0312 259.613 62.6602L258.383 65.3945C254.09 64.8477 250.986 63.0703 249.387 60.6641C247.787 63.0703 244.67 64.8477 240.418 65.3945L239.16 62.6602C244.711 62.0039 247.582 59.2695 247.609 56.7266V55.8789H251.191V56.7266ZM291.387 68.1016V70.8906H268.691V68.1016H278.289V65.6953H281.734V68.1016H291.387ZM281.734 55.7148V57.8477H289.199V60.6094H282.035C282.5 62.332 285.057 63.9316 290.375 64.2461L289.336 66.8984C284.742 66.5703 281.57 65.2305 280.012 63.2344C278.439 65.2305 275.268 66.5703 270.715 66.8984L269.648 64.2461C274.967 63.9316 277.496 62.332 277.988 60.6094H270.879V57.8477H278.289V55.7148H281.734ZM280.012 72.0664C285.453 72.0664 288.652 73.543 288.68 76.2773C288.652 79.0391 285.453 80.5156 280.012 80.5156C274.543 80.5156 271.289 79.0391 271.289 76.2773C271.289 73.543 274.543 72.0664 280.012 72.0664ZM280.012 74.6367C276.539 74.6367 274.816 75.1562 274.844 76.2773C274.816 77.4258 276.539 77.9453 280.012 77.9453C283.402 77.9453 285.152 77.4258 285.18 76.2773C285.152 75.1562 283.402 74.6367 280.012 74.6367ZM306.781 57.2734V60.0625H304.73V66.707C305.564 66.6387 306.385 66.5566 307.164 66.4609L307.301 69.0312C302.625 69.8242 297.184 69.9062 293.246 69.9062L292.891 67.0898L295.543 67.0625V60.0625H293.52V57.2734H306.781ZM313.863 55.6328V70.8359H310.391V67.1172H307.328V64.3281H310.391V62.4141H307.328V59.6797H310.391V55.6328H313.863ZM305.359 71.2188C310.719 71.2461 313.918 72.9141 313.945 75.8945C313.918 78.793 310.719 80.5156 305.359 80.5156C300.027 80.5156 296.801 78.793 296.801 75.8945C296.801 72.9141 300.027 71.2461 305.359 71.2188ZM305.359 73.8984C302.023 73.8984 300.273 74.5273 300.273 75.8945C300.273 77.207 302.023 77.8633 305.359 77.8633C308.695 77.8633 310.473 77.207 310.473 75.8945C310.473 74.5273 308.695 73.8984 305.359 73.8984ZM298.906 66.9805L301.395 66.8984V60.0625H298.906V66.9805ZM345.062 55.6328V80.5156H341.754V55.6328H345.062ZM339.977 56.043V79.3672H336.695V66.9805H333.414V64.1641H336.695V56.043H339.977ZM331.418 62.3047C331.418 66.4336 332.703 70.6172 336.34 72.6953L334.289 75.2656C332.074 73.9531 330.611 71.7246 329.777 69.0586C328.916 71.957 327.412 74.418 325.129 75.8125L323.023 73.2422C326.688 71 328.055 66.5156 328.055 62.3047V60.9648H323.98V58.1758H335.191V60.9648H331.418V62.3047ZM358.953 71.1367C364.395 71.1367 367.812 72.8594 367.84 75.8398C367.812 78.7656 364.395 80.5156 358.953 80.5156C353.566 80.5156 350.094 78.7656 350.094 75.8398C350.094 72.8594 353.566 71.1367 358.953 71.1367ZM358.953 73.7344C355.535 73.7344 353.566 74.4453 353.566 75.8398C353.566 77.1797 355.535 77.8633 358.953 77.8633C362.371 77.8633 364.367 77.1797 364.367 75.8398C364.367 74.4453 362.371 73.7344 358.953 73.7344ZM367.703 56.7539V58.7773C367.703 60.7461 367.703 62.8789 366.992 65.4492L363.574 65.1211C364.121 62.8652 364.189 61.1836 364.23 59.4883H350.34V56.7539H367.703ZM370.383 66.7344V69.5508H347.797V66.7344H356.273V62.3867H359.719V66.7344H370.383Z" fill="#31343D"/>
<g opacity="0.6">
<path d="M487.61 103.051C487.61 102.099 487.989 101.187 488.661 100.514C489.334 99.8415 490.246 99.4633 491.198 99.4633C492.149 99.4634 493.061 99.8415 493.734 100.514C494.407 101.187 494.784 102.099 494.784 103.051C494.784 104.002 494.407 104.914 493.734 105.587C493.061 106.26 492.149 106.637 491.198 106.637C490.246 106.637 489.334 106.259 488.661 105.587C487.989 104.914 487.611 104.002 487.61 103.051ZM481.584 103.051C481.584 105.6 482.597 108.045 484.4 109.848C486.203 111.65 488.648 112.663 491.198 112.663C493.747 112.663 496.192 111.65 497.995 109.848C499.797 108.045 500.81 105.6 500.81 103.051C500.81 102.565 500.774 102.083 500.702 101.609L523.972 90.0173C523.982 90.027 523.99 90.0379 524 90.0475C525.803 91.8503 528.248 92.863 530.798 92.863C533.347 92.8629 535.792 91.8503 537.595 90.0475C539.397 88.2448 540.41 85.8 540.41 83.2505C540.41 80.701 539.397 78.2555 537.595 76.4527C535.792 74.65 533.347 73.6373 530.798 73.6372C528.248 73.6372 525.803 74.6499 524 76.4527C522.197 78.2555 521.184 80.701 521.184 83.2505C521.184 83.7127 521.219 84.1713 521.284 84.6234L497.976 96.2342C496.175 94.4431 493.738 93.4373 491.198 93.4372C488.648 93.4372 486.203 94.4499 484.4 96.2527C482.597 98.0555 481.584 100.501 481.584 103.051ZM534.384 83.2505C534.384 84.2018 534.007 85.1143 533.334 85.7869C532.661 86.4595 531.749 86.8369 530.798 86.8369C529.846 86.8369 528.934 86.4594 528.261 85.7869C527.589 85.1143 527.211 84.2018 527.21 83.2505C527.21 82.2992 527.589 81.3868 528.261 80.7142C528.934 80.0415 529.846 79.6633 530.798 79.6633C531.749 79.6634 532.661 80.0415 533.334 80.7142C534.007 81.3868 534.384 82.2993 534.384 83.2505Z" fill="#BEB9A6" fill-opacity="0.5"/>
<path d="M478 142.363V136.337H544L544 142.363H478Z" fill="#BEB9A6" fill-opacity="0.5"/>
<path d="M527.757 129.45C527.757 127.787 529.106 126.437 530.77 126.437H530.8C532.464 126.437 533.813 127.787 533.813 129.45C533.813 131.114 532.464 132.463 530.8 132.463H530.77C529.106 132.463 527.757 131.114 527.757 129.45Z" fill="#BEB9A6" fill-opacity="0.5"/>
<path d="M491.015 126.442L491.17 126.437H491.2C492.864 126.437 494.213 127.787 494.213 129.45C494.213 131.114 492.864 132.463 491.2 132.463H491.17L491.015 132.46C489.423 132.379 488.157 131.062 488.157 129.45C488.157 127.838 489.423 126.522 491.015 126.442Z" fill="#BEB9A6" fill-opacity="0.5"/>
<path d="M527.757 119.55C527.757 117.887 529.106 116.537 530.77 116.537H530.8C532.464 116.537 533.813 117.887 533.813 119.55C533.813 121.214 532.464 122.563 530.8 122.563H530.77C529.106 122.563 527.757 121.214 527.757 119.55Z" fill="#BEB9A6" fill-opacity="0.5"/>
<path d="M488.157 119.55C488.157 117.887 489.506 116.537 491.17 116.537H491.2C492.864 116.537 494.213 117.887 494.213 119.55C494.213 121.214 492.864 122.563 491.2 122.563H491.17C489.506 122.563 488.157 121.214 488.157 119.55Z" fill="#BEB9A6" fill-opacity="0.5"/>
<path d="M530.615 106.642L530.77 106.637H530.8C532.464 106.637 533.813 107.987 533.813 109.65C533.813 111.314 532.464 112.663 530.8 112.663H530.77L530.615 112.66C529.023 112.579 527.757 111.262 527.757 109.65C527.757 108.038 529.023 106.722 530.615 106.642Z" fill="#BEB9A6" fill-opacity="0.5"/>
<path d="M527.757 99.7503C527.757 98.0865 529.106 96.7375 530.77 96.7373H530.8C532.464 96.7375 533.813 98.0865 533.813 99.7503C533.813 101.414 532.464 102.763 530.8 102.763H530.77C529.106 102.763 527.757 101.414 527.757 99.7503Z" fill="#BEB9A6" fill-opacity="0.5"/>
</g>
<path d="M67.0156 103.375V110.594H65.8125V103.375H67.0156ZM67.0312 111.266V114.578H59.2344V116.125H67.5312V117.109H58.0312V113.656H65.8125V112.234H58V111.266H67.0312ZM60.5625 105.344C60.5625 107.156 62.0469 108.734 64.1406 109.359L63.5312 110.312C61.8906 109.797 60.5859 108.695 59.9688 107.266C59.3672 108.828 58.0391 110.047 56.3438 110.609L55.7656 109.641C57.8438 108.953 59.3281 107.25 59.3281 105.344V105.188H56.0781V104.172H63.7656V105.188H60.5625V105.344ZM82.0938 110.484V111.5H76.4375V114.344H75.2188V111.5H69.375V110.484H82.0938ZM80.4375 104.062V108.891H71.0312V104.062H80.4375ZM72.2344 105.031V107.906H79.2188V105.031H72.2344ZM80.6719 115.938V116.969H71V112.969H72.2344V115.938H80.6719ZM88.4219 116H86.9531L91.0938 104.688H92.5781L96.7188 116H95.2344L94.1094 112.812H89.5625L88.4219 116ZM89.9844 111.578H93.6719L91.875 106.516H91.7812L89.9844 111.578ZM99.6562 104.688V116H98.25V104.688H99.6562ZM118.188 110.734V111.734H112.531V114.453H111.312V111.734H105.469V110.734H118.188ZM116.766 115.938V116.969H107.094V113.172H108.312V115.938H116.766ZM108.391 103.828V105.609H115.266V103.828H116.484V109.375H107.172V103.828H108.391ZM108.391 108.375H115.266V106.547H108.391V108.375ZM124.047 105.609C124.047 107.531 125.469 109.297 127.484 109.984L126.812 110.969C125.266 110.398 124.062 109.211 123.469 107.734C122.883 109.375 121.633 110.656 120 111.297L119.328 110.281C121.438 109.531 122.828 107.703 122.844 105.562V104.094H124.047V105.609ZM130.828 112.359V117.266H129.594V113.344H121.484V112.359H130.828ZM130.828 103.375V111.594H129.594V107.328H126.5V106.297H129.594V103.375H130.828ZM139.469 103.625C142.562 103.625 144.375 104.469 144.375 106.016C144.375 107.594 142.562 108.438 139.469 108.453C136.375 108.438 134.547 107.594 134.547 106.016C134.547 104.469 136.375 103.625 139.469 103.625ZM139.469 104.547C137.156 104.547 135.812 105.109 135.828 106.016C135.812 106.984 137.156 107.516 139.469 107.516C141.766 107.516 143.125 106.984 143.125 106.016C143.125 105.109 141.766 104.547 139.469 104.547ZM145.797 109.391V110.391H133.141V109.391H145.797ZM144.172 111.594V114.703H135.922V116.141H144.594V117.109H134.703V113.797H142.969V112.531H134.672V111.594H144.172ZM163.641 110.75V111.75H150.969V110.75H156.688V109.375H152.656V103.781H162.062V104.781H153.891V106.078H161.688V107.016H153.891V108.391H162.141V109.375H157.906V110.75H163.641ZM157.312 112.797C160.359 112.781 162.078 113.562 162.094 115.016C162.078 116.469 160.359 117.234 157.312 117.234C154.234 117.234 152.516 116.469 152.516 115.016C152.516 113.562 154.234 112.781 157.312 112.797ZM157.312 113.719C155.016 113.719 153.734 114.188 153.75 115.016C153.734 115.859 155.016 116.297 157.312 116.281C159.578 116.297 160.859 115.859 160.859 115.016C160.859 114.188 159.578 113.719 157.312 113.719ZM175.672 103.391V107.969H177.766V109H175.672V113.797H174.453V103.391H175.672ZM173.125 105.094V106.094H164.844V105.094H168.375V103.391H169.594V105.094H173.125ZM168.984 106.859C170.969 106.859 172.312 107.875 172.328 109.453C172.312 111.016 170.969 112.016 168.984 112.016C166.984 112.016 165.625 111.016 165.641 109.453C165.625 107.875 166.984 106.859 168.984 106.859ZM168.984 107.828C167.672 107.828 166.797 108.469 166.812 109.453C166.797 110.438 167.672 111.062 168.984 111.047C170.281 111.062 171.156 110.438 171.172 109.453C171.156 108.469 170.281 107.828 168.984 107.828ZM176.312 115.938V116.969H166.984V112.969H168.188V115.938H176.312ZM194.109 103.375V117.297H192.875V103.375H194.109ZM186.719 104.453C188.781 104.469 190.266 106.344 190.266 109.297C190.266 112.25 188.781 114.125 186.719 114.125C184.641 114.125 183.172 112.25 183.172 109.297C183.172 106.344 184.641 104.469 186.719 104.453ZM186.719 105.547C185.328 105.562 184.359 107.031 184.359 109.297C184.359 111.562 185.328 113.031 186.719 113.031C188.109 113.031 189.078 111.562 189.078 109.297C189.078 107.031 188.109 105.562 186.719 105.547ZM203.422 105.781V106.781H196.453V105.781H199.344V103.797H200.562V105.781H203.422ZM199.938 107.719C201.688 107.719 202.938 109.031 202.953 110.875C202.938 112.734 201.688 114.062 199.938 114.062C198.203 114.062 196.953 112.734 196.953 110.875C196.953 109.031 198.203 107.719 199.938 107.719ZM199.938 108.75C198.844 108.766 198.047 109.656 198.047 110.875C198.047 112.109 198.844 113 199.938 112.984C201.047 113 201.859 112.109 201.859 110.875C201.859 109.656 201.047 108.766 199.938 108.75ZM208.312 103.375V117.266H207.141V110.25H205.297V116.578H204.141V103.719H205.297V109.234H207.141V103.375H208.312ZM221.531 109.891V110.891H217.234V114.484H223.031V115.516H210.312V114.484H216.031V110.891H211.938V104.516H221.391V105.516H213.172V109.891H221.531ZM235.406 104.281V109.938H228.891V104.281H235.406ZM230.094 105.281V108.969H234.203V105.281H230.094ZM239.609 103.375V111.359H238.406V103.375H239.609ZM235.844 113.266C235.844 114.625 238.062 115.969 240.453 116.266L240.031 117.219C237.938 116.938 236.031 115.953 235.219 114.656C234.375 115.977 232.422 116.938 230.328 117.219L229.891 116.266C232.281 116 234.578 114.656 234.578 113.266H230.469V112.312H234.594V110.953H235.812V112.312H239.969V113.266H235.844ZM258.656 111.781V112.812H252.922V117.297H251.719V112.812H246V111.781H258.656ZM252.938 106.125C252.938 107.859 255.359 109.375 257.844 109.719L257.391 110.703C255.242 110.375 253.219 109.297 252.344 107.781C251.453 109.312 249.398 110.375 247.25 110.703L246.797 109.719C249.266 109.375 251.719 107.875 251.719 106.125V106.109H247.234V105.109H251.719V103.375H252.922V105.109H257.438V106.109H252.938V106.125ZM270.578 103.375V109.031H272.828V110.062H270.578V117.266H269.359V103.375H270.578ZM266.984 104.875C266.984 108.812 265.141 112.391 260.609 114.625L259.922 113.656C263.516 111.867 265.469 109.195 265.75 105.906H260.562V104.875H266.984ZM285.984 104.875V105.875H277.703V104.875H281.234V103.312H282.453V104.875H285.984ZM281.844 106.594C283.844 106.609 285.172 107.578 285.188 109.109C285.172 110.625 283.844 111.609 281.844 111.609C279.844 111.609 278.484 110.625 278.5 109.109C278.484 107.578 279.844 106.609 281.844 106.594ZM281.844 107.547C280.531 107.562 279.656 108.172 279.672 109.109C279.656 110.031 280.531 110.625 281.844 110.625C283.141 110.625 284.016 110.031 284.031 109.109C284.016 108.172 283.141 107.562 281.844 107.547ZM288.531 103.375V107.234H290.625V108.266H288.531V112.062H287.312V103.375H288.531ZM288.531 112.828V117.266H287.312V113.828H279.438V112.828H288.531ZM294.328 111.719V113.344H301.266V111.719H302.5V117.078H293.109V111.719H294.328ZM294.328 116.094H301.266V114.312H294.328V116.094ZM304.156 109.719V110.734H291.5V109.719H304.156ZM298.469 104.188C298.469 105.906 301 107.438 303.438 107.75L302.984 108.734C300.828 108.414 298.719 107.312 297.844 105.75C296.953 107.32 294.828 108.414 292.688 108.734L292.219 107.75C294.688 107.422 297.203 105.953 297.203 104.188V103.531H298.469V104.188ZM310.031 107.641C310.016 109.875 311.625 112.328 313.641 113.281L312.938 114.25C311.375 113.492 310.055 111.836 309.438 109.953C308.797 112 307.398 113.797 305.844 114.594L305.094 113.625C307.094 112.656 308.812 110.016 308.828 107.641V105.828H305.594V104.812H313.156V105.828H310.031V107.641ZM316.078 103.375V109H318.406V110.047H316.078V117.266H314.859V103.375H316.078ZM331.875 114.516V115.547H319.156V114.516H322.734V111.875H320.75V107.594H329.062V105.422H320.719V104.406H330.266V108.609H321.969V110.859H330.594V111.875H328.422V114.516H331.875ZM323.938 114.516H327.219V111.875H323.938V114.516ZM349.656 111.781V112.812H343.922V117.297H342.719V112.812H337V111.781H349.656ZM343.938 106.125C343.938 107.859 346.359 109.375 348.844 109.719L348.391 110.703C346.242 110.375 344.219 109.297 343.344 107.781C342.453 109.312 340.398 110.375 338.25 110.703L337.797 109.719C340.266 109.375 342.719 107.875 342.719 106.125V106.109H338.234V105.109H342.719V103.375H343.922V105.109H348.438V106.109H343.938V106.125ZM355.562 106.703C355.562 108.547 357.031 110.172 359.094 110.812L358.484 111.797C356.875 111.273 355.609 110.172 354.984 108.75C354.383 110.273 353.125 111.453 351.484 112.031L350.875 111.078C352.922 110.391 354.359 108.656 354.359 106.703V106.25H351.219V105.25H354.359V103.469H355.594V105.25H358.703V106.25H355.562V106.703ZM362.344 103.391V113.766H361.109V108.688H358.219V107.672H361.109V103.391H362.344ZM362.734 115.938V116.969H353.422V112.828H354.656V115.938H362.734Z" fill="#31343D"/>
</g>
<defs>
<filter id="filter0_d_5551_32488" x="0" y="0" width="574" height="172" filterUnits="userSpaceOnUse" color-interpolation-filters="sRGB">
<feFlood flood-opacity="0" result="BackgroundImageFix"/>
<feColorMatrix in="SourceAlpha" type="matrix" values="0 0 0 0 0 0 0 0 0 0 0 0 0 0 0 0 0 0 127 0" result="hardAlpha"/>
<feOffset dy="2"/>
<feGaussianBlur stdDeviation="7.5"/>
<feComposite in2="hardAlpha" operator="out"/>
<feColorMatrix type="matrix" values="0 0 0 0 0.487049 0 0 0 0 0.551844 0 0 0 0 0.691667 0 0 0 0.25 0"/>
<feBlend mode="normal" in2="BackgroundImageFix" result="effect1_dropShadow_5551_32488"/>
<feBlend mode="normal" in="SourceGraphic" in2="effect1_dropShadow_5551_32488" result="shape"/>
</filter>
<linearGradient id="paint0_linear_5551_32488" x1="15" y1="13" x2="512.823" y2="251.418" gradientUnits="userSpaceOnUse">
<stop stop-color="white"/>
<stop offset="1" stop-color="#FFFCF5" stop-opacity="0.5"/>
</linearGradient>
</defs>
</svg>
