<svg width="574" height="172" viewBox="0 0 574 172" fill="none" xmlns="http://www.w3.org/2000/svg">
<g filter="url(#filter0_d_5551_32488)">
<rect x="15" y="13" width="544" height="142" rx="20" fill="white"/>
<rect x="15" y="13" width="544" height="142" rx="20" fill="url(#paint0_linear_5551_32488)"/>
<path d="M70.5039 57.8477V60.6094H55.7383V57.8477H61.3984V55.4961H64.8711V57.8477H70.5039ZM63.1211 61.4023C66.7305 61.4023 69.2461 63.2617 69.2461 65.9961C69.2461 68.7305 66.7305 70.5898 63.1211 70.5898C59.5117 70.5898 56.9414 68.7305 56.9414 65.9961C56.9414 63.2617 59.5117 61.4023 63.1211 61.4023ZM63.1211 64.0273C61.4531 64.0273 60.332 64.7109 60.3594 65.9961C60.332 67.2539 61.4531 67.9102 63.1211 67.9102C64.7891 67.9102 65.9375 67.2539 65.9375 65.9961C65.9375 64.7109 64.7891 64.0273 63.1211 64.0273ZM75.4805 55.6328V62.0859H78.8438V64.9297H75.4805V71.2461H71.9805V55.6328H75.4805ZM75.4805 72.2852V80.5156H71.9805V75.0742H58.7188V72.2852H75.4805ZM86.0352 70.5625V72.668H96.2891V70.5625H99.7617V80.2422H82.5898V70.5625H86.0352ZM86.0352 77.5078H96.2891V75.3203H86.0352V77.5078ZM102.633 66.4883V69.3047H79.9375V66.4883H102.633ZM93.0898 56.7266C93.0898 59.2148 95.9609 62.0312 101.512 62.6602L100.281 65.3945C95.9883 64.8477 92.8848 63.0703 91.2852 60.6641C89.6855 63.0703 86.5684 64.8477 82.3164 65.3945L81.0586 62.6602C86.6094 62.0039 89.4805 59.2695 89.5078 56.7266V55.8789H93.0898V56.7266ZM125.602 55.6328V80.5156H122.238V68.0742H119.914V79.3125H116.633V56.043H119.914V65.2578H122.238V55.6328H125.602ZM108.648 58.3945V71.3828C110.645 71.3418 112.832 71.1641 115.238 70.6992L115.594 73.707C112.258 74.2812 109.414 74.4453 106.844 74.4453H105.148V58.3945H108.648ZM151.031 67.418V70.207H128.336V67.418H133.449V64.4375C131.631 63.6309 130.605 62.4004 130.605 60.8008C130.605 57.793 134.133 55.9883 139.684 55.9883C145.18 55.9883 148.707 57.793 148.734 60.8008C148.721 62.4141 147.654 63.6719 145.809 64.4648V67.418H151.031ZM139.656 71.5195C145.043 71.5195 148.297 73.1055 148.324 75.9766C148.297 78.9023 145.043 80.4883 139.656 80.4883C134.188 80.4883 130.934 78.9023 130.934 75.9766C130.934 73.1055 134.188 71.5195 139.656 71.5195ZM139.656 74.1445C136.211 74.1445 134.461 74.7461 134.488 75.9766C134.461 77.2617 136.211 77.8906 139.656 77.8906C143.02 77.8906 144.797 77.2617 144.824 75.9766C144.797 74.7461 143.02 74.1445 139.656 74.1445ZM139.684 58.668C136.156 58.668 134.215 59.4062 134.242 60.8008C134.215 62.168 136.156 62.8516 139.684 62.8516C143.156 62.8516 145.125 62.168 145.125 60.8008C145.125 59.4062 143.156 58.668 139.684 58.668ZM136.977 67.418H142.336V65.3398C141.516 65.4355 140.627 65.4766 139.684 65.4766C138.713 65.4766 137.811 65.4355 136.977 65.3125V67.418ZM173.453 55.6328V80.5156H169.926V55.6328H173.453ZM165.988 58.2305C165.988 65.7773 163.336 72.0391 154.449 76.25L152.617 73.4609C159.043 70.4258 161.873 66.4883 162.434 60.9648H153.957V58.2305H165.988ZM196.477 55.6602V62.6602H199.84V65.5312H196.477V73.9805H192.977V55.6602H196.477ZM197.379 77.2891V80.0781H180.344V72.0938H183.816V77.2891H197.379ZM180.945 57.4102V61.0195H186.031V57.4102H189.531V70.0156H177.473V57.4102H180.945ZM180.945 67.2812H186.031V63.6992H180.945V67.2812ZM222.152 57.8477V60.6094H207.387V57.8477H213.047V55.4961H216.52V57.8477H222.152ZM214.77 61.4023C218.379 61.4023 220.895 63.2617 220.895 65.9961C220.895 68.7305 218.379 70.5898 214.77 70.5898C211.16 70.5898 208.59 68.7305 208.59 65.9961C208.59 63.2617 211.16 61.4023 214.77 61.4023ZM214.77 64.0273C213.102 64.0273 211.98 64.7109 212.008 65.9961C211.98 67.2539 213.102 67.9102 214.77 67.9102C216.438 67.9102 217.586 67.2539 217.586 65.9961C217.586 64.7109 216.438 64.0273 214.77 64.0273ZM227.129 55.6328V62.0859H230.492V64.9297H227.129V71.2461H223.629V55.6328H227.129ZM227.129 72.2852V80.5156H223.629V75.0742H210.367V72.2852H227.129ZM237.684 70.5625V72.668H247.938V70.5625H251.41V80.2422H234.238V70.5625H237.684ZM237.684 77.5078H247.938V75.3203H237.684V77.5078ZM254.281 66.4883V69.3047H231.586V66.4883H254.281ZM244.738 56.7266C244.738 59.2148 247.609 62.0312 253.16 62.6602L251.93 65.3945C247.637 64.8477 244.533 63.0703 242.934 60.6641C241.334 63.0703 238.217 64.8477 233.965 65.3945L232.707 62.6602C238.258 62.0039 241.129 59.2695 241.156 56.7266V55.8789H244.738V56.7266ZM264.973 62.4141C264.945 66.2148 266.969 70.5898 271.07 72.4766L269.129 75.2109C266.354 73.9395 264.371 71.3965 263.277 68.4023C262.156 71.6973 260.119 74.4863 257.234 75.8398L255.211 73.0781C259.367 71.1367 261.445 66.5156 261.473 62.4141V60.8828H256.195V58.0391H269.977V60.8828H264.973V62.4141ZM275.418 55.6328V65.1211H279.082V68.0469H275.418V80.5156H271.918V55.6328H275.418ZM300.957 55.6328V68.4297H297.484V65.9414H292.891V67.7188H281.051V56.6992H284.551V59.5977H289.445V56.6992H292.891V58.8047H297.484V55.6328H300.957ZM300.957 69.3594V76.0039H287.914V77.5078H301.695V80.2422H284.414V73.4609H297.484V72.0391H284.387V69.3594H300.957ZM284.551 64.9844H289.445V62.25H284.551V64.9844ZM292.891 63.3164H297.484V61.4023H292.891V63.3164ZM333.332 68.1016V70.8906H310.637V68.1016H320.234V65.6953H323.68V68.1016H333.332ZM323.68 55.7148V57.8477H331.145V60.6094H323.98C324.445 62.332 327.002 63.9316 332.32 64.2461L331.281 66.8984C326.688 66.5703 323.516 65.2305 321.957 63.2344C320.385 65.2305 317.213 66.5703 312.66 66.8984L311.594 64.2461C316.912 63.9316 319.441 62.332 319.934 60.6094H312.824V57.8477H320.234V55.7148H323.68ZM321.957 72.0664C327.398 72.0664 330.598 73.543 330.625 76.2773C330.598 79.0391 327.398 80.5156 321.957 80.5156C316.488 80.5156 313.234 79.0391 313.234 76.2773C313.234 73.543 316.488 72.0664 321.957 72.0664ZM321.957 74.6367C318.484 74.6367 316.762 75.1562 316.789 76.2773C316.762 77.4258 318.484 77.9453 321.957 77.9453C325.348 77.9453 327.098 77.4258 327.125 76.2773C327.098 75.1562 325.348 74.6367 321.957 74.6367ZM348.727 57.2734V60.0625H346.676V66.707C347.51 66.6387 348.33 66.5566 349.109 66.4609L349.246 69.0312C344.57 69.8242 339.129 69.9062 335.191 69.9062L334.836 67.0898C335.656 67.0898 336.559 67.0762 337.488 67.0625V60.0625H335.465V57.2734H348.727ZM355.809 55.6328V70.8359H352.336V67.1172H349.273V64.3281H352.336V62.4141H349.273V59.6797H352.336V55.6328H355.809ZM347.305 71.2188C352.664 71.2461 355.863 72.9141 355.891 75.8945C355.863 78.793 352.664 80.5156 347.305 80.5156C341.973 80.5156 338.746 78.793 338.746 75.8945C338.746 72.9141 341.973 71.2461 347.305 71.2188ZM347.305 73.8984C343.969 73.8984 342.219 74.5273 342.219 75.8945C342.219 77.207 343.969 77.8633 347.305 77.8633C350.641 77.8633 352.418 77.207 352.418 75.8945C352.418 74.5273 350.641 73.8984 347.305 73.8984ZM340.852 66.9805C341.672 66.9805 342.506 66.9395 343.34 66.8984V60.0625H340.852V66.9805Z" fill="#31343D"/>
<g opacity="0.6">
<path d="M487.61 103.051C487.61 102.099 487.989 101.187 488.661 100.514C489.334 99.8415 490.246 99.4633 491.198 99.4633C492.149 99.4634 493.061 99.8415 493.734 100.514C494.407 101.187 494.784 102.099 494.784 103.051C494.784 104.002 494.407 104.914 493.734 105.587C493.061 106.26 492.149 106.637 491.198 106.637C490.246 106.637 489.334 106.259 488.661 105.587C487.989 104.914 487.611 104.002 487.61 103.051ZM481.584 103.051C481.584 105.6 482.597 108.045 484.4 109.848C486.203 111.65 488.648 112.663 491.198 112.663C493.747 112.663 496.192 111.65 497.995 109.848C499.797 108.045 500.81 105.6 500.81 103.051C500.81 102.565 500.774 102.083 500.702 101.609L523.972 90.0173C523.982 90.027 523.99 90.0379 524 90.0475C525.803 91.8503 528.248 92.863 530.798 92.863C533.347 92.8629 535.792 91.8503 537.595 90.0475C539.397 88.2448 540.41 85.8 540.41 83.2505C540.41 80.701 539.397 78.2555 537.595 76.4527C535.792 74.65 533.347 73.6373 530.798 73.6372C528.248 73.6372 525.803 74.6499 524 76.4527C522.197 78.2555 521.184 80.701 521.184 83.2505C521.184 83.7127 521.219 84.1713 521.284 84.6234L497.976 96.2342C496.175 94.4431 493.738 93.4373 491.198 93.4372C488.648 93.4372 486.203 94.4499 484.4 96.2527C482.597 98.0555 481.584 100.501 481.584 103.051ZM534.384 83.2505C534.384 84.2018 534.007 85.1143 533.334 85.7869C532.661 86.4595 531.749 86.8369 530.798 86.8369C529.846 86.8369 528.934 86.4594 528.261 85.7869C527.589 85.1143 527.211 84.2018 527.21 83.2505C527.21 82.2992 527.589 81.3868 528.261 80.7142C528.934 80.0415 529.846 79.6633 530.798 79.6633C531.749 79.6634 532.661 80.0415 533.334 80.7142C534.007 81.3868 534.384 82.2993 534.384 83.2505Z" fill="#BEB9A6" fill-opacity="0.5"/>
<path d="M478 142.363V136.337H544L544 142.363H478Z" fill="#BEB9A6" fill-opacity="0.5"/>
<path d="M527.757 129.45C527.757 127.787 529.106 126.437 530.77 126.437H530.8C532.464 126.437 533.813 127.787 533.813 129.45C533.813 131.114 532.464 132.463 530.8 132.463H530.77C529.106 132.463 527.757 131.114 527.757 129.45Z" fill="#BEB9A6" fill-opacity="0.5"/>
<path d="M491.015 126.442L491.17 126.437H491.2C492.864 126.437 494.213 127.787 494.213 129.45C494.213 131.114 492.864 132.463 491.2 132.463H491.17L491.015 132.46C489.423 132.379 488.157 131.062 488.157 129.45C488.157 127.838 489.423 126.522 491.015 126.442Z" fill="#BEB9A6" fill-opacity="0.5"/>
<path d="M527.757 119.55C527.757 117.887 529.106 116.537 530.77 116.537H530.8C532.464 116.537 533.813 117.887 533.813 119.55C533.813 121.214 532.464 122.563 530.8 122.563H530.77C529.106 122.563 527.757 121.214 527.757 119.55Z" fill="#BEB9A6" fill-opacity="0.5"/>
<path d="M488.157 119.55C488.157 117.887 489.506 116.537 491.17 116.537H491.2C492.864 116.537 494.213 117.887 494.213 119.55C494.213 121.214 492.864 122.563 491.2 122.563H491.17C489.506 122.563 488.157 121.214 488.157 119.55Z" fill="#BEB9A6" fill-opacity="0.5"/>
<path d="M530.615 106.642L530.77 106.637H530.8C532.464 106.637 533.813 107.987 533.813 109.65C533.813 111.314 532.464 112.663 530.8 112.663H530.77L530.615 112.66C529.023 112.579 527.757 111.262 527.757 109.65C527.757 108.038 529.023 106.722 530.615 106.642Z" fill="#BEB9A6" fill-opacity="0.5"/>
<path d="M527.757 99.7503C527.757 98.0865 529.106 96.7375 530.77 96.7373H530.8C532.464 96.7375 533.813 98.0865 533.813 99.7503C533.813 101.414 532.464 102.763 530.8 102.763H530.77C529.106 102.763 527.757 101.414 527.757 99.7503Z" fill="#BEB9A6" fill-opacity="0.5"/>
</g>
<path d="M63.512 104.416V105.024C63.496 106.016 63.496 107.712 63.048 110.192C63.672 110.16 64.296 110.112 64.888 110.048L64.984 110.976C63.56 111.152 62.088 111.264 60.632 111.328V116.448H59.416V111.376C58.088 111.424 56.808 111.424 55.64 111.424L55.48 110.432C57.384 110.416 59.608 110.384 61.8 110.272C61.976 109.424 62.088 108.672 62.168 108L56.632 108.48L56.44 107.424L62.248 107.088C62.296 106.432 62.312 105.888 62.328 105.44H56.728V104.416H63.512ZM65.912 117.28V103.392H67.128V117.28H65.912ZM82.1081 114.4V115.424H69.4041V114.4H82.1081ZM70.0121 110.976C72.3641 110.592 75.1001 108.656 75.1001 106.432V105.792H70.4281V104.768H81.0201V105.792H76.3481V106.432C76.3641 108.656 79.1001 110.544 81.5001 110.944L80.9881 111.904C78.8761 111.488 76.6361 110.144 75.7401 108.224C74.8281 110.144 72.6041 111.536 70.5241 111.968L70.0121 110.976ZM99.8723 110.144V111.136H87.2323V110.144H99.8723ZM88.6083 106.368C88.6243 104.736 90.5283 103.728 93.5363 103.744C96.5603 103.728 98.4483 104.736 98.4323 106.368C98.4483 108.032 96.5603 109.008 93.5363 108.992C90.5283 109.008 88.6243 108.032 88.6083 106.368ZM88.7363 114.784C88.7523 113.2 90.5283 112.304 93.5363 112.32C96.5283 112.304 98.3203 113.2 98.3363 114.784C98.3203 116.384 96.5283 117.264 93.5363 117.28C90.5283 117.264 88.7523 116.384 88.7363 114.784ZM89.8883 106.368C89.8883 107.408 91.2963 108.032 93.5363 108.032C95.7763 108.032 97.2003 107.408 97.1843 106.368C97.2003 105.344 95.7763 104.72 93.5363 104.736C91.2963 104.72 89.8883 105.344 89.8883 106.368ZM89.9843 114.784C89.9843 115.744 91.3123 116.304 93.5363 116.288C95.7443 116.304 97.0883 115.744 97.0883 114.784C97.0883 113.808 95.7443 113.264 93.5363 113.248C91.3123 113.264 89.9843 113.808 89.9843 114.784ZM111.908 103.392V106.656H113.988V107.68H111.908V110.784H110.692V103.392H111.908ZM101.7 110.304V104.288H107.844V105.312H102.916V109.28C105.7 109.28 107.3 109.2 109.156 108.8L109.316 109.824C107.364 110.224 105.7 110.304 102.788 110.304H101.7ZM103.108 117.024V111.52H104.324V113.248H110.692V111.52H111.908V117.024H103.108ZM104.324 116.032H110.692V114.24H104.324V116.032ZM130.729 103.392V117.28H129.545V110.08H127.529V116.544H126.377V103.68H127.529V109.024H129.545V103.392H130.729ZM119.561 113.664V105.056H120.809V112.576C122.169 112.576 123.657 112.464 125.353 112.128L125.481 113.216C123.561 113.568 121.977 113.664 120.457 113.664H119.561ZM145.357 110.24V111.264H132.717V110.24H135.853V108.288C134.733 107.856 134.109 107.152 134.093 106.208C134.109 104.592 135.981 103.648 139.021 103.648C142.045 103.648 143.933 104.592 143.917 106.208C143.933 107.136 143.309 107.84 142.221 108.272V110.24H145.357ZM134.221 114.784C134.237 113.2 136.013 112.32 139.021 112.32C142.013 112.32 143.805 113.2 143.821 114.784C143.805 116.368 142.013 117.232 139.021 117.248C136.013 117.232 134.237 116.368 134.221 114.784ZM135.373 106.208C135.373 107.232 136.765 107.824 139.021 107.808C141.277 107.824 142.685 107.232 142.669 106.208C142.685 105.216 141.277 104.608 139.021 104.608C136.765 104.608 135.373 105.216 135.373 106.208ZM135.469 114.784C135.469 115.728 136.797 116.288 139.021 116.288C141.229 116.288 142.573 115.728 142.573 114.784C142.573 113.84 141.229 113.28 139.021 113.28C136.797 113.28 135.469 113.84 135.469 114.784ZM137.069 110.24H141.005V108.608C140.413 108.72 139.757 108.768 139.021 108.768C138.301 108.768 137.645 108.72 137.069 108.608V110.24ZM157.457 108.32V110.304H163.185V111.328H150.545V110.304H156.241V108.32H157.457ZM151.249 108.032C153.649 107.76 155.969 106.592 156.081 105.024H151.697V104.032H162.065V105.024H157.649C157.745 106.576 160.065 107.76 162.481 108.032L162.033 108.992C159.761 108.72 157.633 107.728 156.865 106.192C156.097 107.728 153.969 108.72 151.697 108.992L151.249 108.032ZM152.049 114.848C152.065 113.296 153.841 112.448 156.849 112.448C159.841 112.448 161.633 113.296 161.649 114.848C161.633 116.384 159.841 117.232 156.849 117.248C153.841 117.232 152.065 116.384 152.049 114.848ZM153.297 114.848C153.297 115.76 154.609 116.288 156.849 116.288C159.089 116.288 160.401 115.76 160.401 114.848C160.401 113.936 159.089 113.408 156.849 113.408C154.609 113.408 153.297 113.936 153.297 114.848ZM175.221 103.392V106.944H177.301V107.968H175.221V111.456H174.005V103.392H175.221ZM164.405 105.824V104.832H167.925V103.264H169.141V104.832H172.661V105.824H164.405ZM165.205 108.896C165.173 107.424 166.517 106.48 168.533 106.464C170.533 106.48 171.861 107.424 171.861 108.896C171.861 110.384 170.533 111.344 168.533 111.328C166.517 111.344 165.173 110.384 165.205 108.896ZM166.357 108.896C166.357 109.808 167.221 110.416 168.533 110.4C169.829 110.416 170.709 109.808 170.709 108.896C170.709 108.016 169.829 107.408 168.533 107.424C167.221 107.408 166.357 108.016 166.357 108.896ZM166.453 117.088V112.064H167.669V113.536H174.005V112.064H175.221V117.088H166.453ZM167.669 116.096H174.005V114.528H167.669V116.096ZM194.873 110.72V111.744H189.241V114.464H188.025V111.744H182.169V110.72H194.873ZM183.801 116.96V113.184H185.017V115.936H193.465V116.96H183.801ZM183.865 109.376V103.808H185.081V105.6H191.961V103.808H193.209V109.376H183.865ZM185.081 108.384H191.961V106.56H185.081V108.384ZM200.765 105.6C200.749 107.52 202.173 109.296 204.189 109.984L203.517 110.976C201.981 110.4 200.765 109.216 200.173 107.728C199.597 109.376 198.333 110.64 196.701 111.296L196.029 110.272C198.141 109.536 199.533 107.696 199.549 105.568V104.096H200.765V105.6ZM198.173 113.344V112.352H207.517V117.28H206.301V113.344H198.173ZM203.197 107.328V106.304H206.301V103.392H207.517V111.584H206.301V107.328H203.197Z" fill="#31343D"/>
</g>
<defs>
<filter id="filter0_d_5551_32488" x="0" y="0" width="574" height="172" filterUnits="userSpaceOnUse" color-interpolation-filters="sRGB">
<feFlood flood-opacity="0" result="BackgroundImageFix"/>
<feColorMatrix in="SourceAlpha" type="matrix" values="0 0 0 0 0 0 0 0 0 0 0 0 0 0 0 0 0 0 127 0" result="hardAlpha"/>
<feOffset dy="2"/>
<feGaussianBlur stdDeviation="7.5"/>
<feComposite in2="hardAlpha" operator="out"/>
<feColorMatrix type="matrix" values="0 0 0 0 0.487049 0 0 0 0 0.551844 0 0 0 0 0.691667 0 0 0 0.25 0"/>
<feBlend mode="normal" in2="BackgroundImageFix" result="effect1_dropShadow_5551_32488"/>
<feBlend mode="normal" in="SourceGraphic" in2="effect1_dropShadow_5551_32488" result="shape"/>
</filter>
<linearGradient id="paint0_linear_5551_32488" x1="15" y1="13" x2="512.823" y2="251.418" gradientUnits="userSpaceOnUse">
<stop stop-color="white"/>
<stop offset="1" stop-color="#FFFCF5" stop-opacity="0.5"/>
</linearGradient>
</defs>
</svg>
