<svg width="574" height="172" viewBox="0 0 574 172" fill="none" xmlns="http://www.w3.org/2000/svg">
<g filter="url(#filter0_d_5551_32506)">
<rect x="15" y="13" width="544" height="142" rx="20" fill="white"/>
<rect x="15" y="13" width="544" height="142" rx="20" fill="url(#paint0_linear_5551_32506)"/>
<path d="M75.4805 55.6328V61.4844H78.8438V64.3281H75.4805V70.0703H71.9805V55.6328H75.4805ZM68.5352 57.2734C68.5625 63.918 64.3789 68.5664 56.9688 70.6172L55.5742 67.8008C61.0566 66.3379 64.2012 63.5215 64.7344 60.0625H56.75V57.2734H68.5352ZM67.3594 70.3711C72.418 70.3711 75.7539 72.3398 75.7539 75.457C75.7539 78.6016 72.418 80.543 67.3594 80.543C62.3008 80.543 58.9102 78.6016 58.9375 75.457C58.9102 72.3398 62.3008 70.3711 67.3594 70.3711ZM67.3594 73.0781C64.2148 73.0781 62.3555 73.9258 62.3828 75.457C62.3555 76.9609 64.2148 77.8359 67.3594 77.8086C70.4492 77.8359 72.3086 76.9609 72.3086 75.457C72.3086 73.9258 70.4492 73.0781 67.3594 73.0781ZM88.0039 57.3008C91.9414 57.2734 94.8945 59.8438 94.8945 63.3984C94.8945 66.9805 91.9414 69.5234 88.0039 69.5234C84.0664 69.5234 81.0859 66.9805 81.0859 63.3984C81.0859 59.8438 84.0664 57.2734 88.0039 57.3008ZM88.0039 60.3086C86.0352 60.3086 84.5312 61.457 84.5586 63.3984C84.5312 65.3672 86.0352 66.4883 88.0039 66.4883C89.9727 66.4883 91.4766 65.3672 91.5039 63.3984C91.4766 61.457 90 60.3086 88.0039 60.3086ZM100.855 55.6328V80.5703H97.3828V55.6328H100.855ZM80.0469 72.6406C84.4766 72.668 90.6289 72.5859 95.9609 71.8477L96.2344 74.3633C90.7109 75.4297 84.8047 75.4844 80.457 75.4844L80.0469 72.6406ZM113.324 62.4141C113.297 66.2148 115.32 70.5898 119.422 72.4766L117.48 75.2109C114.705 73.9395 112.723 71.3965 111.629 68.4023C110.508 71.6973 108.471 74.4863 105.586 75.8398L103.562 73.0781C107.719 71.1367 109.797 66.5156 109.824 62.4141V60.8828H104.547V58.0391H118.328V60.8828H113.324V62.4141ZM123.77 55.6328V65.1211H127.434V68.0469H123.77V80.5156H120.27V55.6328H123.77ZM151.113 74.8828V77.7539H128.336V74.8828H134.16V71.082H130.961V62.7148H145.043V60.0352H130.934V57.2461H148.488V65.5039H134.461V68.2656H149.062V71.082H145.535V74.8828H151.113ZM137.551 74.8828H142.117V71.082H137.551V74.8828ZM180.453 55.6328V80.5156H177.09V67.8555H174.82V79.4219H171.566V56.2891H174.82V65.0664H177.09V55.6328H180.453ZM169.816 58.6953C169.789 65.6406 167.711 71.3281 160.711 75.4023L158.688 72.9961C163.76 70.0156 165.934 66.3652 166.426 61.4844H159.945V58.6953H169.816ZM192.512 59.8984C192.512 63.125 194.234 66.3242 198.199 67.6367L196.312 70.3711C193.674 69.4004 191.855 67.5684 190.816 65.2578C189.736 67.8555 187.795 69.9062 184.91 70.9453L183.023 68.2109C187.18 66.8438 188.984 63.4258 188.984 59.8711V57.1641H192.512V59.8984ZM204.16 55.6602V74.0352H200.688V63.7539H196.012V60.9375H200.688V55.6602H204.16ZM204.68 77.2891V80.0781H187.59V72.0938H191.117V77.2891H204.68ZM216.547 61.2656C216.52 65.7227 218.434 70.2344 222.426 72.1484L220.32 74.9375C217.654 73.625 215.863 71.1641 214.824 68.1562C213.744 71.3828 211.816 74.0215 209 75.4023L206.84 72.5859C211.051 70.6445 213.047 65.8867 213.047 61.2656V57.5469H216.547V61.2656ZM227.02 55.6328V65.2305H230.684V68.1836H227.02V80.5156H223.52V55.6328H227.02ZM251.328 55.6328V62.0039H254.691V64.9023H251.328V71.4375H247.828V55.6328H251.328ZM243.207 71.6562C248.32 71.6562 251.602 73.3242 251.602 76.1133C251.602 78.8477 248.32 80.5156 243.207 80.5156C237.984 80.5156 234.758 78.8477 234.785 76.1133C234.758 73.3242 237.984 71.6562 243.207 71.6562ZM243.207 74.3086C239.953 74.3086 238.203 74.8828 238.23 76.1133C238.203 77.2891 239.953 77.918 243.207 77.918C246.379 77.918 248.102 77.2891 248.102 76.1133C248.102 74.8828 246.379 74.3086 243.207 74.3086ZM246.352 58.0117V60.7188H231.586V58.0117H237.246V55.4961H240.719V58.0117H246.352ZM238.969 61.5664C242.578 61.5664 245.094 63.3984 245.094 66.0508C245.094 68.7305 242.578 70.5078 238.969 70.5078C235.305 70.5078 232.789 68.7305 232.789 66.0508C232.789 63.3984 235.305 61.5664 238.969 61.5664ZM238.969 64.1094C237.301 64.1094 236.18 64.793 236.207 66.0508C236.18 67.2812 237.301 67.9375 238.969 67.9102C240.637 67.9375 241.785 67.2812 241.785 66.0508C241.785 64.793 240.637 64.1094 238.969 64.1094ZM282.527 66.7617V69.5234H275.309V74.8281H285.016V77.6719H262.238V74.8281H271.836V69.5234H264.918V57.3828H282.336V60.1719H268.418V66.7617H282.527ZM309.078 66.2422V68.7852H299.508V70.3438H306.371V76.4141H292.508V77.7812H307.027V80.3516H289.09V74.0625H302.926V72.832H289.062V70.3438H296.035V68.7852H286.492V66.2422H309.078ZM299.48 55.6055V57.5742H306.945V60.1445H299.918C300.602 61.5938 303.145 62.7832 308.176 62.9883L307.164 65.5586C302.543 65.3398 299.344 64.1641 297.758 62.2773C296.186 64.1641 292.973 65.3398 288.324 65.5586L287.367 62.9883C292.357 62.7832 294.887 61.5938 295.598 60.1445H288.625V57.5742H296.035V55.6055H299.48Z" fill="#31343D"/>
<path d="M489.482 104.774C481.415 104.774 474.962 111.227 474.962 119.294C474.962 122.133 475.768 124.812 477.188 127.038L467.25 137.041L471.735 141.526L481.802 131.62C484.029 133.007 486.675 133.814 489.482 133.814C497.548 133.814 504.002 127.361 504.002 119.294C504.002 111.227 497.548 104.774 489.482 104.774ZM489.482 127.361C487.342 127.361 485.291 126.511 483.778 124.998C482.265 123.485 481.415 121.433 481.415 119.294C481.415 117.155 482.265 115.103 483.778 113.59C485.291 112.077 487.342 111.227 489.482 111.227C491.621 111.227 493.673 112.077 495.186 113.59C496.699 115.103 497.548 117.155 497.548 119.294C497.548 121.433 496.699 123.485 495.186 124.998C493.673 126.511 491.621 127.361 489.482 127.361Z" fill="#B6C8CA" fill-opacity="0.3"/>
<path d="M539.494 130.587V85.4133C539.494 83.7018 538.815 82.0603 537.604 80.8501C536.394 79.6399 534.753 78.96 533.041 78.96H474.961C471.412 78.96 468.508 81.864 468.508 85.4133V119.293C468.508 113.356 470.992 108 474.961 104.192V85.4133H507.228V98.32H533.041V130.587H507.131C505.453 133.2 503.227 135.427 500.613 137.04H533.041C536.623 137.04 539.494 134.168 539.494 130.587Z" fill="#B6C8CA" fill-opacity="0.3"/>
<path d="M67.448 103.392V117.28H66.264V103.392H67.448ZM56.12 113.92V105.088H61.336V106.112H57.304V112.896C59.304 112.88 60.568 112.8 62.072 112.48L62.168 113.504C60.584 113.84 59.224 113.904 56.984 113.92H56.12ZM60.408 109.728V108.672H63.448V103.712H64.6V116.544H63.448V109.728H60.408ZM80.8281 103.392V117.28H79.6121V103.392H80.8281ZM69.9161 109.28C69.9161 106.336 71.3881 104.464 73.4681 104.448C75.5161 104.464 77.0041 106.336 77.0201 109.28C77.0041 112.256 75.5161 114.128 73.4681 114.144C71.3881 114.128 69.9161 112.256 69.9161 109.28ZM71.1001 109.28C71.1001 111.552 72.0601 113.04 73.4681 113.024C74.8441 113.04 75.8041 111.552 75.8041 109.28C75.8041 107.04 74.8441 105.552 73.4681 105.536C72.0601 105.552 71.1001 107.04 71.1001 109.28ZM94.7203 103.392V117.28H93.5043V109.632H90.5923V108.64H93.5043V103.392H94.7203ZM83.8723 113.952V104.64H90.3363V105.664H85.0883V108.576H89.7283V109.568H85.0883V112.928C87.6323 112.912 89.2803 112.848 91.2003 112.512L91.3283 113.504C89.3123 113.84 87.6003 113.936 84.9283 113.952H83.8723ZM112.516 103.392V117.28H111.3V103.392H112.516ZM101.22 113.664C104.98 111.872 106.9 109.2 107.172 105.888H101.86V104.896H108.42C108.404 108.88 106.548 112.416 101.892 114.656L101.22 113.664ZM125.737 103.392V107.584H127.817V108.64H125.737V113.6H124.521V103.392H125.737ZM115.465 111.264V104.384H116.681V106.72H120.713V104.384H121.929V111.264H115.465ZM116.681 110.24H120.713V107.712H116.681V110.24ZM117.033 116.96V112.608H118.249V115.936H126.377V116.96H117.033ZM143.565 103.392V107.008H145.645V108H143.565V111.712H142.349V103.392H143.565ZM132.717 110.752C136.061 109.76 138.205 107.84 138.445 105.44H133.325V104.416H139.789C139.773 107.952 137.277 110.544 133.229 111.744L132.717 110.752ZM134.637 114.56C134.621 112.88 136.413 111.872 139.181 111.872C141.965 111.872 143.725 112.88 143.725 114.56C143.725 116.24 141.965 117.232 139.181 117.248C136.413 117.232 134.621 116.24 134.637 114.56ZM135.853 114.56C135.837 115.584 137.133 116.256 139.181 116.256C141.213 116.256 142.525 115.584 142.541 114.56C142.525 113.504 141.213 112.848 139.181 112.864C137.133 112.848 135.837 113.504 135.853 114.56ZM151.089 104.384C153.265 104.4 154.801 105.728 154.833 107.648C154.801 109.584 153.265 110.912 151.089 110.912C148.881 110.912 147.313 109.584 147.313 107.648C147.313 105.728 148.881 104.4 151.089 104.384ZM146.609 113.184C149.169 113.2 152.705 113.168 155.793 112.704L155.889 113.632C152.705 114.224 149.281 114.24 146.769 114.24L146.609 113.184ZM148.529 107.648C148.529 108.944 149.601 109.84 151.089 109.856C152.545 109.84 153.617 108.944 153.617 107.648C153.617 106.368 152.545 105.472 151.089 105.472C149.601 105.472 148.529 106.368 148.529 107.648ZM156.689 117.28V103.392H157.937V117.28H156.689ZM177.013 110.112V111.104H171.285V112.736H175.477V117.088H165.909V112.736H170.069V111.104H164.373V110.112H177.013ZM165.557 104.832V103.84H175.797V104.832H173.685V107.776H175.765V108.8H165.589V107.776H167.701V104.832H165.557ZM167.125 116.064H174.261V113.728H167.125V116.064ZM168.917 107.776H172.437V104.832H168.917V107.776ZM189.625 103.392V110.592H188.441V103.392H189.625ZM178.393 109.632C180.457 108.944 181.945 107.248 181.945 105.344V105.184H178.713V104.192H186.393V105.184H183.193V105.344C183.193 107.152 184.681 108.736 186.777 109.344L186.169 110.304C184.521 109.792 183.209 108.688 182.585 107.264C181.993 108.832 180.665 110.032 178.969 110.592L178.393 109.632ZM180.633 112.224V111.264H189.657V114.56H181.849V116.128H190.169V117.12H180.665V113.664H188.441V112.224H180.633ZM208.925 105.824V106.816H206.877V108.736H208.925V109.792H206.877V112.352H205.661V103.392H206.877V105.824H208.925ZM196.061 105.952V104.96H199.581V103.264H200.797V104.96H204.317V105.952H196.061ZM196.861 109.12C196.829 107.632 198.173 106.656 200.189 106.656C202.189 106.656 203.517 107.632 203.517 109.12C203.517 110.608 202.189 111.568 200.189 111.552C198.173 111.568 196.829 110.608 196.861 109.12ZM197.949 114.848C197.933 113.328 199.645 112.448 202.493 112.448C205.309 112.448 207.037 113.328 207.037 114.848C207.037 116.352 205.309 117.232 202.493 117.248C199.645 117.232 197.933 116.352 197.949 114.848ZM198.013 109.12C198.013 110.016 198.877 110.608 200.189 110.592C201.485 110.608 202.365 110.016 202.365 109.12C202.365 108.192 201.485 107.584 200.189 107.584C198.877 107.584 198.013 108.192 198.013 109.12ZM199.165 114.848C199.149 115.744 200.397 116.288 202.493 116.288C204.557 116.288 205.821 115.744 205.821 114.848C205.821 113.92 204.557 113.408 202.493 113.408C200.397 113.408 199.149 113.92 199.165 114.848ZM214.497 105.632C214.481 107.52 215.921 109.248 217.921 109.92L217.281 110.912C215.745 110.352 214.513 109.2 213.921 107.744C213.329 109.392 212.081 110.672 210.465 111.296L209.793 110.304C211.873 109.536 213.265 107.68 213.281 105.536V104.096H214.497V105.632ZM211.649 114.72C211.649 113.12 213.393 112.192 216.257 112.192C219.105 112.192 220.833 113.12 220.833 114.72C220.833 116.32 219.105 117.232 216.257 117.248C213.393 117.232 211.649 116.32 211.649 114.72ZM212.865 114.72C212.865 115.696 214.161 116.256 216.257 116.256C218.353 116.256 219.633 115.696 219.649 114.72C219.633 113.76 218.353 113.168 216.257 113.184C214.161 113.168 212.865 113.76 212.865 114.72ZM219.489 111.84V103.392H220.705V107.008H222.785V108.032H220.705V111.84H219.489ZM232.645 107.648C232.645 110 234.357 112.4 236.389 113.28L235.717 114.24C234.085 113.52 232.693 111.92 232.037 110C231.397 112.032 229.989 113.792 228.389 114.592L227.685 113.632C229.669 112.672 231.397 110.048 231.397 107.648V105.824H228.133V104.8H235.941V105.824H232.645V107.648ZM237.893 117.28V103.392H239.109V117.28H237.893ZM252.938 103.392V113.952H251.722V112.512H248.842V111.616H251.722V103.392H252.938ZM241.418 109.824C244.01 109.808 247.498 109.792 250.474 109.408L250.538 110.304C249.306 110.512 248.01 110.64 246.73 110.704V113.472H245.514V110.768C244.106 110.816 242.746 110.816 241.578 110.816L241.418 109.824ZM242.538 106.368C242.538 104.912 243.93 103.952 245.994 103.968C248.026 103.952 249.418 104.912 249.418 106.368C249.418 107.856 248.026 108.784 245.994 108.8C243.93 108.784 242.538 107.856 242.538 106.368ZM243.434 116.96V112.896H244.65V115.936H253.29V116.96H243.434ZM243.722 106.368C243.706 107.28 244.634 107.872 245.994 107.872C247.306 107.872 248.234 107.28 248.266 106.368C248.234 105.488 247.306 104.88 245.994 104.896C244.634 104.88 243.706 105.488 243.722 106.368Z" fill="#31343D"/>
</g>
<defs>
<filter id="filter0_d_5551_32506" x="0" y="0" width="574" height="172" filterUnits="userSpaceOnUse" color-interpolation-filters="sRGB">
<feFlood flood-opacity="0" result="BackgroundImageFix"/>
<feColorMatrix in="SourceAlpha" type="matrix" values="0 0 0 0 0 0 0 0 0 0 0 0 0 0 0 0 0 0 127 0" result="hardAlpha"/>
<feOffset dy="2"/>
<feGaussianBlur stdDeviation="7.5"/>
<feComposite in2="hardAlpha" operator="out"/>
<feColorMatrix type="matrix" values="0 0 0 0 0.487049 0 0 0 0 0.551844 0 0 0 0 0.691667 0 0 0 0.25 0"/>
<feBlend mode="normal" in2="BackgroundImageFix" result="effect1_dropShadow_5551_32506"/>
<feBlend mode="normal" in="SourceGraphic" in2="effect1_dropShadow_5551_32506" result="shape"/>
</filter>
<linearGradient id="paint0_linear_5551_32506" x1="15" y1="13" x2="512.823" y2="251.418" gradientUnits="userSpaceOnUse">
<stop stop-color="white"/>
<stop offset="1" stop-color="#F8FFFF" stop-opacity="0.5"/>
</linearGradient>
</defs>
</svg>
