<svg width="574" height="172" viewBox="0 0 574 172" fill="none" xmlns="http://www.w3.org/2000/svg">
<g filter="url(#filter0_d_5551_32481)">
<rect x="15" y="13" width="544" height="142" rx="20" fill="white"/>
<rect x="15" y="13" width="544" height="142" rx="20" fill="url(#paint0_linear_5551_32481)"/>
<path d="M65.3906 62.4141C65.3906 66.4336 67.4414 70.7266 71.625 72.4766L69.7383 75.2109C66.7988 73.9668 64.7754 71.4922 63.668 68.457C62.5332 71.752 60.4688 74.4863 57.543 75.8398L55.5469 73.0781C59.6758 71.2461 61.8086 66.625 61.8086 62.4141V60.8828H56.5312V58.0391H70.5859V60.8828H65.3906V62.4141ZM76.5742 55.6328V80.5156H73.0469V55.6328H76.5742ZM100.227 66.7617V69.5234H93.0078V74.8281H102.715V77.6719H79.9375V74.8281H89.5352V69.5234H82.6172V57.3828H100.035V60.1719H86.1172V66.7617H100.227ZM124.781 57.793V60.2266C124.754 63.2617 124.754 66.6797 123.852 71.6836L120.434 71.3828C121.254 66.8301 121.281 63.4395 121.281 60.5547H106.379V57.793H124.781ZM126.832 74.6367V77.4805H104.137V74.6367H108.977V66.8164H112.449V74.6367H115.184V66.8164H118.629V74.6367H126.832ZM141.543 57.5742C141.543 60.5 144.523 63.7539 150.238 64.4648L148.871 67.2812C144.523 66.6523 141.338 64.6426 139.711 61.9492C138.07 64.6426 134.912 66.6523 130.605 67.2812L129.211 64.4648C134.871 63.7539 137.879 60.5 137.879 57.5742V56.3711H141.543V57.5742ZM151.031 69.168V72.0117H141.352V80.5156H137.906V72.0117H128.336V69.168H151.031ZM161.723 62.4141C161.695 66.2148 163.719 70.5898 167.82 72.4766L165.879 75.2109C163.104 73.9395 161.121 71.3965 160.027 68.4023C158.906 71.6973 156.869 74.4863 153.984 75.8398L151.961 73.0781C156.117 71.1367 158.195 66.5156 158.223 62.4141V60.8828H152.945V58.0391H166.727V60.8828H161.723V62.4141ZM172.168 55.6328V65.1211H175.832V68.0469H172.168V80.5156H168.668V55.6328H172.168ZM196.039 57.6562V59.543H200.688V55.6602H204.16V73.7617H200.688V67.6641H196.039V69.7695H184.227V57.6562H196.039ZM187.699 60.418V67.0625H192.621V60.418H187.699ZM204.68 77.2891V80.0781H187.59V72.0391H191.117V77.2891H204.68ZM196.039 64.9023H200.688V62.3594H196.039V64.9023ZM227.129 55.6328V61.2383H230.492V64.1094H227.129V69.6055H223.629V55.6328H227.129ZM219.445 57.1914V59.9531H211.844V65.8867C216.342 65.8594 218.816 65.6953 221.605 65.1211L221.961 67.8555C218.844 68.5664 215.973 68.6758 210.449 68.6758H208.344V57.1914H219.445ZM227.129 70.6445V80.2148H210.859V70.6445H227.129ZM214.305 73.4062V77.4805H223.684V73.4062H214.305ZM240.773 62.4141C240.746 66.2148 242.77 70.5898 246.871 72.4766L244.93 75.2109C242.154 73.9395 240.172 71.3965 239.078 68.4023C237.957 71.6973 235.92 74.4863 233.035 75.8398L231.012 73.0781C235.168 71.1367 237.246 66.5156 237.273 62.4141V60.8828H231.996V58.0391H245.777V60.8828H240.773V62.4141ZM251.219 55.6328V65.1211H254.883V68.0469H251.219V80.5156H247.719V55.6328H251.219ZM278.562 74.8828V77.7539H255.785V74.8828H261.609V71.082H258.41V62.7148H272.492V60.0352H258.383V57.2461H275.938V65.5039H261.91V68.2656H276.512V71.082H272.984V74.8828H278.562ZM265 74.8828H269.566V71.082H265V74.8828ZM294.395 60.0625C294.395 62.7422 295.789 65.4219 299.098 66.6797L297.238 69.332C295.119 68.5254 293.656 67.0488 292.754 65.2031C291.852 67.3633 290.293 69.168 287.969 70.125L286.082 67.4453C289.582 65.9141 291.004 62.8516 291.004 60.0625V57.1367H294.395V60.0625ZM307.82 55.6602V70.8633H304.512V64.5469H302.434V70.0977H299.18V56.0977H302.434V61.7305H304.512V55.6602H307.82ZM299.316 71.2188C304.566 71.2188 307.93 72.9688 307.957 75.8672C307.93 78.7656 304.566 80.5156 299.316 80.5156C294.039 80.5156 290.703 78.7656 290.703 75.8672C290.703 72.9688 294.039 71.2188 299.316 71.2188ZM299.316 73.8164C296.062 73.8164 294.176 74.5273 294.203 75.8672C294.176 77.207 296.062 77.8906 299.316 77.8906C302.543 77.8906 304.43 77.207 304.43 75.8672C304.43 74.5273 302.543 73.8164 299.316 73.8164ZM320.043 59.0234C320.016 62.3594 321.738 65.4219 325.73 66.6523L323.898 69.3867C321.219 68.457 319.4 66.7344 318.375 64.4922C317.254 67.0898 315.244 69.1406 312.25 70.1523L310.418 67.3633C314.684 65.9961 316.488 62.6602 316.516 59.1875V56.918H320.043V59.0234ZM331.609 55.6328V70.207H328.137V63.043H323.461V60.1992H328.137V55.6328H331.609ZM323.105 70.8633C328.41 70.8633 331.664 72.6406 331.691 75.7031C331.664 78.7656 328.41 80.5156 323.105 80.5156C317.801 80.5156 314.547 78.7656 314.547 75.7031C314.547 72.6406 317.801 70.8633 323.105 70.8633ZM323.105 73.5703C319.797 73.5703 318.02 74.2812 318.02 75.7031C318.02 77.0703 319.797 77.8086 323.105 77.8086C326.414 77.8086 328.219 77.0703 328.219 75.7031C328.219 74.2812 326.414 73.5703 323.105 73.5703Z" fill="#31343D"/>
<g clip-path="url(#clip0_5551_32481)">
<path d="M475.73 92.1102H521.198V99.5806H475.73V92.1102ZM475.73 84.6398H521.198V77.1694H475.73V84.6398ZM475.73 114.521H506.036V107.051H475.73V114.521Z" fill="#BDACAC" fill-opacity="0.3"/>
<path d="M536.183 102.567L531.013 107.737L538.787 115.511L543.957 110.341L536.183 102.567Z" fill="#BDACAC" fill-opacity="0.3"/>
<path d="M508.977 129.774L528.41 110.341L536.183 118.114L516.75 137.547H508.977V129.774Z" fill="#BDACAC" fill-opacity="0.3"/>
</g>
<path d="M60.056 104.672V116H58.648V106.144H58.584L55.832 107.968V106.56L58.648 104.672H60.056ZM64.0636 116.096C63.5036 116.096 63.0396 115.632 63.0396 115.072C63.0396 114.528 63.5036 114.08 64.0636 114.08C64.6076 114.08 65.0556 114.528 65.0556 115.072C65.0556 115.632 64.6076 116.096 64.0636 116.096ZM63.0396 108.8C63.0396 108.256 63.5036 107.808 64.0636 107.808C64.6076 107.808 65.0556 108.256 65.0556 108.8C65.0556 109.36 64.6076 109.824 64.0636 109.824C63.5036 109.824 63.0396 109.36 63.0396 108.8ZM71.1341 104.672V116H69.7261V106.144H69.6621L66.9101 107.968V106.56L69.7261 104.672H71.1341ZM84.6778 104.608V105.824H87.9418V103.392H89.1578V113.536H87.9418V109.824H84.6778V111.072H78.3098V104.608H84.6778ZM79.5258 110.08H83.4938V105.6H79.5258V110.08ZM80.1978 116.96V112.608H81.4138V115.936H89.4778V116.96H80.1978ZM84.6778 108.8H87.9418V106.848H84.6778V108.8ZM102.346 103.392V106.784H104.426V107.808H102.346V111.264H101.13V103.392H102.346ZM92.1379 110.432V104.32H98.2819V105.312H93.3539V109.44C96.1379 109.44 97.7379 109.344 99.5939 108.96L99.7539 109.952C97.8019 110.368 96.1379 110.448 93.2259 110.432H92.1379ZM93.5779 117.056V112H102.346V117.056H93.5779ZM94.7939 116.064H101.13V112.992H94.7939V116.064ZM117.966 110.24V111.264H105.326V110.24H108.462V108.288C107.342 107.856 106.718 107.152 106.702 106.208C106.718 104.592 108.59 103.648 111.63 103.648C114.654 103.648 116.542 104.592 116.526 106.208C116.542 107.136 115.918 107.84 114.83 108.272V110.24H117.966ZM106.83 114.784C106.846 113.2 108.622 112.32 111.63 112.32C114.622 112.32 116.414 113.2 116.43 114.784C116.414 116.368 114.622 117.232 111.63 117.248C108.622 117.232 106.846 116.368 106.83 114.784ZM107.982 106.208C107.982 107.232 109.374 107.824 111.63 107.808C113.886 107.824 115.294 107.232 115.278 106.208C115.294 105.216 113.886 104.608 111.63 104.608C109.374 104.608 107.982 105.216 107.982 106.208ZM108.078 114.784C108.078 115.728 109.406 116.288 111.63 116.288C113.838 116.288 115.182 115.728 115.182 114.784C115.182 113.84 113.838 113.28 111.63 113.28C109.406 113.28 108.078 113.84 108.078 114.784ZM109.678 110.24H113.614V108.608C113.022 108.72 112.366 108.768 111.63 108.768C110.91 108.768 110.254 108.72 109.678 108.608V110.24ZM135.858 114.464V115.488H123.154V114.464H126.29V110.704C125.106 110.096 124.386 109.088 124.402 107.84C124.386 105.68 126.498 104.272 129.458 104.256C132.434 104.272 134.546 105.68 134.546 107.84C134.546 109.072 133.842 110.064 132.69 110.672V114.464H135.858ZM125.586 107.84C125.57 109.376 127.186 110.416 129.458 110.432C131.73 110.416 133.362 109.376 133.362 107.84C133.362 106.272 131.73 105.248 129.458 105.248C127.186 105.248 125.57 106.272 125.586 107.84ZM127.506 114.464H131.474V111.152C130.866 111.312 130.194 111.392 129.458 111.392C128.754 111.392 128.098 111.312 127.506 111.168V114.464ZM149.878 105.536V106.528H147.83V108.48H149.878V109.536H147.83V111.648H146.614V103.392H147.83V105.536H149.878ZM137.238 107.488C137.222 105.552 138.774 104.208 140.886 104.224C142.998 104.208 144.518 105.552 144.534 107.488C144.518 109.44 142.998 110.768 140.886 110.784C138.774 110.768 137.222 109.44 137.238 107.488ZM138.454 107.488C138.422 108.816 139.462 109.728 140.886 109.728C142.294 109.728 143.318 108.816 143.35 107.488C143.318 106.176 142.294 105.264 140.886 105.28C139.462 105.264 138.422 106.176 138.454 107.488ZM138.742 113.28V112.288H147.83V117.28H146.614V113.28H138.742ZM159.482 107.648C159.482 109.872 161.098 112.32 163.098 113.28L162.394 114.24C160.842 113.488 159.514 111.84 158.906 109.968C158.266 112 156.858 113.792 155.29 114.592L154.554 113.632C156.57 112.656 158.282 110.016 158.298 107.648V105.824H155.066V104.8H162.618V105.824H159.482V107.648ZM164.314 117.28V103.392H165.562V108.992H167.866V110.048H165.562V117.28H164.314ZM181.343 114.496V115.552H168.639V114.496H172.191V111.872H170.207V107.584H178.527V105.44H170.174V104.416H179.743V108.608H171.423V110.848H180.063V111.872H177.887V114.496H181.343ZM173.407 114.496H176.671V111.872H173.407V114.496ZM191.139 107.648C191.139 109.872 192.755 112.32 194.755 113.28L194.051 114.24C192.499 113.488 191.171 111.84 190.563 109.968C189.923 112 188.515 113.792 186.947 114.592L186.211 113.632C188.227 112.656 189.939 110.016 189.955 107.648V105.824H186.723V104.8H194.275V105.824H191.139V107.648ZM195.971 117.28V103.392H197.219V108.992H199.523V110.048H197.219V117.28H195.971ZM212.967 110.24V111.232H200.295V110.24H206.023V108.608H201.895V104.032H211.367V105.024H203.111V107.616H211.463V108.608H207.207V110.24H212.967ZM201.799 114.752C201.815 113.168 203.607 112.256 206.599 112.256C209.591 112.256 211.383 113.168 211.399 114.752C211.383 116.352 209.591 117.248 206.599 117.248C203.607 117.248 201.815 116.352 201.799 114.752ZM203.047 114.752C203.047 115.728 204.375 116.288 206.599 116.288C208.807 116.288 210.151 115.728 210.151 114.752C210.151 113.792 208.807 113.216 206.599 113.216C204.375 113.216 203.047 113.792 203.047 114.752ZM222.251 106.144C222.251 107.68 223.323 109.232 225.131 109.888L224.459 110.848C223.115 110.336 222.171 109.328 221.675 108.128C221.163 109.456 220.171 110.64 218.795 111.232L218.123 110.272C219.963 109.488 221.067 107.696 221.067 106.144V104.256H222.251V106.144ZM220.651 114.752C220.635 113.2 222.427 112.272 225.323 112.288C228.187 112.272 229.979 113.2 229.963 114.752C229.979 116.32 228.187 117.232 225.323 117.248C222.427 117.232 220.635 116.32 220.651 114.752ZM221.867 114.752C221.851 115.712 223.179 116.288 225.323 116.288C227.419 116.288 228.747 115.712 228.747 114.752C228.747 113.808 227.419 113.232 225.323 113.216C223.179 113.232 221.851 113.808 221.867 114.752ZM225.739 111.52V103.648H226.891V107.136H228.747V103.392H229.899V111.968H228.747V108.128H226.891V111.52H225.739ZM236.719 105.568C236.703 107.552 238.111 109.296 240.175 109.984L239.471 110.944C237.935 110.368 236.735 109.232 236.127 107.776C235.535 109.44 234.271 110.736 232.591 111.36L231.919 110.368C234.063 109.616 235.487 107.76 235.503 105.6V104.192H236.719V105.568ZM234.191 114.656C234.175 112.976 235.951 112.016 238.831 112C241.727 112.016 243.503 112.976 243.503 114.656C243.503 116.304 241.727 117.232 238.831 117.248C235.951 117.232 234.175 116.304 234.191 114.656ZM235.407 114.656C235.391 115.648 236.719 116.256 238.831 116.256C240.959 116.256 242.287 115.648 242.287 114.656C242.287 113.6 240.959 112.976 238.831 112.992C236.719 112.976 235.391 113.6 235.407 114.656ZM239.119 107.36V106.368H242.223V103.392H243.439V111.616H242.223V107.36H239.119Z" fill="#31343D"/>
</g>
<defs>
<filter id="filter0_d_5551_32481" x="0" y="0" width="574" height="172" filterUnits="userSpaceOnUse" color-interpolation-filters="sRGB">
<feFlood flood-opacity="0" result="BackgroundImageFix"/>
<feColorMatrix in="SourceAlpha" type="matrix" values="0 0 0 0 0 0 0 0 0 0 0 0 0 0 0 0 0 0 127 0" result="hardAlpha"/>
<feOffset dy="2"/>
<feGaussianBlur stdDeviation="7.5"/>
<feComposite in2="hardAlpha" operator="out"/>
<feColorMatrix type="matrix" values="0 0 0 0 0.487049 0 0 0 0 0.551844 0 0 0 0 0.691667 0 0 0 0.25 0"/>
<feBlend mode="normal" in2="BackgroundImageFix" result="effect1_dropShadow_5551_32481"/>
<feBlend mode="normal" in="SourceGraphic" in2="effect1_dropShadow_5551_32481" result="shape"/>
</filter>
<linearGradient id="paint0_linear_5551_32481" x1="15" y1="13" x2="512.823" y2="251.418" gradientUnits="userSpaceOnUse">
<stop stop-color="white"/>
<stop offset="1" stop-color="#FFF5F5" stop-opacity="0.5"/>
</linearGradient>
<clipPath id="clip0_5551_32481">
<rect width="88" height="88" fill="white" transform="translate(464 67)"/>
</clipPath>
</defs>
</svg>
