<svg width="574" height="172" viewBox="0 0 574 172" fill="none" xmlns="http://www.w3.org/2000/svg">
<g filter="url(#filter0_d_5551_32467)">
<rect x="15" y="13" width="544" height="142" rx="20" fill="white"/>
<rect x="15" y="13" width="544" height="142" rx="20" fill="url(#paint0_linear_5551_32467)"/>
<path d="M70.2578 57.2461V58.7773C70.2305 60.8145 70.2305 63.5762 69.4922 67.5547C70.3809 67.5 71.2559 67.4316 72.1172 67.3359L72.3633 69.9062C70.0664 70.2344 67.7285 70.4395 65.418 70.5625V79.1484H61.918V70.7266C59.8535 70.7949 57.8711 70.8086 56.0117 70.8086L55.5742 67.9922C58.7324 67.9785 62.3555 67.9512 65.9922 67.7734C66.2109 66.6934 66.375 65.6816 66.5117 64.7383L57.5156 65.5312L57.0508 62.6602L66.7578 62.25C66.7988 61.4297 66.8262 60.7051 66.8398 60.0352H57.6523V57.2461H70.2578ZM77.0664 55.6328V80.5156H73.5391V55.6328H77.0664ZM102.715 74.6641V77.5078H79.9375V74.6641H102.715ZM93.1172 60.5547C93.1172 64.0273 96.2344 67.3086 101.867 68.1562L100.5 70.918C96.1387 70.1523 92.9121 68.0195 91.3125 65.0664C89.7266 68.0742 86.5273 70.2891 82.2344 71.0547L80.8672 68.2656C86.3086 67.418 89.4531 64.0273 89.4531 60.5547V60.5273H81.8242V57.7383H100.719V60.5273H93.1172V60.5547ZM123.879 55.6328V61.0195H127.242V63.8906H123.879V68.9492H120.379V55.6328H123.879ZM116.195 57.1367V59.9258H108.594V65.5586C113.092 65.5312 115.566 65.3945 118.355 64.7656L118.711 67.582C115.594 68.2383 112.723 68.375 107.199 68.375H105.094V57.1367H116.195ZM111.027 70.1523V72.4492H120.379V70.1523H123.879V80.2148H107.527V70.1523H111.027ZM111.027 77.4258H120.379V75.1836H111.027V77.4258ZM149.309 55.6602V74.0078H145.836V67.9375H141.242V70.0703H129.402V57.2734H132.902V61.1016H137.797V57.2734H141.242V59.8164H145.836V55.6602H149.309ZM149.828 77.2891V80.0781H132.738V72.1758H136.266V77.2891H149.828ZM132.902 67.3359H137.797V63.7539H132.902V67.3359ZM141.242 65.1484H145.836V62.6328H141.242V65.1484ZM163.227 78H158.797L165.66 58.2031H170.938L177.773 78H173.371L171.895 73.4336H164.73L163.227 78ZM165.77 70.2344H170.855L168.367 62.6602H168.23L165.77 70.2344ZM184.117 58.2031V78H180.016V58.2031H184.117ZM202.055 59.543C202.055 62.5508 203.805 65.4492 207.742 66.6797L205.883 69.3867C203.244 68.5117 201.398 66.8164 200.332 64.6289C199.252 67.1445 197.324 69.1133 194.48 70.0703L192.594 67.3359C196.75 65.9414 198.527 62.6328 198.555 59.2148V56.9453H202.055V59.543ZM212.719 55.6328V61.457H216.082V64.3555H212.719V70.3984H209.219V55.6328H212.719ZM204.57 70.8906C209.711 70.8906 212.965 72.668 212.965 75.7031C212.965 78.7656 209.711 80.5156 204.57 80.5156C199.32 80.5156 196.039 78.7656 196.039 75.7031C196.039 72.668 199.32 70.8906 204.57 70.8906ZM204.57 73.625C201.289 73.625 199.512 74.3359 199.539 75.7031C199.512 77.125 201.289 77.7812 204.57 77.7812C207.797 77.7812 209.52 77.125 209.52 75.7031C209.52 74.3359 207.797 73.625 204.57 73.625ZM225.16 61.8945C225.16 65.9141 226.281 70.0703 229.672 72.2578L227.785 74.9648C225.639 73.666 224.271 71.5332 223.492 68.9766C222.59 71.793 221.1 74.1445 218.844 75.5117L216.711 72.9414C220.402 70.6445 221.77 66.2695 221.77 62.0586V57.7656H225.16V61.8945ZM238.75 55.6328V80.5156H235.414V55.6328H238.75ZM233.527 55.9883V79.3672H230.273V66.8711H227.047V64.0273H230.273V55.9883H233.527ZM262.293 55.6328V80.5156H258.766V55.6328H262.293ZM256.086 57.9297V60.7188H253.871V71.5195C254.965 71.4512 256.045 71.3418 257.098 71.2188L257.262 73.8164C251.957 74.6914 246.215 74.7734 241.648 74.8008L241.32 71.957C242.223 71.957 243.18 71.9434 244.191 71.9297V60.7188H242.004V57.9297H256.086ZM247.582 71.8477C248.539 71.834 249.51 71.793 250.48 71.7383V60.7188H247.582V71.8477ZM285.863 67.1445V69.9336H268.254V57.7109H285.672V60.5273H271.699V67.1445H285.863ZM288.352 74.6094V77.4805H265.574V74.6094H288.352ZM293.957 57.1914V60.7461H297.348V57.1914H300.574V69.25H290.648V57.1914H293.957ZM293.957 66.4883H297.348V63.3984H293.957V66.4883ZM311.156 55.6602V70.6445H307.848V64.5469H305.77V70.5078H302.516V56.0977H305.77V61.7305H307.848V55.6602H311.156ZM311.156 71.7656V80.5156H307.684V74.5547H293.957V71.7656H311.156Z" fill="#31343D"/>
<path d="M487.307 76.2964L484.859 78.7439V86.2186C486.486 86.0407 488.128 86.0407 489.754 86.2186V81.1914H533.809V105.666H525.454L519.124 111.996V105.666H509.202C509.38 107.293 509.38 108.935 509.202 110.561H514.229V117.904L518.41 119.637L527.48 110.561H536.257L538.704 108.114V78.7439L536.257 76.2964H487.307Z" fill="#BEAFC0" fill-opacity="0.3"/>
<path fill-rule="evenodd" clip-rule="evenodd" d="M496.689 122.452C499.775 120.431 502.127 117.468 503.395 114.003C504.662 110.538 504.777 106.757 503.723 103.221C502.669 99.6859 500.501 96.5852 497.543 94.3805C494.585 92.1758 490.994 90.9849 487.305 90.9849C483.616 90.9849 480.025 92.1758 477.067 94.3805C474.109 96.5852 471.941 99.6859 470.887 103.221C469.833 106.757 469.948 110.538 471.215 114.003C472.482 117.468 474.834 120.431 477.921 122.452C474.14 124.232 470.944 127.051 468.705 130.579C466.466 134.108 465.278 138.2 465.277 142.379V144.827H470.172V142.379C470.323 137.935 472.193 133.724 475.39 130.634C478.587 127.544 482.859 125.816 487.305 125.816C491.751 125.816 496.023 127.544 499.22 130.634C502.416 133.724 504.287 137.935 504.437 142.379V144.827H509.332V142.379C509.332 138.2 508.143 134.108 505.904 130.579C503.666 127.051 500.469 124.232 496.689 122.452ZM487.305 120.352C484.059 120.352 480.947 119.062 478.652 116.767C476.357 114.472 475.067 111.36 475.067 108.114C475.067 104.868 476.357 101.756 478.652 99.4609C480.947 97.1659 484.059 95.8766 487.305 95.8766C490.55 95.8766 493.663 97.1659 495.958 99.4609C498.253 101.756 499.542 104.868 499.542 108.114C499.542 111.36 498.253 114.472 495.958 116.767C493.663 119.062 490.55 120.352 487.305 120.352Z" fill="#BEAFC0" fill-opacity="0.3" stroke="#BEAFC0" stroke-opacity="0.3" stroke-width="0.88"/>
<path d="M63.512 104.416V105.024C63.496 106.016 63.496 107.712 63.048 110.192C63.672 110.16 64.296 110.112 64.888 110.048L64.984 110.976C63.56 111.152 62.088 111.264 60.632 111.328V116.448H59.416V111.376C58.088 111.424 56.808 111.424 55.64 111.424L55.48 110.432C57.384 110.416 59.608 110.384 61.8 110.272C61.976 109.424 62.088 108.672 62.168 108L56.632 108.48L56.44 107.424L62.248 107.088C62.296 106.432 62.312 105.888 62.328 105.44H56.728V104.416H63.512ZM65.912 117.28V103.392H67.128V117.28H65.912ZM82.1081 114.4V115.424H69.4041V114.4H82.1081ZM70.0121 110.976C72.3641 110.592 75.1001 108.656 75.1001 106.432V105.792H70.4281V104.768H81.0201V105.792H76.3481V106.432C76.3641 108.656 79.1001 110.544 81.5001 110.944L80.9881 111.904C78.8761 111.488 76.6361 110.144 75.7401 108.224C74.8281 110.144 72.6041 111.536 70.5241 111.968L70.0121 110.976ZM98.0803 103.392V106.656H100.16V107.68H98.0803V110.784H96.8643V103.392H98.0803ZM87.8723 110.304V104.288H94.0163V105.312H89.0883V109.28C91.8723 109.28 93.4723 109.2 95.3283 108.8L95.4883 109.824C93.5363 110.224 91.8723 110.304 88.9603 110.304H87.8723ZM89.2803 117.024V111.52H90.4963V113.248H96.8643V111.52H98.0803V117.024H89.2803ZM90.4963 116.032H96.8643V114.24H90.4963V116.032ZM112.548 103.392V113.664H111.332V109.952H108.068V111.296H101.732V104.32H102.98V106.784H106.852V104.32H108.068V105.952H111.332V103.392H112.548ZM102.98 110.272H106.852V107.744H102.98V110.272ZM103.588 116.96V112.672H104.804V115.936H112.868V116.96H103.588ZM108.068 108.928H111.332V106.976H108.068V108.928ZM120.073 116H118.601L122.729 104.672H124.201L128.361 116H126.889L125.769 112.832H121.193L120.073 116ZM121.641 111.584H125.321L123.529 106.496H123.433L121.641 111.584ZM131.312 104.672V116H129.904V104.672H131.312ZM141.811 107.648C141.811 109.872 143.427 112.32 145.427 113.28L144.723 114.24C143.171 113.488 141.843 111.84 141.235 109.968C140.595 112 139.187 113.792 137.618 114.592L136.883 113.632C138.899 112.656 140.611 110.016 140.627 107.648V105.824H137.395V104.8H144.947V105.824H141.811V107.648ZM146.643 117.28V103.392H147.891V108.992H150.195V110.048H147.891V117.28H146.643ZM163.639 110.24V111.232H150.967V110.24H156.695V108.608H152.567V104.032H162.039V105.024H153.783V107.616H162.135V108.608H157.879V110.24H163.639ZM152.471 114.752C152.487 113.168 154.279 112.256 157.271 112.256C160.263 112.256 162.055 113.168 162.071 114.752C162.055 116.352 160.263 117.248 157.271 117.248C154.279 117.248 152.487 116.352 152.471 114.752ZM153.719 114.752C153.719 115.728 155.047 116.288 157.271 116.288C159.479 116.288 160.823 115.728 160.823 114.752C160.823 113.792 159.479 113.216 157.271 113.216C155.047 113.216 153.719 113.792 153.719 114.752ZM177.467 110.72V111.744H171.835V114.464H170.619V111.744H164.763V110.72H177.467ZM166.395 116.96V113.184H167.611V115.936H176.059V116.96H166.395ZM166.459 109.376V103.808H167.675V105.6H174.555V103.808H175.803V109.376H166.459ZM167.675 108.384H174.555V106.56H167.675V108.384ZM183.359 105.6C183.343 107.52 184.767 109.296 186.783 109.984L186.111 110.976C184.575 110.4 183.359 109.216 182.767 107.728C182.191 109.376 180.927 110.64 179.295 111.296L178.623 110.272C180.735 109.536 182.127 107.696 182.143 105.568V104.096H183.359V105.6ZM180.767 113.344V112.352H190.111V117.28H188.895V113.344H180.767ZM185.791 107.328V106.304H188.895V103.392H190.111V111.584H188.895V107.328H185.791Z" fill="#31343D"/>
</g>
<defs>
<filter id="filter0_d_5551_32467" x="0" y="0" width="574" height="172" filterUnits="userSpaceOnUse" color-interpolation-filters="sRGB">
<feFlood flood-opacity="0" result="BackgroundImageFix"/>
<feColorMatrix in="SourceAlpha" type="matrix" values="0 0 0 0 0 0 0 0 0 0 0 0 0 0 0 0 0 0 127 0" result="hardAlpha"/>
<feOffset dy="2"/>
<feGaussianBlur stdDeviation="7.5"/>
<feComposite in2="hardAlpha" operator="out"/>
<feColorMatrix type="matrix" values="0 0 0 0 0.487049 0 0 0 0 0.551844 0 0 0 0 0.691667 0 0 0 0.25 0"/>
<feBlend mode="normal" in2="BackgroundImageFix" result="effect1_dropShadow_5551_32467"/>
<feBlend mode="normal" in="SourceGraphic" in2="effect1_dropShadow_5551_32467" result="shape"/>
</filter>
<linearGradient id="paint0_linear_5551_32467" x1="15" y1="13" x2="512.823" y2="251.418" gradientUnits="userSpaceOnUse">
<stop stop-color="white"/>
<stop offset="1" stop-color="#FEF8FF" stop-opacity="0.5"/>
</linearGradient>
</defs>
</svg>
