<svg width="574" height="172" viewBox="0 0 574 172" fill="none" xmlns="http://www.w3.org/2000/svg">
<g filter="url(#filter0_d_5551_32495)">
<rect x="15" y="13" width="544" height="142" rx="20" fill="white"/>
<rect x="15" y="13" width="544" height="142" rx="20" fill="url(#paint0_linear_5551_32495)"/>
<path d="M76.5469 55.6328V68.4023H73.0742V55.6328H76.5469ZM76.5742 69.3867V76.0312H63.3398V77.6719H77.2578V80.3516H59.9219V73.543H73.1016V72.0391H59.8672V69.3867H76.5742ZM70.4492 56.7812V59.5703H65.4727C65.7188 62.0586 67.5781 64.4648 71.4062 65.4766L69.7383 68.1562C66.8535 67.3633 64.8574 65.6953 63.75 63.5625C62.6016 65.9414 60.4961 67.8145 57.4336 68.6758L55.8477 65.9141C59.7305 64.8477 61.6309 62.2227 61.8633 59.5703H56.7773V56.7812H70.4492ZM88.0039 57.3008C91.9414 57.2734 94.8945 59.8438 94.8945 63.3984C94.8945 66.9805 91.9414 69.5234 88.0039 69.5234C84.0664 69.5234 81.0859 66.9805 81.0859 63.3984C81.0859 59.8438 84.0664 57.2734 88.0039 57.3008ZM88.0039 60.3086C86.0352 60.3086 84.5312 61.457 84.5586 63.3984C84.5312 65.3672 86.0352 66.4883 88.0039 66.4883C89.9727 66.4883 91.4766 65.3672 91.5039 63.3984C91.4766 61.457 90 60.3086 88.0039 60.3086ZM100.855 55.6328V80.5703H97.3828V55.6328H100.855ZM80.0469 72.6406C84.4766 72.668 90.6289 72.5859 95.9609 71.8477L96.2344 74.3633C90.7109 75.4297 84.8047 75.4844 80.457 75.4844L80.0469 72.6406ZM123.879 55.6328V61.0195H127.242V63.8906H123.879V68.9492H120.379V55.6328H123.879ZM116.195 57.1367V59.9258H108.594V65.5586C113.092 65.5312 115.566 65.3945 118.355 64.7656L118.711 67.582C115.594 68.2383 112.723 68.375 107.199 68.375H105.094V57.1367H116.195ZM111.027 70.1523V72.4492H120.379V70.1523H123.879V80.2148H107.527V70.1523H111.027ZM111.027 77.4258H120.379V75.1836H111.027V77.4258ZM149.309 55.6602V74.0078H145.836V67.9375H141.242V70.0703H129.402V57.2734H132.902V61.1016H137.797V57.2734H141.242V59.8164H145.836V55.6602H149.309ZM149.828 77.2891V80.0781H132.738V72.1758H136.266V77.2891H149.828ZM132.902 67.3359H137.797V63.7539H132.902V67.3359ZM141.242 65.1484H145.836V62.6328H141.242V65.1484ZM180.508 55.6328V80.5156H177.199V68.0195H174.793V79.3125H171.594V56.043H174.793V65.2305H177.199V55.6328H180.508ZM168.969 58.5039V61.3203H163.199V71.9297C165.605 71.916 167.738 71.793 170.145 71.3555L170.391 74.1992C167.355 74.7734 164.703 74.8555 161.422 74.8828H159.699V58.5039H168.969ZM192.867 61.2656C192.867 65.832 194.945 70.4258 199.156 72.2031L197.105 74.9922C194.262 73.707 192.293 71.2324 191.172 68.1562C190.037 71.5059 188 74.2129 184.965 75.5938L182.859 72.6953C187.207 70.8633 189.312 66.1055 189.34 61.2656V57.5469H192.867V61.2656ZM204.023 55.6328V80.5703H200.496V55.6328H204.023ZM230.164 74.7734V77.6172H207.387V74.7734H216.984V70.1797H209.793V57.2188H213.293V61.0742H224.148V57.2188H227.621V70.1797H220.457V74.7734H230.164ZM213.293 67.3906H224.148V63.8633H213.293V67.3906ZM251.875 67.1445V69.9336H234.266V57.7109H251.684V60.5273H237.711V67.1445H251.875ZM254.363 74.6094V77.4805H231.586V74.6094H254.363Z" fill="#31343D"/>
<path d="M62.5781 105.344C62.5625 107.203 65.0469 108.781 67.4688 109.141L67.0156 110.109C64.8438 109.742 62.7344 108.586 61.8906 106.906C61.0469 108.586 58.9297 109.742 56.7969 110.109L56.3125 109.141C58.7188 108.781 61.2031 107.203 61.2031 105.344V105.25H56.75V104.25H67.0156V105.25H62.5781V105.344ZM68.2188 111.297V112.312H62.4688V117.266H61.2656V112.312H55.5625V111.297H68.2188ZM74.0156 107.906C74.0156 110.125 75.4688 112.406 77.4844 113.375L76.7656 114.328C75.2344 113.578 74.0234 112.062 73.4531 110.266C72.8438 112.195 71.5547 113.812 69.9688 114.578L69.2656 113.625C71.2969 112.672 72.8125 110.297 72.8281 107.906V106.797H69.6406V105.797H72.8125V103.641H74.0469V105.797H77.1719V106.797H74.0156V107.906ZM80.1406 103.375V109.078H82.4688V110.125H80.1406V117.266H78.9219V103.375H80.1406ZM94.7188 103.375V110.641H93.5V108.859H90.2188V110.078H83.9219V104.031H85.1406V106.031H89.0156V104.031H90.2188V105.375H93.5V103.375H94.7188ZM94.7188 111.312V114.578H86.9688V116.094H95.25V117.078H85.75V113.641H93.5V112.297H85.7188V111.312H94.7188ZM85.1406 109.078H89.0156V107H85.1406V109.078ZM90.2188 107.891H93.5V106.328H90.2188V107.891ZM112.516 103.375V110.594H111.312V103.375H112.516ZM112.531 111.266V114.578H104.734V116.125H113.031V117.109H103.531V113.656H111.312V112.234H103.5V111.266H112.531ZM106.062 105.344C106.062 107.156 107.547 108.734 109.641 109.359L109.031 110.312C107.391 109.797 106.086 108.695 105.469 107.266C104.867 108.828 103.539 110.047 101.844 110.609L101.266 109.641C103.344 108.953 104.828 107.25 104.828 105.344V105.188H101.578V104.172H109.266V105.188H106.062V105.344ZM119.438 104.391C121.625 104.391 123.172 105.719 123.172 107.656C123.172 109.594 121.625 110.922 119.438 110.922C117.25 110.922 115.672 109.594 115.688 107.656C115.672 105.719 117.25 104.391 119.438 104.391ZM119.438 105.469C117.953 105.469 116.875 106.359 116.891 107.656C116.875 108.953 117.953 109.844 119.438 109.844C120.906 109.844 121.969 108.953 121.969 107.656C121.969 106.359 120.906 105.469 119.438 105.469ZM126.281 103.375V117.297H125.062V103.375H126.281ZM114.969 113.188C117.531 113.188 121.062 113.172 124.141 112.719L124.234 113.625C121.062 114.219 117.641 114.234 115.141 114.234L114.969 113.188ZM139.984 104.281V109.938H133.469V104.281H139.984ZM134.672 105.281V108.969H138.781V105.281H134.672ZM144.188 103.375V111.359H142.984V103.375H144.188ZM140.422 113.266C140.422 114.625 142.641 115.969 145.031 116.266L144.609 117.219C142.516 116.938 140.609 115.953 139.797 114.656C138.953 115.977 137 116.938 134.906 117.219L134.469 116.266C136.859 116 139.156 114.656 139.156 113.266H135.047V112.312H139.172V110.953H140.391V112.312H144.547V113.266H140.422ZM151.766 116H150.297L154.438 104.688H155.922L160.062 116H158.578L157.453 112.812H152.906L151.766 116ZM153.328 111.578H157.016L155.219 106.516H155.125L153.328 111.578ZM163 104.688V116H161.594V104.688H163ZM175.672 103.375V106.641H177.766V107.672H175.672V110.781H174.453V103.375H175.672ZM171.625 104.297V105.312H166.688V109.281C169.477 109.281 171.062 109.195 172.922 108.812L173.078 109.828C171.125 110.219 169.469 110.312 166.547 110.312H165.469V104.297H171.625ZM168.094 111.531V113.266H174.453V111.531H175.672V117.031H166.875V111.531H168.094ZM168.094 116.016H174.453V114.25H168.094V116.016ZM190.156 103.391V113.672H188.922V109.938H185.641V111.297H179.344V104.312H180.562V106.781H184.438V104.312H185.641V105.938H188.922V103.391H190.156ZM190.469 115.938V116.969H181.172V112.656H182.406V115.938H190.469ZM180.562 110.281H184.438V107.75H180.562V110.281ZM185.641 108.922H188.922V106.969H185.641V108.922ZM197.125 107.109C197.125 109.562 198.75 112.078 200.719 113.047L199.969 114.031C198.438 113.227 197.156 111.586 196.547 109.656C195.922 111.711 194.609 113.461 193.047 114.297L192.266 113.312C194.297 112.312 195.906 109.641 195.922 107.109V104.578H197.125V107.109ZM203.219 103.375V109.016H205.547V110.078H203.219V117.266H202V103.375H203.219ZM217.156 103.375V107.25H219.25V108.297H217.156V112.344H215.938V103.375H217.156ZM212.766 112.438C215.594 112.438 217.312 113.328 217.312 114.844C217.312 116.359 215.594 117.234 212.766 117.234C209.938 117.234 208.203 116.359 208.219 114.844C208.203 113.328 209.938 112.438 212.766 112.438ZM212.766 113.406C210.688 113.406 209.422 113.922 209.438 114.844C209.422 115.75 210.688 116.281 212.766 116.281C214.844 116.281 216.094 115.75 216.094 114.844C216.094 113.922 214.844 113.406 212.766 113.406ZM214.609 104.969V105.938H206.328V104.969H209.859V103.266H211.078V104.969H214.609ZM210.469 106.656C212.469 106.656 213.797 107.625 213.812 109.109C213.797 110.609 212.469 111.562 210.469 111.562C208.453 111.562 207.109 110.609 207.125 109.109C207.109 107.625 208.453 106.656 210.469 106.656ZM210.469 107.578C209.156 107.594 208.281 108.203 208.297 109.109C208.281 110.016 209.156 110.609 210.469 110.609C211.766 110.609 212.641 110.016 212.656 109.109C212.641 108.203 211.766 107.594 210.469 107.578ZM235 103.391V107.969H237.094V109H235V113.797H233.781V103.391H235ZM232.453 105.094V106.094H224.172V105.094H227.703V103.391H228.922V105.094H232.453ZM228.312 106.859C230.297 106.859 231.641 107.875 231.656 109.453C231.641 111.016 230.297 112.016 228.312 112.016C226.312 112.016 224.953 111.016 224.969 109.453C224.953 107.875 226.312 106.859 228.312 106.859ZM228.312 107.828C227 107.828 226.125 108.469 226.141 109.453C226.125 110.438 227 111.062 228.312 111.047C229.609 111.062 230.484 110.438 230.5 109.453C230.484 108.469 229.609 107.828 228.312 107.828ZM235.641 115.938V116.969H226.312V112.969H227.516V115.938H235.641ZM249.203 107.609V108.609H239.719V103.906H240.938V107.609H249.203ZM250.641 110.25V111.266H245.016V114.141H243.797V111.266H237.969V110.25H250.641ZM249.297 115.938V116.969H239.594V112.906H240.812V115.938H249.297ZM263.703 103.375V117.266H262.516V103.375H263.703ZM260.906 103.672V116.562H259.734V109.812H257.953C257.82 112.516 256.672 114.203 254.953 114.203C253.141 114.203 251.969 112.328 251.969 109.375C251.969 106.422 253.141 104.547 254.953 104.547C256.641 104.547 257.781 106.18 257.938 108.797H259.734V103.672H260.906ZM254.953 105.703C253.828 105.703 253.109 107.109 253.125 109.375C253.109 111.625 253.828 113.047 254.953 113.031C256.078 113.047 256.797 111.625 256.797 109.375C256.797 107.109 256.078 105.703 254.953 105.703ZM280.484 103.391V107.594H282.562V108.625H280.484V112.703H279.25V103.391H280.484ZM269.578 111.281C270.688 111.281 271.984 111.281 273.344 111.234V110.219C271.727 110.078 270.688 109.32 270.688 108.172C270.688 106.906 271.984 106.125 273.938 106.125C275.906 106.125 277.188 106.906 277.203 108.172C277.188 109.312 276.172 110.07 274.562 110.219V111.188C275.859 111.125 277.172 111.023 278.391 110.844L278.5 111.734C275.484 112.266 272.156 112.281 269.719 112.281L269.578 111.281ZM280.484 113.391V117.266H279.25V114.375H271.281V113.391H280.484ZM277.969 104.656V105.594H269.922V104.656H273.344V103.266H274.562V104.656H277.969ZM273.938 107C272.656 106.984 271.859 107.438 271.859 108.172C271.859 108.891 272.656 109.391 273.938 109.375C275.219 109.391 276.031 108.891 276.031 108.172C276.031 107.438 275.219 106.984 273.938 107ZM294.938 103.391V113.547H293.719V103.391H294.938ZM295.375 115.938V116.969H285.969V112.516H287.188V115.938H295.375ZM287.438 104.359C289.516 104.359 291.078 105.766 291.078 107.766C291.078 109.797 289.516 111.188 287.438 111.188C285.359 111.188 283.797 109.797 283.797 107.766C283.797 105.766 285.359 104.359 287.438 104.359ZM287.438 105.438C286.031 105.438 284.984 106.406 285 107.766C284.984 109.156 286.031 110.109 287.438 110.109C288.812 110.109 289.875 109.156 289.875 107.766C289.875 106.406 288.812 105.438 287.438 105.438ZM312.062 103.375V109.031H314.312V110.062H312.062V117.266H310.844V103.375H312.062ZM308.469 104.875C308.469 108.812 306.625 112.391 302.094 114.625L301.406 113.656C305 111.867 306.953 109.195 307.234 105.906H302.047V104.875H308.469ZM326.359 107.266V108.281H316.875V103.656H318.094V107.266H326.359ZM327.812 109.906V110.922H315.141V109.906H327.812ZM321.469 112.172C324.453 112.172 326.234 113.078 326.25 114.688C326.234 116.297 324.453 117.203 321.469 117.203C318.469 117.203 316.672 116.297 316.672 114.688C316.672 113.078 318.469 112.172 321.469 112.172ZM321.469 113.141C319.234 113.156 317.906 113.703 317.922 114.688C317.906 115.656 319.234 116.25 321.469 116.25C323.672 116.25 325.016 115.656 325.016 114.688C325.016 113.703 323.672 113.156 321.469 113.141Z" fill="#31343D"/>
<path d="M482.58 78H534.061C537.754 78.3112 540.646 81.2006 541.002 84.8903V135.923C540.646 139.612 537.754 142.502 534.061 142.858H482.98C479.287 142.502 476.395 139.612 476.039 135.923V84.7569C476.44 81.2451 479.109 78.5334 482.58 78ZM535.974 94.67V84.8903C535.974 84.4013 534.906 83.2011 534.328 83.0677C517.152 82.801 499.933 82.8899 482.758 83.0677C482.179 83.1566 481.023 84.3568 481.023 84.8903V94.6256H535.974V94.67ZM535.974 99.6488H481.023V135.923C481.023 136.412 482.09 137.612 482.669 137.745C499.844 138.012 517.063 137.923 534.239 137.745C534.817 137.657 535.974 136.456 535.974 135.923V99.6488Z" fill="#BCC4C1" fill-opacity="0.5"/>
<path d="M503.001 126.276C497.84 131.655 488.629 130.144 485.426 123.431C481.154 114.496 490.098 105.028 499.353 108.762C506.383 111.607 508.252 120.853 503.001 126.276ZM494.414 112.94C486.538 113.874 488.54 126.365 496.639 124.365C503.491 122.676 501.8 112.096 494.414 112.94Z" fill="#BCC4C1" fill-opacity="0.5"/>
<path d="M521.285 107.962C522.754 107.651 524.178 108.718 524.311 110.185V127.655C523.243 130.589 519.595 130.055 519.283 126.899C518.838 121.654 519.639 115.83 519.283 110.496C519.372 109.34 520.084 108.184 521.285 107.962Z" fill="#BCC4C1" fill-opacity="0.5"/>
<path d="M529.074 114.63C531.21 114.186 532.234 115.519 532.412 117.475C532.545 119.298 532.634 126.277 532.189 127.744C531.344 130.411 527.695 129.878 527.384 127.477C526.983 124.099 527.695 119.876 527.384 116.408C527.517 115.697 528.318 114.808 529.03 114.63H529.074Z" fill="#BCC4C1" fill-opacity="0.5"/>
<path d="M513.013 117.919C514.526 117.652 515.861 118.586 516.039 120.141C516.172 121.431 516.217 126.454 516.039 127.61C515.505 130.232 511.411 130.144 511.055 127.343C510.877 125.965 510.877 121.208 511.055 119.875C511.189 118.986 512.079 118.097 513.013 117.919Z" fill="#BCC4C1" fill-opacity="0.5"/>
<path d="M486.625 86.2683C487.871 86.0905 490.63 86.046 491.653 86.8017C493.433 88.0909 492.766 90.9804 490.675 91.2471C489.785 91.336 487.337 91.336 486.447 91.2471C483.778 90.9359 483.6 86.7573 486.67 86.3128L486.625 86.2683Z" fill="#BCC4C1" fill-opacity="0.5"/>
<path d="M496.594 86.2683C497.84 86.0905 500.599 86.046 501.622 86.8017C503.402 88.0909 502.735 90.9804 500.643 91.2471C499.753 91.336 497.306 91.336 496.416 91.2471C493.747 90.9359 493.569 86.7573 496.639 86.3128L496.594 86.2683Z" fill="#BCC4C1" fill-opacity="0.5"/>
</g>
<defs>
<filter id="filter0_d_5551_32495" x="0" y="0" width="574" height="172" filterUnits="userSpaceOnUse" color-interpolation-filters="sRGB">
<feFlood flood-opacity="0" result="BackgroundImageFix"/>
<feColorMatrix in="SourceAlpha" type="matrix" values="0 0 0 0 0 0 0 0 0 0 0 0 0 0 0 0 0 0 127 0" result="hardAlpha"/>
<feOffset dy="2"/>
<feGaussianBlur stdDeviation="7.5"/>
<feComposite in2="hardAlpha" operator="out"/>
<feColorMatrix type="matrix" values="0 0 0 0 0.487049 0 0 0 0 0.551844 0 0 0 0 0.691667 0 0 0 0.25 0"/>
<feBlend mode="normal" in2="BackgroundImageFix" result="effect1_dropShadow_5551_32495"/>
<feBlend mode="normal" in="SourceGraphic" in2="effect1_dropShadow_5551_32495" result="shape"/>
</filter>
<linearGradient id="paint0_linear_5551_32495" x1="15" y1="13" x2="512.823" y2="251.418" gradientUnits="userSpaceOnUse">
<stop stop-color="white"/>
<stop offset="1" stop-color="#EFFAF6" stop-opacity="0.5"/>
</linearGradient>
</defs>
</svg>
