<svg width="574" height="172" viewBox="0 0 574 172" fill="none" xmlns="http://www.w3.org/2000/svg">
<g filter="url(#filter0_d_5551_32495)">
<rect x="15" y="13" width="544" height="142" rx="20" fill="white"/>
<rect x="15" y="13" width="544" height="142" rx="20" fill="url(#paint0_linear_5551_32495)"/>
<path d="M70.5039 57.8477V60.6094H55.7383V57.8477H61.3984V55.4961H64.8711V57.8477H70.5039ZM63.1211 61.4023C66.7305 61.4023 69.2461 63.2617 69.2461 65.9961C69.2461 68.7305 66.7305 70.5898 63.1211 70.5898C59.5117 70.5898 56.9414 68.7305 56.9414 65.9961C56.9414 63.2617 59.5117 61.4023 63.1211 61.4023ZM63.1211 64.0273C61.4531 64.0273 60.332 64.7109 60.3594 65.9961C60.332 67.2539 61.4531 67.9102 63.1211 67.9102C64.7891 67.9102 65.9375 67.2539 65.9375 65.9961C65.9375 64.7109 64.7891 64.0273 63.1211 64.0273ZM75.4805 55.6328V62.0859H78.8438V64.9297H75.4805V71.2461H71.9805V55.6328H75.4805ZM75.4805 72.2852V80.5156H71.9805V75.0742H58.7188V72.2852H75.4805ZM86.0352 70.5625V72.668H96.2891V70.5625H99.7617V80.2422H82.5898V70.5625H86.0352ZM86.0352 77.5078H96.2891V75.3203H86.0352V77.5078ZM102.633 66.4883V69.3047H79.9375V66.4883H102.633ZM93.0898 56.7266C93.0898 59.2148 95.9609 62.0312 101.512 62.6602L100.281 65.3945C95.9883 64.8477 92.8848 63.0703 91.2852 60.6641C89.6855 63.0703 86.5684 64.8477 82.3164 65.3945L81.0586 62.6602C86.6094 62.0039 89.4805 59.2695 89.5078 56.7266V55.8789H93.0898V56.7266ZM132.109 55.6328V80.5156H128.801V68.0195H126.395V79.3125H123.195V56.043H126.395V65.2305H128.801V55.6328H132.109ZM120.57 58.5039V61.3203H114.801V71.9297C117.207 71.916 119.34 71.793 121.746 71.3555L121.992 74.1992C118.957 74.7734 116.305 74.8555 113.023 74.8828H111.301V58.5039H120.57ZM144.469 61.2656C144.469 65.832 146.547 70.4258 150.758 72.2031L148.707 74.9922C145.863 73.707 143.895 71.2324 142.773 68.1562C141.639 71.5059 139.602 74.2129 136.566 75.5938L134.461 72.6953C138.809 70.8633 140.914 66.1055 140.941 61.2656V57.5469H144.469V61.2656ZM155.625 55.6328V80.5703H152.098V55.6328H155.625ZM181.766 74.7734V77.6172H158.988V74.7734H168.586V70.1797H161.395V57.2188H164.895V61.0742H175.75V57.2188H179.223V70.1797H172.059V74.7734H181.766ZM164.895 67.3906H175.75V63.8633H164.895V67.3906ZM203.477 67.1445V69.9336H185.867V57.7109H203.285V60.5273H189.312V67.1445H203.477ZM205.965 74.6094V77.4805H183.188V74.6094H205.965Z" fill="#31343D"/>
<path d="M63.875 104.875V105.875H55.5938V104.875H59.125V103.312H60.3438V104.875H63.875ZM59.7344 106.594C61.7344 106.609 63.0625 107.578 63.0781 109.109C63.0625 110.625 61.7344 111.609 59.7344 111.609C57.7344 111.609 56.375 110.625 56.3906 109.109C56.375 107.578 57.7344 106.609 59.7344 106.594ZM59.7344 107.547C58.4219 107.562 57.5469 108.172 57.5625 109.109C57.5469 110.031 58.4219 110.625 59.7344 110.625C61.0312 110.625 61.9062 110.031 61.9219 109.109C61.9062 108.172 61.0312 107.562 59.7344 107.547ZM66.4219 103.375V107.234H68.5156V108.266H66.4219V112.062H65.2031V103.375H66.4219ZM66.4219 112.828V117.266H65.2031V113.828H57.3281V112.828H66.4219ZM72.2188 111.719V113.344H79.1562V111.719H80.3906V117.078H71V111.719H72.2188ZM72.2188 116.094H79.1562V114.312H72.2188V116.094ZM82.0469 109.719V110.734H69.3906V109.719H82.0469ZM76.3594 104.188C76.3594 105.906 78.8906 107.438 81.3281 107.75L80.875 108.734C78.7188 108.414 76.6094 107.312 75.7344 105.75C74.8438 107.32 72.7188 108.414 70.5781 108.734L70.1094 107.75C72.5781 107.422 75.0938 105.953 75.0938 104.188V103.531H76.3594V104.188ZM87.9219 107.641C87.9062 109.875 89.5156 112.328 91.5312 113.281L90.8281 114.25C89.2656 113.492 87.9453 111.836 87.3281 109.953C86.6875 112 85.2891 113.797 83.7344 114.594L82.9844 113.625C84.9844 112.656 86.7031 110.016 86.7188 107.641V105.828H83.4844V104.812H91.0469V105.828H87.9219V107.641ZM93.9688 103.375V109H96.2969V110.047H93.9688V117.266H92.75V103.375H93.9688ZM101.594 104.391C103.781 104.391 105.328 105.719 105.328 107.656C105.328 109.594 103.781 110.922 101.594 110.922C99.4062 110.922 97.8281 109.594 97.8438 107.656C97.8281 105.719 99.4062 104.391 101.594 104.391ZM101.594 105.469C100.109 105.469 99.0312 106.359 99.0469 107.656C99.0312 108.953 100.109 109.844 101.594 109.844C103.062 109.844 104.125 108.953 104.125 107.656C104.125 106.359 103.062 105.469 101.594 105.469ZM108.438 103.375V117.297H107.219V103.375H108.438ZM97.125 113.188C99.6875 113.188 103.219 113.172 106.297 112.719L106.391 113.625C103.219 114.219 99.7969 114.234 97.2969 114.234L97.125 113.188ZM123.203 104.875V105.875H114.922V104.875H118.453V103.312H119.672V104.875H123.203ZM119.062 106.594C121.062 106.609 122.391 107.578 122.406 109.109C122.391 110.625 121.062 111.609 119.062 111.609C117.062 111.609 115.703 110.625 115.719 109.109C115.703 107.578 117.062 106.609 119.062 106.594ZM119.062 107.547C117.75 107.562 116.875 108.172 116.891 109.109C116.875 110.031 117.75 110.625 119.062 110.625C120.359 110.625 121.234 110.031 121.25 109.109C121.234 108.172 120.359 107.562 119.062 107.547ZM125.75 103.375V107.234H127.844V108.266H125.75V112.062H124.531V103.375H125.75ZM125.75 112.828V117.266H124.531V113.828H116.656V112.828H125.75ZM131.547 111.719V113.344H138.484V111.719H139.719V117.078H130.328V111.719H131.547ZM131.547 116.094H138.484V114.312H131.547V116.094ZM141.375 109.719V110.734H128.719V109.719H141.375ZM135.688 104.188C135.688 105.906 138.219 107.438 140.656 107.75L140.203 108.734C138.047 108.414 135.938 107.312 135.062 105.75C134.172 107.32 132.047 108.414 129.906 108.734L129.438 107.75C131.906 107.422 134.422 105.953 134.422 104.188V103.531H135.688V104.188ZM158.453 103.375V117.266H157.266V103.375H158.453ZM155.609 103.719V116.547H154.438V109.719H151.406V108.688H154.438V103.719H155.609ZM152.344 105.094V106.109H148.297V112.891C150.297 112.883 151.562 112.797 153.062 112.469L153.188 113.516C151.578 113.844 150.219 113.906 147.984 113.922H147.109V105.094H152.344ZM171.844 103.375V117.297H170.609V103.375H171.844ZM164.453 104.453C166.516 104.469 168 106.344 168 109.297C168 112.25 166.516 114.125 164.453 114.125C162.375 114.125 160.906 112.25 160.906 109.297C160.906 106.344 162.375 104.469 164.453 104.453ZM164.453 105.547C163.062 105.562 162.094 107.031 162.094 109.297C162.094 111.562 163.062 113.031 164.453 113.031C165.844 113.031 166.812 111.562 166.812 109.297C166.812 107.031 165.844 105.562 164.453 105.547ZM185.734 103.375V117.297H184.516V109.641H181.578V108.625H184.516V103.375H185.734ZM181.344 104.656V105.672H176.094V108.562H180.734V109.562H176.094V112.922C178.648 112.922 180.273 112.836 182.188 112.5L182.328 113.516C180.312 113.844 178.609 113.938 175.922 113.938H174.859V104.656H181.344ZM202.922 103.391V107.969H205.016V109H202.922V113.797H201.703V103.391H202.922ZM200.375 105.094V106.094H192.094V105.094H195.625V103.391H196.844V105.094H200.375ZM196.234 106.859C198.219 106.859 199.562 107.875 199.578 109.453C199.562 111.016 198.219 112.016 196.234 112.016C194.234 112.016 192.875 111.016 192.891 109.453C192.875 107.875 194.234 106.859 196.234 106.859ZM196.234 107.828C194.922 107.828 194.047 108.469 194.062 109.453C194.047 110.438 194.922 111.062 196.234 111.047C197.531 111.062 198.406 110.438 198.422 109.453C198.406 108.469 197.531 107.828 196.234 107.828ZM203.562 115.938V116.969H194.234V112.969H195.438V115.938H203.562ZM217.125 107.609V108.609H207.641V103.906H208.859V107.609H217.125ZM218.562 110.25V111.266H212.938V114.141H211.719V111.266H205.891V110.25H218.562ZM217.219 115.938V116.969H207.516V112.906H208.734V115.938H217.219ZM231.625 103.375V117.266H230.438V103.375H231.625ZM228.828 103.672V116.562H227.656V109.812H225.875C225.742 112.516 224.594 114.203 222.875 114.203C221.062 114.203 219.891 112.328 219.891 109.375C219.891 106.422 221.062 104.547 222.875 104.547C224.562 104.547 225.703 106.18 225.859 108.797H227.656V103.672H228.828ZM222.875 105.703C221.75 105.703 221.031 107.109 221.047 109.375C221.031 111.625 221.75 113.047 222.875 113.031C224 113.047 224.719 111.625 224.719 109.375C224.719 107.109 224 105.703 222.875 105.703ZM248.406 103.391V107.594H250.484V108.625H248.406V112.703H247.172V103.391H248.406ZM237.5 111.281C238.609 111.281 239.906 111.281 241.266 111.234V110.219C239.648 110.078 238.609 109.32 238.609 108.172C238.609 106.906 239.906 106.125 241.859 106.125C243.828 106.125 245.109 106.906 245.125 108.172C245.109 109.312 244.094 110.07 242.484 110.219V111.188C243.781 111.125 245.094 111.023 246.312 110.844L246.422 111.734C243.406 112.266 240.078 112.281 237.641 112.281L237.5 111.281ZM248.406 113.391V117.266H247.172V114.375H239.203V113.391H248.406ZM245.891 104.656V105.594H237.844V104.656H241.266V103.266H242.484V104.656H245.891ZM241.859 107C240.578 106.984 239.781 107.438 239.781 108.172C239.781 108.891 240.578 109.391 241.859 109.375C243.141 109.391 243.953 108.891 243.953 108.172C243.953 107.438 243.141 106.984 241.859 107ZM262.859 103.391V113.547H261.641V103.391H262.859ZM263.297 115.938V116.969H253.891V112.516H255.109V115.938H263.297ZM255.359 104.359C257.438 104.359 259 105.766 259 107.766C259 109.797 257.438 111.188 255.359 111.188C253.281 111.188 251.719 109.797 251.719 107.766C251.719 105.766 253.281 104.359 255.359 104.359ZM255.359 105.438C253.953 105.438 252.906 106.406 252.922 107.766C252.906 109.156 253.953 110.109 255.359 110.109C256.734 110.109 257.797 109.156 257.797 107.766C257.797 106.406 256.734 105.438 255.359 105.438ZM279.984 103.375V109.031H282.234V110.062H279.984V117.266H278.766V103.375H279.984ZM276.391 104.875C276.391 108.812 274.547 112.391 270.016 114.625L269.328 113.656C272.922 111.867 274.875 109.195 275.156 105.906H269.969V104.875H276.391ZM294.281 107.266V108.281H284.797V103.656H286.016V107.266H294.281ZM295.734 109.906V110.922H283.062V109.906H295.734ZM289.391 112.172C292.375 112.172 294.156 113.078 294.172 114.688C294.156 116.297 292.375 117.203 289.391 117.203C286.391 117.203 284.594 116.297 284.594 114.688C284.594 113.078 286.391 112.172 289.391 112.172ZM289.391 113.141C287.156 113.156 285.828 113.703 285.844 114.688C285.828 115.656 287.156 116.25 289.391 116.25C291.594 116.25 292.938 115.656 292.938 114.688C292.938 113.703 291.594 113.156 289.391 113.141Z" fill="#31343D"/>
<path d="M482.58 78H534.061C537.754 78.3112 540.646 81.2006 541.002 84.8903V135.923C540.646 139.612 537.754 142.502 534.061 142.858H482.98C479.287 142.502 476.395 139.612 476.039 135.923V84.7569C476.44 81.2451 479.109 78.5334 482.58 78ZM535.974 94.67V84.8903C535.974 84.4013 534.906 83.2011 534.328 83.0677C517.152 82.801 499.933 82.8899 482.758 83.0677C482.179 83.1566 481.023 84.3568 481.023 84.8903V94.6256H535.974V94.67ZM535.974 99.6488H481.023V135.923C481.023 136.412 482.09 137.612 482.669 137.745C499.844 138.012 517.063 137.923 534.239 137.745C534.817 137.657 535.974 136.456 535.974 135.923V99.6488Z" fill="#BCC4C1" fill-opacity="0.5"/>
<path d="M503.001 126.276C497.84 131.655 488.629 130.144 485.426 123.431C481.154 114.496 490.098 105.028 499.353 108.762C506.383 111.607 508.252 120.853 503.001 126.276ZM494.414 112.94C486.538 113.874 488.54 126.365 496.639 124.365C503.491 122.676 501.8 112.096 494.414 112.94Z" fill="#BCC4C1" fill-opacity="0.5"/>
<path d="M521.285 107.962C522.754 107.651 524.178 108.718 524.311 110.185V127.655C523.243 130.589 519.595 130.055 519.283 126.899C518.838 121.654 519.639 115.83 519.283 110.496C519.372 109.34 520.084 108.184 521.285 107.962Z" fill="#BCC4C1" fill-opacity="0.5"/>
<path d="M529.074 114.63C531.21 114.186 532.234 115.519 532.412 117.475C532.545 119.298 532.634 126.277 532.189 127.744C531.344 130.411 527.695 129.878 527.384 127.477C526.983 124.099 527.695 119.876 527.384 116.408C527.517 115.697 528.318 114.808 529.03 114.63H529.074Z" fill="#BCC4C1" fill-opacity="0.5"/>
<path d="M513.013 117.919C514.526 117.652 515.861 118.586 516.039 120.141C516.172 121.431 516.217 126.454 516.039 127.61C515.505 130.232 511.411 130.144 511.055 127.343C510.877 125.965 510.877 121.208 511.055 119.875C511.189 118.986 512.079 118.097 513.013 117.919Z" fill="#BCC4C1" fill-opacity="0.5"/>
<path d="M486.625 86.2683C487.871 86.0905 490.63 86.046 491.653 86.8017C493.433 88.0909 492.766 90.9804 490.675 91.2471C489.785 91.336 487.337 91.336 486.447 91.2471C483.778 90.9359 483.6 86.7573 486.67 86.3128L486.625 86.2683Z" fill="#BCC4C1" fill-opacity="0.5"/>
<path d="M496.594 86.2683C497.84 86.0905 500.599 86.046 501.622 86.8017C503.402 88.0909 502.735 90.9804 500.643 91.2471C499.753 91.336 497.306 91.336 496.416 91.2471C493.747 90.9359 493.569 86.7573 496.639 86.3128L496.594 86.2683Z" fill="#BCC4C1" fill-opacity="0.5"/>
</g>
<defs>
<filter id="filter0_d_5551_32495" x="0" y="0" width="574" height="172" filterUnits="userSpaceOnUse" color-interpolation-filters="sRGB">
<feFlood flood-opacity="0" result="BackgroundImageFix"/>
<feColorMatrix in="SourceAlpha" type="matrix" values="0 0 0 0 0 0 0 0 0 0 0 0 0 0 0 0 0 0 127 0" result="hardAlpha"/>
<feOffset dy="2"/>
<feGaussianBlur stdDeviation="7.5"/>
<feComposite in2="hardAlpha" operator="out"/>
<feColorMatrix type="matrix" values="0 0 0 0 0.487049 0 0 0 0 0.551844 0 0 0 0 0.691667 0 0 0 0.25 0"/>
<feBlend mode="normal" in2="BackgroundImageFix" result="effect1_dropShadow_5551_32495"/>
<feBlend mode="normal" in="SourceGraphic" in2="effect1_dropShadow_5551_32495" result="shape"/>
</filter>
<linearGradient id="paint0_linear_5551_32495" x1="15" y1="13" x2="512.823" y2="251.418" gradientUnits="userSpaceOnUse">
<stop stop-color="white"/>
<stop offset="1" stop-color="#EFFAF6" stop-opacity="0.5"/>
</linearGradient>
</defs>
</svg>
