<svg width="574" height="172" viewBox="0 0 574 172" fill="none" xmlns="http://www.w3.org/2000/svg">
<g filter="url(#filter0_d_5551_32467)">
<rect x="15" y="13" width="544" height="142" rx="20" fill="white"/>
<rect x="15" y="13" width="544" height="142" rx="20" fill="url(#paint0_linear_5551_32467)"/>
<path d="M59.9766 78H55.5469L62.4102 58.2031H67.6875L74.5234 78H70.1211L68.6445 73.4336H61.4805L59.9766 78ZM62.5195 70.2344H67.6055L65.1172 62.6602H64.9805L62.5195 70.2344ZM80.8672 58.2031V78H76.7656V58.2031H80.8672ZM103.016 55.6328V61.0195H106.379V63.8906H103.016V68.9492H99.5156V55.6328H103.016ZM95.332 57.1367V59.9258H87.7305V65.5586C92.2285 65.5312 94.7031 65.3945 97.4922 64.7656L97.8477 67.582C94.7305 68.2383 91.8594 68.375 86.3359 68.375H84.2305V57.1367H95.332ZM90.1641 70.1523V72.4492H99.5156V70.1523H103.016V80.2148H86.6641V70.1523H90.1641ZM90.1641 77.4258H99.5156V75.1836H90.1641V77.4258ZM128.445 55.6602V74.0078H124.973V67.9375H120.379V70.0703H108.539V57.2734H112.039V61.1016H116.934V57.2734H120.379V59.8164H124.973V55.6602H128.445ZM128.965 77.2891V80.0781H111.875V72.1758H115.402V77.2891H128.965ZM112.039 67.3359H116.934V63.7539H112.039V67.3359ZM120.379 65.1484H124.973V62.6328H120.379V65.1484ZM158.195 57.0273V59.1328C158.195 61.2383 158.195 63.6035 157.648 66.6523H160.902V69.4414H138.125V66.6523H154.094C154.654 63.8633 154.723 61.7852 154.723 59.8164H140.914V57.0273H158.195ZM158.906 77.2617V80.0508H141.023V71.6289H144.469V77.2617H158.906ZM183.297 55.6328V80.5156H179.824V68.0469H174.875V65.2031H179.824V55.6328H183.297ZM175.012 58.2305C175.012 65.75 172.578 71.875 163.883 76.1953L162.078 73.4609C168.367 70.3574 170.965 66.4062 171.512 60.9648H163.254V58.2305H175.012ZM195.711 62.4141C195.684 66.2148 197.707 70.5898 201.809 72.4766L199.867 75.2109C197.092 73.9395 195.109 71.3965 194.016 68.4023C192.895 71.6973 190.857 74.4863 187.973 75.8398L185.949 73.0781C190.105 71.1367 192.184 66.5156 192.211 62.4141V60.8828H186.934V58.0391H200.715V60.8828H195.711V62.4141ZM206.156 55.6328V65.1211H209.82V68.0469H206.156V80.5156H202.656V55.6328H206.156ZM233.5 74.8828V77.7539H210.723V74.8828H216.547V71.082H213.348V62.7148H227.43V60.0352H213.32V57.2461H230.875V65.5039H216.848V68.2656H231.449V71.082H227.922V74.8828H233.5ZM219.938 74.8828H224.504V71.082H219.938V74.8828ZM262.895 55.6328V80.5156H259.586V55.6328H262.895ZM257.809 56.043V79.3672H254.527V66.9805H251.246V64.1641H254.527V56.043H257.809ZM249.25 62.3047C249.25 66.4336 250.535 70.6172 254.172 72.6953L252.121 75.2656C249.906 73.9531 248.443 71.7246 247.609 69.0586C246.748 71.957 245.244 74.418 242.961 75.8125L240.855 73.2422C244.52 71 245.887 66.5156 245.887 62.3047V60.9648H241.812V58.1758H253.023V60.9648H249.25V62.3047ZM276.785 71.1367C282.227 71.1367 285.645 72.8594 285.672 75.8398C285.645 78.7656 282.227 80.5156 276.785 80.5156C271.398 80.5156 267.926 78.7656 267.926 75.8398C267.926 72.8594 271.398 71.1367 276.785 71.1367ZM276.785 73.7344C273.367 73.7344 271.398 74.4453 271.398 75.8398C271.398 77.1797 273.367 77.8633 276.785 77.8633C280.203 77.8633 282.199 77.1797 282.199 75.8398C282.199 74.4453 280.203 73.7344 276.785 73.7344ZM285.535 56.7539V58.7773C285.535 60.7461 285.535 62.8789 284.824 65.4492L281.406 65.1211C281.953 62.8652 282.021 61.1836 282.062 59.4883H268.172V56.7539H285.535ZM288.215 66.7344V69.5508H265.629V66.7344H274.105V62.3867H277.551V66.7344H288.215Z" fill="#31343D"/>
<path d="M487.307 76.2964L484.859 78.7439V86.2186C486.486 86.0407 488.128 86.0407 489.754 86.2186V81.1914H533.809V105.666H525.454L519.124 111.996V105.666H509.202C509.38 107.293 509.38 108.935 509.202 110.561H514.229V117.904L518.41 119.637L527.48 110.561H536.257L538.704 108.114V78.7439L536.257 76.2964H487.307Z" fill="#BEAFC0" fill-opacity="0.3"/>
<path fill-rule="evenodd" clip-rule="evenodd" d="M496.689 122.452C499.775 120.431 502.127 117.468 503.395 114.003C504.662 110.538 504.777 106.757 503.723 103.221C502.669 99.6859 500.501 96.5852 497.543 94.3805C494.585 92.1758 490.994 90.9849 487.305 90.9849C483.616 90.9849 480.025 92.1758 477.067 94.3805C474.109 96.5852 471.941 99.6859 470.887 103.221C469.833 106.757 469.948 110.538 471.215 114.003C472.482 117.468 474.834 120.431 477.921 122.452C474.14 124.232 470.944 127.051 468.705 130.579C466.466 134.108 465.278 138.2 465.277 142.379V144.827H470.172V142.379C470.323 137.935 472.193 133.724 475.39 130.634C478.587 127.544 482.859 125.816 487.305 125.816C491.751 125.816 496.023 127.544 499.22 130.634C502.416 133.724 504.287 137.935 504.437 142.379V144.827H509.332V142.379C509.332 138.2 508.143 134.108 505.904 130.579C503.666 127.051 500.469 124.232 496.689 122.452ZM487.305 120.352C484.059 120.352 480.947 119.062 478.652 116.767C476.357 114.472 475.067 111.36 475.067 108.114C475.067 104.868 476.357 101.756 478.652 99.4609C480.947 97.1659 484.059 95.8766 487.305 95.8766C490.55 95.8766 493.663 97.1659 495.958 99.4609C498.253 101.756 499.542 104.868 499.542 108.114C499.542 111.36 498.253 114.472 495.958 116.767C493.663 119.062 490.55 120.352 487.305 120.352Z" fill="#BEAFC0" fill-opacity="0.3" stroke="#BEAFC0" stroke-opacity="0.3" stroke-width="0.88"/>
<path d="M66.4219 103.375V106.641H68.5156V107.672H66.4219V110.781H65.2031V103.375H66.4219ZM62.375 104.297V105.312H57.4375V109.281C60.2266 109.281 61.8125 109.195 63.6719 108.812L63.8281 109.828C61.875 110.219 60.2188 110.312 57.2969 110.312H56.2188V104.297H62.375ZM58.8438 111.531V113.266H65.2031V111.531H66.4219V117.031H57.625V111.531H58.8438ZM58.8438 116.016H65.2031V114.25H58.8438V116.016ZM80.9062 103.391V113.672H79.6719V109.938H76.3906V111.297H70.0938V104.312H71.3125V106.781H75.1875V104.312H76.3906V105.938H79.6719V103.391H80.9062ZM81.2188 115.938V116.969H71.9219V112.656H73.1562V115.938H81.2188ZM71.3125 110.281H75.1875V107.75H71.3125V110.281ZM76.3906 108.922H79.6719V106.969H76.3906V108.922ZM90.9219 104.922V105.641C90.9062 106.734 90.9062 108.578 90.5156 111.156L89.2812 111.047C89.6562 108.719 89.6875 107.031 89.6875 105.922H83.8594V104.922H90.9219ZM87.2812 108.891V113.109C88.8203 113.055 90.3984 112.953 91.8438 112.781L91.9062 113.703C88.9844 114.156 85.7188 114.219 83.2344 114.203L83.0781 113.188C83.9922 113.18 85.0078 113.172 86.0781 113.141V108.891H87.2812ZM93.9375 103.375V109.188H96.1875V110.25H93.9375V117.266H92.7188V103.375H93.9375ZM108.766 104.453V105.188C108.75 106.094 108.75 107.484 108.406 109.297L107.172 109.203C107.508 107.539 107.539 106.359 107.562 105.484H101.844V104.453H108.766ZM105.188 107.531V110.516C106.727 110.453 108.32 110.344 109.766 110.141L109.844 111.047C106.938 111.547 103.578 111.609 101.109 111.609L100.984 110.594C101.883 110.586 102.898 110.578 103.969 110.547V107.531H105.188ZM111.953 103.375V107.906H113.984V108.953H111.953V113.828H110.703V103.375H111.953ZM112.406 115.938V116.969H103.125V112.891H104.359V115.938H112.406ZM121.484 104.375V108.422H116.703V110.719C119.242 110.719 120.633 110.648 122.328 110.359L122.453 111.375C120.641 111.688 119.188 111.734 116.469 111.734H115.469V107.453H120.234V105.375H115.438V104.375H121.484ZM126.406 103.391V113.609H125.172V109.859H122.422V108.844H125.172V106.734H122.422V105.734H125.172V103.391H126.406ZM126.828 115.875V116.891H117.375V112.859H118.609V115.875H126.828ZM136.797 107.938V108.938H133.984V110.875C135.281 110.82 136.578 110.727 137.781 110.594L137.875 111.5C134.891 111.906 131.578 112 128.969 112L128.781 111C130 110.992 131.367 110.977 132.766 110.922V108.938H130.047V104.281H136.688V105.297H131.281V107.938H136.797ZM140.172 103.391V113.781H138.938V103.391H140.172ZM140.625 115.938V116.969H131.156V113.062H132.375V115.938H140.625ZM157.719 104.781V106.328C157.719 108.109 157.719 109.906 157.219 112.484L156.016 112.344C156.516 109.891 156.516 108.062 156.516 106.328V105.797H147.891V104.781H157.719ZM159.219 114.281V115.297H146.562V114.281H149.703V109.703H150.922V114.281H153.172V109.703H154.375V114.281H159.219ZM167.359 104.672C167.359 106.625 169.922 108.328 172.422 108.672L171.922 109.672C169.766 109.312 167.633 108.117 166.734 106.406C165.844 108.125 163.703 109.312 161.547 109.672L161.047 108.672C163.547 108.328 166.094 106.656 166.094 104.672V103.875H167.359V104.672ZM173.047 111.203V112.234H167.297V117.266H166.094V112.234H160.391V111.203H173.047ZM178.922 107.641C178.906 109.875 180.516 112.328 182.531 113.281L181.828 114.25C180.266 113.492 178.945 111.836 178.328 109.953C177.688 112 176.289 113.797 174.734 114.594L173.984 113.625C175.984 112.656 177.703 110.016 177.719 107.641V105.828H174.484V104.812H182.047V105.828H178.922V107.641ZM184.969 103.375V109H187.297V110.047H184.969V117.266H183.75V103.375H184.969ZM202.922 103.375V107H205.016V108.016H202.922V111.719H201.703V103.375H202.922ZM199.141 104.406C199.141 107.938 196.641 110.547 192.594 111.734L192.078 110.734C195.43 109.766 197.57 107.836 197.828 105.422H192.688V104.406H199.141ZM198.531 111.875C201.328 111.875 203.078 112.891 203.078 114.547C203.078 116.234 201.328 117.234 198.531 117.234C195.766 117.234 193.969 116.234 193.984 114.547C193.969 112.891 195.766 111.875 198.531 111.875ZM198.531 112.859C196.5 112.844 195.188 113.5 195.203 114.547C195.188 115.594 196.5 116.25 198.531 116.25C200.578 116.25 201.891 115.594 201.891 114.547C201.891 113.5 200.578 112.844 198.531 112.859ZM210.438 104.391C212.625 104.391 214.172 105.719 214.172 107.656C214.172 109.594 212.625 110.922 210.438 110.922C208.25 110.922 206.672 109.594 206.688 107.656C206.672 105.719 208.25 104.391 210.438 104.391ZM210.438 105.469C208.953 105.469 207.875 106.359 207.891 107.656C207.875 108.953 208.953 109.844 210.438 109.844C211.906 109.844 212.969 108.953 212.969 107.656C212.969 106.359 211.906 105.469 210.438 105.469ZM217.281 103.375V117.297H216.062V103.375H217.281ZM205.969 113.188C208.531 113.188 212.062 113.172 215.141 112.719L215.234 113.625C212.062 114.219 208.641 114.234 206.141 114.234L205.969 113.188ZM224.422 107.641C224.406 109.875 226.016 112.328 228.031 113.281L227.328 114.25C225.766 113.492 224.445 111.836 223.828 109.953C223.188 112 221.789 113.797 220.234 114.594L219.484 113.625C221.484 112.656 223.203 110.016 223.219 107.641V105.828H219.984V104.812H227.547V105.828H224.422V107.641ZM230.469 103.375V109H232.797V110.047H230.469V117.266H229.25V103.375H230.469ZM246.266 114.516V115.547H233.547V114.516H237.125V111.875H235.141V107.594H243.453V105.422H235.109V104.406H244.656V108.609H236.359V110.859H244.984V111.875H242.812V114.516H246.266ZM238.328 114.516H241.609V111.875H238.328V114.516ZM262.859 103.391V111.938H261.641V103.391H262.859ZM258.438 104.266V108.078H253.312V110.047C255.797 110.047 257.656 109.984 259.906 109.609L260.047 110.625C257.719 111 255.812 111.078 253.25 111.078H252.125V107.109H257.219V105.297H252.094V104.266H258.438ZM258.25 112.219C261.172 112.219 262.953 113.141 262.953 114.734C262.953 116.328 261.172 117.234 258.25 117.234C255.328 117.234 253.562 116.328 253.562 114.734C253.562 113.141 255.328 112.219 258.25 112.219ZM258.25 113.203C256.094 113.203 254.766 113.781 254.766 114.734C254.766 115.688 256.094 116.25 258.25 116.25C260.406 116.25 261.719 115.688 261.719 114.734C261.719 113.781 260.406 113.203 258.25 113.203ZM276.297 104.797V106.516C276.297 108.562 276.297 110.453 275.719 113.266L274.484 113.156C274.789 111.82 274.945 110.664 275.031 109.578L266.547 110.047L266.375 109.031L275.078 108.672C275.102 107.938 275.102 107.227 275.109 106.516V105.828H266.75V104.797H276.297ZM277.875 114.281V115.312H265.219V114.281H277.875ZM294.938 103.375V117.266H293.766V103.375H294.938ZM292.125 103.719V116.547H290.969V109.391H288.625V108.391H290.969V103.719H292.125ZM287.141 107.344C287.141 109.75 288.219 112.141 290.141 113.25L289.391 114.156C288.023 113.336 287.055 111.836 286.578 110.062C286.07 111.977 285.062 113.609 283.672 114.484L282.891 113.562C284.828 112.406 285.953 109.875 285.953 107.344V106.031H283.281V105.016H289.688V106.031H287.141V107.344ZM303.172 112.156C306.156 112.156 308.047 113.094 308.047 114.703C308.047 116.297 306.156 117.234 303.172 117.234C300.203 117.234 298.312 116.297 298.312 114.703C298.312 113.094 300.203 112.156 303.172 112.156ZM303.172 113.094C300.953 113.109 299.516 113.719 299.531 114.703C299.516 115.672 300.953 116.266 303.172 116.266C305.391 116.266 306.812 115.672 306.828 114.703C306.812 113.719 305.391 113.109 303.172 113.094ZM307.938 104.094V105.266C307.938 106.391 307.938 107.516 307.547 108.953L306.344 108.812C306.719 107.375 306.719 106.359 306.719 105.266V105.094H298.406V104.094H307.938ZM309.547 109.859V110.859H296.906V109.859H302.141V107.172H303.344V109.859H309.547Z" fill="#31343D"/>
</g>
<defs>
<filter id="filter0_d_5551_32467" x="0" y="0" width="574" height="172" filterUnits="userSpaceOnUse" color-interpolation-filters="sRGB">
<feFlood flood-opacity="0" result="BackgroundImageFix"/>
<feColorMatrix in="SourceAlpha" type="matrix" values="0 0 0 0 0 0 0 0 0 0 0 0 0 0 0 0 0 0 127 0" result="hardAlpha"/>
<feOffset dy="2"/>
<feGaussianBlur stdDeviation="7.5"/>
<feComposite in2="hardAlpha" operator="out"/>
<feColorMatrix type="matrix" values="0 0 0 0 0.487049 0 0 0 0 0.551844 0 0 0 0 0.691667 0 0 0 0.25 0"/>
<feBlend mode="normal" in2="BackgroundImageFix" result="effect1_dropShadow_5551_32467"/>
<feBlend mode="normal" in="SourceGraphic" in2="effect1_dropShadow_5551_32467" result="shape"/>
</filter>
<linearGradient id="paint0_linear_5551_32467" x1="15" y1="13" x2="512.823" y2="251.418" gradientUnits="userSpaceOnUse">
<stop stop-color="white"/>
<stop offset="1" stop-color="#FEF8FF" stop-opacity="0.5"/>
</linearGradient>
</defs>
</svg>
