<svg width="24" height="24" viewBox="0 0 24 24" fill="none" xmlns="http://www.w3.org/2000/svg">
<path d="M5.02221 10.6005C5.08873 9.13135 5.78421 7.63835 6.58049 6.33875C6.73047 8.37839 7.69367 8.4551 8.24643 8.4551C8.49941 8.41452 8.7289 8.28284 8.89178 8.0848C9.05466 7.88676 9.13973 7.63598 9.131 7.37956C9.15922 6.61409 9.35194 6.16676 10.5365 4.27206C10.6395 4.32347 10.7528 4.35081 10.8679 4.35199C11.332 4.35199 12.079 3.91798 11.4662 0.666748C11.4662 0.666748 16.0229 3.32127 15.8516 7.71708C15.8524 7.79263 15.8681 7.86728 15.8978 7.93676C15.9274 8.00624 15.9705 8.06919 16.0244 8.12201C16.0784 8.17483 16.1422 8.2165 16.2122 8.24462C16.2822 8.27275 16.3571 8.28679 16.4326 8.28594H16.4398C16.4676 8.28728 16.4955 8.28701 16.5233 8.28513C16.7804 8.26732 17.0299 8.19073 17.2528 8.06125C17.4757 7.93177 17.666 7.75285 17.809 7.53823C18.292 8.37839 18.9149 9.35663 18.8903 10.2945C19.5749 15.658 17.0236 16.885 12.0827 21.9744C12.0698 21.9889 12.0519 21.998 12.0326 21.9998C12.0133 22.0016 11.994 21.996 11.9787 21.9841C7.10946 17.1728 4.7424 16.7735 5.02221 10.6005Z" fill="#FCEA2B"/>
<path d="M12.4109 6.20183C12.2919 6.60611 11.8952 7.27911 10.7439 8.43725C10.7043 8.4642 10.7043 8.49115 10.6648 8.5181C10.479 8.68039 10.3266 8.87877 10.2165 9.10174C10.1063 9.3247 10.0405 9.5678 10.023 9.81694C10.0377 10.0364 10.1084 10.2481 10.2282 10.4309C9.96533 10.6691 9.63341 10.8128 9.28315 10.8399C9.05126 10.8399 8.56576 10.6449 8.52854 10.3405C8.36749 10.4523 8.2353 10.6022 8.14326 10.7775C8.05122 10.9528 8.00207 11.1483 8 11.3472C8 12.5494 8.62664 13.8474 10.4523 14.8169C10.4523 14.8169 10.982 15.0638 11.0219 15.3064C11.0219 15.3064 11.0219 15.3333 11.0615 15.3333H13.1652C13.2447 15.3333 13.2447 15.3333 13.2447 15.3064C13.2447 15.2525 13.4036 14.956 14.5146 14.2826C15.1146 13.9417 15.6199 13.4504 15.9831 12.855C15.9953 12.8249 16.001 12.7925 15.9999 12.76C15.9987 12.7275 15.9908 12.6957 15.9765 12.6666C15.9623 12.6375 15.9421 12.6119 15.9174 12.5915C15.8926 12.571 15.8639 12.5563 15.8331 12.5482C15.8047 12.5384 15.775 12.5329 15.745 12.5319C15.6598 12.511 15.5801 12.4711 15.5116 12.4152C15.443 12.3594 15.3873 12.2888 15.3483 12.2085C15.3483 12.2085 15.2688 11.9929 15.5864 11.5082C15.7351 11.3244 15.8262 11.0991 15.8478 10.8617C15.8057 10.7745 15.7341 10.7059 15.6462 10.6686C15.5583 10.6314 15.4602 10.628 15.3701 10.6592C15.3569 10.6631 15.344 10.6678 15.3313 10.6731C15.1365 10.7567 14.9203 10.773 14.7155 10.7196C14.5108 10.6661 14.3288 10.5458 14.197 10.377C14.197 10.377 13.9194 9.94575 14.1575 8.89543C14.3165 8.08687 13.7608 6.76703 13.0461 6.09403C12.8476 5.93231 12.4509 5.98622 12.4109 6.20183Z" fill="#F1B31C"/>
<path d="M18.3249 13.2354C18.298 12.3511 17.9283 11.5139 17.2969 10.9075C16.6656 10.3012 15.8242 9.97533 14.9576 10.0015C14.4461 9.99723 13.9402 10.1096 13.4767 10.3303C13.0132 10.551 12.6038 10.8745 12.2784 11.2772C12.2447 11.321 12.2017 11.3563 12.1526 11.3806C12.1035 11.4049 12.0497 11.4175 11.9952 11.4175C11.9406 11.4175 11.8868 11.4049 11.8377 11.3806C11.7887 11.3563 11.7457 11.321 11.7119 11.2772C11.3865 10.8745 10.9771 10.5509 10.5135 10.3302C10.0499 10.1095 9.5439 9.99717 9.03236 10.0015C8.16581 9.97544 7.32456 10.3014 6.6933 10.9077C6.06204 11.514 5.69237 12.3512 5.66546 13.2354C5.64404 13.9888 5.8693 14.728 6.30564 15.3362L11.4489 21.8227C11.5927 21.9937 12.3347 22.0895 12.5023 21.8821C13.5497 20.5841 17.7029 15.3237 17.7029 15.3237L17.7124 15.3107C18.1527 14.7157 18.37 13.9796 18.3249 13.2354Z" fill="#EA5A47"/>
<path d="M9.47367 15.8192C9.2781 15.7777 9.75938 16.7502 9.34128 17.4479C8.88817 18.2048 8.51353 18.5852 8.72439 19.3625C8.94089 20.1606 10.231 20.8465 10.2833 20.6242C10.2898 20.5523 10.283 20.4799 10.2632 20.4104C10.2442 20.2255 10.2643 20.0388 10.3222 19.8617C10.3802 19.6847 10.4747 19.521 10.6 19.381C10.7751 19.1759 10.8997 18.9345 10.9643 18.6752C11.0289 18.4159 11.0318 18.1457 10.9726 17.8852C10.8745 17.1322 10.2652 15.9875 9.47367 15.8192ZM16.1376 12.3379C16.379 12.2496 15.9203 13.4446 16.5589 14.1391C17.2514 14.8921 17.7862 15.2404 17.6397 16.1577C17.4897 17.1001 15.9617 18.1452 15.8603 17.9068C15.8407 17.8267 15.838 17.7436 15.8523 17.6625C15.8472 17.4498 15.7917 17.2411 15.6898 17.053C15.588 16.8648 15.4428 16.7022 15.2655 16.5781C15.0163 16.3933 14.8203 16.1488 14.6966 15.8683C14.5729 15.5879 14.5258 15.2811 14.5597 14.9776C14.5666 14.1109 15.1601 12.6955 16.1376 12.3383V12.3379Z" fill="#FCEA2B"/>
<path d="M18.059 13.1525C18.0592 12.4369 17.8206 11.7416 17.3809 11.1768C16.9413 10.6121 16.3258 10.2102 15.632 10.0348C14.9381 9.85936 14.2056 9.92049 13.5504 10.2085C12.8952 10.4965 12.3548 10.9948 12.0149 11.6246C11.8029 11.2306 11.5111 10.8852 11.158 10.6105C10.8049 10.3357 10.3984 10.1377 9.96436 10.0291C9.53037 9.92045 9.07847 9.90359 8.63759 9.97958C8.1967 10.0556 7.77653 10.2228 7.40395 10.4704C7.03137 10.7181 6.71458 11.0408 6.47385 11.4179C6.23311 11.795 6.07374 12.2182 6.00591 12.6604C5.93808 13.1026 5.9633 13.5541 6.07995 13.986C6.1966 14.4179 6.40211 14.8208 6.68333 15.1687L6.68213 15.1695L7.86603 16.6367M11.3908 21.005L12.0149 21.7786L14.5406 18.6481" stroke="black" stroke-width="0.8" stroke-linecap="round" stroke-linejoin="round"/>
<path d="M5.42969 10.5944C5.46778 9.10996 5.90115 7.66251 6.68512 6.40136C6.83461 8.43159 7.79467 8.50794 8.34563 8.50794C8.75674 8.50794 9.27033 7.74199 9.32418 6.89565C9.43915 5.91629 9.9019 5.01074 10.6282 4.3438C10.731 4.39508 10.8441 4.42229 10.959 4.42337C11.4211 4.42337 12.1662 3.99136 11.5549 0.755127C11.5549 0.755127 16.0968 3.3974 15.9261 7.77293C15.9269 7.84813 15.9425 7.92244 15.9721 7.99159C16.0017 8.06075 16.0445 8.12341 16.0983 8.17599C16.1521 8.22857 16.2157 8.27004 16.2855 8.29804C16.3553 8.32604 16.4299 8.34001 16.5051 8.33916H16.5124C16.5401 8.34048 16.5679 8.34021 16.5956 8.33836C16.8518 8.32063 17.1005 8.24439 17.3227 8.11551C17.5449 7.98663 17.7345 7.80853 17.8771 7.5949C18.3536 8.41137 18.5944 9.34394 18.5727 10.289" stroke="black" stroke-width="0.8" stroke-linecap="round" stroke-linejoin="round"/>
<path d="M10.5896 19.454C10.7645 19.2439 10.8889 18.9965 10.9534 18.7308C11.0179 18.4652 11.0208 18.1883 10.9617 17.9213C10.8637 17.1497 10.2552 15.9763 9.46477 15.8043C9.26947 15.7617 9.7501 16.7583 9.33256 17.4732C8.88006 18.2488 8.50592 18.6387 8.7165 19.4348C8.9327 20.2526 10.2211 20.9558 10.2733 20.728C10.2798 20.6543 10.273 20.5802 10.2532 20.5089C10.2343 20.3195 10.2543 20.1281 10.3122 19.9467C10.37 19.7652 10.4645 19.5976 10.5896 19.454M16.1197 12.2369C16.3608 12.1465 15.9027 13.371 16.5404 14.0827C17.2321 14.8543 17.7661 15.2111 17.6199 16.1511C17.47 17.1168 15.9441 18.1878 15.8428 17.9434C15.8233 17.8614 15.8205 17.7762 15.8348 17.6931C15.8298 17.4751 15.7743 17.2613 15.6726 17.0685C15.5709 16.8757 15.4258 16.7091 15.2488 16.5819C14.9999 16.3925 14.8042 16.142 14.6807 15.8546C14.5572 15.5673 14.5101 15.2528 14.544 14.9419C14.5508 14.0538 15.1436 12.6034 16.1197 12.2373V12.2369Z" stroke="black" stroke-width="0.8" stroke-miterlimit="10"/>
</svg>
