<svg width="24" height="24" viewBox="0 0 24 24" fill="none" xmlns="http://www.w3.org/2000/svg">
<path d="M15.6004 14.3111L20.3333 13.3063L15.0014 12.0113C14.9297 11.994 14.8645 11.9563 14.8138 11.9029C14.763 11.8494 14.7288 11.7825 14.7152 11.7102C14.7016 11.6378 14.7092 11.563 14.7371 11.4949C14.7651 11.4267 14.8121 11.3681 14.8726 11.326L17.7239 9.34101L14.0514 10.2279C13.9882 10.2431 13.9222 10.242 13.8596 10.2247C13.797 10.2075 13.7398 10.1746 13.6934 10.1293C13.647 10.084 13.6129 10.0276 13.5942 9.96555C13.5756 9.90346 13.5731 9.83767 13.5869 9.77433L14.7661 4.4138L12.2413 8.27548C11.7592 7.72971 11.1759 6.83514 11.1108 6.71505L8.46379 1.86471C8.42029 1.78598 8.3504 1.72504 8.26638 1.69257C8.18236 1.66011 8.08958 1.65819 8.00428 1.68716C7.91899 1.71612 7.84664 1.77413 7.7999 1.851C7.75317 1.92787 7.73503 2.0187 7.74868 2.10757L8.70983 8.18178L4.87978 6.0033C4.80362 5.95953 4.7147 5.94325 4.62793 5.95718C4.54116 5.97111 4.46184 6.01441 4.40328 6.0798C4.34472 6.1452 4.31048 6.22871 4.30632 6.31632C4.30216 6.40392 4.32833 6.49029 4.38043 6.56092L7.18456 10.3993L2.31595 11.2632C2.23043 11.2785 2.15263 11.3222 2.09531 11.3874C2.03798 11.4525 2.00452 11.5351 2.00043 11.6217C1.99633 11.7083 2.02183 11.7937 2.07275 11.864C2.12367 11.9342 2.19699 11.9851 2.28069 12.0083L7.4007 13.4245L4.38656 16.1629C4.32068 16.2228 4.27778 16.3038 4.26525 16.3918C4.25271 16.4799 4.27132 16.5696 4.31787 16.6454C4.36442 16.7212 4.43601 16.7785 4.52031 16.8074C4.60461 16.8363 4.69636 16.8349 4.77976 16.8035L9.22758 15.141C9.20803 15.8776 9.18581 16.4846 9.19156 16.5614L10.2543 20.6667L12.661 15.2527C12.6893 15.189 12.7344 15.1343 12.7916 15.0944C12.8487 15.0545 12.9157 15.0309 12.9853 15.0261C13.0549 15.0214 13.1245 15.0357 13.1865 15.0676C13.2486 15.0994 13.3007 15.1475 13.3374 15.2068L15.6594 18.9472L15.298 14.718C15.2902 14.6251 15.3165 14.5325 15.3722 14.4575C15.4279 14.3826 15.509 14.3306 15.6004 14.3111Z" fill="#FCEA2B"/>
<path d="M9.80163 22.6667C9.7041 22.6667 9.61017 22.6298 9.53878 22.5635C9.46739 22.4971 9.42385 22.4062 9.41692 22.3091L9.00099 16.4942C8.99368 16.3924 9.02718 16.2918 9.09412 16.2146C9.16106 16.1375 9.25596 16.09 9.35794 16.0827C9.45992 16.0754 9.56063 16.1089 9.63791 16.1757C9.71519 16.2426 9.76271 16.3373 9.77002 16.4392L10.0761 20.715L12.4969 15.2659C12.5254 15.2018 12.5708 15.1467 12.6283 15.1066C12.6858 15.0664 12.7531 15.0426 12.8232 15.0379C12.8932 15.0331 12.9631 15.0476 13.0255 15.0796C13.088 15.1116 13.1404 15.1601 13.1773 15.2197L15.5129 18.9844L15.1494 14.7277C15.1415 14.6342 15.1681 14.541 15.224 14.4656C15.28 14.3902 15.3616 14.3378 15.4536 14.3182L20.2142 13.3069L14.851 12.0036C14.7789 11.9861 14.7134 11.9482 14.6623 11.8944C14.6113 11.8406 14.5768 11.7733 14.5631 11.7004C14.5495 11.6276 14.5571 11.5524 14.5852 11.4838C14.6133 11.4152 14.6607 11.3561 14.7215 11.3137L17.5895 9.31593L13.8954 10.2086C13.8319 10.2238 13.7656 10.2227 13.7026 10.2054C13.6396 10.188 13.5821 10.155 13.5354 10.1093C13.4887 10.0637 13.4544 10.007 13.4357 9.94451C13.4169 9.88203 13.4144 9.81581 13.4282 9.75206L14.6144 4.3568L11.7961 8.67039C11.769 8.71393 11.7335 8.75163 11.6916 8.78128C11.6498 8.81093 11.6024 8.83193 11.5523 8.84304C11.5022 8.85416 11.4503 8.85517 11.3998 8.84601C11.3493 8.83686 11.3011 8.81772 11.2581 8.78973C11.2151 8.76173 11.1782 8.72545 11.1494 8.68299C11.1206 8.64054 11.1007 8.59278 11.0906 8.54251C11.0806 8.49224 11.0807 8.44047 11.091 8.39025C11.1013 8.34003 11.1215 8.29236 11.1504 8.25004L15.1197 2.17421C15.169 2.09892 15.2432 2.04326 15.3294 2.0169C15.4155 1.99053 15.5082 1.99513 15.5913 2.0299C15.6744 2.06467 15.7427 2.1274 15.7843 2.20721C15.8259 2.28701 15.8381 2.37885 15.819 2.46676L14.3137 9.31516L19.4005 8.08606C19.4879 8.06487 19.5799 8.07485 19.6607 8.11426C19.7415 8.15368 19.8059 8.22005 19.8429 8.3019C19.8798 8.38375 19.887 8.47592 19.8631 8.56247C19.8392 8.64902 19.7857 8.72451 19.712 8.77587L15.8633 11.4573L22.0387 12.9586C22.1236 12.9792 22.199 13.0279 22.2526 13.0969C22.3061 13.1659 22.3345 13.2509 22.3333 13.3382C22.332 13.4254 22.3011 13.5097 22.2457 13.5771C22.1902 13.6445 22.1134 13.6911 22.0279 13.7092L15.9466 15.0011L16.418 20.5226C16.4254 20.6088 16.4035 20.695 16.3558 20.7673C16.308 20.8396 16.2373 20.8937 16.155 20.9208C16.0727 20.948 15.9836 20.9467 15.9022 20.9171C15.8207 20.8875 15.7516 20.8314 15.706 20.7578L12.9059 16.244L10.154 22.4376C10.1237 22.5058 10.0744 22.5637 10.0118 22.6043C9.94927 22.645 9.87626 22.6666 9.80163 22.6667Z" fill="black"/>
<path d="M4.5991 16.6667C4.52304 16.6669 4.44872 16.6438 4.38594 16.6007C4.32315 16.5575 4.27484 16.4963 4.24737 16.425C4.21989 16.3538 4.21454 16.2758 4.23201 16.2015C4.24948 16.1271 4.28896 16.0598 4.34525 16.0084L7.30788 13.2993L2.276 11.8982C2.19374 11.8752 2.12167 11.8249 2.0716 11.7555C2.02153 11.686 1.99643 11.6015 2.00041 11.5159C2.00439 11.4302 2.03723 11.3485 2.09352 11.284C2.14982 11.2195 2.22625 11.1762 2.31028 11.1611L7.09508 10.306L4.33922 6.50941C4.28787 6.43951 4.26205 6.35398 4.2661 6.2672C4.27016 6.18043 4.30385 6.0977 4.36149 6.03295C4.41914 5.9682 4.49723 5.92537 4.58263 5.91167C4.66802 5.89797 4.7555 5.91425 4.83036 5.95775L8.59447 8.11294L7.64949 2.10329C7.63596 2.01527 7.65374 1.92527 7.69971 1.84911C7.74569 1.77295 7.81691 1.7155 7.90086 1.68686C7.98481 1.65822 8.07612 1.66022 8.15875 1.69251C8.24138 1.7248 8.31004 1.78531 8.35267 1.86341L10.9541 6.66189C10.9778 6.70554 10.9926 6.75345 10.9979 6.80288C11.0031 6.8523 10.9986 6.90228 10.9846 6.94996C10.9706 6.99764 10.9474 7.04208 10.9163 7.08075C10.8853 7.11942 10.8469 7.15156 10.8034 7.17534C10.76 7.19912 10.7123 7.21406 10.6631 7.21932C10.6139 7.22458 10.5642 7.22006 10.5167 7.206C10.4692 7.19195 10.425 7.16864 10.3865 7.13741C10.348 7.10618 10.316 7.06764 10.2924 7.02399L8.73383 4.14914L9.46074 8.77282C9.47198 8.84326 9.46315 8.91547 9.43526 8.98108C9.40738 9.0467 9.36158 9.10305 9.30315 9.14361C9.24473 9.18418 9.17607 9.2073 9.10512 9.21032C9.03416 9.21333 8.96381 9.19611 8.90218 9.16065L5.98249 7.48825L8.05927 10.3502C8.09706 10.402 8.12107 10.4627 8.12904 10.5264C8.13701 10.5901 8.12866 10.6548 8.10479 10.7144C8.08093 10.774 8.04233 10.8265 7.99264 10.8669C7.94296 10.9073 7.88383 10.9344 7.82086 10.9454L4.07633 11.6144L8.16661 12.7533C8.23159 12.7713 8.29058 12.8064 8.33742 12.8551C8.38425 12.9038 8.41722 12.9643 8.43288 13.0301C8.44854 13.096 8.44632 13.1649 8.42644 13.2296C8.40657 13.2943 8.36978 13.3525 8.3199 13.398L6.31054 15.2354L9.17788 14.1483C9.22444 14.1294 9.2743 14.12 9.32452 14.1207C9.37474 14.1214 9.42431 14.1322 9.47031 14.1525C9.51632 14.1727 9.55783 14.202 9.5924 14.2386C9.62696 14.2752 9.6539 14.3184 9.67161 14.3656C9.68932 14.4129 9.69745 14.4632 9.69552 14.5136C9.69359 14.564 9.68164 14.6135 9.66038 14.6592C9.63912 14.705 9.60897 14.7459 9.57171 14.7798C9.53445 14.8136 9.49083 14.8396 9.44341 14.8562L4.73168 16.6422C4.68934 16.6584 4.64441 16.6667 4.5991 16.6667Z" fill="black"/>
</svg>
