<svg width="24" height="24" viewBox="0 0 24 24" fill="none" xmlns="http://www.w3.org/2000/svg">
<path d="M5.02221 10.6005C5.08873 9.13135 5.78421 7.63835 6.58049 6.33875C6.73047 8.37839 7.69367 8.4551 8.24643 8.4551C8.49941 8.41452 8.7289 8.28284 8.89178 8.0848C9.05466 7.88676 9.13973 7.63598 9.131 7.37956C9.15922 6.61409 9.35194 6.16676 10.5365 4.27206C10.6395 4.32347 10.7528 4.35081 10.8679 4.35199C11.332 4.35199 12.079 3.91798 11.4662 0.666748C11.4662 0.666748 16.0229 3.32127 15.8516 7.71708C15.8524 7.79263 15.8681 7.86728 15.8978 7.93676C15.9274 8.00624 15.9705 8.06919 16.0244 8.12201C16.0784 8.17483 16.1422 8.2165 16.2122 8.24462C16.2822 8.27275 16.3571 8.28679 16.4326 8.28594H16.4398C16.4676 8.28728 16.4955 8.28701 16.5233 8.28513C16.7804 8.26732 17.0299 8.19073 17.2528 8.06125C17.4757 7.93177 17.666 7.75285 17.809 7.53823C18.292 8.37839 18.9149 9.35663 18.8903 10.2945C19.5749 15.658 17.0236 16.885 12.0827 21.9744C12.0698 21.9889 12.0519 21.998 12.0326 21.9998C12.0133 22.0016 11.994 21.996 11.9787 21.9841C7.10946 17.1728 4.7424 16.7735 5.02221 10.6005Z" fill="#FCEA2B"/>
<path d="M12.4109 6.20183C12.2919 6.60611 11.8952 7.27911 10.7439 8.43725C10.7043 8.4642 10.7043 8.49115 10.6648 8.5181C10.479 8.68039 10.3266 8.87877 10.2165 9.10174C10.1063 9.3247 10.0405 9.5678 10.023 9.81694C10.0377 10.0364 10.1084 10.2481 10.2282 10.4309C9.96533 10.6691 9.63341 10.8128 9.28315 10.8399C9.05126 10.8399 8.56576 10.6449 8.52854 10.3405C8.36749 10.4523 8.2353 10.6022 8.14326 10.7775C8.05122 10.9528 8.00207 11.1483 8 11.3472C8 12.5494 8.62664 13.8474 10.4523 14.8169C10.4523 14.8169 10.982 15.0638 11.0219 15.3064C11.0219 15.3064 11.0219 15.3333 11.0615 15.3333H13.1652C13.2447 15.3333 13.2447 15.3333 13.2447 15.3064C13.2447 15.2525 13.4036 14.956 14.5146 14.2826C15.1146 13.9417 15.6199 13.4504 15.9831 12.855C15.9953 12.8249 16.001 12.7925 15.9999 12.76C15.9987 12.7275 15.9908 12.6957 15.9765 12.6666C15.9623 12.6375 15.9421 12.6119 15.9174 12.5915C15.8926 12.571 15.8639 12.5563 15.8331 12.5482C15.8047 12.5384 15.775 12.5329 15.745 12.5319C15.6598 12.511 15.5801 12.4711 15.5116 12.4152C15.443 12.3594 15.3873 12.2888 15.3483 12.2085C15.3483 12.2085 15.2688 11.9929 15.5864 11.5082C15.7351 11.3244 15.8262 11.0991 15.8478 10.8617C15.8057 10.7745 15.7341 10.7059 15.6462 10.6686C15.5583 10.6314 15.4602 10.628 15.3701 10.6592C15.3569 10.6631 15.344 10.6678 15.3313 10.6731C15.1365 10.7567 14.9203 10.773 14.7155 10.7196C14.5108 10.6661 14.3288 10.5458 14.197 10.377C14.197 10.377 13.9194 9.94575 14.1575 8.89543C14.3165 8.08687 13.7608 6.76703 13.0461 6.09403C12.8476 5.93231 12.4509 5.98622 12.4109 6.20183Z" fill="#F1B31C"/>
<path d="M11.7912 19.2578C14.7049 19.2578 17.0669 16.8958 17.0669 13.9822C17.0669 11.0685 14.7049 8.70654 11.7912 8.70654C8.8776 8.70654 6.51562 11.0685 6.51562 13.9822C6.51562 16.8958 8.8776 19.2578 11.7912 19.2578Z" fill="#92D3F5"/>
<path d="M7.00023 13.8916C7.09606 13.9183 7.41195 13.9729 7.53656 14.097C7.69388 14.2538 7.52244 14.3919 7.71533 14.7134C7.87176 14.9744 7.97241 15.3475 8.07289 15.3298C8.20572 15.3066 8.17228 14.7833 8.43044 14.508C8.51357 14.4192 8.64979 14.0683 8.78799 14.097C9.05472 14.1525 9.00609 14.7896 9.32431 14.9189C9.50952 14.9941 9.74158 15.0711 9.86064 14.9189C10.013 14.7241 9.92089 14.5665 10.0394 14.3025C10.1874 13.9729 10.4104 14.0407 10.7545 13.6861C11.1139 13.3159 10.6231 13.1285 10.9333 12.8643C11.3085 12.5448 11.7417 12.7679 12.0059 12.4533C12.2525 12.1599 11.9255 11.8783 12.1847 11.6315C12.2988 11.5228 12.7348 11.53 13.2574 11.426C13.4867 11.3804 13.8364 11.311 14.1513 11.2206C14.4048 11.1478 14.5202 10.9607 14.5088 10.8096C14.4975 10.6613 14.3867 10.6087 14.33 10.6042C13.9694 10.575 13.9242 10.6432 13.6149 10.6042C13.2592 10.559 13.2663 10.4618 12.8998 10.3987C12.7309 10.3695 12.7057 10.3862 12.0059 10.3987C11.601 10.4059 11.3963 10.4094 11.2908 10.3987C10.9874 10.3669 10.6877 10.298 10.397 10.1933C10.0337 10.0585 10.0394 9.99253 9.86064 9.9878C9.59069 9.98061 9.4836 10.129 9.14554 10.1933C8.96793 10.2265 8.78682 10.2265 8.60921 10.1933L8.42972 10.0778L7.92379 10.701L7.51975 11.3708L7.24319 11.9882L7.02884 12.6588L6.87723 13.4418L6.83594 13.8651L7.00023 13.8916ZM11.1121 16.5626C10.9223 16.5848 10.7392 16.655 10.5757 16.768C10.4501 16.8564 10.2977 16.9636 10.2182 17.179C10.1351 17.4039 10.1799 17.6154 10.2182 17.7953C10.2623 18.0033 10.2949 18.1559 10.397 18.2063C10.5271 18.2706 10.6174 18.2987 10.9333 18.2063C11.0711 18.166 11.2801 18.1048 11.4696 18.2063C11.6475 18.3016 11.6155 18.2317 11.8272 18.4117C11.9019 18.4754 12.1023 18.6458 12.3635 18.6172C12.5909 18.5925 12.7933 18.4247 12.8998 18.2063C13.033 17.9336 13.0049 17.6061 12.8998 17.3844C12.7507 17.0701 12.5262 17.1368 12.3635 16.768C12.2898 16.6008 12.2986 16.5022 12.1847 16.3571C12.0682 16.2088 11.8894 16.0962 11.8272 16.1517C11.7555 16.2158 11.9085 16.442 11.8272 16.5626C11.7403 16.6916 11.5107 16.5137 11.1121 16.5626Z" fill="#B1CC33"/>
<path d="M6.71094 13.7556C6.81503 13.7809 7.15817 13.8325 7.29353 13.9498C7.46442 14.098 7.27819 14.2285 7.48772 14.5324C7.65765 14.7791 7.76698 15.1317 7.87612 15.115C8.0204 15.0931 7.98409 14.5985 8.26451 14.3382C8.35481 14.2543 8.50279 13.9227 8.6529 13.9498C8.94264 14.0023 8.88982 14.6045 9.23549 14.7266C9.43668 14.7977 9.68875 14.8705 9.81808 14.7266C9.98354 14.5425 9.88352 14.3936 10.0123 14.144C10.1731 13.8325 10.4152 13.8966 10.7891 13.5614C11.1794 13.2115 10.6463 13.0344 10.9833 12.7847C11.3909 12.4827 11.8614 12.6936 12.1484 12.3963C12.4162 12.119 12.061 11.8527 12.3426 11.6195C12.4665 11.5168 12.9402 11.5236 13.5078 11.4253C13.757 11.3822 13.9426 11.5107 14.2846 11.4253C14.56 11.3565 15.0738 10.9854 15.0614 10.8427C15.0491 10.7025 14.7346 10.6528 14.673 10.6485C14.2813 10.6209 14.2322 10.6854 13.8962 10.6485C13.5098 10.6058 13.5175 10.5139 13.1194 10.4543C12.9359 10.4267 12.9085 10.4425 12.1484 10.4543C11.7086 10.4611 11.4862 10.4644 11.3717 10.4543C11.042 10.4242 10.7165 10.3591 10.4007 10.2601C10.0061 10.1327 10.0123 10.0704 9.81808 10.0659C9.52484 10.0591 9.40852 10.1993 9.04129 10.2601C8.84837 10.2915 8.65163 10.2915 8.45871 10.2601M11.1775 16.2802C10.9713 16.3012 10.7724 16.3676 10.5949 16.4744C10.4583 16.5579 10.2929 16.6593 10.2065 16.8628C10.1162 17.0754 10.1649 17.2753 10.2065 17.4454C10.2544 17.6419 10.2898 17.7862 10.4007 17.8338C10.542 17.8946 10.6401 17.9212 10.9833 17.8338C11.133 17.7957 11.36 17.7378 11.5658 17.8338C11.7591 17.9239 11.7243 17.8578 11.9542 18.028C12.0354 18.0882 12.2531 18.2492 12.5368 18.2222C12.7838 18.1989 13.0037 18.0402 13.1194 17.8338C13.2641 17.5761 13.2336 17.2665 13.1194 17.057C12.9575 16.7599 12.7135 16.823 12.5368 16.4744C12.4568 16.3163 12.4663 16.2231 12.3426 16.086C12.216 15.9458 12.0218 15.8394 11.9542 15.8918C11.8764 15.9524 12.0426 16.1662 11.9542 16.2802C11.8599 16.4022 11.6105 16.234 11.1775 16.2802Z" stroke="black" stroke-width="0.8" stroke-miterlimit="10" stroke-linecap="round" stroke-linejoin="round"/>
<path d="M11.9531 19.5815C14.9562 19.5815 17.3906 17.1471 17.3906 14.144C17.3906 11.141 14.9562 8.70654 11.9531 8.70654C8.95008 8.70654 6.51562 11.141 6.51562 14.144C6.51562 17.1471 8.95008 19.5815 11.9531 19.5815Z" stroke="black" stroke-width="0.8" stroke-miterlimit="10" stroke-linecap="round" stroke-linejoin="round"/>
<path d="M9.47367 15.8192C9.2781 15.7777 9.75938 16.7502 9.34128 17.4479C8.88817 18.2048 8.51353 18.5852 8.72439 19.3625C8.94089 20.1606 10.231 20.8465 10.2833 20.6242C10.2898 20.5523 10.283 20.4799 10.2632 20.4104C10.2442 20.2255 10.2643 20.0388 10.3222 19.8617C10.3802 19.6847 10.4747 19.521 10.6 19.381C10.7751 19.1759 10.8997 18.9345 10.9643 18.6752C11.0289 18.4159 11.0318 18.1457 10.9726 17.8852C10.8745 17.1322 10.2652 15.9875 9.47367 15.8192ZM16.1376 12.3379C16.379 12.2496 15.9203 13.4446 16.5589 14.1391C17.2514 14.8921 17.7862 15.2404 17.6397 16.1577C17.4897 17.1001 15.9617 18.1452 15.8603 17.9068C15.8407 17.8267 15.838 17.7436 15.8523 17.6625C15.8472 17.4498 15.7917 17.2411 15.6898 17.053C15.588 16.8648 15.4428 16.7022 15.2655 16.5781C15.0163 16.3933 14.8203 16.1488 14.6966 15.8683C14.5729 15.5879 14.5258 15.2811 14.5597 14.9776C14.5666 14.1109 15.1601 12.6955 16.1376 12.3383V12.3379Z" fill="#FCEA2B"/>
<path d="M5.42969 10.5944C5.46778 9.10996 5.90115 7.66251 6.68512 6.40136C6.83461 8.43159 7.79467 8.50794 8.34563 8.50794C8.75674 8.50794 9.27033 7.74199 9.32418 6.89565C9.43915 5.91629 9.9019 5.01074 10.6282 4.3438C10.731 4.39508 10.8441 4.42229 10.959 4.42337C11.4211 4.42337 12.1662 3.99136 11.5549 0.755127C11.5549 0.755127 16.0968 3.3974 15.9261 7.77293C15.9269 7.84813 15.9425 7.92244 15.9721 7.99159C16.0017 8.06075 16.0445 8.12341 16.0983 8.17599C16.1521 8.22857 16.2157 8.27004 16.2855 8.29804C16.3553 8.32604 16.4299 8.34001 16.5051 8.33916H16.5124C16.5401 8.34048 16.5679 8.34021 16.5956 8.33836C16.8518 8.32063 17.1005 8.24439 17.3227 8.11551C17.5449 7.98663 17.7345 7.80853 17.8771 7.5949C18.3536 8.41137 18.5944 9.34394 18.5727 10.289" stroke="black" stroke-width="0.8" stroke-linecap="round" stroke-linejoin="round"/>
<path d="M10.5896 19.454C10.7645 19.2439 10.8889 18.9965 10.9534 18.7308C11.0179 18.4652 11.0208 18.1883 10.9617 17.9213C10.8637 17.1497 10.2552 15.9763 9.46477 15.8043C9.26947 15.7617 9.7501 16.7583 9.33256 17.4732C8.88006 18.2488 8.50592 18.6387 8.7165 19.4348C8.9327 20.2526 10.2211 20.9558 10.2733 20.728C10.2798 20.6543 10.273 20.5802 10.2532 20.5089C10.2343 20.3195 10.2543 20.1281 10.3122 19.9467C10.37 19.7652 10.4645 19.5976 10.5896 19.454M16.1197 12.2369C16.3608 12.1465 15.9027 13.371 16.5404 14.0827C17.2321 14.8543 17.7661 15.2111 17.6199 16.1511C17.47 17.1168 15.9441 18.1878 15.8428 17.9434C15.8233 17.8614 15.8205 17.7762 15.8348 17.6931C15.8298 17.4751 15.7743 17.2613 15.6726 17.0685C15.5709 16.8757 15.4258 16.7091 15.2488 16.5819C14.9999 16.3925 14.8042 16.142 14.6807 15.8546C14.5572 15.5673 14.5101 15.2528 14.544 14.9419C14.5508 14.0538 15.1436 12.6034 16.1197 12.2373V12.2369Z" stroke="black" stroke-width="0.8" stroke-miterlimit="10"/>
</svg>
